%FSLAX45Y45*%
G04 Gerber Fmt 4.5, Leading zero omitted, Abs format (unit mm)*
G04 Created by KiCad (PCBNEW (6.0.5)) date 2023-11-13 22:28:01*
%MOMM*%
%LPD*%
G01*
G04 APERTURE LIST*
%TA.AperFunction,Profile*%
%ADD10C,0.150000*%
%TD*%
%ADD11C,0.200000*%
%ADD12C,0.040000*%
%ADD13C,0.080000*%
%ADD14C,0.100000*%
%ADD15C,0.130000*%
G04 APERTURE END LIST*
D10*
X10495280Y-8816340D02*
X17272000Y-8816340D01*
X17272000Y-8816340D02*
X17272000Y-12913360D01*
X17272000Y-12913360D02*
X10495280Y-12913360D01*
X10495280Y-12913360D02*
X10495280Y-8816340D01*
D11*
D12*
X10975640Y-12454650D02*
X11015640Y-12494650D01*
X11015640Y-12454650D02*
X10975640Y-12494650D01*
X11220510Y-9227400D02*
X11260510Y-9267400D01*
X11260510Y-9227400D02*
X11220510Y-9267400D01*
X11596360Y-12122830D02*
X11636360Y-12162830D01*
X11636360Y-12122830D02*
X11596360Y-12162830D01*
X11996940Y-11670580D02*
X12036940Y-11710580D01*
X12036940Y-11670580D02*
X11996940Y-11710580D01*
X12794570Y-9929870D02*
X12834570Y-9969870D01*
X12834570Y-9929870D02*
X12794570Y-9969870D01*
X12930350Y-10466660D02*
X12970350Y-10506660D01*
X12970350Y-10466660D02*
X12930350Y-10506660D01*
X13616110Y-9420360D02*
X13656110Y-9460360D01*
X13656110Y-9420360D02*
X13616110Y-9460360D01*
X14340700Y-12051580D02*
X14380700Y-12091580D01*
X14380700Y-12051580D02*
X14340700Y-12091580D01*
X14418400Y-12415850D02*
X14458400Y-12455850D01*
X14458400Y-12415850D02*
X14418400Y-12455850D01*
D13*
X10708000Y-9029700D02*
G75*
G03*
X10708000Y-9029700I-40000J0D01*
G01*
X10708000Y-9283700D02*
G75*
G03*
X10708000Y-9283700I-40000J0D01*
G01*
X10708000Y-9537700D02*
G75*
G03*
X10708000Y-9537700I-40000J0D01*
G01*
X10708000Y-9791700D02*
G75*
G03*
X10708000Y-9791700I-40000J0D01*
G01*
X10708000Y-10045700D02*
G75*
G03*
X10708000Y-10045700I-40000J0D01*
G01*
X10708000Y-10299700D02*
G75*
G03*
X10708000Y-10299700I-40000J0D01*
G01*
X10708000Y-10553700D02*
G75*
G03*
X10708000Y-10553700I-40000J0D01*
G01*
X10708000Y-10807700D02*
G75*
G03*
X10708000Y-10807700I-40000J0D01*
G01*
X10708000Y-11061700D02*
G75*
G03*
X10708000Y-11061700I-40000J0D01*
G01*
X10708000Y-11315700D02*
G75*
G03*
X10708000Y-11315700I-40000J0D01*
G01*
X10708000Y-11569700D02*
G75*
G03*
X10708000Y-11569700I-40000J0D01*
G01*
X10708000Y-11823700D02*
G75*
G03*
X10708000Y-11823700I-40000J0D01*
G01*
X10708000Y-12077700D02*
G75*
G03*
X10708000Y-12077700I-40000J0D01*
G01*
X10708000Y-12331700D02*
G75*
G03*
X10708000Y-12331700I-40000J0D01*
G01*
X11069180Y-9023580D02*
G75*
G03*
X11069180Y-9023580I-40000J0D01*
G01*
X11069180Y-9277580D02*
G75*
G03*
X11069180Y-9277580I-40000J0D01*
G01*
X11069180Y-9531580D02*
G75*
G03*
X11069180Y-9531580I-40000J0D01*
G01*
X11069180Y-9785580D02*
G75*
G03*
X11069180Y-9785580I-40000J0D01*
G01*
X11069180Y-10039580D02*
G75*
G03*
X11069180Y-10039580I-40000J0D01*
G01*
X11069180Y-10293580D02*
G75*
G03*
X11069180Y-10293580I-40000J0D01*
G01*
X11069180Y-10547580D02*
G75*
G03*
X11069180Y-10547580I-40000J0D01*
G01*
X11069180Y-10801580D02*
G75*
G03*
X11069180Y-10801580I-40000J0D01*
G01*
X11069180Y-11055580D02*
G75*
G03*
X11069180Y-11055580I-40000J0D01*
G01*
X11069180Y-11309580D02*
G75*
G03*
X11069180Y-11309580I-40000J0D01*
G01*
X11069180Y-11563580D02*
G75*
G03*
X11069180Y-11563580I-40000J0D01*
G01*
X11069180Y-11817580D02*
G75*
G03*
X11069180Y-11817580I-40000J0D01*
G01*
X11069180Y-12071580D02*
G75*
G03*
X11069180Y-12071580I-40000J0D01*
G01*
X11069180Y-12325580D02*
G75*
G03*
X11069180Y-12325580I-40000J0D01*
G01*
X12232000Y-9029700D02*
G75*
G03*
X12232000Y-9029700I-40000J0D01*
G01*
X12232000Y-9283700D02*
G75*
G03*
X12232000Y-9283700I-40000J0D01*
G01*
X12232000Y-9537700D02*
G75*
G03*
X12232000Y-9537700I-40000J0D01*
G01*
X12232000Y-9791700D02*
G75*
G03*
X12232000Y-9791700I-40000J0D01*
G01*
X12232000Y-10045700D02*
G75*
G03*
X12232000Y-10045700I-40000J0D01*
G01*
X12232000Y-10299700D02*
G75*
G03*
X12232000Y-10299700I-40000J0D01*
G01*
X12232000Y-10553700D02*
G75*
G03*
X12232000Y-10553700I-40000J0D01*
G01*
X12232000Y-10807700D02*
G75*
G03*
X12232000Y-10807700I-40000J0D01*
G01*
X12232000Y-11061700D02*
G75*
G03*
X12232000Y-11061700I-40000J0D01*
G01*
X12232000Y-11315700D02*
G75*
G03*
X12232000Y-11315700I-40000J0D01*
G01*
X12232000Y-11569700D02*
G75*
G03*
X12232000Y-11569700I-40000J0D01*
G01*
X12232000Y-11823700D02*
G75*
G03*
X12232000Y-11823700I-40000J0D01*
G01*
X12232000Y-12077700D02*
G75*
G03*
X12232000Y-12077700I-40000J0D01*
G01*
X12232000Y-12331700D02*
G75*
G03*
X12232000Y-12331700I-40000J0D01*
G01*
X12593180Y-9023580D02*
G75*
G03*
X12593180Y-9023580I-40000J0D01*
G01*
X12593180Y-9277580D02*
G75*
G03*
X12593180Y-9277580I-40000J0D01*
G01*
X12593180Y-9531580D02*
G75*
G03*
X12593180Y-9531580I-40000J0D01*
G01*
X12593180Y-9785580D02*
G75*
G03*
X12593180Y-9785580I-40000J0D01*
G01*
X12593180Y-10039580D02*
G75*
G03*
X12593180Y-10039580I-40000J0D01*
G01*
X12593180Y-10293580D02*
G75*
G03*
X12593180Y-10293580I-40000J0D01*
G01*
X12593180Y-10547580D02*
G75*
G03*
X12593180Y-10547580I-40000J0D01*
G01*
X12593180Y-10801580D02*
G75*
G03*
X12593180Y-10801580I-40000J0D01*
G01*
X12593180Y-11055580D02*
G75*
G03*
X12593180Y-11055580I-40000J0D01*
G01*
X12593180Y-11309580D02*
G75*
G03*
X12593180Y-11309580I-40000J0D01*
G01*
X12593180Y-11563580D02*
G75*
G03*
X12593180Y-11563580I-40000J0D01*
G01*
X12593180Y-11817580D02*
G75*
G03*
X12593180Y-11817580I-40000J0D01*
G01*
X12593180Y-12071580D02*
G75*
G03*
X12593180Y-12071580I-40000J0D01*
G01*
X12593180Y-12325580D02*
G75*
G03*
X12593180Y-12325580I-40000J0D01*
G01*
X12945740Y-9306560D02*
G75*
G03*
X12945740Y-9306560I-40000J0D01*
G01*
X12945740Y-10322560D02*
G75*
G03*
X12945740Y-10322560I-40000J0D01*
G01*
X12945740Y-11870880D02*
G75*
G03*
X12945740Y-11870880I-40000J0D01*
G01*
X12945740Y-12370880D02*
G75*
G03*
X12945740Y-12370880I-40000J0D01*
G01*
X13275940Y-9309100D02*
G75*
G03*
X13275940Y-9309100I-40000J0D01*
G01*
X13275940Y-10325100D02*
G75*
G03*
X13275940Y-10325100I-40000J0D01*
G01*
X13291180Y-10566400D02*
G75*
G03*
X13291180Y-10566400I-40000J0D01*
G01*
X13291180Y-11582400D02*
G75*
G03*
X13291180Y-11582400I-40000J0D01*
G01*
X13611220Y-9311100D02*
G75*
G03*
X13611220Y-9311100I-40000J0D01*
G01*
X13611220Y-10327100D02*
G75*
G03*
X13611220Y-10327100I-40000J0D01*
G01*
X13611220Y-10566400D02*
G75*
G03*
X13611220Y-10566400I-40000J0D01*
G01*
X13611220Y-11582400D02*
G75*
G03*
X13611220Y-11582400I-40000J0D01*
G01*
X14759300Y-11870880D02*
G75*
G03*
X14759300Y-11870880I-40000J0D01*
G01*
X14759300Y-12370880D02*
G75*
G03*
X14759300Y-12370880I-40000J0D01*
G01*
X15128100Y-9023580D02*
G75*
G03*
X15128100Y-9023580I-40000J0D01*
G01*
X15128100Y-9277580D02*
G75*
G03*
X15128100Y-9277580I-40000J0D01*
G01*
X15128100Y-9531580D02*
G75*
G03*
X15128100Y-9531580I-40000J0D01*
G01*
X15128100Y-9785580D02*
G75*
G03*
X15128100Y-9785580I-40000J0D01*
G01*
X15128100Y-10039580D02*
G75*
G03*
X15128100Y-10039580I-40000J0D01*
G01*
X15128100Y-10293580D02*
G75*
G03*
X15128100Y-10293580I-40000J0D01*
G01*
X15128100Y-10547580D02*
G75*
G03*
X15128100Y-10547580I-40000J0D01*
G01*
X15128100Y-10801580D02*
G75*
G03*
X15128100Y-10801580I-40000J0D01*
G01*
X15128100Y-11055580D02*
G75*
G03*
X15128100Y-11055580I-40000J0D01*
G01*
X15128100Y-11309580D02*
G75*
G03*
X15128100Y-11309580I-40000J0D01*
G01*
X15128100Y-11563580D02*
G75*
G03*
X15128100Y-11563580I-40000J0D01*
G01*
X15128100Y-11817580D02*
G75*
G03*
X15128100Y-11817580I-40000J0D01*
G01*
X15128100Y-12071580D02*
G75*
G03*
X15128100Y-12071580I-40000J0D01*
G01*
X15128100Y-12325580D02*
G75*
G03*
X15128100Y-12325580I-40000J0D01*
G01*
X16652100Y-9023580D02*
G75*
G03*
X16652100Y-9023580I-40000J0D01*
G01*
X16652100Y-9277580D02*
G75*
G03*
X16652100Y-9277580I-40000J0D01*
G01*
X16652100Y-9531580D02*
G75*
G03*
X16652100Y-9531580I-40000J0D01*
G01*
X16652100Y-9785580D02*
G75*
G03*
X16652100Y-9785580I-40000J0D01*
G01*
X16652100Y-10039580D02*
G75*
G03*
X16652100Y-10039580I-40000J0D01*
G01*
X16652100Y-10293580D02*
G75*
G03*
X16652100Y-10293580I-40000J0D01*
G01*
X16652100Y-10547580D02*
G75*
G03*
X16652100Y-10547580I-40000J0D01*
G01*
X16652100Y-10801580D02*
G75*
G03*
X16652100Y-10801580I-40000J0D01*
G01*
X16652100Y-11055580D02*
G75*
G03*
X16652100Y-11055580I-40000J0D01*
G01*
X16652100Y-11309580D02*
G75*
G03*
X16652100Y-11309580I-40000J0D01*
G01*
X16652100Y-11563580D02*
G75*
G03*
X16652100Y-11563580I-40000J0D01*
G01*
X16652100Y-11817580D02*
G75*
G03*
X16652100Y-11817580I-40000J0D01*
G01*
X16652100Y-12071580D02*
G75*
G03*
X16652100Y-12071580I-40000J0D01*
G01*
X16652100Y-12325580D02*
G75*
G03*
X16652100Y-12325580I-40000J0D01*
G01*
X17037680Y-11112880D02*
G75*
G03*
X17037680Y-11112880I-40000J0D01*
G01*
X17037680Y-11612880D02*
G75*
G03*
X17037680Y-11612880I-40000J0D01*
G01*
X17037680Y-11882500D02*
G75*
G03*
X17037680Y-11882500I-40000J0D01*
G01*
X17037680Y-12382500D02*
G75*
G03*
X17037680Y-12382500I-40000J0D01*
G01*
D14*
X10711180Y-12609360D02*
X10711180Y-12709360D01*
X10661180Y-12659360D02*
X10761180Y-12659360D01*
X10965180Y-12609360D02*
X10965180Y-12709360D01*
X10915180Y-12659360D02*
X11015180Y-12659360D01*
X11219180Y-12609360D02*
X11219180Y-12709360D01*
X11169180Y-12659360D02*
X11269180Y-12659360D01*
X12019280Y-12609360D02*
X12019280Y-12709360D01*
X11969280Y-12659360D02*
X12069280Y-12659360D01*
X12273280Y-12609360D02*
X12273280Y-12709360D01*
X12223280Y-12659360D02*
X12323280Y-12659360D01*
X12527280Y-12609360D02*
X12527280Y-12709360D01*
X12477280Y-12659360D02*
X12577280Y-12659360D01*
X14391140Y-12609360D02*
X14391140Y-12709360D01*
X14341140Y-12659360D02*
X14441140Y-12659360D01*
X14645140Y-12609360D02*
X14645140Y-12709360D01*
X14595140Y-12659360D02*
X14695140Y-12659360D01*
X15138400Y-12609360D02*
X15138400Y-12709360D01*
X15088400Y-12659360D02*
X15188400Y-12659360D01*
X15392400Y-12609360D02*
X15392400Y-12709360D01*
X15342400Y-12659360D02*
X15442400Y-12659360D01*
X15646400Y-12609360D02*
X15646400Y-12709360D01*
X15596400Y-12659360D02*
X15696400Y-12659360D01*
X16027400Y-12609360D02*
X16027400Y-12709360D01*
X15977400Y-12659360D02*
X16077400Y-12659360D01*
X16281400Y-12609360D02*
X16281400Y-12709360D01*
X16231400Y-12659360D02*
X16331400Y-12659360D01*
X16535400Y-12609360D02*
X16535400Y-12709360D01*
X16485400Y-12659360D02*
X16585400Y-12659360D01*
D15*
X13428182Y-12595322D02*
X13428182Y-12503398D01*
X13336258Y-12503398D01*
X13336258Y-12595322D01*
X13428182Y-12595322D01*
X13678182Y-12095322D02*
X13678182Y-12003398D01*
X13586258Y-12003398D01*
X13586258Y-12095322D01*
X13678182Y-12095322D01*
X13928182Y-12595322D02*
X13928182Y-12503398D01*
X13836258Y-12503398D01*
X13836258Y-12595322D01*
X13928182Y-12595322D01*
X14120102Y-9202662D02*
X14120102Y-9110738D01*
X14028178Y-9110738D01*
X14028178Y-9202662D01*
X14120102Y-9202662D01*
X14370102Y-9702662D02*
X14370102Y-9610738D01*
X14278178Y-9610738D01*
X14278178Y-9702662D01*
X14370102Y-9702662D01*
X14620102Y-9202662D02*
X14620102Y-9110738D01*
X14528178Y-9110738D01*
X14528178Y-9202662D01*
X14620102Y-9202662D01*
D11*
X10745399Y-13231336D02*
X10745399Y-13031336D01*
X10793018Y-13031336D01*
X10821590Y-13040860D01*
X10840637Y-13059908D01*
X10850161Y-13078955D01*
X10859685Y-13117050D01*
X10859685Y-13145622D01*
X10850161Y-13183717D01*
X10840637Y-13202765D01*
X10821590Y-13221812D01*
X10793018Y-13231336D01*
X10745399Y-13231336D01*
X10945399Y-13231336D02*
X10945399Y-13098003D01*
X10945399Y-13136098D02*
X10954923Y-13117050D01*
X10964447Y-13107527D01*
X10983494Y-13098003D01*
X11002542Y-13098003D01*
X11069209Y-13231336D02*
X11069209Y-13098003D01*
X11069209Y-13031336D02*
X11059685Y-13040860D01*
X11069209Y-13050384D01*
X11078732Y-13040860D01*
X11069209Y-13031336D01*
X11069209Y-13050384D01*
X11193018Y-13231336D02*
X11173970Y-13221812D01*
X11164447Y-13202765D01*
X11164447Y-13031336D01*
X11297780Y-13231336D02*
X11278732Y-13221812D01*
X11269208Y-13202765D01*
X11269208Y-13031336D01*
X11526351Y-13231336D02*
X11526351Y-13031336D01*
X11593018Y-13174193D01*
X11659685Y-13031336D01*
X11659685Y-13231336D01*
X11840637Y-13231336D02*
X11840637Y-13126574D01*
X11831113Y-13107527D01*
X11812066Y-13098003D01*
X11773970Y-13098003D01*
X11754923Y-13107527D01*
X11840637Y-13221812D02*
X11821589Y-13231336D01*
X11773970Y-13231336D01*
X11754923Y-13221812D01*
X11745399Y-13202765D01*
X11745399Y-13183717D01*
X11754923Y-13164669D01*
X11773970Y-13155146D01*
X11821589Y-13155146D01*
X11840637Y-13145622D01*
X11935875Y-13098003D02*
X11935875Y-13298003D01*
X11935875Y-13107527D02*
X11954923Y-13098003D01*
X11993018Y-13098003D01*
X12012066Y-13107527D01*
X12021589Y-13117050D01*
X12031113Y-13136098D01*
X12031113Y-13193241D01*
X12021589Y-13212288D01*
X12012066Y-13221812D01*
X11993018Y-13231336D01*
X11954923Y-13231336D01*
X11935875Y-13221812D01*
X12116828Y-13212288D02*
X12126351Y-13221812D01*
X12116828Y-13231336D01*
X12107304Y-13221812D01*
X12116828Y-13212288D01*
X12116828Y-13231336D01*
X12116828Y-13107527D02*
X12126351Y-13117050D01*
X12116828Y-13126574D01*
X12107304Y-13117050D01*
X12116828Y-13107527D01*
X12116828Y-13126574D01*
D12*
X10447780Y-13540860D02*
X10487780Y-13580860D01*
X10487780Y-13540860D02*
X10447780Y-13580860D01*
D11*
X10783494Y-13451336D02*
X10802542Y-13451336D01*
X10821590Y-13460860D01*
X10831113Y-13470384D01*
X10840637Y-13489431D01*
X10850161Y-13527527D01*
X10850161Y-13575146D01*
X10840637Y-13613241D01*
X10831113Y-13632288D01*
X10821590Y-13641812D01*
X10802542Y-13651336D01*
X10783494Y-13651336D01*
X10764447Y-13641812D01*
X10754923Y-13632288D01*
X10745399Y-13613241D01*
X10735875Y-13575146D01*
X10735875Y-13527527D01*
X10745399Y-13489431D01*
X10754923Y-13470384D01*
X10764447Y-13460860D01*
X10783494Y-13451336D01*
X10935875Y-13632288D02*
X10945399Y-13641812D01*
X10935875Y-13651336D01*
X10926351Y-13641812D01*
X10935875Y-13632288D01*
X10935875Y-13651336D01*
X11116828Y-13518003D02*
X11116828Y-13651336D01*
X11069209Y-13441812D02*
X11021590Y-13584669D01*
X11145399Y-13584669D01*
X11259685Y-13451336D02*
X11278732Y-13451336D01*
X11297780Y-13460860D01*
X11307304Y-13470384D01*
X11316828Y-13489431D01*
X11326351Y-13527527D01*
X11326351Y-13575146D01*
X11316828Y-13613241D01*
X11307304Y-13632288D01*
X11297780Y-13641812D01*
X11278732Y-13651336D01*
X11259685Y-13651336D01*
X11240637Y-13641812D01*
X11231113Y-13632288D01*
X11221589Y-13613241D01*
X11212066Y-13575146D01*
X11212066Y-13527527D01*
X11221589Y-13489431D01*
X11231113Y-13470384D01*
X11240637Y-13460860D01*
X11259685Y-13451336D01*
X11450161Y-13451336D02*
X11469208Y-13451336D01*
X11488256Y-13460860D01*
X11497780Y-13470384D01*
X11507304Y-13489431D01*
X11516828Y-13527527D01*
X11516828Y-13575146D01*
X11507304Y-13613241D01*
X11497780Y-13632288D01*
X11488256Y-13641812D01*
X11469208Y-13651336D01*
X11450161Y-13651336D01*
X11431113Y-13641812D01*
X11421589Y-13632288D01*
X11412066Y-13613241D01*
X11402542Y-13575146D01*
X11402542Y-13527527D01*
X11412066Y-13489431D01*
X11421589Y-13470384D01*
X11431113Y-13460860D01*
X11450161Y-13451336D01*
X11602542Y-13651336D02*
X11602542Y-13518003D01*
X11602542Y-13537050D02*
X11612066Y-13527527D01*
X11631113Y-13518003D01*
X11659685Y-13518003D01*
X11678732Y-13527527D01*
X11688256Y-13546574D01*
X11688256Y-13651336D01*
X11688256Y-13546574D02*
X11697780Y-13527527D01*
X11716828Y-13518003D01*
X11745399Y-13518003D01*
X11764447Y-13527527D01*
X11773970Y-13546574D01*
X11773970Y-13651336D01*
X11869208Y-13651336D02*
X11869208Y-13518003D01*
X11869208Y-13537050D02*
X11878732Y-13527527D01*
X11897780Y-13518003D01*
X11926351Y-13518003D01*
X11945399Y-13527527D01*
X11954923Y-13546574D01*
X11954923Y-13651336D01*
X11954923Y-13546574D02*
X11964447Y-13527527D01*
X11983494Y-13518003D01*
X12012066Y-13518003D01*
X12031113Y-13527527D01*
X12040637Y-13546574D01*
X12040637Y-13651336D01*
X12431113Y-13441812D02*
X12259685Y-13698955D01*
X12688256Y-13451336D02*
X12707304Y-13451336D01*
X12726351Y-13460860D01*
X12735875Y-13470384D01*
X12745399Y-13489431D01*
X12754923Y-13527527D01*
X12754923Y-13575146D01*
X12745399Y-13613241D01*
X12735875Y-13632288D01*
X12726351Y-13641812D01*
X12707304Y-13651336D01*
X12688256Y-13651336D01*
X12669208Y-13641812D01*
X12659685Y-13632288D01*
X12650161Y-13613241D01*
X12640637Y-13575146D01*
X12640637Y-13527527D01*
X12650161Y-13489431D01*
X12659685Y-13470384D01*
X12669208Y-13460860D01*
X12688256Y-13451336D01*
X12840637Y-13632288D02*
X12850161Y-13641812D01*
X12840637Y-13651336D01*
X12831113Y-13641812D01*
X12840637Y-13632288D01*
X12840637Y-13651336D01*
X12973970Y-13451336D02*
X12993018Y-13451336D01*
X13012066Y-13460860D01*
X13021589Y-13470384D01*
X13031113Y-13489431D01*
X13040637Y-13527527D01*
X13040637Y-13575146D01*
X13031113Y-13613241D01*
X13021589Y-13632288D01*
X13012066Y-13641812D01*
X12993018Y-13651336D01*
X12973970Y-13651336D01*
X12954923Y-13641812D01*
X12945399Y-13632288D01*
X12935875Y-13613241D01*
X12926351Y-13575146D01*
X12926351Y-13527527D01*
X12935875Y-13489431D01*
X12945399Y-13470384D01*
X12954923Y-13460860D01*
X12973970Y-13451336D01*
X13231113Y-13651336D02*
X13116828Y-13651336D01*
X13173970Y-13651336D02*
X13173970Y-13451336D01*
X13154923Y-13479908D01*
X13135875Y-13498955D01*
X13116828Y-13508479D01*
X13412066Y-13451336D02*
X13316828Y-13451336D01*
X13307304Y-13546574D01*
X13316828Y-13537050D01*
X13335875Y-13527527D01*
X13383494Y-13527527D01*
X13402542Y-13537050D01*
X13412066Y-13546574D01*
X13421589Y-13565622D01*
X13421589Y-13613241D01*
X13412066Y-13632288D01*
X13402542Y-13641812D01*
X13383494Y-13651336D01*
X13335875Y-13651336D01*
X13316828Y-13641812D01*
X13307304Y-13632288D01*
X13488256Y-13451336D02*
X13621589Y-13451336D01*
X13535875Y-13651336D01*
X13688256Y-13451336D02*
X13688256Y-13489431D01*
X13764447Y-13451336D02*
X13764447Y-13489431D01*
X14059685Y-13727527D02*
X14050161Y-13718003D01*
X14031113Y-13689431D01*
X14021589Y-13670384D01*
X14012066Y-13641812D01*
X14002542Y-13594193D01*
X14002542Y-13556098D01*
X14012066Y-13508479D01*
X14021589Y-13479908D01*
X14031113Y-13460860D01*
X14050161Y-13432288D01*
X14059685Y-13422765D01*
X14145399Y-13651336D02*
X14183494Y-13651336D01*
X14202542Y-13641812D01*
X14212066Y-13632288D01*
X14231113Y-13603717D01*
X14240637Y-13565622D01*
X14240637Y-13489431D01*
X14231113Y-13470384D01*
X14221589Y-13460860D01*
X14202542Y-13451336D01*
X14164447Y-13451336D01*
X14145399Y-13460860D01*
X14135875Y-13470384D01*
X14126351Y-13489431D01*
X14126351Y-13537050D01*
X14135875Y-13556098D01*
X14145399Y-13565622D01*
X14164447Y-13575146D01*
X14202542Y-13575146D01*
X14221589Y-13565622D01*
X14231113Y-13556098D01*
X14240637Y-13537050D01*
X14478732Y-13651336D02*
X14478732Y-13451336D01*
X14564447Y-13651336D02*
X14564447Y-13546574D01*
X14554923Y-13527527D01*
X14535875Y-13518003D01*
X14507304Y-13518003D01*
X14488256Y-13527527D01*
X14478732Y-13537050D01*
X14688256Y-13651336D02*
X14669208Y-13641812D01*
X14659685Y-13632288D01*
X14650161Y-13613241D01*
X14650161Y-13556098D01*
X14659685Y-13537050D01*
X14669208Y-13527527D01*
X14688256Y-13518003D01*
X14716828Y-13518003D01*
X14735875Y-13527527D01*
X14745399Y-13537050D01*
X14754923Y-13556098D01*
X14754923Y-13613241D01*
X14745399Y-13632288D01*
X14735875Y-13641812D01*
X14716828Y-13651336D01*
X14688256Y-13651336D01*
X14869208Y-13651336D02*
X14850161Y-13641812D01*
X14840637Y-13622765D01*
X14840637Y-13451336D01*
X15021589Y-13641812D02*
X15002542Y-13651336D01*
X14964447Y-13651336D01*
X14945399Y-13641812D01*
X14935875Y-13622765D01*
X14935875Y-13546574D01*
X14945399Y-13527527D01*
X14964447Y-13518003D01*
X15002542Y-13518003D01*
X15021589Y-13527527D01*
X15031113Y-13546574D01*
X15031113Y-13565622D01*
X14935875Y-13584669D01*
X15107304Y-13641812D02*
X15126351Y-13651336D01*
X15164447Y-13651336D01*
X15183494Y-13641812D01*
X15193018Y-13622765D01*
X15193018Y-13613241D01*
X15183494Y-13594193D01*
X15164447Y-13584669D01*
X15135875Y-13584669D01*
X15116828Y-13575146D01*
X15107304Y-13556098D01*
X15107304Y-13546574D01*
X15116828Y-13527527D01*
X15135875Y-13518003D01*
X15164447Y-13518003D01*
X15183494Y-13527527D01*
X15259685Y-13727527D02*
X15269208Y-13718003D01*
X15288256Y-13689431D01*
X15297780Y-13670384D01*
X15307304Y-13641812D01*
X15316828Y-13594193D01*
X15316828Y-13556098D01*
X15307304Y-13508479D01*
X15297780Y-13479908D01*
X15288256Y-13460860D01*
X15269208Y-13432288D01*
X15259685Y-13422765D01*
D13*
X10487780Y-13824860D02*
G75*
G03*
X10487780Y-13824860I-40000J0D01*
G01*
D11*
X10783494Y-13715336D02*
X10802542Y-13715336D01*
X10821590Y-13724860D01*
X10831113Y-13734384D01*
X10840637Y-13753431D01*
X10850161Y-13791527D01*
X10850161Y-13839146D01*
X10840637Y-13877241D01*
X10831113Y-13896288D01*
X10821590Y-13905812D01*
X10802542Y-13915336D01*
X10783494Y-13915336D01*
X10764447Y-13905812D01*
X10754923Y-13896288D01*
X10745399Y-13877241D01*
X10735875Y-13839146D01*
X10735875Y-13791527D01*
X10745399Y-13753431D01*
X10754923Y-13734384D01*
X10764447Y-13724860D01*
X10783494Y-13715336D01*
X10935875Y-13896288D02*
X10945399Y-13905812D01*
X10935875Y-13915336D01*
X10926351Y-13905812D01*
X10935875Y-13896288D01*
X10935875Y-13915336D01*
X11059685Y-13801050D02*
X11040637Y-13791527D01*
X11031113Y-13782003D01*
X11021590Y-13762955D01*
X11021590Y-13753431D01*
X11031113Y-13734384D01*
X11040637Y-13724860D01*
X11059685Y-13715336D01*
X11097780Y-13715336D01*
X11116828Y-13724860D01*
X11126351Y-13734384D01*
X11135875Y-13753431D01*
X11135875Y-13762955D01*
X11126351Y-13782003D01*
X11116828Y-13791527D01*
X11097780Y-13801050D01*
X11059685Y-13801050D01*
X11040637Y-13810574D01*
X11031113Y-13820098D01*
X11021590Y-13839146D01*
X11021590Y-13877241D01*
X11031113Y-13896288D01*
X11040637Y-13905812D01*
X11059685Y-13915336D01*
X11097780Y-13915336D01*
X11116828Y-13905812D01*
X11126351Y-13896288D01*
X11135875Y-13877241D01*
X11135875Y-13839146D01*
X11126351Y-13820098D01*
X11116828Y-13810574D01*
X11097780Y-13801050D01*
X11259685Y-13715336D02*
X11278732Y-13715336D01*
X11297780Y-13724860D01*
X11307304Y-13734384D01*
X11316828Y-13753431D01*
X11326351Y-13791527D01*
X11326351Y-13839146D01*
X11316828Y-13877241D01*
X11307304Y-13896288D01*
X11297780Y-13905812D01*
X11278732Y-13915336D01*
X11259685Y-13915336D01*
X11240637Y-13905812D01*
X11231113Y-13896288D01*
X11221589Y-13877241D01*
X11212066Y-13839146D01*
X11212066Y-13791527D01*
X11221589Y-13753431D01*
X11231113Y-13734384D01*
X11240637Y-13724860D01*
X11259685Y-13715336D01*
X11450161Y-13715336D02*
X11469208Y-13715336D01*
X11488256Y-13724860D01*
X11497780Y-13734384D01*
X11507304Y-13753431D01*
X11516828Y-13791527D01*
X11516828Y-13839146D01*
X11507304Y-13877241D01*
X11497780Y-13896288D01*
X11488256Y-13905812D01*
X11469208Y-13915336D01*
X11450161Y-13915336D01*
X11431113Y-13905812D01*
X11421589Y-13896288D01*
X11412066Y-13877241D01*
X11402542Y-13839146D01*
X11402542Y-13791527D01*
X11412066Y-13753431D01*
X11421589Y-13734384D01*
X11431113Y-13724860D01*
X11450161Y-13715336D01*
X11602542Y-13915336D02*
X11602542Y-13782003D01*
X11602542Y-13801050D02*
X11612066Y-13791527D01*
X11631113Y-13782003D01*
X11659685Y-13782003D01*
X11678732Y-13791527D01*
X11688256Y-13810574D01*
X11688256Y-13915336D01*
X11688256Y-13810574D02*
X11697780Y-13791527D01*
X11716828Y-13782003D01*
X11745399Y-13782003D01*
X11764447Y-13791527D01*
X11773970Y-13810574D01*
X11773970Y-13915336D01*
X11869208Y-13915336D02*
X11869208Y-13782003D01*
X11869208Y-13801050D02*
X11878732Y-13791527D01*
X11897780Y-13782003D01*
X11926351Y-13782003D01*
X11945399Y-13791527D01*
X11954923Y-13810574D01*
X11954923Y-13915336D01*
X11954923Y-13810574D02*
X11964447Y-13791527D01*
X11983494Y-13782003D01*
X12012066Y-13782003D01*
X12031113Y-13791527D01*
X12040637Y-13810574D01*
X12040637Y-13915336D01*
X12431113Y-13705812D02*
X12259685Y-13962955D01*
X12688256Y-13715336D02*
X12707304Y-13715336D01*
X12726351Y-13724860D01*
X12735875Y-13734384D01*
X12745399Y-13753431D01*
X12754923Y-13791527D01*
X12754923Y-13839146D01*
X12745399Y-13877241D01*
X12735875Y-13896288D01*
X12726351Y-13905812D01*
X12707304Y-13915336D01*
X12688256Y-13915336D01*
X12669208Y-13905812D01*
X12659685Y-13896288D01*
X12650161Y-13877241D01*
X12640637Y-13839146D01*
X12640637Y-13791527D01*
X12650161Y-13753431D01*
X12659685Y-13734384D01*
X12669208Y-13724860D01*
X12688256Y-13715336D01*
X12840637Y-13896288D02*
X12850161Y-13905812D01*
X12840637Y-13915336D01*
X12831113Y-13905812D01*
X12840637Y-13896288D01*
X12840637Y-13915336D01*
X12973970Y-13715336D02*
X12993018Y-13715336D01*
X13012066Y-13724860D01*
X13021589Y-13734384D01*
X13031113Y-13753431D01*
X13040637Y-13791527D01*
X13040637Y-13839146D01*
X13031113Y-13877241D01*
X13021589Y-13896288D01*
X13012066Y-13905812D01*
X12993018Y-13915336D01*
X12973970Y-13915336D01*
X12954923Y-13905812D01*
X12945399Y-13896288D01*
X12935875Y-13877241D01*
X12926351Y-13839146D01*
X12926351Y-13791527D01*
X12935875Y-13753431D01*
X12945399Y-13734384D01*
X12954923Y-13724860D01*
X12973970Y-13715336D01*
X13107304Y-13715336D02*
X13231113Y-13715336D01*
X13164447Y-13791527D01*
X13193018Y-13791527D01*
X13212066Y-13801050D01*
X13221589Y-13810574D01*
X13231113Y-13829622D01*
X13231113Y-13877241D01*
X13221589Y-13896288D01*
X13212066Y-13905812D01*
X13193018Y-13915336D01*
X13135875Y-13915336D01*
X13116828Y-13905812D01*
X13107304Y-13896288D01*
X13421589Y-13915336D02*
X13307304Y-13915336D01*
X13364447Y-13915336D02*
X13364447Y-13715336D01*
X13345399Y-13743908D01*
X13326351Y-13762955D01*
X13307304Y-13772479D01*
X13602542Y-13715336D02*
X13507304Y-13715336D01*
X13497780Y-13810574D01*
X13507304Y-13801050D01*
X13526351Y-13791527D01*
X13573970Y-13791527D01*
X13593018Y-13801050D01*
X13602542Y-13810574D01*
X13612066Y-13829622D01*
X13612066Y-13877241D01*
X13602542Y-13896288D01*
X13593018Y-13905812D01*
X13573970Y-13915336D01*
X13526351Y-13915336D01*
X13507304Y-13905812D01*
X13497780Y-13896288D01*
X13688256Y-13715336D02*
X13688256Y-13753431D01*
X13764447Y-13715336D02*
X13764447Y-13753431D01*
X14059685Y-13991527D02*
X14050161Y-13982003D01*
X14031113Y-13953431D01*
X14021589Y-13934384D01*
X14012066Y-13905812D01*
X14002542Y-13858193D01*
X14002542Y-13820098D01*
X14012066Y-13772479D01*
X14021589Y-13743908D01*
X14031113Y-13724860D01*
X14050161Y-13696288D01*
X14059685Y-13686765D01*
X14240637Y-13915336D02*
X14126351Y-13915336D01*
X14183494Y-13915336D02*
X14183494Y-13715336D01*
X14164447Y-13743908D01*
X14145399Y-13762955D01*
X14126351Y-13772479D01*
X14364447Y-13715336D02*
X14383494Y-13715336D01*
X14402542Y-13724860D01*
X14412066Y-13734384D01*
X14421589Y-13753431D01*
X14431113Y-13791527D01*
X14431113Y-13839146D01*
X14421589Y-13877241D01*
X14412066Y-13896288D01*
X14402542Y-13905812D01*
X14383494Y-13915336D01*
X14364447Y-13915336D01*
X14345399Y-13905812D01*
X14335875Y-13896288D01*
X14326351Y-13877241D01*
X14316828Y-13839146D01*
X14316828Y-13791527D01*
X14326351Y-13753431D01*
X14335875Y-13734384D01*
X14345399Y-13724860D01*
X14364447Y-13715336D01*
X14507304Y-13734384D02*
X14516828Y-13724860D01*
X14535875Y-13715336D01*
X14583494Y-13715336D01*
X14602542Y-13724860D01*
X14612066Y-13734384D01*
X14621589Y-13753431D01*
X14621589Y-13772479D01*
X14612066Y-13801050D01*
X14497780Y-13915336D01*
X14621589Y-13915336D01*
X14859685Y-13915336D02*
X14859685Y-13715336D01*
X14945399Y-13915336D02*
X14945399Y-13810574D01*
X14935875Y-13791527D01*
X14916828Y-13782003D01*
X14888256Y-13782003D01*
X14869208Y-13791527D01*
X14859685Y-13801050D01*
X15069208Y-13915336D02*
X15050161Y-13905812D01*
X15040637Y-13896288D01*
X15031113Y-13877241D01*
X15031113Y-13820098D01*
X15040637Y-13801050D01*
X15050161Y-13791527D01*
X15069208Y-13782003D01*
X15097780Y-13782003D01*
X15116828Y-13791527D01*
X15126351Y-13801050D01*
X15135875Y-13820098D01*
X15135875Y-13877241D01*
X15126351Y-13896288D01*
X15116828Y-13905812D01*
X15097780Y-13915336D01*
X15069208Y-13915336D01*
X15250161Y-13915336D02*
X15231113Y-13905812D01*
X15221589Y-13886765D01*
X15221589Y-13715336D01*
X15402542Y-13905812D02*
X15383494Y-13915336D01*
X15345399Y-13915336D01*
X15326351Y-13905812D01*
X15316828Y-13886765D01*
X15316828Y-13810574D01*
X15326351Y-13791527D01*
X15345399Y-13782003D01*
X15383494Y-13782003D01*
X15402542Y-13791527D01*
X15412066Y-13810574D01*
X15412066Y-13829622D01*
X15316828Y-13848669D01*
X15488256Y-13905812D02*
X15507304Y-13915336D01*
X15545399Y-13915336D01*
X15564447Y-13905812D01*
X15573970Y-13886765D01*
X15573970Y-13877241D01*
X15564447Y-13858193D01*
X15545399Y-13848669D01*
X15516828Y-13848669D01*
X15497780Y-13839146D01*
X15488256Y-13820098D01*
X15488256Y-13810574D01*
X15497780Y-13791527D01*
X15516828Y-13782003D01*
X15545399Y-13782003D01*
X15564447Y-13791527D01*
X15640637Y-13991527D02*
X15650161Y-13982003D01*
X15669208Y-13953431D01*
X15678732Y-13934384D01*
X15688256Y-13905812D01*
X15697780Y-13858193D01*
X15697780Y-13820098D01*
X15688256Y-13772479D01*
X15678732Y-13743908D01*
X15669208Y-13724860D01*
X15650161Y-13696288D01*
X15640637Y-13686765D01*
D14*
X10437780Y-14038860D02*
X10437780Y-14138860D01*
X10387780Y-14088860D02*
X10487780Y-14088860D01*
D11*
X10850161Y-14179336D02*
X10735875Y-14179336D01*
X10793018Y-14179336D02*
X10793018Y-13979336D01*
X10773970Y-14007908D01*
X10754923Y-14026955D01*
X10735875Y-14036479D01*
X10935875Y-14160288D02*
X10945399Y-14169812D01*
X10935875Y-14179336D01*
X10926351Y-14169812D01*
X10935875Y-14160288D01*
X10935875Y-14179336D01*
X11069209Y-13979336D02*
X11088256Y-13979336D01*
X11107304Y-13988860D01*
X11116828Y-13998384D01*
X11126351Y-14017431D01*
X11135875Y-14055527D01*
X11135875Y-14103146D01*
X11126351Y-14141241D01*
X11116828Y-14160288D01*
X11107304Y-14169812D01*
X11088256Y-14179336D01*
X11069209Y-14179336D01*
X11050161Y-14169812D01*
X11040637Y-14160288D01*
X11031113Y-14141241D01*
X11021590Y-14103146D01*
X11021590Y-14055527D01*
X11031113Y-14017431D01*
X11040637Y-13998384D01*
X11050161Y-13988860D01*
X11069209Y-13979336D01*
X11259685Y-13979336D02*
X11278732Y-13979336D01*
X11297780Y-13988860D01*
X11307304Y-13998384D01*
X11316828Y-14017431D01*
X11326351Y-14055527D01*
X11326351Y-14103146D01*
X11316828Y-14141241D01*
X11307304Y-14160288D01*
X11297780Y-14169812D01*
X11278732Y-14179336D01*
X11259685Y-14179336D01*
X11240637Y-14169812D01*
X11231113Y-14160288D01*
X11221589Y-14141241D01*
X11212066Y-14103146D01*
X11212066Y-14055527D01*
X11221589Y-14017431D01*
X11231113Y-13998384D01*
X11240637Y-13988860D01*
X11259685Y-13979336D01*
X11450161Y-13979336D02*
X11469208Y-13979336D01*
X11488256Y-13988860D01*
X11497780Y-13998384D01*
X11507304Y-14017431D01*
X11516828Y-14055527D01*
X11516828Y-14103146D01*
X11507304Y-14141241D01*
X11497780Y-14160288D01*
X11488256Y-14169812D01*
X11469208Y-14179336D01*
X11450161Y-14179336D01*
X11431113Y-14169812D01*
X11421589Y-14160288D01*
X11412066Y-14141241D01*
X11402542Y-14103146D01*
X11402542Y-14055527D01*
X11412066Y-14017431D01*
X11421589Y-13998384D01*
X11431113Y-13988860D01*
X11450161Y-13979336D01*
X11602542Y-14179336D02*
X11602542Y-14046003D01*
X11602542Y-14065050D02*
X11612066Y-14055527D01*
X11631113Y-14046003D01*
X11659685Y-14046003D01*
X11678732Y-14055527D01*
X11688256Y-14074574D01*
X11688256Y-14179336D01*
X11688256Y-14074574D02*
X11697780Y-14055527D01*
X11716828Y-14046003D01*
X11745399Y-14046003D01*
X11764447Y-14055527D01*
X11773970Y-14074574D01*
X11773970Y-14179336D01*
X11869208Y-14179336D02*
X11869208Y-14046003D01*
X11869208Y-14065050D02*
X11878732Y-14055527D01*
X11897780Y-14046003D01*
X11926351Y-14046003D01*
X11945399Y-14055527D01*
X11954923Y-14074574D01*
X11954923Y-14179336D01*
X11954923Y-14074574D02*
X11964447Y-14055527D01*
X11983494Y-14046003D01*
X12012066Y-14046003D01*
X12031113Y-14055527D01*
X12040637Y-14074574D01*
X12040637Y-14179336D01*
X12431113Y-13969812D02*
X12259685Y-14226955D01*
X12688256Y-13979336D02*
X12707304Y-13979336D01*
X12726351Y-13988860D01*
X12735875Y-13998384D01*
X12745399Y-14017431D01*
X12754923Y-14055527D01*
X12754923Y-14103146D01*
X12745399Y-14141241D01*
X12735875Y-14160288D01*
X12726351Y-14169812D01*
X12707304Y-14179336D01*
X12688256Y-14179336D01*
X12669208Y-14169812D01*
X12659685Y-14160288D01*
X12650161Y-14141241D01*
X12640637Y-14103146D01*
X12640637Y-14055527D01*
X12650161Y-14017431D01*
X12659685Y-13998384D01*
X12669208Y-13988860D01*
X12688256Y-13979336D01*
X12840637Y-14160288D02*
X12850161Y-14169812D01*
X12840637Y-14179336D01*
X12831113Y-14169812D01*
X12840637Y-14160288D01*
X12840637Y-14179336D01*
X12973970Y-13979336D02*
X12993018Y-13979336D01*
X13012066Y-13988860D01*
X13021589Y-13998384D01*
X13031113Y-14017431D01*
X13040637Y-14055527D01*
X13040637Y-14103146D01*
X13031113Y-14141241D01*
X13021589Y-14160288D01*
X13012066Y-14169812D01*
X12993018Y-14179336D01*
X12973970Y-14179336D01*
X12954923Y-14169812D01*
X12945399Y-14160288D01*
X12935875Y-14141241D01*
X12926351Y-14103146D01*
X12926351Y-14055527D01*
X12935875Y-14017431D01*
X12945399Y-13998384D01*
X12954923Y-13988860D01*
X12973970Y-13979336D01*
X13107304Y-13979336D02*
X13231113Y-13979336D01*
X13164447Y-14055527D01*
X13193018Y-14055527D01*
X13212066Y-14065050D01*
X13221589Y-14074574D01*
X13231113Y-14093622D01*
X13231113Y-14141241D01*
X13221589Y-14160288D01*
X13212066Y-14169812D01*
X13193018Y-14179336D01*
X13135875Y-14179336D01*
X13116828Y-14169812D01*
X13107304Y-14160288D01*
X13326351Y-14179336D02*
X13364447Y-14179336D01*
X13383494Y-14169812D01*
X13393018Y-14160288D01*
X13412066Y-14131717D01*
X13421589Y-14093622D01*
X13421589Y-14017431D01*
X13412066Y-13998384D01*
X13402542Y-13988860D01*
X13383494Y-13979336D01*
X13345399Y-13979336D01*
X13326351Y-13988860D01*
X13316828Y-13998384D01*
X13307304Y-14017431D01*
X13307304Y-14065050D01*
X13316828Y-14084098D01*
X13326351Y-14093622D01*
X13345399Y-14103146D01*
X13383494Y-14103146D01*
X13402542Y-14093622D01*
X13412066Y-14084098D01*
X13421589Y-14065050D01*
X13593018Y-14046003D02*
X13593018Y-14179336D01*
X13545399Y-13969812D02*
X13497780Y-14112669D01*
X13621589Y-14112669D01*
X13688256Y-13979336D02*
X13688256Y-14017431D01*
X13764447Y-13979336D02*
X13764447Y-14017431D01*
X14059685Y-14255527D02*
X14050161Y-14246003D01*
X14031113Y-14217431D01*
X14021589Y-14198384D01*
X14012066Y-14169812D01*
X14002542Y-14122193D01*
X14002542Y-14084098D01*
X14012066Y-14036479D01*
X14021589Y-14007908D01*
X14031113Y-13988860D01*
X14050161Y-13960288D01*
X14059685Y-13950765D01*
X14240637Y-14179336D02*
X14126351Y-14179336D01*
X14183494Y-14179336D02*
X14183494Y-13979336D01*
X14164447Y-14007908D01*
X14145399Y-14026955D01*
X14126351Y-14036479D01*
X14412066Y-14046003D02*
X14412066Y-14179336D01*
X14364447Y-13969812D02*
X14316828Y-14112669D01*
X14440637Y-14112669D01*
X14669208Y-14179336D02*
X14669208Y-13979336D01*
X14754923Y-14179336D02*
X14754923Y-14074574D01*
X14745399Y-14055527D01*
X14726351Y-14046003D01*
X14697780Y-14046003D01*
X14678732Y-14055527D01*
X14669208Y-14065050D01*
X14878732Y-14179336D02*
X14859685Y-14169812D01*
X14850161Y-14160288D01*
X14840637Y-14141241D01*
X14840637Y-14084098D01*
X14850161Y-14065050D01*
X14859685Y-14055527D01*
X14878732Y-14046003D01*
X14907304Y-14046003D01*
X14926351Y-14055527D01*
X14935875Y-14065050D01*
X14945399Y-14084098D01*
X14945399Y-14141241D01*
X14935875Y-14160288D01*
X14926351Y-14169812D01*
X14907304Y-14179336D01*
X14878732Y-14179336D01*
X15059685Y-14179336D02*
X15040637Y-14169812D01*
X15031113Y-14150765D01*
X15031113Y-13979336D01*
X15212066Y-14169812D02*
X15193018Y-14179336D01*
X15154923Y-14179336D01*
X15135875Y-14169812D01*
X15126351Y-14150765D01*
X15126351Y-14074574D01*
X15135875Y-14055527D01*
X15154923Y-14046003D01*
X15193018Y-14046003D01*
X15212066Y-14055527D01*
X15221589Y-14074574D01*
X15221589Y-14093622D01*
X15126351Y-14112669D01*
X15297780Y-14169812D02*
X15316828Y-14179336D01*
X15354923Y-14179336D01*
X15373970Y-14169812D01*
X15383494Y-14150765D01*
X15383494Y-14141241D01*
X15373970Y-14122193D01*
X15354923Y-14112669D01*
X15326351Y-14112669D01*
X15307304Y-14103146D01*
X15297780Y-14084098D01*
X15297780Y-14074574D01*
X15307304Y-14055527D01*
X15326351Y-14046003D01*
X15354923Y-14046003D01*
X15373970Y-14055527D01*
X15450161Y-14255527D02*
X15459685Y-14246003D01*
X15478732Y-14217431D01*
X15488256Y-14198384D01*
X15497780Y-14169812D01*
X15507304Y-14122193D01*
X15507304Y-14084098D01*
X15497780Y-14036479D01*
X15488256Y-14007908D01*
X15478732Y-13988860D01*
X15459685Y-13960288D01*
X15450161Y-13950765D01*
D15*
X10468742Y-14398822D02*
X10468742Y-14306898D01*
X10376818Y-14306898D01*
X10376818Y-14398822D01*
X10468742Y-14398822D01*
D11*
X10850161Y-14443336D02*
X10735875Y-14443336D01*
X10793018Y-14443336D02*
X10793018Y-14243336D01*
X10773970Y-14271908D01*
X10754923Y-14290955D01*
X10735875Y-14300479D01*
X10935875Y-14424288D02*
X10945399Y-14433812D01*
X10935875Y-14443336D01*
X10926351Y-14433812D01*
X10935875Y-14424288D01*
X10935875Y-14443336D01*
X11012066Y-14243336D02*
X11135875Y-14243336D01*
X11069209Y-14319527D01*
X11097780Y-14319527D01*
X11116828Y-14329050D01*
X11126351Y-14338574D01*
X11135875Y-14357622D01*
X11135875Y-14405241D01*
X11126351Y-14424288D01*
X11116828Y-14433812D01*
X11097780Y-14443336D01*
X11040637Y-14443336D01*
X11021590Y-14433812D01*
X11012066Y-14424288D01*
X11259685Y-14243336D02*
X11278732Y-14243336D01*
X11297780Y-14252860D01*
X11307304Y-14262384D01*
X11316828Y-14281431D01*
X11326351Y-14319527D01*
X11326351Y-14367146D01*
X11316828Y-14405241D01*
X11307304Y-14424288D01*
X11297780Y-14433812D01*
X11278732Y-14443336D01*
X11259685Y-14443336D01*
X11240637Y-14433812D01*
X11231113Y-14424288D01*
X11221589Y-14405241D01*
X11212066Y-14367146D01*
X11212066Y-14319527D01*
X11221589Y-14281431D01*
X11231113Y-14262384D01*
X11240637Y-14252860D01*
X11259685Y-14243336D01*
X11450161Y-14243336D02*
X11469208Y-14243336D01*
X11488256Y-14252860D01*
X11497780Y-14262384D01*
X11507304Y-14281431D01*
X11516828Y-14319527D01*
X11516828Y-14367146D01*
X11507304Y-14405241D01*
X11497780Y-14424288D01*
X11488256Y-14433812D01*
X11469208Y-14443336D01*
X11450161Y-14443336D01*
X11431113Y-14433812D01*
X11421589Y-14424288D01*
X11412066Y-14405241D01*
X11402542Y-14367146D01*
X11402542Y-14319527D01*
X11412066Y-14281431D01*
X11421589Y-14262384D01*
X11431113Y-14252860D01*
X11450161Y-14243336D01*
X11602542Y-14443336D02*
X11602542Y-14310003D01*
X11602542Y-14329050D02*
X11612066Y-14319527D01*
X11631113Y-14310003D01*
X11659685Y-14310003D01*
X11678732Y-14319527D01*
X11688256Y-14338574D01*
X11688256Y-14443336D01*
X11688256Y-14338574D02*
X11697780Y-14319527D01*
X11716828Y-14310003D01*
X11745399Y-14310003D01*
X11764447Y-14319527D01*
X11773970Y-14338574D01*
X11773970Y-14443336D01*
X11869208Y-14443336D02*
X11869208Y-14310003D01*
X11869208Y-14329050D02*
X11878732Y-14319527D01*
X11897780Y-14310003D01*
X11926351Y-14310003D01*
X11945399Y-14319527D01*
X11954923Y-14338574D01*
X11954923Y-14443336D01*
X11954923Y-14338574D02*
X11964447Y-14319527D01*
X11983494Y-14310003D01*
X12012066Y-14310003D01*
X12031113Y-14319527D01*
X12040637Y-14338574D01*
X12040637Y-14443336D01*
X12431113Y-14233812D02*
X12259685Y-14490955D01*
X12688256Y-14243336D02*
X12707304Y-14243336D01*
X12726351Y-14252860D01*
X12735875Y-14262384D01*
X12745399Y-14281431D01*
X12754923Y-14319527D01*
X12754923Y-14367146D01*
X12745399Y-14405241D01*
X12735875Y-14424288D01*
X12726351Y-14433812D01*
X12707304Y-14443336D01*
X12688256Y-14443336D01*
X12669208Y-14433812D01*
X12659685Y-14424288D01*
X12650161Y-14405241D01*
X12640637Y-14367146D01*
X12640637Y-14319527D01*
X12650161Y-14281431D01*
X12659685Y-14262384D01*
X12669208Y-14252860D01*
X12688256Y-14243336D01*
X12840637Y-14424288D02*
X12850161Y-14433812D01*
X12840637Y-14443336D01*
X12831113Y-14433812D01*
X12840637Y-14424288D01*
X12840637Y-14443336D01*
X12973970Y-14243336D02*
X12993018Y-14243336D01*
X13012066Y-14252860D01*
X13021589Y-14262384D01*
X13031113Y-14281431D01*
X13040637Y-14319527D01*
X13040637Y-14367146D01*
X13031113Y-14405241D01*
X13021589Y-14424288D01*
X13012066Y-14433812D01*
X12993018Y-14443336D01*
X12973970Y-14443336D01*
X12954923Y-14433812D01*
X12945399Y-14424288D01*
X12935875Y-14405241D01*
X12926351Y-14367146D01*
X12926351Y-14319527D01*
X12935875Y-14281431D01*
X12945399Y-14262384D01*
X12954923Y-14252860D01*
X12973970Y-14243336D01*
X13221589Y-14243336D02*
X13126351Y-14243336D01*
X13116828Y-14338574D01*
X13126351Y-14329050D01*
X13145399Y-14319527D01*
X13193018Y-14319527D01*
X13212066Y-14329050D01*
X13221589Y-14338574D01*
X13231113Y-14357622D01*
X13231113Y-14405241D01*
X13221589Y-14424288D01*
X13212066Y-14433812D01*
X13193018Y-14443336D01*
X13145399Y-14443336D01*
X13126351Y-14433812D01*
X13116828Y-14424288D01*
X13421589Y-14443336D02*
X13307304Y-14443336D01*
X13364447Y-14443336D02*
X13364447Y-14243336D01*
X13345399Y-14271908D01*
X13326351Y-14290955D01*
X13307304Y-14300479D01*
X13497780Y-14262384D02*
X13507304Y-14252860D01*
X13526351Y-14243336D01*
X13573970Y-14243336D01*
X13593018Y-14252860D01*
X13602542Y-14262384D01*
X13612066Y-14281431D01*
X13612066Y-14300479D01*
X13602542Y-14329050D01*
X13488256Y-14443336D01*
X13612066Y-14443336D01*
X13688256Y-14243336D02*
X13688256Y-14281431D01*
X13764447Y-14243336D02*
X13764447Y-14281431D01*
X14059685Y-14519527D02*
X14050161Y-14510003D01*
X14031113Y-14481431D01*
X14021589Y-14462384D01*
X14012066Y-14433812D01*
X14002542Y-14386193D01*
X14002542Y-14348098D01*
X14012066Y-14300479D01*
X14021589Y-14271908D01*
X14031113Y-14252860D01*
X14050161Y-14224288D01*
X14059685Y-14214765D01*
X14221589Y-14243336D02*
X14183494Y-14243336D01*
X14164447Y-14252860D01*
X14154923Y-14262384D01*
X14135875Y-14290955D01*
X14126351Y-14329050D01*
X14126351Y-14405241D01*
X14135875Y-14424288D01*
X14145399Y-14433812D01*
X14164447Y-14443336D01*
X14202542Y-14443336D01*
X14221589Y-14433812D01*
X14231113Y-14424288D01*
X14240637Y-14405241D01*
X14240637Y-14357622D01*
X14231113Y-14338574D01*
X14221589Y-14329050D01*
X14202542Y-14319527D01*
X14164447Y-14319527D01*
X14145399Y-14329050D01*
X14135875Y-14338574D01*
X14126351Y-14357622D01*
X14478732Y-14443336D02*
X14478732Y-14243336D01*
X14564447Y-14443336D02*
X14564447Y-14338574D01*
X14554923Y-14319527D01*
X14535875Y-14310003D01*
X14507304Y-14310003D01*
X14488256Y-14319527D01*
X14478732Y-14329050D01*
X14688256Y-14443336D02*
X14669208Y-14433812D01*
X14659685Y-14424288D01*
X14650161Y-14405241D01*
X14650161Y-14348098D01*
X14659685Y-14329050D01*
X14669208Y-14319527D01*
X14688256Y-14310003D01*
X14716828Y-14310003D01*
X14735875Y-14319527D01*
X14745399Y-14329050D01*
X14754923Y-14348098D01*
X14754923Y-14405241D01*
X14745399Y-14424288D01*
X14735875Y-14433812D01*
X14716828Y-14443336D01*
X14688256Y-14443336D01*
X14869208Y-14443336D02*
X14850161Y-14433812D01*
X14840637Y-14414765D01*
X14840637Y-14243336D01*
X15021589Y-14433812D02*
X15002542Y-14443336D01*
X14964447Y-14443336D01*
X14945399Y-14433812D01*
X14935875Y-14414765D01*
X14935875Y-14338574D01*
X14945399Y-14319527D01*
X14964447Y-14310003D01*
X15002542Y-14310003D01*
X15021589Y-14319527D01*
X15031113Y-14338574D01*
X15031113Y-14357622D01*
X14935875Y-14376669D01*
X15107304Y-14433812D02*
X15126351Y-14443336D01*
X15164447Y-14443336D01*
X15183494Y-14433812D01*
X15193018Y-14414765D01*
X15193018Y-14405241D01*
X15183494Y-14386193D01*
X15164447Y-14376669D01*
X15135875Y-14376669D01*
X15116828Y-14367146D01*
X15107304Y-14348098D01*
X15107304Y-14338574D01*
X15116828Y-14319527D01*
X15135875Y-14310003D01*
X15164447Y-14310003D01*
X15183494Y-14319527D01*
X15259685Y-14519527D02*
X15269208Y-14510003D01*
X15288256Y-14481431D01*
X15297780Y-14462384D01*
X15307304Y-14433812D01*
X15316828Y-14386193D01*
X15316828Y-14348098D01*
X15307304Y-14300479D01*
X15297780Y-14271908D01*
X15288256Y-14252860D01*
X15269208Y-14224288D01*
X15259685Y-14214765D01*
M02*
