G04 #@! TF.GenerationSoftware,KiCad,Pcbnew,(6.0.5)*
G04 #@! TF.CreationDate,2023-10-24T22:29:54+02:00*
G04 #@! TF.ProjectId,C128DCR Dual SID,43313238-4443-4522-9044-75616c205349,D*
G04 #@! TF.SameCoordinates,Original*
G04 #@! TF.FileFunction,Legend,Bot*
G04 #@! TF.FilePolarity,Positive*
%FSLAX46Y46*%
G04 Gerber Fmt 4.6, Leading zero omitted, Abs format (unit mm)*
G04 Created by KiCad (PCBNEW (6.0.5)) date 2023-10-24 22:29:54*
%MOMM*%
%LPD*%
G01*
G04 APERTURE LIST*
%ADD10C,0.150000*%
%ADD11C,0.300000*%
%ADD12C,0.100000*%
%ADD13R,1.600000X1.600000*%
%ADD14O,1.600000X1.600000*%
%ADD15C,1.600000*%
%ADD16R,1.700000X1.700000*%
%ADD17O,1.700000X1.700000*%
%ADD18C,2.340000*%
%ADD19C,2.500000*%
G04 APERTURE END LIST*
D10*
X152952428Y-123754609D02*
X152304809Y-123754609D01*
X152228619Y-123792704D01*
X152190523Y-123830800D01*
X152152428Y-123906990D01*
X152152428Y-124021276D01*
X152190523Y-124097466D01*
X152457190Y-123754609D02*
X152419095Y-123830800D01*
X152419095Y-123983180D01*
X152457190Y-124059371D01*
X152495285Y-124097466D01*
X152571476Y-124135561D01*
X152800047Y-124135561D01*
X152876238Y-124097466D01*
X152914333Y-124059371D01*
X152952428Y-123983180D01*
X152952428Y-123830800D01*
X152914333Y-123754609D01*
X152419095Y-123373657D02*
X152952428Y-123373657D01*
X153219095Y-123373657D02*
X153181000Y-123411752D01*
X153142904Y-123373657D01*
X153181000Y-123335561D01*
X153219095Y-123373657D01*
X153142904Y-123373657D01*
X152952428Y-123106990D02*
X152952428Y-122802228D01*
X153219095Y-122992704D02*
X152533380Y-122992704D01*
X152457190Y-122954609D01*
X152419095Y-122878419D01*
X152419095Y-122802228D01*
X152419095Y-122535561D02*
X153219095Y-122535561D01*
X152419095Y-122192704D02*
X152838142Y-122192704D01*
X152914333Y-122230800D01*
X152952428Y-122306990D01*
X152952428Y-122421276D01*
X152914333Y-122497466D01*
X152876238Y-122535561D01*
X152952428Y-121468895D02*
X152419095Y-121468895D01*
X152952428Y-121811752D02*
X152533380Y-121811752D01*
X152457190Y-121773657D01*
X152419095Y-121697466D01*
X152419095Y-121583180D01*
X152457190Y-121506990D01*
X152495285Y-121468895D01*
X152419095Y-121087942D02*
X153219095Y-121087942D01*
X152914333Y-121087942D02*
X152952428Y-121011752D01*
X152952428Y-120859371D01*
X152914333Y-120783180D01*
X152876238Y-120745085D01*
X152800047Y-120706990D01*
X152571476Y-120706990D01*
X152495285Y-120745085D01*
X152457190Y-120783180D01*
X152419095Y-120859371D01*
X152419095Y-121011752D01*
X152457190Y-121087942D01*
X152495285Y-120364133D02*
X152457190Y-120326038D01*
X152419095Y-120364133D01*
X152457190Y-120402228D01*
X152495285Y-120364133D01*
X152419095Y-120364133D01*
X152457190Y-119640323D02*
X152419095Y-119716514D01*
X152419095Y-119868895D01*
X152457190Y-119945085D01*
X152495285Y-119983180D01*
X152571476Y-120021276D01*
X152800047Y-120021276D01*
X152876238Y-119983180D01*
X152914333Y-119945085D01*
X152952428Y-119868895D01*
X152952428Y-119716514D01*
X152914333Y-119640323D01*
X152419095Y-119183180D02*
X152457190Y-119259371D01*
X152495285Y-119297466D01*
X152571476Y-119335561D01*
X152800047Y-119335561D01*
X152876238Y-119297466D01*
X152914333Y-119259371D01*
X152952428Y-119183180D01*
X152952428Y-119068895D01*
X152914333Y-118992704D01*
X152876238Y-118954609D01*
X152800047Y-118916514D01*
X152571476Y-118916514D01*
X152495285Y-118954609D01*
X152457190Y-118992704D01*
X152419095Y-119068895D01*
X152419095Y-119183180D01*
X152419095Y-118573657D02*
X152952428Y-118573657D01*
X152876238Y-118573657D02*
X152914333Y-118535561D01*
X152952428Y-118459371D01*
X152952428Y-118345085D01*
X152914333Y-118268895D01*
X152838142Y-118230800D01*
X152419095Y-118230800D01*
X152838142Y-118230800D02*
X152914333Y-118192704D01*
X152952428Y-118116514D01*
X152952428Y-118002228D01*
X152914333Y-117926038D01*
X152838142Y-117887942D01*
X152419095Y-117887942D01*
X153257190Y-116935561D02*
X152228619Y-117621276D01*
X152952428Y-116783180D02*
X152952428Y-116478419D01*
X153219095Y-116668895D02*
X152533380Y-116668895D01*
X152457190Y-116630800D01*
X152419095Y-116554609D01*
X152419095Y-116478419D01*
X152457190Y-115906990D02*
X152419095Y-115983180D01*
X152419095Y-116135561D01*
X152457190Y-116211752D01*
X152533380Y-116249847D01*
X152838142Y-116249847D01*
X152914333Y-116211752D01*
X152952428Y-116135561D01*
X152952428Y-115983180D01*
X152914333Y-115906990D01*
X152838142Y-115868895D01*
X152761952Y-115868895D01*
X152685761Y-116249847D01*
X152419095Y-115526038D02*
X153219095Y-115526038D01*
X152914333Y-115526038D02*
X152952428Y-115449847D01*
X152952428Y-115297466D01*
X152914333Y-115221276D01*
X152876238Y-115183180D01*
X152800047Y-115145085D01*
X152571476Y-115145085D01*
X152495285Y-115183180D01*
X152457190Y-115221276D01*
X152419095Y-115297466D01*
X152419095Y-115449847D01*
X152457190Y-115526038D01*
X152419095Y-114687942D02*
X152457190Y-114764133D01*
X152533380Y-114802228D01*
X153219095Y-114802228D01*
D11*
X113529371Y-101684771D02*
X115029371Y-102041914D01*
X113957942Y-102327628D01*
X115029371Y-102613342D01*
X113529371Y-102970485D01*
X114600800Y-103470485D02*
X114600800Y-104184771D01*
X115029371Y-103327628D02*
X113529371Y-103827628D01*
X115029371Y-104327628D01*
X115029371Y-105684771D02*
X114315085Y-105184771D01*
X115029371Y-104827628D02*
X113529371Y-104827628D01*
X113529371Y-105399057D01*
X113600800Y-105541914D01*
X113672228Y-105613342D01*
X113815085Y-105684771D01*
X114029371Y-105684771D01*
X114172228Y-105613342D01*
X114243657Y-105541914D01*
X114315085Y-105399057D01*
X114315085Y-104827628D01*
X115029371Y-106327628D02*
X113529371Y-106327628D01*
X115029371Y-107184771D01*
X113529371Y-107184771D01*
X115029371Y-107899057D02*
X113529371Y-107899057D01*
X115029371Y-108613342D02*
X113529371Y-108613342D01*
X115029371Y-109470485D01*
X113529371Y-109470485D01*
X113600800Y-110970485D02*
X113529371Y-110827628D01*
X113529371Y-110613342D01*
X113600800Y-110399057D01*
X113743657Y-110256200D01*
X113886514Y-110184771D01*
X114172228Y-110113342D01*
X114386514Y-110113342D01*
X114672228Y-110184771D01*
X114815085Y-110256200D01*
X114957942Y-110399057D01*
X115029371Y-110613342D01*
X115029371Y-110756200D01*
X114957942Y-110970485D01*
X114886514Y-111041914D01*
X114386514Y-111041914D01*
X114386514Y-110756200D01*
X114886514Y-111684771D02*
X114957942Y-111756200D01*
X115029371Y-111684771D01*
X114957942Y-111613342D01*
X114886514Y-111684771D01*
X115029371Y-111684771D01*
X114457942Y-111684771D02*
X113600800Y-111613342D01*
X113529371Y-111684771D01*
X113600800Y-111756200D01*
X114457942Y-111684771D01*
X113529371Y-111684771D01*
D12*
X153734333Y-123552466D02*
X154067666Y-123785800D01*
X153734333Y-123952466D02*
X154434333Y-123952466D01*
X154434333Y-123685800D01*
X154401000Y-123619133D01*
X154367666Y-123585800D01*
X154301000Y-123552466D01*
X154201000Y-123552466D01*
X154134333Y-123585800D01*
X154101000Y-123619133D01*
X154067666Y-123685800D01*
X154067666Y-123952466D01*
X153767666Y-122985800D02*
X153734333Y-123052466D01*
X153734333Y-123185800D01*
X153767666Y-123252466D01*
X153834333Y-123285800D01*
X154101000Y-123285800D01*
X154167666Y-123252466D01*
X154201000Y-123185800D01*
X154201000Y-123052466D01*
X154167666Y-122985800D01*
X154101000Y-122952466D01*
X154034333Y-122952466D01*
X153967666Y-123285800D01*
X154201000Y-122719133D02*
X153734333Y-122552466D01*
X154201000Y-122385800D01*
X153734333Y-122119133D02*
X154201000Y-122119133D01*
X154434333Y-122119133D02*
X154401000Y-122152466D01*
X154367666Y-122119133D01*
X154401000Y-122085800D01*
X154434333Y-122119133D01*
X154367666Y-122119133D01*
X153767666Y-121819133D02*
X153734333Y-121752466D01*
X153734333Y-121619133D01*
X153767666Y-121552466D01*
X153834333Y-121519133D01*
X153867666Y-121519133D01*
X153934333Y-121552466D01*
X153967666Y-121619133D01*
X153967666Y-121719133D01*
X154001000Y-121785800D01*
X154067666Y-121819133D01*
X154101000Y-121819133D01*
X154167666Y-121785800D01*
X154201000Y-121719133D01*
X154201000Y-121619133D01*
X154167666Y-121552466D01*
X153734333Y-121219133D02*
X154201000Y-121219133D01*
X154434333Y-121219133D02*
X154401000Y-121252466D01*
X154367666Y-121219133D01*
X154401000Y-121185800D01*
X154434333Y-121219133D01*
X154367666Y-121219133D01*
X153734333Y-120785800D02*
X153767666Y-120852466D01*
X153801000Y-120885800D01*
X153867666Y-120919133D01*
X154067666Y-120919133D01*
X154134333Y-120885800D01*
X154167666Y-120852466D01*
X154201000Y-120785800D01*
X154201000Y-120685800D01*
X154167666Y-120619133D01*
X154134333Y-120585800D01*
X154067666Y-120552466D01*
X153867666Y-120552466D01*
X153801000Y-120585800D01*
X153767666Y-120619133D01*
X153734333Y-120685800D01*
X153734333Y-120785800D01*
X154201000Y-120252466D02*
X153734333Y-120252466D01*
X154134333Y-120252466D02*
X154167666Y-120219133D01*
X154201000Y-120152466D01*
X154201000Y-120052466D01*
X154167666Y-119985800D01*
X154101000Y-119952466D01*
X153734333Y-119952466D01*
X153734333Y-119085800D02*
X154434333Y-119085800D01*
X154434333Y-118919133D01*
X154401000Y-118819133D01*
X154334333Y-118752466D01*
X154267666Y-118719133D01*
X154134333Y-118685800D01*
X154034333Y-118685800D01*
X153901000Y-118719133D01*
X153834333Y-118752466D01*
X153767666Y-118819133D01*
X153734333Y-118919133D01*
X153734333Y-119085800D01*
D10*
X159498285Y-123765680D02*
X159460190Y-123803776D01*
X159422095Y-123918061D01*
X159422095Y-123994252D01*
X159460190Y-124108538D01*
X159536380Y-124184728D01*
X159612571Y-124222823D01*
X159764952Y-124260919D01*
X159879238Y-124260919D01*
X160031619Y-124222823D01*
X160107809Y-124184728D01*
X160184000Y-124108538D01*
X160222095Y-123994252D01*
X160222095Y-123918061D01*
X160184000Y-123803776D01*
X160145904Y-123765680D01*
X159422095Y-123003776D02*
X159422095Y-123460919D01*
X159422095Y-123232347D02*
X160222095Y-123232347D01*
X160107809Y-123308538D01*
X160031619Y-123384728D01*
X159993523Y-123460919D01*
X160145904Y-122699014D02*
X160184000Y-122660919D01*
X160222095Y-122584728D01*
X160222095Y-122394252D01*
X160184000Y-122318061D01*
X160145904Y-122279966D01*
X160069714Y-122241871D01*
X159993523Y-122241871D01*
X159879238Y-122279966D01*
X159422095Y-122737109D01*
X159422095Y-122241871D01*
X159879238Y-121784728D02*
X159917333Y-121860919D01*
X159955428Y-121899014D01*
X160031619Y-121937109D01*
X160069714Y-121937109D01*
X160145904Y-121899014D01*
X160184000Y-121860919D01*
X160222095Y-121784728D01*
X160222095Y-121632347D01*
X160184000Y-121556157D01*
X160145904Y-121518061D01*
X160069714Y-121479966D01*
X160031619Y-121479966D01*
X159955428Y-121518061D01*
X159917333Y-121556157D01*
X159879238Y-121632347D01*
X159879238Y-121784728D01*
X159841142Y-121860919D01*
X159803047Y-121899014D01*
X159726857Y-121937109D01*
X159574476Y-121937109D01*
X159498285Y-121899014D01*
X159460190Y-121860919D01*
X159422095Y-121784728D01*
X159422095Y-121632347D01*
X159460190Y-121556157D01*
X159498285Y-121518061D01*
X159574476Y-121479966D01*
X159726857Y-121479966D01*
X159803047Y-121518061D01*
X159841142Y-121556157D01*
X159879238Y-121632347D01*
X159422095Y-121137109D02*
X160222095Y-121137109D01*
X160222095Y-120946633D01*
X160184000Y-120832347D01*
X160107809Y-120756157D01*
X160031619Y-120718061D01*
X159879238Y-120679966D01*
X159764952Y-120679966D01*
X159612571Y-120718061D01*
X159536380Y-120756157D01*
X159460190Y-120832347D01*
X159422095Y-120946633D01*
X159422095Y-121137109D01*
X159955428Y-119803776D02*
X159422095Y-119613300D01*
X159955428Y-119422823D01*
X159460190Y-118813300D02*
X159422095Y-118889490D01*
X159422095Y-119041871D01*
X159460190Y-119118061D01*
X159536380Y-119156157D01*
X159841142Y-119156157D01*
X159917333Y-119118061D01*
X159955428Y-119041871D01*
X159955428Y-118889490D01*
X159917333Y-118813300D01*
X159841142Y-118775204D01*
X159764952Y-118775204D01*
X159688761Y-119156157D01*
X159422095Y-118432347D02*
X159955428Y-118432347D01*
X159803047Y-118432347D02*
X159879238Y-118394252D01*
X159917333Y-118356157D01*
X159955428Y-118279966D01*
X159955428Y-118203776D01*
X159460190Y-117975204D02*
X159422095Y-117899014D01*
X159422095Y-117746633D01*
X159460190Y-117670442D01*
X159536380Y-117632347D01*
X159574476Y-117632347D01*
X159650666Y-117670442D01*
X159688761Y-117746633D01*
X159688761Y-117860919D01*
X159726857Y-117937109D01*
X159803047Y-117975204D01*
X159841142Y-117975204D01*
X159917333Y-117937109D01*
X159955428Y-117860919D01*
X159955428Y-117746633D01*
X159917333Y-117670442D01*
X159422095Y-117289490D02*
X159955428Y-117289490D01*
X160222095Y-117289490D02*
X160184000Y-117327585D01*
X160145904Y-117289490D01*
X160184000Y-117251395D01*
X160222095Y-117289490D01*
X160145904Y-117289490D01*
X159422095Y-116794252D02*
X159460190Y-116870442D01*
X159498285Y-116908538D01*
X159574476Y-116946633D01*
X159803047Y-116946633D01*
X159879238Y-116908538D01*
X159917333Y-116870442D01*
X159955428Y-116794252D01*
X159955428Y-116679966D01*
X159917333Y-116603776D01*
X159879238Y-116565680D01*
X159803047Y-116527585D01*
X159574476Y-116527585D01*
X159498285Y-116565680D01*
X159460190Y-116603776D01*
X159422095Y-116679966D01*
X159422095Y-116794252D01*
X159955428Y-116184728D02*
X159422095Y-116184728D01*
X159879238Y-116184728D02*
X159917333Y-116146633D01*
X159955428Y-116070442D01*
X159955428Y-115956157D01*
X159917333Y-115879966D01*
X159841142Y-115841871D01*
X159422095Y-115841871D01*
X159955428Y-114927585D02*
X159422095Y-114737109D01*
X159955428Y-114546633D01*
X159422095Y-113822823D02*
X159422095Y-114279966D01*
X159422095Y-114051395D02*
X160222095Y-114051395D01*
X160107809Y-114127585D01*
X160031619Y-114203776D01*
X159993523Y-114279966D01*
X159498285Y-113479966D02*
X159460190Y-113441871D01*
X159422095Y-113479966D01*
X159460190Y-113518061D01*
X159498285Y-113479966D01*
X159422095Y-113479966D01*
X160222095Y-112946633D02*
X160222095Y-112870442D01*
X160184000Y-112794252D01*
X160145904Y-112756157D01*
X160069714Y-112718061D01*
X159917333Y-112679966D01*
X159726857Y-112679966D01*
X159574476Y-112718061D01*
X159498285Y-112756157D01*
X159460190Y-112794252D01*
X159422095Y-112870442D01*
X159422095Y-112946633D01*
X159460190Y-113022823D01*
X159498285Y-113060919D01*
X159574476Y-113099014D01*
X159726857Y-113137109D01*
X159917333Y-113137109D01*
X160069714Y-113099014D01*
X160145904Y-113060919D01*
X160184000Y-113022823D01*
X160222095Y-112946633D01*
X158134095Y-124222823D02*
X158934095Y-124222823D01*
X158362666Y-123956157D01*
X158934095Y-123689490D01*
X158134095Y-123689490D01*
X158134095Y-122965680D02*
X158553142Y-122965680D01*
X158629333Y-123003776D01*
X158667428Y-123079966D01*
X158667428Y-123232347D01*
X158629333Y-123308538D01*
X158172190Y-122965680D02*
X158134095Y-123041871D01*
X158134095Y-123232347D01*
X158172190Y-123308538D01*
X158248380Y-123346633D01*
X158324571Y-123346633D01*
X158400761Y-123308538D01*
X158438857Y-123232347D01*
X158438857Y-123041871D01*
X158476952Y-122965680D01*
X158172190Y-122241871D02*
X158134095Y-122318061D01*
X158134095Y-122470442D01*
X158172190Y-122546633D01*
X158210285Y-122584728D01*
X158286476Y-122622823D01*
X158515047Y-122622823D01*
X158591238Y-122584728D01*
X158629333Y-122546633D01*
X158667428Y-122470442D01*
X158667428Y-122318061D01*
X158629333Y-122241871D01*
X158134095Y-121899014D02*
X158667428Y-121899014D01*
X158934095Y-121899014D02*
X158896000Y-121937109D01*
X158857904Y-121899014D01*
X158896000Y-121860919D01*
X158934095Y-121899014D01*
X158857904Y-121899014D01*
X158172190Y-121213300D02*
X158134095Y-121289490D01*
X158134095Y-121441871D01*
X158172190Y-121518061D01*
X158248380Y-121556157D01*
X158553142Y-121556157D01*
X158629333Y-121518061D01*
X158667428Y-121441871D01*
X158667428Y-121289490D01*
X158629333Y-121213300D01*
X158553142Y-121175204D01*
X158476952Y-121175204D01*
X158400761Y-121556157D01*
X158667428Y-120832347D02*
X157981714Y-120832347D01*
X157905523Y-120870442D01*
X157867428Y-120946633D01*
X157867428Y-120984728D01*
X158934095Y-120832347D02*
X158896000Y-120870442D01*
X158857904Y-120832347D01*
X158896000Y-120794252D01*
X158934095Y-120832347D01*
X158857904Y-120832347D01*
X158934095Y-119918061D02*
X158134095Y-119727585D01*
X158705523Y-119575204D01*
X158134095Y-119422823D01*
X158934095Y-119232347D01*
X158134095Y-118927585D02*
X158667428Y-118927585D01*
X158934095Y-118927585D02*
X158896000Y-118965680D01*
X158857904Y-118927585D01*
X158896000Y-118889490D01*
X158934095Y-118927585D01*
X158857904Y-118927585D01*
X158667428Y-118660919D02*
X158667428Y-118356157D01*
X158934095Y-118546633D02*
X158248380Y-118546633D01*
X158172190Y-118508538D01*
X158134095Y-118432347D01*
X158134095Y-118356157D01*
X158134095Y-118089490D02*
X158934095Y-118089490D01*
X158438857Y-118013300D02*
X158134095Y-117784728D01*
X158667428Y-117784728D02*
X158362666Y-118089490D01*
X158134095Y-117327585D02*
X158172190Y-117403776D01*
X158210285Y-117441871D01*
X158286476Y-117479966D01*
X158515047Y-117479966D01*
X158591238Y-117441871D01*
X158629333Y-117403776D01*
X158667428Y-117327585D01*
X158667428Y-117213300D01*
X158629333Y-117137109D01*
X158591238Y-117099014D01*
X158515047Y-117060919D01*
X158286476Y-117060919D01*
X158210285Y-117099014D01*
X158172190Y-117137109D01*
X158134095Y-117213300D01*
X158134095Y-117327585D01*
X158667428Y-116794252D02*
X158134095Y-116641871D01*
X158515047Y-116489490D01*
X158134095Y-116337109D01*
X158667428Y-116184728D01*
X158134095Y-115879966D02*
X158667428Y-115879966D01*
X158934095Y-115879966D02*
X158896000Y-115918061D01*
X158857904Y-115879966D01*
X158896000Y-115841871D01*
X158934095Y-115879966D01*
X158857904Y-115879966D01*
X158134095Y-115156157D02*
X158553142Y-115156157D01*
X158629333Y-115194252D01*
X158667428Y-115270442D01*
X158667428Y-115422823D01*
X158629333Y-115499014D01*
X158172190Y-115156157D02*
X158134095Y-115232347D01*
X158134095Y-115422823D01*
X158172190Y-115499014D01*
X158248380Y-115537109D01*
X158324571Y-115537109D01*
X158400761Y-115499014D01*
X158438857Y-115422823D01*
X158438857Y-115232347D01*
X158476952Y-115156157D01*
X158134095Y-114775204D02*
X158934095Y-114775204D01*
X158438857Y-114699014D02*
X158134095Y-114470442D01*
X158667428Y-114470442D02*
X158362666Y-114775204D01*
X158667428Y-112908538D02*
X158438857Y-113518061D01*
X158210285Y-112908538D01*
X158667428Y-112603776D02*
X158134095Y-112413300D01*
X158667428Y-112222823D02*
X158134095Y-112413300D01*
X157943619Y-112489490D01*
X157905523Y-112527585D01*
X157867428Y-112603776D01*
X158667428Y-112032347D02*
X158667428Y-111727585D01*
X158934095Y-111918061D02*
X158248380Y-111918061D01*
X158172190Y-111879966D01*
X158134095Y-111803776D01*
X158134095Y-111727585D01*
X158134095Y-111460919D02*
X158667428Y-111460919D01*
X158591238Y-111460919D02*
X158629333Y-111422823D01*
X158667428Y-111346633D01*
X158667428Y-111232347D01*
X158629333Y-111156157D01*
X158553142Y-111118061D01*
X158134095Y-111118061D01*
X158553142Y-111118061D02*
X158629333Y-111079966D01*
X158667428Y-111003776D01*
X158667428Y-110889490D01*
X158629333Y-110813300D01*
X158553142Y-110775204D01*
X158134095Y-110775204D01*
X158515047Y-109899014D02*
X158553142Y-109937109D01*
X158591238Y-110013300D01*
X158591238Y-110089490D01*
X158553142Y-110165680D01*
X158515047Y-110203776D01*
X158438857Y-110241871D01*
X158362666Y-110241871D01*
X158286476Y-110203776D01*
X158248380Y-110165680D01*
X158210285Y-110089490D01*
X158210285Y-110013300D01*
X158248380Y-109937109D01*
X158286476Y-109899014D01*
X158591238Y-109899014D02*
X158286476Y-109899014D01*
X158248380Y-109860919D01*
X158248380Y-109822823D01*
X158286476Y-109746633D01*
X158362666Y-109708538D01*
X158553142Y-109708538D01*
X158667428Y-109784728D01*
X158743619Y-109899014D01*
X158781714Y-110051395D01*
X158743619Y-110203776D01*
X158667428Y-110318061D01*
X158553142Y-110394252D01*
X158400761Y-110432347D01*
X158248380Y-110394252D01*
X158134095Y-110318061D01*
X158057904Y-110203776D01*
X158019809Y-110051395D01*
X158057904Y-109899014D01*
X158134095Y-109784728D01*
X158172190Y-109060919D02*
X158134095Y-109137109D01*
X158134095Y-109289490D01*
X158172190Y-109365680D01*
X158248380Y-109403776D01*
X158553142Y-109403776D01*
X158629333Y-109365680D01*
X158667428Y-109289490D01*
X158667428Y-109137109D01*
X158629333Y-109060919D01*
X158553142Y-109022823D01*
X158476952Y-109022823D01*
X158400761Y-109403776D01*
X158134095Y-108565680D02*
X158172190Y-108641871D01*
X158248380Y-108679966D01*
X158934095Y-108679966D01*
X158667428Y-108337109D02*
X158134095Y-108146633D01*
X158667428Y-107956157D02*
X158134095Y-108146633D01*
X157943619Y-108222823D01*
X157905523Y-108260919D01*
X157867428Y-108337109D01*
X158172190Y-107689490D02*
X158134095Y-107613300D01*
X158134095Y-107460919D01*
X158172190Y-107384728D01*
X158248380Y-107346633D01*
X158286476Y-107346633D01*
X158362666Y-107384728D01*
X158400761Y-107460919D01*
X158400761Y-107575204D01*
X158438857Y-107651395D01*
X158515047Y-107689490D01*
X158553142Y-107689490D01*
X158629333Y-107651395D01*
X158667428Y-107575204D01*
X158667428Y-107460919D01*
X158629333Y-107384728D01*
X158134095Y-107003776D02*
X158667428Y-107003776D01*
X158934095Y-107003776D02*
X158896000Y-107041871D01*
X158857904Y-107003776D01*
X158896000Y-106965680D01*
X158934095Y-107003776D01*
X158857904Y-107003776D01*
X158667428Y-106279966D02*
X158134095Y-106279966D01*
X158667428Y-106622823D02*
X158248380Y-106622823D01*
X158172190Y-106584728D01*
X158134095Y-106508538D01*
X158134095Y-106394252D01*
X158172190Y-106318061D01*
X158210285Y-106279966D01*
X158134095Y-105899014D02*
X158667428Y-105899014D01*
X158591238Y-105899014D02*
X158629333Y-105860919D01*
X158667428Y-105784728D01*
X158667428Y-105670442D01*
X158629333Y-105594252D01*
X158553142Y-105556157D01*
X158134095Y-105556157D01*
X158553142Y-105556157D02*
X158629333Y-105518061D01*
X158667428Y-105441871D01*
X158667428Y-105327585D01*
X158629333Y-105251395D01*
X158553142Y-105213300D01*
X158134095Y-105213300D01*
X158210285Y-104832347D02*
X158172190Y-104794252D01*
X158134095Y-104832347D01*
X158172190Y-104870442D01*
X158210285Y-104832347D01*
X158134095Y-104832347D01*
X158667428Y-104451395D02*
X157867428Y-104451395D01*
X158629333Y-104451395D02*
X158667428Y-104375204D01*
X158667428Y-104222823D01*
X158629333Y-104146633D01*
X158591238Y-104108538D01*
X158515047Y-104070442D01*
X158286476Y-104070442D01*
X158210285Y-104108538D01*
X158172190Y-104146633D01*
X158134095Y-104222823D01*
X158134095Y-104375204D01*
X158172190Y-104451395D01*
X158134095Y-103613300D02*
X158172190Y-103689490D01*
X158248380Y-103727585D01*
X158934095Y-103727585D01*
X158667428Y-103308538D02*
X158438857Y-102699014D01*
X158210285Y-103308538D01*
X157646095Y-124299014D02*
X156846095Y-123765680D01*
X157646095Y-123765680D02*
X156846095Y-124299014D01*
X157569904Y-122889490D02*
X157608000Y-122851395D01*
X157646095Y-122775204D01*
X157646095Y-122584728D01*
X157608000Y-122508538D01*
X157569904Y-122470442D01*
X157493714Y-122432347D01*
X157417523Y-122432347D01*
X157303238Y-122470442D01*
X156846095Y-122927585D01*
X156846095Y-122432347D01*
X157646095Y-121937109D02*
X157646095Y-121860919D01*
X157608000Y-121784728D01*
X157569904Y-121746633D01*
X157493714Y-121708538D01*
X157341333Y-121670442D01*
X157150857Y-121670442D01*
X156998476Y-121708538D01*
X156922285Y-121746633D01*
X156884190Y-121784728D01*
X156846095Y-121860919D01*
X156846095Y-121937109D01*
X156884190Y-122013300D01*
X156922285Y-122051395D01*
X156998476Y-122089490D01*
X157150857Y-122127585D01*
X157341333Y-122127585D01*
X157493714Y-122089490D01*
X157569904Y-122051395D01*
X157608000Y-122013300D01*
X157646095Y-121937109D01*
X157569904Y-121365680D02*
X157608000Y-121327585D01*
X157646095Y-121251395D01*
X157646095Y-121060919D01*
X157608000Y-120984728D01*
X157569904Y-120946633D01*
X157493714Y-120908538D01*
X157417523Y-120908538D01*
X157303238Y-120946633D01*
X156846095Y-121403776D01*
X156846095Y-120908538D01*
X157646095Y-120641871D02*
X157646095Y-120146633D01*
X157341333Y-120413300D01*
X157341333Y-120299014D01*
X157303238Y-120222823D01*
X157265142Y-120184728D01*
X157188952Y-120146633D01*
X156998476Y-120146633D01*
X156922285Y-120184728D01*
X156884190Y-120222823D01*
X156846095Y-120299014D01*
X156846095Y-120527585D01*
X156884190Y-120603776D01*
X156922285Y-120641871D01*
X116561609Y-100089533D02*
X116599704Y-100203819D01*
X116599704Y-100394295D01*
X116561609Y-100470485D01*
X116523514Y-100508580D01*
X116447323Y-100546676D01*
X116371133Y-100546676D01*
X116294942Y-100508580D01*
X116256847Y-100470485D01*
X116218752Y-100394295D01*
X116180657Y-100241914D01*
X116142561Y-100165723D01*
X116104466Y-100127628D01*
X116028276Y-100089533D01*
X115952085Y-100089533D01*
X115875895Y-100127628D01*
X115837800Y-100165723D01*
X115799704Y-100241914D01*
X115799704Y-100432390D01*
X115837800Y-100546676D01*
X116599704Y-100889533D02*
X115799704Y-100889533D01*
X116599704Y-101270485D02*
X115799704Y-101270485D01*
X115799704Y-101460961D01*
X115837800Y-101575247D01*
X115913990Y-101651438D01*
X115990180Y-101689533D01*
X116142561Y-101727628D01*
X116256847Y-101727628D01*
X116409228Y-101689533D01*
X116485419Y-101651438D01*
X116561609Y-101575247D01*
X116599704Y-101460961D01*
X116599704Y-101270485D01*
X116561609Y-102032390D02*
X116599704Y-102108580D01*
X116599704Y-102260961D01*
X116561609Y-102337152D01*
X116485419Y-102375247D01*
X116447323Y-102375247D01*
X116371133Y-102337152D01*
X116333038Y-102260961D01*
X116333038Y-102146676D01*
X116294942Y-102070485D01*
X116218752Y-102032390D01*
X116180657Y-102032390D01*
X116104466Y-102070485D01*
X116066371Y-102146676D01*
X116066371Y-102260961D01*
X116104466Y-102337152D01*
X116599704Y-103327628D02*
X116066371Y-103327628D01*
X116142561Y-103327628D02*
X116104466Y-103365723D01*
X116066371Y-103441914D01*
X116066371Y-103556200D01*
X116104466Y-103632390D01*
X116180657Y-103670485D01*
X116599704Y-103670485D01*
X116180657Y-103670485D02*
X116104466Y-103708580D01*
X116066371Y-103784771D01*
X116066371Y-103899057D01*
X116104466Y-103975247D01*
X116180657Y-104013342D01*
X116599704Y-104013342D01*
X116066371Y-104737152D02*
X116599704Y-104737152D01*
X116066371Y-104394295D02*
X116485419Y-104394295D01*
X116561609Y-104432390D01*
X116599704Y-104508580D01*
X116599704Y-104622866D01*
X116561609Y-104699057D01*
X116523514Y-104737152D01*
X116561609Y-105080009D02*
X116599704Y-105156200D01*
X116599704Y-105308580D01*
X116561609Y-105384771D01*
X116485419Y-105422866D01*
X116447323Y-105422866D01*
X116371133Y-105384771D01*
X116333038Y-105308580D01*
X116333038Y-105194295D01*
X116294942Y-105118104D01*
X116218752Y-105080009D01*
X116180657Y-105080009D01*
X116104466Y-105118104D01*
X116066371Y-105194295D01*
X116066371Y-105308580D01*
X116104466Y-105384771D01*
X116066371Y-105651438D02*
X116066371Y-105956199D01*
X115799704Y-105765723D02*
X116485419Y-105765723D01*
X116561609Y-105803819D01*
X116599704Y-105880009D01*
X116599704Y-105956199D01*
X116599704Y-106832390D02*
X115799704Y-106832390D01*
X116104466Y-106832390D02*
X116066371Y-106908580D01*
X116066371Y-107060961D01*
X116104466Y-107137152D01*
X116142561Y-107175247D01*
X116218752Y-107213342D01*
X116447323Y-107213342D01*
X116523514Y-107175247D01*
X116561609Y-107137152D01*
X116599704Y-107060961D01*
X116599704Y-106908580D01*
X116561609Y-106832390D01*
X116561609Y-107860961D02*
X116599704Y-107784771D01*
X116599704Y-107632390D01*
X116561609Y-107556199D01*
X116485419Y-107518104D01*
X116180657Y-107518104D01*
X116104466Y-107556199D01*
X116066371Y-107632390D01*
X116066371Y-107784771D01*
X116104466Y-107860961D01*
X116180657Y-107899057D01*
X116256847Y-107899057D01*
X116333038Y-107518104D01*
X116599704Y-108965723D02*
X116561609Y-108889533D01*
X116523514Y-108851438D01*
X116447323Y-108813342D01*
X116218752Y-108813342D01*
X116142561Y-108851438D01*
X116104466Y-108889533D01*
X116066371Y-108965723D01*
X116066371Y-109080009D01*
X116104466Y-109156199D01*
X116142561Y-109194295D01*
X116218752Y-109232390D01*
X116447323Y-109232390D01*
X116523514Y-109194295D01*
X116561609Y-109156199D01*
X116599704Y-109080009D01*
X116599704Y-108965723D01*
X116066371Y-109460961D02*
X116066371Y-109765723D01*
X116599704Y-109575247D02*
X115913990Y-109575247D01*
X115837800Y-109613342D01*
X115799704Y-109689533D01*
X115799704Y-109765723D01*
X116561609Y-110603819D02*
X116599704Y-110680009D01*
X116599704Y-110832390D01*
X116561609Y-110908580D01*
X116485419Y-110946676D01*
X116447323Y-110946676D01*
X116371133Y-110908580D01*
X116333038Y-110832390D01*
X116333038Y-110718104D01*
X116294942Y-110641914D01*
X116218752Y-110603819D01*
X116180657Y-110603819D01*
X116104466Y-110641914D01*
X116066371Y-110718104D01*
X116066371Y-110832390D01*
X116104466Y-110908580D01*
X116599704Y-111632390D02*
X116180657Y-111632390D01*
X116104466Y-111594295D01*
X116066371Y-111518104D01*
X116066371Y-111365723D01*
X116104466Y-111289533D01*
X116561609Y-111632390D02*
X116599704Y-111556199D01*
X116599704Y-111365723D01*
X116561609Y-111289533D01*
X116485419Y-111251438D01*
X116409228Y-111251438D01*
X116333038Y-111289533D01*
X116294942Y-111365723D01*
X116294942Y-111556199D01*
X116256847Y-111632390D01*
X116599704Y-112013342D02*
X116066371Y-112013342D01*
X116142561Y-112013342D02*
X116104466Y-112051438D01*
X116066371Y-112127628D01*
X116066371Y-112241914D01*
X116104466Y-112318104D01*
X116180657Y-112356199D01*
X116599704Y-112356199D01*
X116180657Y-112356199D02*
X116104466Y-112394295D01*
X116066371Y-112470485D01*
X116066371Y-112584771D01*
X116104466Y-112660961D01*
X116180657Y-112699057D01*
X116599704Y-112699057D01*
X116561609Y-113384771D02*
X116599704Y-113308580D01*
X116599704Y-113156199D01*
X116561609Y-113080009D01*
X116485419Y-113041914D01*
X116180657Y-113041914D01*
X116104466Y-113080009D01*
X116066371Y-113156199D01*
X116066371Y-113308580D01*
X116104466Y-113384771D01*
X116180657Y-113422866D01*
X116256847Y-113422866D01*
X116333038Y-113041914D01*
X117354371Y-102070485D02*
X117354371Y-102375247D01*
X117087704Y-102184771D02*
X117773419Y-102184771D01*
X117849609Y-102222866D01*
X117887704Y-102299057D01*
X117887704Y-102375247D01*
X117354371Y-102565723D02*
X117887704Y-102756200D01*
X117354371Y-102946676D02*
X117887704Y-102756200D01*
X118078180Y-102680009D01*
X118116276Y-102641914D01*
X118154371Y-102565723D01*
X117354371Y-103251438D02*
X118154371Y-103251438D01*
X117392466Y-103251438D02*
X117354371Y-103327628D01*
X117354371Y-103480009D01*
X117392466Y-103556200D01*
X117430561Y-103594295D01*
X117506752Y-103632390D01*
X117735323Y-103632390D01*
X117811514Y-103594295D01*
X117849609Y-103556200D01*
X117887704Y-103480009D01*
X117887704Y-103327628D01*
X117849609Y-103251438D01*
X117849609Y-104280009D02*
X117887704Y-104203819D01*
X117887704Y-104051438D01*
X117849609Y-103975247D01*
X117773419Y-103937152D01*
X117468657Y-103937152D01*
X117392466Y-103975247D01*
X117354371Y-104051438D01*
X117354371Y-104203819D01*
X117392466Y-104280009D01*
X117468657Y-104318104D01*
X117544847Y-104318104D01*
X117621038Y-103937152D01*
X117887704Y-105613342D02*
X117468657Y-105613342D01*
X117392466Y-105575247D01*
X117354371Y-105499057D01*
X117354371Y-105346676D01*
X117392466Y-105270485D01*
X117849609Y-105613342D02*
X117887704Y-105537152D01*
X117887704Y-105346676D01*
X117849609Y-105270485D01*
X117773419Y-105232390D01*
X117697228Y-105232390D01*
X117621038Y-105270485D01*
X117582942Y-105346676D01*
X117582942Y-105537152D01*
X117544847Y-105613342D01*
X117354371Y-105994295D02*
X117887704Y-105994295D01*
X117430561Y-105994295D02*
X117392466Y-106032390D01*
X117354371Y-106108580D01*
X117354371Y-106222866D01*
X117392466Y-106299057D01*
X117468657Y-106337152D01*
X117887704Y-106337152D01*
X117887704Y-107060961D02*
X117087704Y-107060961D01*
X117849609Y-107060961D02*
X117887704Y-106984771D01*
X117887704Y-106832390D01*
X117849609Y-106756200D01*
X117811514Y-106718104D01*
X117735323Y-106680009D01*
X117506752Y-106680009D01*
X117430561Y-106718104D01*
X117392466Y-106756200D01*
X117354371Y-106832390D01*
X117354371Y-106984771D01*
X117392466Y-107060961D01*
X117887704Y-108051438D02*
X117354371Y-108051438D01*
X117430561Y-108051438D02*
X117392466Y-108089533D01*
X117354371Y-108165723D01*
X117354371Y-108280009D01*
X117392466Y-108356200D01*
X117468657Y-108394295D01*
X117887704Y-108394295D01*
X117468657Y-108394295D02*
X117392466Y-108432390D01*
X117354371Y-108508580D01*
X117354371Y-108622866D01*
X117392466Y-108699057D01*
X117468657Y-108737152D01*
X117887704Y-108737152D01*
X117887704Y-109460961D02*
X117468657Y-109460961D01*
X117392466Y-109422866D01*
X117354371Y-109346676D01*
X117354371Y-109194295D01*
X117392466Y-109118104D01*
X117849609Y-109460961D02*
X117887704Y-109384771D01*
X117887704Y-109194295D01*
X117849609Y-109118104D01*
X117773419Y-109080009D01*
X117697228Y-109080009D01*
X117621038Y-109118104D01*
X117582942Y-109194295D01*
X117582942Y-109384771D01*
X117544847Y-109460961D01*
X117354371Y-109727628D02*
X117354371Y-110032390D01*
X117087704Y-109841914D02*
X117773419Y-109841914D01*
X117849609Y-109880009D01*
X117887704Y-109956200D01*
X117887704Y-110032390D01*
X117849609Y-110641914D02*
X117887704Y-110565723D01*
X117887704Y-110413342D01*
X117849609Y-110337152D01*
X117811514Y-110299057D01*
X117735323Y-110260961D01*
X117506752Y-110260961D01*
X117430561Y-110299057D01*
X117392466Y-110337152D01*
X117354371Y-110413342D01*
X117354371Y-110565723D01*
X117392466Y-110641914D01*
X117887704Y-110984771D02*
X117087704Y-110984771D01*
X117887704Y-111327628D02*
X117468657Y-111327628D01*
X117392466Y-111289533D01*
X117354371Y-111213342D01*
X117354371Y-111099057D01*
X117392466Y-111022866D01*
X117430561Y-110984771D01*
X119175704Y-100508580D02*
X118642371Y-100508580D01*
X118718561Y-100508580D02*
X118680466Y-100546676D01*
X118642371Y-100622866D01*
X118642371Y-100737152D01*
X118680466Y-100813342D01*
X118756657Y-100851438D01*
X119175704Y-100851438D01*
X118756657Y-100851438D02*
X118680466Y-100889533D01*
X118642371Y-100965723D01*
X118642371Y-101080009D01*
X118680466Y-101156200D01*
X118756657Y-101194295D01*
X119175704Y-101194295D01*
X119175704Y-101689533D02*
X119137609Y-101613342D01*
X119099514Y-101575247D01*
X119023323Y-101537152D01*
X118794752Y-101537152D01*
X118718561Y-101575247D01*
X118680466Y-101613342D01*
X118642371Y-101689533D01*
X118642371Y-101803819D01*
X118680466Y-101880009D01*
X118718561Y-101918104D01*
X118794752Y-101956200D01*
X119023323Y-101956200D01*
X119099514Y-101918104D01*
X119137609Y-101880009D01*
X119175704Y-101803819D01*
X119175704Y-101689533D01*
X118642371Y-102184771D02*
X118642371Y-102489533D01*
X118375704Y-102299057D02*
X119061419Y-102299057D01*
X119137609Y-102337152D01*
X119175704Y-102413342D01*
X119175704Y-102489533D01*
X119175704Y-102756200D02*
X118375704Y-102756200D01*
X119175704Y-103099057D02*
X118756657Y-103099057D01*
X118680466Y-103060961D01*
X118642371Y-102984771D01*
X118642371Y-102870485D01*
X118680466Y-102794295D01*
X118718561Y-102756200D01*
X119137609Y-103784771D02*
X119175704Y-103708580D01*
X119175704Y-103556200D01*
X119137609Y-103480009D01*
X119061419Y-103441914D01*
X118756657Y-103441914D01*
X118680466Y-103480009D01*
X118642371Y-103556200D01*
X118642371Y-103708580D01*
X118680466Y-103784771D01*
X118756657Y-103822866D01*
X118832847Y-103822866D01*
X118909038Y-103441914D01*
X119175704Y-104165723D02*
X118642371Y-104165723D01*
X118794752Y-104165723D02*
X118718561Y-104203819D01*
X118680466Y-104241914D01*
X118642371Y-104318104D01*
X118642371Y-104394295D01*
X119175704Y-104660961D02*
X118375704Y-104660961D01*
X118680466Y-104660961D02*
X118642371Y-104737152D01*
X118642371Y-104889533D01*
X118680466Y-104965723D01*
X118718561Y-105003819D01*
X118794752Y-105041914D01*
X119023323Y-105041914D01*
X119099514Y-105003819D01*
X119137609Y-104965723D01*
X119175704Y-104889533D01*
X119175704Y-104737152D01*
X119137609Y-104660961D01*
X119175704Y-105499057D02*
X119137609Y-105422866D01*
X119099514Y-105384771D01*
X119023323Y-105346676D01*
X118794752Y-105346676D01*
X118718561Y-105384771D01*
X118680466Y-105422866D01*
X118642371Y-105499057D01*
X118642371Y-105613342D01*
X118680466Y-105689533D01*
X118718561Y-105727628D01*
X118794752Y-105765723D01*
X119023323Y-105765723D01*
X119099514Y-105727628D01*
X119137609Y-105689533D01*
X119175704Y-105613342D01*
X119175704Y-105499057D01*
X119175704Y-106451438D02*
X118756657Y-106451438D01*
X118680466Y-106413342D01*
X118642371Y-106337152D01*
X118642371Y-106184771D01*
X118680466Y-106108580D01*
X119137609Y-106451438D02*
X119175704Y-106375247D01*
X119175704Y-106184771D01*
X119137609Y-106108580D01*
X119061419Y-106070485D01*
X118985228Y-106070485D01*
X118909038Y-106108580D01*
X118870942Y-106184771D01*
X118870942Y-106375247D01*
X118832847Y-106451438D01*
X119175704Y-106832390D02*
X118642371Y-106832390D01*
X118794752Y-106832390D02*
X118718561Y-106870485D01*
X118680466Y-106908580D01*
X118642371Y-106984771D01*
X118642371Y-107060961D01*
X119175704Y-107670485D02*
X118375704Y-107670485D01*
X119137609Y-107670485D02*
X119175704Y-107594295D01*
X119175704Y-107441914D01*
X119137609Y-107365723D01*
X119099514Y-107327628D01*
X119023323Y-107289533D01*
X118794752Y-107289533D01*
X118718561Y-107327628D01*
X118680466Y-107365723D01*
X118642371Y-107441914D01*
X118642371Y-107594295D01*
X118680466Y-107670485D01*
X118642371Y-108584771D02*
X119175704Y-108775247D01*
X118642371Y-108965723D01*
X119175704Y-109384771D02*
X119137609Y-109308580D01*
X119099514Y-109270485D01*
X119023323Y-109232390D01*
X118794752Y-109232390D01*
X118718561Y-109270485D01*
X118680466Y-109308580D01*
X118642371Y-109384771D01*
X118642371Y-109499057D01*
X118680466Y-109575247D01*
X118718561Y-109613342D01*
X118794752Y-109651438D01*
X119023323Y-109651438D01*
X119099514Y-109613342D01*
X119137609Y-109575247D01*
X119175704Y-109499057D01*
X119175704Y-109384771D01*
X119175704Y-110108580D02*
X119137609Y-110032390D01*
X119061419Y-109994295D01*
X118375704Y-109994295D01*
X118642371Y-110299057D02*
X118642371Y-110603819D01*
X118375704Y-110413342D02*
X119061419Y-110413342D01*
X119137609Y-110451438D01*
X119175704Y-110527628D01*
X119175704Y-110603819D01*
X119175704Y-111213342D02*
X118756657Y-111213342D01*
X118680466Y-111175247D01*
X118642371Y-111099057D01*
X118642371Y-110946676D01*
X118680466Y-110870485D01*
X119137609Y-111213342D02*
X119175704Y-111137152D01*
X119175704Y-110946676D01*
X119137609Y-110870485D01*
X119061419Y-110832390D01*
X118985228Y-110832390D01*
X118909038Y-110870485D01*
X118870942Y-110946676D01*
X118870942Y-111137152D01*
X118832847Y-111213342D01*
X118642371Y-111937152D02*
X119289990Y-111937152D01*
X119366180Y-111899057D01*
X119404276Y-111860961D01*
X119442371Y-111784771D01*
X119442371Y-111670485D01*
X119404276Y-111594295D01*
X119137609Y-111937152D02*
X119175704Y-111860961D01*
X119175704Y-111708580D01*
X119137609Y-111632390D01*
X119099514Y-111594295D01*
X119023323Y-111556200D01*
X118794752Y-111556200D01*
X118718561Y-111594295D01*
X118680466Y-111632390D01*
X118642371Y-111708580D01*
X118642371Y-111860961D01*
X118680466Y-111937152D01*
X119137609Y-112622866D02*
X119175704Y-112546676D01*
X119175704Y-112394295D01*
X119137609Y-112318104D01*
X119061419Y-112280009D01*
X118756657Y-112280009D01*
X118680466Y-112318104D01*
X118642371Y-112394295D01*
X118642371Y-112546676D01*
X118680466Y-112622866D01*
X118756657Y-112660961D01*
X118832847Y-112660961D01*
X118909038Y-112280009D01*
X119099514Y-113003819D02*
X119137609Y-113041914D01*
X119175704Y-113003819D01*
X119137609Y-112965723D01*
X119099514Y-113003819D01*
X119175704Y-113003819D01*
%LPC*%
D13*
X121920000Y-123317000D03*
D14*
X121920000Y-120777000D03*
X121920000Y-118237000D03*
X121920000Y-115697000D03*
X121920000Y-113157000D03*
X121920000Y-110617000D03*
X121920000Y-108077000D03*
X121920000Y-105537000D03*
X121920000Y-102997000D03*
X121920000Y-100457000D03*
X121920000Y-97917000D03*
X121920000Y-95377000D03*
X121920000Y-92837000D03*
X121920000Y-90297000D03*
X106680000Y-90297000D03*
X106680000Y-92837000D03*
X106680000Y-95377000D03*
X106680000Y-97917000D03*
X106680000Y-100457000D03*
X106680000Y-102997000D03*
X106680000Y-105537000D03*
X106680000Y-108077000D03*
X106680000Y-110617000D03*
X106680000Y-113157000D03*
X106680000Y-115697000D03*
X106680000Y-118237000D03*
X106680000Y-120777000D03*
X106680000Y-123317000D03*
D15*
X169976800Y-116128800D03*
X169976800Y-111128800D03*
X169976800Y-123825000D03*
X169976800Y-118825000D03*
D14*
X135712200Y-93111000D03*
D15*
X135712200Y-103271000D03*
D13*
X125531800Y-123255800D03*
D14*
X125531800Y-120715800D03*
X125531800Y-118175800D03*
X125531800Y-115635800D03*
X125531800Y-113095800D03*
X125531800Y-110555800D03*
X125531800Y-108015800D03*
X125531800Y-105475800D03*
X125531800Y-102935800D03*
X125531800Y-100395800D03*
X125531800Y-97855800D03*
X125531800Y-95315800D03*
X125531800Y-92775800D03*
X125531800Y-90235800D03*
X110291800Y-90235800D03*
X110291800Y-92775800D03*
X110291800Y-95315800D03*
X110291800Y-97855800D03*
X110291800Y-100395800D03*
X110291800Y-102935800D03*
X110291800Y-105475800D03*
X110291800Y-108015800D03*
X110291800Y-110555800D03*
X110291800Y-113095800D03*
X110291800Y-115635800D03*
X110291800Y-118175800D03*
X110291800Y-120715800D03*
X110291800Y-123255800D03*
D13*
X166121000Y-123255800D03*
D14*
X166121000Y-120715800D03*
X166121000Y-118175800D03*
X166121000Y-115635800D03*
X166121000Y-113095800D03*
X166121000Y-110555800D03*
X166121000Y-108015800D03*
X166121000Y-105475800D03*
X166121000Y-102935800D03*
X166121000Y-100395800D03*
X166121000Y-97855800D03*
X166121000Y-95315800D03*
X166121000Y-92775800D03*
X166121000Y-90235800D03*
X150881000Y-90235800D03*
X150881000Y-92775800D03*
X150881000Y-95315800D03*
X150881000Y-97855800D03*
X150881000Y-100395800D03*
X150881000Y-102935800D03*
X150881000Y-105475800D03*
X150881000Y-108015800D03*
X150881000Y-110555800D03*
X150881000Y-113095800D03*
X150881000Y-115635800D03*
X150881000Y-118175800D03*
X150881000Y-120715800D03*
X150881000Y-123255800D03*
D16*
X143911400Y-126593600D03*
D17*
X146451400Y-126593600D03*
X120192800Y-126593600D03*
X122732800Y-126593600D03*
D16*
X125272800Y-126593600D03*
D15*
X132511800Y-115824000D03*
D14*
X132511800Y-105664000D03*
D15*
X135712200Y-115824000D03*
D14*
X135712200Y-105664000D03*
D15*
X132359400Y-93091000D03*
D14*
X132359400Y-103251000D03*
D15*
X129057400Y-103225600D03*
D14*
X129057400Y-93065600D03*
D18*
X138822200Y-125493600D03*
X136322200Y-120493600D03*
X133822200Y-125493600D03*
D16*
X112191800Y-126593600D03*
D17*
X109651800Y-126593600D03*
X107111800Y-126593600D03*
D16*
X165354000Y-126593600D03*
D17*
X162814000Y-126593600D03*
X160274000Y-126593600D03*
D15*
X147193000Y-118708800D03*
X147193000Y-123708800D03*
D19*
X143230600Y-106654600D03*
D15*
X129057400Y-123708800D03*
X129057400Y-118708800D03*
D19*
X170027600Y-91440000D03*
D16*
X156464000Y-126593600D03*
D17*
X153924000Y-126593600D03*
X151384000Y-126593600D03*
D18*
X140741400Y-91567000D03*
X143241400Y-96567000D03*
X145741400Y-91567000D03*
M02*
