M48
; DRILL file {KiCad (6.0.5)} date Tue Oct 24 22:30:11 2023
; FORMAT={-:-/ absolute / metric / decimal}
; #@! TF.CreationDate,2023-10-24T22:30:11+02:00
; #@! TF.GenerationSoftware,Kicad,Pcbnew,(6.0.5)
; #@! TF.FileFunction,Plated,1,2,PTH
FMAT,2
METRIC
; #@! TA.AperFunction,Plated,PTH,ViaDrill
T1C0.400
; #@! TA.AperFunction,Plated,PTH,ComponentDrill
T2C0.800
; #@! TA.AperFunction,Plated,PTH,ComponentDrill
T3C1.000
; #@! TA.AperFunction,Plated,PTH,ComponentDrill
T4C1.300
%
G90
G05
T1
X109.956Y-124.746
X112.405Y-92.474
X116.164Y-121.428
X120.169Y-116.906
X128.146Y-99.499
X129.504Y-104.867
X136.361Y-94.404
X143.607Y-120.716
X144.384Y-124.358
T2
X106.68Y-90.297
X106.68Y-92.837
X106.68Y-95.377
X106.68Y-97.917
X106.68Y-100.457
X106.68Y-102.997
X106.68Y-105.537
X106.68Y-108.077
X106.68Y-110.617
X106.68Y-113.157
X106.68Y-115.697
X106.68Y-118.237
X106.68Y-120.777
X106.68Y-123.317
X110.292Y-90.236
X110.292Y-92.776
X110.292Y-95.316
X110.292Y-97.856
X110.292Y-100.396
X110.292Y-102.936
X110.292Y-105.476
X110.292Y-108.016
X110.292Y-110.556
X110.292Y-113.096
X110.292Y-115.636
X110.292Y-118.176
X110.292Y-120.716
X110.292Y-123.256
X121.92Y-90.297
X121.92Y-92.837
X121.92Y-95.377
X121.92Y-97.917
X121.92Y-100.457
X121.92Y-102.997
X121.92Y-105.537
X121.92Y-108.077
X121.92Y-110.617
X121.92Y-113.157
X121.92Y-115.697
X121.92Y-118.237
X121.92Y-120.777
X121.92Y-123.317
X125.532Y-90.236
X125.532Y-92.776
X125.532Y-95.316
X125.532Y-97.856
X125.532Y-100.396
X125.532Y-102.936
X125.532Y-105.476
X125.532Y-108.016
X125.532Y-110.556
X125.532Y-113.096
X125.532Y-115.636
X125.532Y-118.176
X125.532Y-120.716
X125.532Y-123.256
X129.057Y-93.066
X129.057Y-103.226
X129.057Y-118.709
X129.057Y-123.709
X132.359Y-93.091
X132.359Y-103.251
X132.512Y-105.664
X132.512Y-115.824
X135.712Y-93.111
X135.712Y-103.271
X135.712Y-105.664
X135.712Y-115.824
X147.193Y-118.709
X147.193Y-123.709
X150.881Y-90.236
X150.881Y-92.776
X150.881Y-95.316
X150.881Y-97.856
X150.881Y-100.396
X150.881Y-102.936
X150.881Y-105.476
X150.881Y-108.016
X150.881Y-110.556
X150.881Y-113.096
X150.881Y-115.636
X150.881Y-118.176
X150.881Y-120.716
X150.881Y-123.256
X166.121Y-90.236
X166.121Y-92.776
X166.121Y-95.316
X166.121Y-97.856
X166.121Y-100.396
X166.121Y-102.936
X166.121Y-105.476
X166.121Y-108.016
X166.121Y-110.556
X166.121Y-113.096
X166.121Y-115.636
X166.121Y-118.176
X166.121Y-120.716
X166.121Y-123.256
X169.977Y-111.129
X169.977Y-116.129
X169.977Y-118.825
X169.977Y-123.825
T3
X107.112Y-126.594
X109.652Y-126.594
X112.192Y-126.594
X120.193Y-126.594
X122.733Y-126.594
X125.273Y-126.594
X143.911Y-126.594
X146.451Y-126.594
X151.384Y-126.594
X153.924Y-126.594
X156.464Y-126.594
X160.274Y-126.594
X162.814Y-126.594
X165.354Y-126.594
T4
X133.822Y-125.494
X136.322Y-120.494
X138.822Y-125.494
X140.741Y-91.567
X143.241Y-96.567
X145.741Y-91.567
T0
M30
