G04 #@! TF.GenerationSoftware,KiCad,Pcbnew,(6.0.5)*
G04 #@! TF.CreationDate,2023-10-24T22:29:54+02:00*
G04 #@! TF.ProjectId,C128DCR Dual SID,43313238-4443-4522-9044-75616c205349,D*
G04 #@! TF.SameCoordinates,Original*
G04 #@! TF.FileFunction,Soldermask,Bot*
G04 #@! TF.FilePolarity,Negative*
%FSLAX46Y46*%
G04 Gerber Fmt 4.6, Leading zero omitted, Abs format (unit mm)*
G04 Created by KiCad (PCBNEW (6.0.5)) date 2023-10-24 22:29:54*
%MOMM*%
%LPD*%
G01*
G04 APERTURE LIST*
%ADD10R,1.600000X1.600000*%
%ADD11O,1.600000X1.600000*%
%ADD12C,1.600000*%
%ADD13R,1.700000X1.700000*%
%ADD14O,1.700000X1.700000*%
%ADD15C,2.340000*%
%ADD16C,2.500000*%
G04 APERTURE END LIST*
D10*
X121920000Y-123317000D03*
D11*
X121920000Y-120777000D03*
X121920000Y-118237000D03*
X121920000Y-115697000D03*
X121920000Y-113157000D03*
X121920000Y-110617000D03*
X121920000Y-108077000D03*
X121920000Y-105537000D03*
X121920000Y-102997000D03*
X121920000Y-100457000D03*
X121920000Y-97917000D03*
X121920000Y-95377000D03*
X121920000Y-92837000D03*
X121920000Y-90297000D03*
X106680000Y-90297000D03*
X106680000Y-92837000D03*
X106680000Y-95377000D03*
X106680000Y-97917000D03*
X106680000Y-100457000D03*
X106680000Y-102997000D03*
X106680000Y-105537000D03*
X106680000Y-108077000D03*
X106680000Y-110617000D03*
X106680000Y-113157000D03*
X106680000Y-115697000D03*
X106680000Y-118237000D03*
X106680000Y-120777000D03*
X106680000Y-123317000D03*
D12*
X169976800Y-116128800D03*
X169976800Y-111128800D03*
X169976800Y-123825000D03*
X169976800Y-118825000D03*
D11*
X135712200Y-93111000D03*
D12*
X135712200Y-103271000D03*
D10*
X125531800Y-123255800D03*
D11*
X125531800Y-120715800D03*
X125531800Y-118175800D03*
X125531800Y-115635800D03*
X125531800Y-113095800D03*
X125531800Y-110555800D03*
X125531800Y-108015800D03*
X125531800Y-105475800D03*
X125531800Y-102935800D03*
X125531800Y-100395800D03*
X125531800Y-97855800D03*
X125531800Y-95315800D03*
X125531800Y-92775800D03*
X125531800Y-90235800D03*
X110291800Y-90235800D03*
X110291800Y-92775800D03*
X110291800Y-95315800D03*
X110291800Y-97855800D03*
X110291800Y-100395800D03*
X110291800Y-102935800D03*
X110291800Y-105475800D03*
X110291800Y-108015800D03*
X110291800Y-110555800D03*
X110291800Y-113095800D03*
X110291800Y-115635800D03*
X110291800Y-118175800D03*
X110291800Y-120715800D03*
X110291800Y-123255800D03*
D10*
X166121000Y-123255800D03*
D11*
X166121000Y-120715800D03*
X166121000Y-118175800D03*
X166121000Y-115635800D03*
X166121000Y-113095800D03*
X166121000Y-110555800D03*
X166121000Y-108015800D03*
X166121000Y-105475800D03*
X166121000Y-102935800D03*
X166121000Y-100395800D03*
X166121000Y-97855800D03*
X166121000Y-95315800D03*
X166121000Y-92775800D03*
X166121000Y-90235800D03*
X150881000Y-90235800D03*
X150881000Y-92775800D03*
X150881000Y-95315800D03*
X150881000Y-97855800D03*
X150881000Y-100395800D03*
X150881000Y-102935800D03*
X150881000Y-105475800D03*
X150881000Y-108015800D03*
X150881000Y-110555800D03*
X150881000Y-113095800D03*
X150881000Y-115635800D03*
X150881000Y-118175800D03*
X150881000Y-120715800D03*
X150881000Y-123255800D03*
D13*
X143911400Y-126593600D03*
D14*
X146451400Y-126593600D03*
X120192800Y-126593600D03*
X122732800Y-126593600D03*
D13*
X125272800Y-126593600D03*
D12*
X132511800Y-115824000D03*
D11*
X132511800Y-105664000D03*
D12*
X135712200Y-115824000D03*
D11*
X135712200Y-105664000D03*
D12*
X132359400Y-93091000D03*
D11*
X132359400Y-103251000D03*
D12*
X129057400Y-103225600D03*
D11*
X129057400Y-93065600D03*
D15*
X138822200Y-125493600D03*
X136322200Y-120493600D03*
X133822200Y-125493600D03*
D13*
X112191800Y-126593600D03*
D14*
X109651800Y-126593600D03*
X107111800Y-126593600D03*
D13*
X165354000Y-126593600D03*
D14*
X162814000Y-126593600D03*
X160274000Y-126593600D03*
D12*
X147193000Y-118708800D03*
X147193000Y-123708800D03*
D16*
X143230600Y-106654600D03*
D12*
X129057400Y-123708800D03*
X129057400Y-118708800D03*
D16*
X170027600Y-91440000D03*
D13*
X156464000Y-126593600D03*
D14*
X153924000Y-126593600D03*
X151384000Y-126593600D03*
D15*
X140741400Y-91567000D03*
X143241400Y-96567000D03*
X145741400Y-91567000D03*
M02*
