%FSLAX45Y45*%
G04 Gerber Fmt 4.5, Leading zero omitted, Abs format (unit mm)*
G04 Created by KiCad (PCBNEW (6.0.5)) date 2023-11-13 22:28:01*
%MOMM*%
%LPD*%
G01*
G04 APERTURE LIST*
%TA.AperFunction,Profile*%
%ADD10C,0.150000*%
%TD*%
%ADD11C,0.200000*%
%ADD12C,0.250000*%
G04 APERTURE END LIST*
D10*
X10495280Y-8816340D02*
X17272000Y-8816340D01*
X17272000Y-8816340D02*
X17272000Y-12913360D01*
X17272000Y-12913360D02*
X10495280Y-12913360D01*
X10495280Y-12913360D02*
X10495280Y-8816340D01*
D11*
D12*
X14198060Y-10540460D02*
X14448060Y-10790460D01*
X14448060Y-10540460D02*
X14198060Y-10790460D01*
X16877760Y-9019000D02*
X17127760Y-9269000D01*
X17127760Y-9019000D02*
X16877760Y-9269000D01*
D11*
X10745399Y-13231336D02*
X10745399Y-13031336D01*
X10793018Y-13031336D01*
X10821590Y-13040860D01*
X10840637Y-13059908D01*
X10850161Y-13078955D01*
X10859685Y-13117050D01*
X10859685Y-13145622D01*
X10850161Y-13183717D01*
X10840637Y-13202765D01*
X10821590Y-13221812D01*
X10793018Y-13231336D01*
X10745399Y-13231336D01*
X10945399Y-13231336D02*
X10945399Y-13098003D01*
X10945399Y-13136098D02*
X10954923Y-13117050D01*
X10964447Y-13107527D01*
X10983494Y-13098003D01*
X11002542Y-13098003D01*
X11069209Y-13231336D02*
X11069209Y-13098003D01*
X11069209Y-13031336D02*
X11059685Y-13040860D01*
X11069209Y-13050384D01*
X11078732Y-13040860D01*
X11069209Y-13031336D01*
X11069209Y-13050384D01*
X11193018Y-13231336D02*
X11173970Y-13221812D01*
X11164447Y-13202765D01*
X11164447Y-13031336D01*
X11297780Y-13231336D02*
X11278732Y-13221812D01*
X11269208Y-13202765D01*
X11269208Y-13031336D01*
X11526351Y-13231336D02*
X11526351Y-13031336D01*
X11593018Y-13174193D01*
X11659685Y-13031336D01*
X11659685Y-13231336D01*
X11840637Y-13231336D02*
X11840637Y-13126574D01*
X11831113Y-13107527D01*
X11812066Y-13098003D01*
X11773970Y-13098003D01*
X11754923Y-13107527D01*
X11840637Y-13221812D02*
X11821589Y-13231336D01*
X11773970Y-13231336D01*
X11754923Y-13221812D01*
X11745399Y-13202765D01*
X11745399Y-13183717D01*
X11754923Y-13164669D01*
X11773970Y-13155146D01*
X11821589Y-13155146D01*
X11840637Y-13145622D01*
X11935875Y-13098003D02*
X11935875Y-13298003D01*
X11935875Y-13107527D02*
X11954923Y-13098003D01*
X11993018Y-13098003D01*
X12012066Y-13107527D01*
X12021589Y-13117050D01*
X12031113Y-13136098D01*
X12031113Y-13193241D01*
X12021589Y-13212288D01*
X12012066Y-13221812D01*
X11993018Y-13231336D01*
X11954923Y-13231336D01*
X11935875Y-13221812D01*
X12116828Y-13212288D02*
X12126351Y-13221812D01*
X12116828Y-13231336D01*
X12107304Y-13221812D01*
X12116828Y-13212288D01*
X12116828Y-13231336D01*
X12116828Y-13107527D02*
X12126351Y-13117050D01*
X12116828Y-13126574D01*
X12107304Y-13117050D01*
X12116828Y-13107527D01*
X12116828Y-13126574D01*
X10287780Y-13460860D02*
X10487780Y-13660860D01*
X10487780Y-13460860D02*
X10287780Y-13660860D01*
X10735875Y-13470384D02*
X10745399Y-13460860D01*
X10764447Y-13451336D01*
X10812066Y-13451336D01*
X10831113Y-13460860D01*
X10840637Y-13470384D01*
X10850161Y-13489431D01*
X10850161Y-13508479D01*
X10840637Y-13537050D01*
X10726351Y-13651336D01*
X10850161Y-13651336D01*
X10935875Y-13632288D02*
X10945399Y-13641812D01*
X10935875Y-13651336D01*
X10926351Y-13641812D01*
X10935875Y-13632288D01*
X10935875Y-13651336D01*
X11126351Y-13451336D02*
X11031113Y-13451336D01*
X11021590Y-13546574D01*
X11031113Y-13537050D01*
X11050161Y-13527527D01*
X11097780Y-13527527D01*
X11116828Y-13537050D01*
X11126351Y-13546574D01*
X11135875Y-13565622D01*
X11135875Y-13613241D01*
X11126351Y-13632288D01*
X11116828Y-13641812D01*
X11097780Y-13651336D01*
X11050161Y-13651336D01*
X11031113Y-13641812D01*
X11021590Y-13632288D01*
X11259685Y-13451336D02*
X11278732Y-13451336D01*
X11297780Y-13460860D01*
X11307304Y-13470384D01*
X11316828Y-13489431D01*
X11326351Y-13527527D01*
X11326351Y-13575146D01*
X11316828Y-13613241D01*
X11307304Y-13632288D01*
X11297780Y-13641812D01*
X11278732Y-13651336D01*
X11259685Y-13651336D01*
X11240637Y-13641812D01*
X11231113Y-13632288D01*
X11221589Y-13613241D01*
X11212066Y-13575146D01*
X11212066Y-13527527D01*
X11221589Y-13489431D01*
X11231113Y-13470384D01*
X11240637Y-13460860D01*
X11259685Y-13451336D01*
X11450161Y-13451336D02*
X11469208Y-13451336D01*
X11488256Y-13460860D01*
X11497780Y-13470384D01*
X11507304Y-13489431D01*
X11516828Y-13527527D01*
X11516828Y-13575146D01*
X11507304Y-13613241D01*
X11497780Y-13632288D01*
X11488256Y-13641812D01*
X11469208Y-13651336D01*
X11450161Y-13651336D01*
X11431113Y-13641812D01*
X11421589Y-13632288D01*
X11412066Y-13613241D01*
X11402542Y-13575146D01*
X11402542Y-13527527D01*
X11412066Y-13489431D01*
X11421589Y-13470384D01*
X11431113Y-13460860D01*
X11450161Y-13451336D01*
X11602542Y-13651336D02*
X11602542Y-13518003D01*
X11602542Y-13537050D02*
X11612066Y-13527527D01*
X11631113Y-13518003D01*
X11659685Y-13518003D01*
X11678732Y-13527527D01*
X11688256Y-13546574D01*
X11688256Y-13651336D01*
X11688256Y-13546574D02*
X11697780Y-13527527D01*
X11716828Y-13518003D01*
X11745399Y-13518003D01*
X11764447Y-13527527D01*
X11773970Y-13546574D01*
X11773970Y-13651336D01*
X11869208Y-13651336D02*
X11869208Y-13518003D01*
X11869208Y-13537050D02*
X11878732Y-13527527D01*
X11897780Y-13518003D01*
X11926351Y-13518003D01*
X11945399Y-13527527D01*
X11954923Y-13546574D01*
X11954923Y-13651336D01*
X11954923Y-13546574D02*
X11964447Y-13527527D01*
X11983494Y-13518003D01*
X12012066Y-13518003D01*
X12031113Y-13527527D01*
X12040637Y-13546574D01*
X12040637Y-13651336D01*
X12431113Y-13441812D02*
X12259685Y-13698955D01*
X12688256Y-13451336D02*
X12707304Y-13451336D01*
X12726351Y-13460860D01*
X12735875Y-13470384D01*
X12745399Y-13489431D01*
X12754923Y-13527527D01*
X12754923Y-13575146D01*
X12745399Y-13613241D01*
X12735875Y-13632288D01*
X12726351Y-13641812D01*
X12707304Y-13651336D01*
X12688256Y-13651336D01*
X12669208Y-13641812D01*
X12659685Y-13632288D01*
X12650161Y-13613241D01*
X12640637Y-13575146D01*
X12640637Y-13527527D01*
X12650161Y-13489431D01*
X12659685Y-13470384D01*
X12669208Y-13460860D01*
X12688256Y-13451336D01*
X12840637Y-13632288D02*
X12850161Y-13641812D01*
X12840637Y-13651336D01*
X12831113Y-13641812D01*
X12840637Y-13632288D01*
X12840637Y-13651336D01*
X12973970Y-13451336D02*
X12993018Y-13451336D01*
X13012066Y-13460860D01*
X13021589Y-13470384D01*
X13031113Y-13489431D01*
X13040637Y-13527527D01*
X13040637Y-13575146D01*
X13031113Y-13613241D01*
X13021589Y-13632288D01*
X13012066Y-13641812D01*
X12993018Y-13651336D01*
X12973970Y-13651336D01*
X12954923Y-13641812D01*
X12945399Y-13632288D01*
X12935875Y-13613241D01*
X12926351Y-13575146D01*
X12926351Y-13527527D01*
X12935875Y-13489431D01*
X12945399Y-13470384D01*
X12954923Y-13460860D01*
X12973970Y-13451336D01*
X13135875Y-13651336D02*
X13173970Y-13651336D01*
X13193018Y-13641812D01*
X13202542Y-13632288D01*
X13221589Y-13603717D01*
X13231113Y-13565622D01*
X13231113Y-13489431D01*
X13221589Y-13470384D01*
X13212066Y-13460860D01*
X13193018Y-13451336D01*
X13154923Y-13451336D01*
X13135875Y-13460860D01*
X13126351Y-13470384D01*
X13116828Y-13489431D01*
X13116828Y-13537050D01*
X13126351Y-13556098D01*
X13135875Y-13565622D01*
X13154923Y-13575146D01*
X13193018Y-13575146D01*
X13212066Y-13565622D01*
X13221589Y-13556098D01*
X13231113Y-13537050D01*
X13345399Y-13537050D02*
X13326351Y-13527527D01*
X13316828Y-13518003D01*
X13307304Y-13498955D01*
X13307304Y-13489431D01*
X13316828Y-13470384D01*
X13326351Y-13460860D01*
X13345399Y-13451336D01*
X13383494Y-13451336D01*
X13402542Y-13460860D01*
X13412066Y-13470384D01*
X13421589Y-13489431D01*
X13421589Y-13498955D01*
X13412066Y-13518003D01*
X13402542Y-13527527D01*
X13383494Y-13537050D01*
X13345399Y-13537050D01*
X13326351Y-13546574D01*
X13316828Y-13556098D01*
X13307304Y-13575146D01*
X13307304Y-13613241D01*
X13316828Y-13632288D01*
X13326351Y-13641812D01*
X13345399Y-13651336D01*
X13383494Y-13651336D01*
X13402542Y-13641812D01*
X13412066Y-13632288D01*
X13421589Y-13613241D01*
X13421589Y-13575146D01*
X13412066Y-13556098D01*
X13402542Y-13546574D01*
X13383494Y-13537050D01*
X13593018Y-13518003D02*
X13593018Y-13651336D01*
X13545399Y-13441812D02*
X13497780Y-13584669D01*
X13621589Y-13584669D01*
X13688256Y-13451336D02*
X13688256Y-13489431D01*
X13764447Y-13451336D02*
X13764447Y-13489431D01*
X14059685Y-13727527D02*
X14050161Y-13718003D01*
X14031113Y-13689431D01*
X14021589Y-13670384D01*
X14012066Y-13641812D01*
X14002542Y-13594193D01*
X14002542Y-13556098D01*
X14012066Y-13508479D01*
X14021589Y-13479908D01*
X14031113Y-13460860D01*
X14050161Y-13432288D01*
X14059685Y-13422765D01*
X14126351Y-13470384D02*
X14135875Y-13460860D01*
X14154923Y-13451336D01*
X14202542Y-13451336D01*
X14221589Y-13460860D01*
X14231113Y-13470384D01*
X14240637Y-13489431D01*
X14240637Y-13508479D01*
X14231113Y-13537050D01*
X14116828Y-13651336D01*
X14240637Y-13651336D01*
X14478732Y-13651336D02*
X14478732Y-13451336D01*
X14564447Y-13651336D02*
X14564447Y-13546574D01*
X14554923Y-13527527D01*
X14535875Y-13518003D01*
X14507304Y-13518003D01*
X14488256Y-13527527D01*
X14478732Y-13537050D01*
X14688256Y-13651336D02*
X14669208Y-13641812D01*
X14659685Y-13632288D01*
X14650161Y-13613241D01*
X14650161Y-13556098D01*
X14659685Y-13537050D01*
X14669208Y-13527527D01*
X14688256Y-13518003D01*
X14716828Y-13518003D01*
X14735875Y-13527527D01*
X14745399Y-13537050D01*
X14754923Y-13556098D01*
X14754923Y-13613241D01*
X14745399Y-13632288D01*
X14735875Y-13641812D01*
X14716828Y-13651336D01*
X14688256Y-13651336D01*
X14869208Y-13651336D02*
X14850161Y-13641812D01*
X14840637Y-13622765D01*
X14840637Y-13451336D01*
X15021589Y-13641812D02*
X15002542Y-13651336D01*
X14964447Y-13651336D01*
X14945399Y-13641812D01*
X14935875Y-13622765D01*
X14935875Y-13546574D01*
X14945399Y-13527527D01*
X14964447Y-13518003D01*
X15002542Y-13518003D01*
X15021589Y-13527527D01*
X15031113Y-13546574D01*
X15031113Y-13565622D01*
X14935875Y-13584669D01*
X15107304Y-13641812D02*
X15126351Y-13651336D01*
X15164447Y-13651336D01*
X15183494Y-13641812D01*
X15193018Y-13622765D01*
X15193018Y-13613241D01*
X15183494Y-13594193D01*
X15164447Y-13584669D01*
X15135875Y-13584669D01*
X15116828Y-13575146D01*
X15107304Y-13556098D01*
X15107304Y-13546574D01*
X15116828Y-13527527D01*
X15135875Y-13518003D01*
X15164447Y-13518003D01*
X15183494Y-13527527D01*
X15259685Y-13727527D02*
X15269208Y-13718003D01*
X15288256Y-13689431D01*
X15297780Y-13670384D01*
X15307304Y-13641812D01*
X15316828Y-13594193D01*
X15316828Y-13556098D01*
X15307304Y-13508479D01*
X15297780Y-13479908D01*
X15288256Y-13460860D01*
X15269208Y-13432288D01*
X15259685Y-13422765D01*
X15621589Y-13727527D02*
X15612066Y-13718003D01*
X15593018Y-13689431D01*
X15583494Y-13670384D01*
X15573970Y-13641812D01*
X15564447Y-13594193D01*
X15564447Y-13556098D01*
X15573970Y-13508479D01*
X15583494Y-13479908D01*
X15593018Y-13460860D01*
X15612066Y-13432288D01*
X15621589Y-13422765D01*
X15697780Y-13518003D02*
X15697780Y-13651336D01*
X15697780Y-13537050D02*
X15707304Y-13527527D01*
X15726351Y-13518003D01*
X15754923Y-13518003D01*
X15773970Y-13527527D01*
X15783494Y-13546574D01*
X15783494Y-13651336D01*
X15907304Y-13651336D02*
X15888256Y-13641812D01*
X15878732Y-13632288D01*
X15869208Y-13613241D01*
X15869208Y-13556098D01*
X15878732Y-13537050D01*
X15888256Y-13527527D01*
X15907304Y-13518003D01*
X15935875Y-13518003D01*
X15954923Y-13527527D01*
X15964447Y-13537050D01*
X15973970Y-13556098D01*
X15973970Y-13613241D01*
X15964447Y-13632288D01*
X15954923Y-13641812D01*
X15935875Y-13651336D01*
X15907304Y-13651336D01*
X16031113Y-13518003D02*
X16107304Y-13518003D01*
X16059685Y-13451336D02*
X16059685Y-13622765D01*
X16069208Y-13641812D01*
X16088256Y-13651336D01*
X16107304Y-13651336D01*
X16326351Y-13518003D02*
X16326351Y-13718003D01*
X16326351Y-13527527D02*
X16345399Y-13518003D01*
X16383494Y-13518003D01*
X16402542Y-13527527D01*
X16412066Y-13537050D01*
X16421589Y-13556098D01*
X16421589Y-13613241D01*
X16412066Y-13632288D01*
X16402542Y-13641812D01*
X16383494Y-13651336D01*
X16345399Y-13651336D01*
X16326351Y-13641812D01*
X16535875Y-13651336D02*
X16516828Y-13641812D01*
X16507304Y-13622765D01*
X16507304Y-13451336D01*
X16697780Y-13651336D02*
X16697780Y-13546574D01*
X16688256Y-13527527D01*
X16669208Y-13518003D01*
X16631113Y-13518003D01*
X16612066Y-13527527D01*
X16697780Y-13641812D02*
X16678732Y-13651336D01*
X16631113Y-13651336D01*
X16612066Y-13641812D01*
X16602542Y-13622765D01*
X16602542Y-13603717D01*
X16612066Y-13584669D01*
X16631113Y-13575146D01*
X16678732Y-13575146D01*
X16697780Y-13565622D01*
X16764447Y-13518003D02*
X16840637Y-13518003D01*
X16793018Y-13451336D02*
X16793018Y-13622765D01*
X16802542Y-13641812D01*
X16821590Y-13651336D01*
X16840637Y-13651336D01*
X16983494Y-13641812D02*
X16964447Y-13651336D01*
X16926351Y-13651336D01*
X16907304Y-13641812D01*
X16897780Y-13622765D01*
X16897780Y-13546574D01*
X16907304Y-13527527D01*
X16926351Y-13518003D01*
X16964447Y-13518003D01*
X16983494Y-13527527D01*
X16993018Y-13546574D01*
X16993018Y-13565622D01*
X16897780Y-13584669D01*
X17164447Y-13651336D02*
X17164447Y-13451336D01*
X17164447Y-13641812D02*
X17145399Y-13651336D01*
X17107304Y-13651336D01*
X17088256Y-13641812D01*
X17078732Y-13632288D01*
X17069209Y-13613241D01*
X17069209Y-13556098D01*
X17078732Y-13537050D01*
X17088256Y-13527527D01*
X17107304Y-13518003D01*
X17145399Y-13518003D01*
X17164447Y-13527527D01*
X17240637Y-13727527D02*
X17250161Y-13718003D01*
X17269209Y-13689431D01*
X17278732Y-13670384D01*
X17288256Y-13641812D01*
X17297780Y-13594193D01*
X17297780Y-13556098D01*
X17288256Y-13508479D01*
X17278732Y-13479908D01*
X17269209Y-13460860D01*
X17250161Y-13432288D01*
X17240637Y-13422765D01*
M02*
