G04 #@! TF.GenerationSoftware,KiCad,Pcbnew,(6.0.5)*
G04 #@! TF.CreationDate,2023-10-24T22:29:54+02:00*
G04 #@! TF.ProjectId,C128DCR Dual SID,43313238-4443-4522-9044-75616c205349,D*
G04 #@! TF.SameCoordinates,Original*
G04 #@! TF.FileFunction,Copper,L1,Top*
G04 #@! TF.FilePolarity,Positive*
%FSLAX46Y46*%
G04 Gerber Fmt 4.6, Leading zero omitted, Abs format (unit mm)*
G04 Created by KiCad (PCBNEW (6.0.5)) date 2023-10-24 22:29:54*
%MOMM*%
%LPD*%
G01*
G04 APERTURE LIST*
G04 #@! TA.AperFunction,ComponentPad*
%ADD10R,1.600000X1.600000*%
G04 #@! TD*
G04 #@! TA.AperFunction,ComponentPad*
%ADD11O,1.600000X1.600000*%
G04 #@! TD*
G04 #@! TA.AperFunction,ComponentPad*
%ADD12C,1.600000*%
G04 #@! TD*
G04 #@! TA.AperFunction,ComponentPad*
%ADD13R,1.700000X1.700000*%
G04 #@! TD*
G04 #@! TA.AperFunction,ComponentPad*
%ADD14O,1.700000X1.700000*%
G04 #@! TD*
G04 #@! TA.AperFunction,ComponentPad*
%ADD15C,2.340000*%
G04 #@! TD*
G04 #@! TA.AperFunction,ViaPad*
%ADD16C,0.600000*%
G04 #@! TD*
G04 #@! TA.AperFunction,Conductor*
%ADD17C,0.250000*%
G04 #@! TD*
G04 APERTURE END LIST*
D10*
X121920000Y-123317000D03*
D11*
X121920000Y-120777000D03*
X121920000Y-118237000D03*
X121920000Y-115697000D03*
X121920000Y-113157000D03*
X121920000Y-110617000D03*
X121920000Y-108077000D03*
X121920000Y-105537000D03*
X121920000Y-102997000D03*
X121920000Y-100457000D03*
X121920000Y-97917000D03*
X121920000Y-95377000D03*
X121920000Y-92837000D03*
X121920000Y-90297000D03*
X106680000Y-90297000D03*
X106680000Y-92837000D03*
X106680000Y-95377000D03*
X106680000Y-97917000D03*
X106680000Y-100457000D03*
X106680000Y-102997000D03*
X106680000Y-105537000D03*
X106680000Y-108077000D03*
X106680000Y-110617000D03*
X106680000Y-113157000D03*
X106680000Y-115697000D03*
X106680000Y-118237000D03*
X106680000Y-120777000D03*
X106680000Y-123317000D03*
D12*
X169976800Y-116128800D03*
X169976800Y-111128800D03*
X169976800Y-123825000D03*
X169976800Y-118825000D03*
D11*
X135712200Y-93111000D03*
D12*
X135712200Y-103271000D03*
D10*
X125531800Y-123255800D03*
D11*
X125531800Y-120715800D03*
X125531800Y-118175800D03*
X125531800Y-115635800D03*
X125531800Y-113095800D03*
X125531800Y-110555800D03*
X125531800Y-108015800D03*
X125531800Y-105475800D03*
X125531800Y-102935800D03*
X125531800Y-100395800D03*
X125531800Y-97855800D03*
X125531800Y-95315800D03*
X125531800Y-92775800D03*
X125531800Y-90235800D03*
X110291800Y-90235800D03*
X110291800Y-92775800D03*
X110291800Y-95315800D03*
X110291800Y-97855800D03*
X110291800Y-100395800D03*
X110291800Y-102935800D03*
X110291800Y-105475800D03*
X110291800Y-108015800D03*
X110291800Y-110555800D03*
X110291800Y-113095800D03*
X110291800Y-115635800D03*
X110291800Y-118175800D03*
X110291800Y-120715800D03*
X110291800Y-123255800D03*
D10*
X166121000Y-123255800D03*
D11*
X166121000Y-120715800D03*
X166121000Y-118175800D03*
X166121000Y-115635800D03*
X166121000Y-113095800D03*
X166121000Y-110555800D03*
X166121000Y-108015800D03*
X166121000Y-105475800D03*
X166121000Y-102935800D03*
X166121000Y-100395800D03*
X166121000Y-97855800D03*
X166121000Y-95315800D03*
X166121000Y-92775800D03*
X166121000Y-90235800D03*
X150881000Y-90235800D03*
X150881000Y-92775800D03*
X150881000Y-95315800D03*
X150881000Y-97855800D03*
X150881000Y-100395800D03*
X150881000Y-102935800D03*
X150881000Y-105475800D03*
X150881000Y-108015800D03*
X150881000Y-110555800D03*
X150881000Y-113095800D03*
X150881000Y-115635800D03*
X150881000Y-118175800D03*
X150881000Y-120715800D03*
X150881000Y-123255800D03*
D13*
X143911400Y-126593600D03*
D14*
X146451400Y-126593600D03*
X120192800Y-126593600D03*
X122732800Y-126593600D03*
D13*
X125272800Y-126593600D03*
D12*
X132511800Y-115824000D03*
D11*
X132511800Y-105664000D03*
D12*
X135712200Y-115824000D03*
D11*
X135712200Y-105664000D03*
D12*
X132359400Y-93091000D03*
D11*
X132359400Y-103251000D03*
D12*
X129057400Y-103225600D03*
D11*
X129057400Y-93065600D03*
D15*
X138822200Y-125493600D03*
X136322200Y-120493600D03*
X133822200Y-125493600D03*
D13*
X112191800Y-126593600D03*
D14*
X109651800Y-126593600D03*
X107111800Y-126593600D03*
D13*
X165354000Y-126593600D03*
D14*
X162814000Y-126593600D03*
X160274000Y-126593600D03*
D12*
X147193000Y-118708800D03*
X147193000Y-123708800D03*
X129057400Y-123708800D03*
X129057400Y-118708800D03*
D13*
X156464000Y-126593600D03*
D14*
X153924000Y-126593600D03*
X151384000Y-126593600D03*
D15*
X140741400Y-91567000D03*
X143241400Y-96567000D03*
X145741400Y-91567000D03*
D16*
X144384000Y-124358500D03*
X120169400Y-116905800D03*
X129503500Y-104866600D03*
X143607000Y-120715800D03*
X136361100Y-94403600D03*
X109956400Y-124746500D03*
X128145700Y-99498700D03*
X112405100Y-92474000D03*
X116163600Y-121428300D03*
D17*
X145442200Y-125416700D02*
X144384000Y-124358500D01*
X149030200Y-125416700D02*
X145442200Y-125416700D01*
X150207100Y-126593600D02*
X149030200Y-125416700D01*
X151384000Y-126593600D02*
X150207100Y-126593600D01*
X131430000Y-116905800D02*
X120169400Y-116905800D01*
X132511800Y-115824000D02*
X131430000Y-116905800D01*
X164177100Y-126225800D02*
X164177100Y-126593600D01*
X154957300Y-117006000D02*
X164177100Y-126225800D01*
X148895800Y-117006000D02*
X154957300Y-117006000D01*
X147193000Y-118708800D02*
X148895800Y-117006000D01*
X165354000Y-126593600D02*
X164177100Y-126593600D01*
X114545600Y-125416700D02*
X113368700Y-126593600D01*
X121555900Y-125416700D02*
X114545600Y-125416700D01*
X122732800Y-126593600D02*
X121555900Y-125416700D01*
X112191800Y-126593600D02*
X113368700Y-126593600D01*
X129616900Y-104866600D02*
X129503500Y-104866600D01*
X131232500Y-103251000D02*
X129616900Y-104866600D01*
X132359400Y-103251000D02*
X131232500Y-103251000D01*
X150881000Y-120715800D02*
X143607000Y-120715800D01*
X136361100Y-94403500D02*
X136361100Y-94403600D01*
X131522200Y-94403500D02*
X136361100Y-94403500D01*
X130184300Y-93065600D02*
X131522200Y-94403500D01*
X129057400Y-93065600D02*
X130184300Y-93065600D01*
X123108100Y-105475800D02*
X123046900Y-105537000D01*
X125531800Y-105475800D02*
X123108100Y-105475800D01*
X121920000Y-105537000D02*
X123046900Y-105537000D01*
X109956400Y-125112100D02*
X109956400Y-124746500D01*
X109651800Y-125416700D02*
X109956400Y-125112100D01*
X109651800Y-126593600D02*
X109651800Y-125416700D01*
X123108100Y-108015800D02*
X123046900Y-108077000D01*
X125531800Y-108015800D02*
X123108100Y-108015800D01*
X121920000Y-108077000D02*
X123046900Y-108077000D01*
X126928000Y-108285100D02*
X126658700Y-108015800D01*
X145695600Y-108285100D02*
X126928000Y-108285100D01*
X147151500Y-106829200D02*
X145695600Y-108285100D01*
X163807500Y-106829200D02*
X147151500Y-106829200D01*
X164994100Y-108015800D02*
X163807500Y-106829200D01*
X166121000Y-108015800D02*
X164994100Y-108015800D01*
X125531800Y-108015800D02*
X126658700Y-108015800D01*
X106680000Y-102997000D02*
X107806900Y-102997000D01*
X150881000Y-102935800D02*
X149754100Y-102935800D01*
X107868100Y-102935800D02*
X110291800Y-102935800D01*
X107806900Y-102997000D02*
X107868100Y-102935800D01*
X112699900Y-101654600D02*
X111418700Y-102935800D01*
X125221400Y-101654600D02*
X112699900Y-101654600D01*
X125293600Y-101582400D02*
X125221400Y-101654600D01*
X148400700Y-101582400D02*
X125293600Y-101582400D01*
X149754100Y-102935800D02*
X148400700Y-101582400D01*
X110291800Y-102935800D02*
X111418700Y-102935800D01*
X106680000Y-100457000D02*
X107806900Y-100457000D01*
X107868100Y-100395800D02*
X110291800Y-100395800D01*
X107806900Y-100457000D02*
X107868100Y-100395800D01*
X148857000Y-99498700D02*
X128145700Y-99498700D01*
X149754100Y-100395800D02*
X148857000Y-99498700D01*
X150881000Y-100395800D02*
X149754100Y-100395800D01*
X150881000Y-97855800D02*
X149754100Y-97855800D01*
X110855300Y-97855800D02*
X111418700Y-97855800D01*
X110855300Y-97855800D02*
X110291800Y-97855800D01*
X107868100Y-97855800D02*
X107806900Y-97917000D01*
X110291800Y-97855800D02*
X107868100Y-97855800D01*
X106680000Y-97917000D02*
X107806900Y-97917000D01*
X149486000Y-98123900D02*
X149754100Y-97855800D01*
X130131700Y-98123900D02*
X149486000Y-98123900D01*
X128694500Y-96686700D02*
X130131700Y-98123900D01*
X112587800Y-96686700D02*
X128694500Y-96686700D01*
X111418700Y-97855800D02*
X112587800Y-96686700D01*
X106680000Y-95377000D02*
X107806900Y-95377000D01*
X107868100Y-95315800D02*
X110291800Y-95315800D01*
X107806900Y-95377000D02*
X107868100Y-95315800D01*
X150881000Y-95315800D02*
X149754100Y-95315800D01*
X110291800Y-95315800D02*
X111418700Y-95315800D01*
X149055100Y-94616800D02*
X149754100Y-95315800D01*
X139961200Y-94616800D02*
X149055100Y-94616800D01*
X139545800Y-95032200D02*
X139961200Y-94616800D01*
X129430300Y-95032200D02*
X139545800Y-95032200D01*
X128583700Y-94185600D02*
X129430300Y-95032200D01*
X112548900Y-94185600D02*
X128583700Y-94185600D01*
X111418700Y-95315800D02*
X112548900Y-94185600D01*
X106680000Y-92837000D02*
X107806900Y-92837000D01*
X107868100Y-92775800D02*
X110291800Y-92775800D01*
X107806900Y-92837000D02*
X107868100Y-92775800D01*
X150881000Y-92775800D02*
X149754100Y-92775800D01*
X113424900Y-91454200D02*
X112405100Y-92474000D01*
X136937100Y-91454200D02*
X113424900Y-91454200D01*
X138633800Y-93150900D02*
X136937100Y-91454200D01*
X149379000Y-93150900D02*
X138633800Y-93150900D01*
X149754100Y-92775800D02*
X149379000Y-93150900D01*
X106680000Y-90297000D02*
X107806900Y-90297000D01*
X107868100Y-90235800D02*
X110291800Y-90235800D01*
X107806900Y-90297000D02*
X107868100Y-90235800D01*
X140607000Y-123708800D02*
X138822200Y-125493600D01*
X147193000Y-123708800D02*
X140607000Y-123708800D01*
X123108100Y-90235800D02*
X123046900Y-90297000D01*
X125531800Y-90235800D02*
X123108100Y-90235800D01*
X121920000Y-90297000D02*
X123046900Y-90297000D01*
X163801200Y-89042900D02*
X164994100Y-90235800D01*
X143265500Y-89042900D02*
X163801200Y-89042900D01*
X140741400Y-91567000D02*
X143265500Y-89042900D01*
X166121000Y-90235800D02*
X164994100Y-90235800D01*
X123108100Y-92775800D02*
X123046900Y-92837000D01*
X125531800Y-92775800D02*
X123108100Y-92775800D01*
X121920000Y-92837000D02*
X123046900Y-92837000D01*
X166121000Y-92775800D02*
X164994100Y-92775800D01*
X125531800Y-92775800D02*
X126658700Y-92775800D01*
X127527700Y-91906800D02*
X126658700Y-92775800D01*
X136525600Y-91906800D02*
X127527700Y-91906800D01*
X138584900Y-93966100D02*
X136525600Y-91906800D01*
X163803800Y-93966100D02*
X138584900Y-93966100D01*
X164994100Y-92775800D02*
X163803800Y-93966100D01*
X123108100Y-95315800D02*
X123046900Y-95377000D01*
X125531800Y-95315800D02*
X123108100Y-95315800D01*
X121920000Y-95377000D02*
X123046900Y-95377000D01*
X166121000Y-95315800D02*
X164994100Y-95315800D01*
X125531800Y-95315800D02*
X126471500Y-95315800D01*
X163807500Y-96502400D02*
X164994100Y-95315800D01*
X146517500Y-96502400D02*
X163807500Y-96502400D01*
X145083800Y-95068700D02*
X146517500Y-96502400D01*
X142622800Y-95068700D02*
X145083800Y-95068700D01*
X142186400Y-95505100D02*
X142622800Y-95068700D01*
X126660800Y-95505100D02*
X142186400Y-95505100D01*
X126471500Y-95315800D02*
X126660800Y-95505100D01*
X121920000Y-97917000D02*
X123046900Y-97917000D01*
X123108100Y-97855800D02*
X125531800Y-97855800D01*
X123046900Y-97917000D02*
X123108100Y-97855800D01*
X125531800Y-97855800D02*
X126658700Y-97855800D01*
X166121000Y-97855800D02*
X164994100Y-97855800D01*
X127389400Y-97855800D02*
X126658700Y-97855800D01*
X128580000Y-99046400D02*
X127389400Y-97855800D01*
X163803500Y-99046400D02*
X128580000Y-99046400D01*
X164994100Y-97855800D02*
X163803500Y-99046400D01*
X123108100Y-100395800D02*
X123046900Y-100457000D01*
X125531800Y-100395800D02*
X123108100Y-100395800D01*
X121920000Y-100457000D02*
X123046900Y-100457000D01*
X166121000Y-100395800D02*
X164994100Y-100395800D01*
X125531800Y-100395800D02*
X126658700Y-100395800D01*
X163853000Y-101536900D02*
X164994100Y-100395800D01*
X150121200Y-101536900D02*
X163853000Y-101536900D01*
X148980100Y-100395800D02*
X150121200Y-101536900D01*
X126658700Y-100395800D02*
X148980100Y-100395800D01*
X123108100Y-102935800D02*
X123046900Y-102997000D01*
X125531800Y-102935800D02*
X123108100Y-102935800D01*
X121920000Y-102997000D02*
X123046900Y-102997000D01*
X166121000Y-102935800D02*
X164994100Y-102935800D01*
X125531800Y-102935800D02*
X126658700Y-102935800D01*
X163854700Y-104075200D02*
X164994100Y-102935800D01*
X138340200Y-104075200D02*
X163854700Y-104075200D01*
X136358300Y-102093300D02*
X138340200Y-104075200D01*
X127501200Y-102093300D02*
X136358300Y-102093300D01*
X126658700Y-102935800D02*
X127501200Y-102093300D01*
X106680000Y-123317000D02*
X107806900Y-123317000D01*
X107868100Y-123255800D02*
X110291800Y-123255800D01*
X107806900Y-123317000D02*
X107868100Y-123255800D01*
X112545600Y-122128900D02*
X111418700Y-123255800D01*
X148627200Y-122128900D02*
X112545600Y-122128900D01*
X149754100Y-123255800D02*
X148627200Y-122128900D01*
X150881000Y-123255800D02*
X149754100Y-123255800D01*
X110291800Y-123255800D02*
X111418700Y-123255800D01*
X121369700Y-126959400D02*
X121369700Y-126593600D01*
X122201000Y-127790700D02*
X121369700Y-126959400D01*
X157900000Y-127790700D02*
X122201000Y-127790700D01*
X159097100Y-126593600D02*
X157900000Y-127790700D01*
X160274000Y-126593600D02*
X159097100Y-126593600D01*
X120192800Y-126593600D02*
X121369700Y-126593600D01*
X106680000Y-118237000D02*
X106680000Y-119363900D01*
X114099200Y-119363900D02*
X106680000Y-119363900D01*
X116163600Y-121428300D02*
X114099200Y-119363900D01*
X127849300Y-111746400D02*
X126658700Y-110555800D01*
X163803500Y-111746400D02*
X127849300Y-111746400D01*
X164994100Y-110555800D02*
X163803500Y-111746400D01*
X166121000Y-110555800D02*
X164994100Y-110555800D01*
X126095300Y-110555800D02*
X126658700Y-110555800D01*
X126095300Y-110555800D02*
X125531800Y-110555800D01*
X123108100Y-110555800D02*
X123046900Y-110617000D01*
X125531800Y-110555800D02*
X123108100Y-110555800D01*
X121920000Y-110617000D02*
X123046900Y-110617000D01*
X150881000Y-115635800D02*
X149754100Y-115635800D01*
X149115000Y-115635800D02*
X149754100Y-115635800D01*
X147981700Y-114502500D02*
X149115000Y-115635800D01*
X112552000Y-114502500D02*
X147981700Y-114502500D01*
X111418700Y-115635800D02*
X112552000Y-114502500D01*
X110855300Y-115635800D02*
X111418700Y-115635800D01*
X110855300Y-115635800D02*
X110291800Y-115635800D01*
X107868100Y-115635800D02*
X107806900Y-115697000D01*
X110291800Y-115635800D02*
X107868100Y-115635800D01*
X106680000Y-115697000D02*
X107806900Y-115697000D01*
X166121000Y-113095800D02*
X164994100Y-113095800D01*
X147532400Y-113095800D02*
X125531800Y-113095800D01*
X148714000Y-114277400D02*
X147532400Y-113095800D01*
X163812500Y-114277400D02*
X148714000Y-114277400D01*
X164994100Y-113095800D02*
X163812500Y-114277400D01*
X123108100Y-113095800D02*
X123046900Y-113157000D01*
X125531800Y-113095800D02*
X123108100Y-113095800D01*
X121920000Y-113157000D02*
X123046900Y-113157000D01*
X107868100Y-113095800D02*
X107806900Y-113157000D01*
X110291800Y-113095800D02*
X107868100Y-113095800D01*
X106680000Y-113157000D02*
X107806900Y-113157000D01*
X123108100Y-115635800D02*
X123046900Y-115697000D01*
X125531800Y-115635800D02*
X123108100Y-115635800D01*
X121920000Y-115697000D02*
X123046900Y-115697000D01*
X107868100Y-110555800D02*
X107806900Y-110617000D01*
X110291800Y-110555800D02*
X107868100Y-110555800D01*
X106680000Y-110617000D02*
X107806900Y-110617000D01*
X123108100Y-118175800D02*
X123046900Y-118237000D01*
X125531800Y-118175800D02*
X123108100Y-118175800D01*
X121920000Y-118237000D02*
X123046900Y-118237000D01*
X107868100Y-108015800D02*
X107806900Y-108077000D01*
X110291800Y-108015800D02*
X107868100Y-108015800D01*
X106680000Y-108077000D02*
X107806900Y-108077000D01*
X112647000Y-109244100D02*
X111418700Y-108015800D01*
X148525800Y-109244100D02*
X112647000Y-109244100D01*
X149754100Y-108015800D02*
X148525800Y-109244100D01*
X150881000Y-108015800D02*
X149754100Y-108015800D01*
X110291800Y-108015800D02*
X111418700Y-108015800D01*
X123108100Y-120715800D02*
X123046900Y-120777000D01*
X125531800Y-120715800D02*
X123108100Y-120715800D01*
X121920000Y-120777000D02*
X123046900Y-120777000D01*
X109103700Y-105537000D02*
X109164900Y-105475800D01*
X106680000Y-105537000D02*
X109103700Y-105537000D01*
X110291800Y-105475800D02*
X109164900Y-105475800D01*
X112749900Y-106807000D02*
X111418700Y-105475800D01*
X136162900Y-106807000D02*
X112749900Y-106807000D01*
X137898700Y-105071200D02*
X136162900Y-106807000D01*
X149349500Y-105071200D02*
X137898700Y-105071200D01*
X149754100Y-105475800D02*
X149349500Y-105071200D01*
X150881000Y-105475800D02*
X149754100Y-105475800D01*
X110291800Y-105475800D02*
X111418700Y-105475800D01*
X123108100Y-123255800D02*
X123046900Y-123317000D01*
X125531800Y-123255800D02*
X123108100Y-123255800D01*
X121920000Y-123317000D02*
X123046900Y-123317000D01*
G04 #@! TA.AperFunction,Conductor*
G36*
X110285619Y-88677065D02*
G01*
X110290746Y-88674370D01*
X110315572Y-88671900D01*
X150857228Y-88671900D01*
X150874819Y-88677065D01*
X150879946Y-88674370D01*
X150904772Y-88671900D01*
X172085500Y-88671900D01*
X172153621Y-88691902D01*
X172200114Y-88745558D01*
X172211500Y-88797900D01*
X172211500Y-128499100D01*
X172191498Y-128567221D01*
X172137842Y-128613714D01*
X172085500Y-128625100D01*
X158183978Y-128625100D01*
X158115857Y-128605098D01*
X158069364Y-128551442D01*
X158059260Y-128481168D01*
X158088754Y-128416588D01*
X158139555Y-128384042D01*
X158138705Y-128382078D01*
X158145982Y-128378929D01*
X158153593Y-128376718D01*
X158160412Y-128372685D01*
X158160417Y-128372683D01*
X158171028Y-128366407D01*
X158188776Y-128357712D01*
X158207617Y-128350252D01*
X158243387Y-128324264D01*
X158253307Y-128317748D01*
X158284535Y-128299280D01*
X158284538Y-128299278D01*
X158291362Y-128295242D01*
X158305683Y-128280921D01*
X158320717Y-128268080D01*
X158330694Y-128260831D01*
X158337107Y-128256172D01*
X158342157Y-128250068D01*
X158342162Y-128250063D01*
X158365293Y-128222102D01*
X158373283Y-128213321D01*
X159084743Y-127501862D01*
X159147055Y-127467837D01*
X159217871Y-127472902D01*
X159269076Y-127508461D01*
X159320250Y-127567538D01*
X159492126Y-127710232D01*
X159685000Y-127822938D01*
X159893692Y-127902630D01*
X159898760Y-127903661D01*
X159898763Y-127903662D01*
X160006017Y-127925483D01*
X160112597Y-127947167D01*
X160117772Y-127947357D01*
X160117774Y-127947357D01*
X160330673Y-127955164D01*
X160330677Y-127955164D01*
X160335837Y-127955353D01*
X160340957Y-127954697D01*
X160340959Y-127954697D01*
X160552288Y-127927625D01*
X160552289Y-127927625D01*
X160557416Y-127926968D01*
X160562366Y-127925483D01*
X160766429Y-127864261D01*
X160766434Y-127864259D01*
X160771384Y-127862774D01*
X160971994Y-127764496D01*
X161153860Y-127634773D01*
X161312096Y-127477089D01*
X161371594Y-127394289D01*
X161442453Y-127295677D01*
X161443776Y-127296628D01*
X161490645Y-127253457D01*
X161560580Y-127241225D01*
X161626026Y-127268744D01*
X161653875Y-127300594D01*
X161713987Y-127398688D01*
X161860250Y-127567538D01*
X162032126Y-127710232D01*
X162225000Y-127822938D01*
X162433692Y-127902630D01*
X162438760Y-127903661D01*
X162438763Y-127903662D01*
X162546017Y-127925483D01*
X162652597Y-127947167D01*
X162657772Y-127947357D01*
X162657774Y-127947357D01*
X162870673Y-127955164D01*
X162870677Y-127955164D01*
X162875837Y-127955353D01*
X162880957Y-127954697D01*
X162880959Y-127954697D01*
X163092288Y-127927625D01*
X163092289Y-127927625D01*
X163097416Y-127926968D01*
X163102366Y-127925483D01*
X163306429Y-127864261D01*
X163306434Y-127864259D01*
X163311384Y-127862774D01*
X163511994Y-127764496D01*
X163693860Y-127634773D01*
X163802091Y-127526919D01*
X163864462Y-127493004D01*
X163935268Y-127498192D01*
X163992030Y-127540838D01*
X164009012Y-127571941D01*
X164053385Y-127690305D01*
X164140739Y-127806861D01*
X164257295Y-127894215D01*
X164393684Y-127945345D01*
X164455866Y-127952100D01*
X166252134Y-127952100D01*
X166314316Y-127945345D01*
X166450705Y-127894215D01*
X166567261Y-127806861D01*
X166654615Y-127690305D01*
X166705745Y-127553916D01*
X166712500Y-127491734D01*
X166712500Y-125695466D01*
X166705745Y-125633284D01*
X166654615Y-125496895D01*
X166567261Y-125380339D01*
X166450705Y-125292985D01*
X166314316Y-125241855D01*
X166252134Y-125235100D01*
X164455866Y-125235100D01*
X164393684Y-125241855D01*
X164257295Y-125292985D01*
X164256875Y-125291865D01*
X164196041Y-125305175D01*
X164129491Y-125280443D01*
X164115785Y-125268580D01*
X155460952Y-116613747D01*
X155453412Y-116605461D01*
X155449300Y-116598982D01*
X155399648Y-116552356D01*
X155396807Y-116549602D01*
X155377070Y-116529865D01*
X155373873Y-116527385D01*
X155364851Y-116519680D01*
X155351422Y-116507069D01*
X155332621Y-116489414D01*
X155325675Y-116485595D01*
X155325672Y-116485593D01*
X155314866Y-116479652D01*
X155298347Y-116468801D01*
X155297883Y-116468441D01*
X155282341Y-116456386D01*
X155275072Y-116453241D01*
X155275068Y-116453238D01*
X155241763Y-116438826D01*
X155231113Y-116433609D01*
X155192360Y-116412305D01*
X155172737Y-116407267D01*
X155154034Y-116400863D01*
X155142720Y-116395967D01*
X155142719Y-116395967D01*
X155135445Y-116392819D01*
X155127622Y-116391580D01*
X155127612Y-116391577D01*
X155091776Y-116385901D01*
X155080156Y-116383495D01*
X155045011Y-116374472D01*
X155045010Y-116374472D01*
X155037330Y-116372500D01*
X155017076Y-116372500D01*
X154997365Y-116370949D01*
X154985186Y-116369020D01*
X154977357Y-116367780D01*
X154969465Y-116368526D01*
X154933339Y-116371941D01*
X154921481Y-116372500D01*
X152179022Y-116372500D01*
X152110901Y-116352498D01*
X152064408Y-116298842D01*
X152054304Y-116228568D01*
X152064827Y-116193251D01*
X152112959Y-116090030D01*
X152112961Y-116090025D01*
X152115284Y-116085043D01*
X152120067Y-116067195D01*
X152173119Y-115869202D01*
X152173119Y-115869200D01*
X152174543Y-115863887D01*
X152194498Y-115635800D01*
X152174543Y-115407713D01*
X152167135Y-115380067D01*
X152116707Y-115191867D01*
X152116706Y-115191865D01*
X152115284Y-115186557D01*
X152085462Y-115122602D01*
X152070329Y-115090150D01*
X152059668Y-115019958D01*
X152088648Y-114955145D01*
X152148068Y-114916289D01*
X152184524Y-114910900D01*
X163733733Y-114910900D01*
X163744916Y-114911427D01*
X163752409Y-114913102D01*
X163760335Y-114912853D01*
X163760336Y-114912853D01*
X163820486Y-114910962D01*
X163824445Y-114910900D01*
X163852356Y-114910900D01*
X163856291Y-114910403D01*
X163856356Y-114910395D01*
X163868193Y-114909462D01*
X163900451Y-114908448D01*
X163904470Y-114908322D01*
X163912389Y-114908073D01*
X163931843Y-114902421D01*
X163951200Y-114898413D01*
X163963430Y-114896868D01*
X163963431Y-114896868D01*
X163971297Y-114895874D01*
X163978668Y-114892955D01*
X163978670Y-114892955D01*
X164012412Y-114879596D01*
X164023642Y-114875751D01*
X164058483Y-114865629D01*
X164058484Y-114865629D01*
X164066093Y-114863418D01*
X164072912Y-114859385D01*
X164072917Y-114859383D01*
X164083528Y-114853107D01*
X164101276Y-114844412D01*
X164120117Y-114836952D01*
X164155887Y-114810964D01*
X164165807Y-114804448D01*
X164197035Y-114785980D01*
X164197038Y-114785978D01*
X164203862Y-114781942D01*
X164218183Y-114767621D01*
X164233217Y-114754780D01*
X164243194Y-114747531D01*
X164249607Y-114742872D01*
X164254657Y-114736768D01*
X164254662Y-114736763D01*
X164277793Y-114708802D01*
X164285783Y-114700021D01*
X164991159Y-113994646D01*
X165053471Y-113960621D01*
X165124287Y-113965686D01*
X165169349Y-113994647D01*
X165276700Y-114101998D01*
X165281208Y-114105155D01*
X165281211Y-114105157D01*
X165358537Y-114159301D01*
X165464251Y-114233323D01*
X165469233Y-114235646D01*
X165469238Y-114235649D01*
X165503457Y-114251605D01*
X165556742Y-114298522D01*
X165576203Y-114366799D01*
X165555661Y-114434759D01*
X165503457Y-114479995D01*
X165469238Y-114495951D01*
X165469233Y-114495954D01*
X165464251Y-114498277D01*
X165376849Y-114559477D01*
X165281211Y-114626443D01*
X165281208Y-114626445D01*
X165276700Y-114629602D01*
X165114802Y-114791500D01*
X165111645Y-114796008D01*
X165111643Y-114796011D01*
X165077757Y-114844406D01*
X164983477Y-114979051D01*
X164981154Y-114984033D01*
X164981151Y-114984038D01*
X164914721Y-115126499D01*
X164886716Y-115186557D01*
X164885294Y-115191865D01*
X164885293Y-115191867D01*
X164834865Y-115380067D01*
X164827457Y-115407713D01*
X164807502Y-115635800D01*
X164827457Y-115863887D01*
X164828881Y-115869200D01*
X164828881Y-115869202D01*
X164881934Y-116067195D01*
X164886716Y-116085043D01*
X164889039Y-116090024D01*
X164889039Y-116090025D01*
X164981151Y-116287562D01*
X164981154Y-116287567D01*
X164983477Y-116292549D01*
X165040335Y-116373750D01*
X165109436Y-116472436D01*
X165114802Y-116480100D01*
X165276700Y-116641998D01*
X165281208Y-116645155D01*
X165281211Y-116645157D01*
X165358537Y-116699301D01*
X165464251Y-116773323D01*
X165469233Y-116775646D01*
X165469238Y-116775649D01*
X165503457Y-116791605D01*
X165556742Y-116838522D01*
X165576203Y-116906799D01*
X165555661Y-116974759D01*
X165503457Y-117019995D01*
X165469238Y-117035951D01*
X165469233Y-117035954D01*
X165464251Y-117038277D01*
X165377350Y-117099126D01*
X165281211Y-117166443D01*
X165281208Y-117166445D01*
X165276700Y-117169602D01*
X165114802Y-117331500D01*
X165111645Y-117336008D01*
X165111643Y-117336011D01*
X165061277Y-117407941D01*
X164983477Y-117519051D01*
X164981154Y-117524033D01*
X164981151Y-117524038D01*
X164897886Y-117702602D01*
X164886716Y-117726557D01*
X164885294Y-117731865D01*
X164885293Y-117731867D01*
X164850798Y-117860603D01*
X164827457Y-117947713D01*
X164807502Y-118175800D01*
X164827457Y-118403887D01*
X164828880Y-118409199D01*
X164828881Y-118409202D01*
X164879179Y-118596913D01*
X164886716Y-118625043D01*
X164889039Y-118630024D01*
X164889039Y-118630025D01*
X164981151Y-118827562D01*
X164981154Y-118827567D01*
X164983477Y-118832549D01*
X165035960Y-118907502D01*
X165074728Y-118962868D01*
X165114802Y-119020100D01*
X165276700Y-119181998D01*
X165281208Y-119185155D01*
X165281211Y-119185157D01*
X165281704Y-119185502D01*
X165464251Y-119313323D01*
X165469233Y-119315646D01*
X165469238Y-119315649D01*
X165503457Y-119331605D01*
X165556742Y-119378522D01*
X165576203Y-119446799D01*
X165555661Y-119514759D01*
X165503457Y-119559995D01*
X165469238Y-119575951D01*
X165469233Y-119575954D01*
X165464251Y-119578277D01*
X165376849Y-119639477D01*
X165281211Y-119706443D01*
X165281208Y-119706445D01*
X165276700Y-119709602D01*
X165114802Y-119871500D01*
X165111645Y-119876008D01*
X165111643Y-119876011D01*
X165068787Y-119937216D01*
X164983477Y-120059051D01*
X164981154Y-120064033D01*
X164981151Y-120064038D01*
X164894689Y-120249458D01*
X164886716Y-120266557D01*
X164885294Y-120271865D01*
X164885293Y-120271867D01*
X164864863Y-120348112D01*
X164827457Y-120487713D01*
X164807502Y-120715800D01*
X164827457Y-120943887D01*
X164828881Y-120949200D01*
X164828881Y-120949202D01*
X164859853Y-121064788D01*
X164886716Y-121165043D01*
X164889039Y-121170024D01*
X164889039Y-121170025D01*
X164981151Y-121367562D01*
X164981154Y-121367567D01*
X164983477Y-121372549D01*
X165032123Y-121442022D01*
X165105573Y-121546919D01*
X165114802Y-121560100D01*
X165276700Y-121721998D01*
X165281211Y-121725157D01*
X165285424Y-121728692D01*
X165284473Y-121729826D01*
X165324471Y-121779871D01*
X165331776Y-121850490D01*
X165299742Y-121913849D01*
X165238538Y-121949830D01*
X165221483Y-121952882D01*
X165210684Y-121954055D01*
X165074295Y-122005185D01*
X164957739Y-122092539D01*
X164870385Y-122209095D01*
X164819255Y-122345484D01*
X164812500Y-122407666D01*
X164812500Y-124103934D01*
X164819255Y-124166116D01*
X164870385Y-124302505D01*
X164957739Y-124419061D01*
X165074295Y-124506415D01*
X165210684Y-124557545D01*
X165272866Y-124564300D01*
X166969134Y-124564300D01*
X167031316Y-124557545D01*
X167167705Y-124506415D01*
X167284261Y-124419061D01*
X167371615Y-124302505D01*
X167422745Y-124166116D01*
X167429500Y-124103934D01*
X167429500Y-123825000D01*
X168663302Y-123825000D01*
X168683257Y-124053087D01*
X168684681Y-124058400D01*
X168684681Y-124058402D01*
X168731270Y-124232271D01*
X168742516Y-124274243D01*
X168744839Y-124279224D01*
X168744839Y-124279225D01*
X168836951Y-124476762D01*
X168836954Y-124476767D01*
X168839277Y-124481749D01*
X168892350Y-124557545D01*
X168944488Y-124632005D01*
X168970602Y-124669300D01*
X169132500Y-124831198D01*
X169137008Y-124834355D01*
X169137011Y-124834357D01*
X169173616Y-124859988D01*
X169320051Y-124962523D01*
X169325033Y-124964846D01*
X169325038Y-124964849D01*
X169489159Y-125041379D01*
X169527557Y-125059284D01*
X169532865Y-125060706D01*
X169532867Y-125060707D01*
X169743398Y-125117119D01*
X169743400Y-125117119D01*
X169748713Y-125118543D01*
X169976800Y-125138498D01*
X170204887Y-125118543D01*
X170210200Y-125117119D01*
X170210202Y-125117119D01*
X170420733Y-125060707D01*
X170420735Y-125060706D01*
X170426043Y-125059284D01*
X170464441Y-125041379D01*
X170628562Y-124964849D01*
X170628567Y-124964846D01*
X170633549Y-124962523D01*
X170779984Y-124859988D01*
X170816589Y-124834357D01*
X170816592Y-124834355D01*
X170821100Y-124831198D01*
X170982998Y-124669300D01*
X171009113Y-124632005D01*
X171061250Y-124557545D01*
X171114323Y-124481749D01*
X171116646Y-124476767D01*
X171116649Y-124476762D01*
X171208761Y-124279225D01*
X171208761Y-124279224D01*
X171211084Y-124274243D01*
X171222331Y-124232271D01*
X171268919Y-124058402D01*
X171268919Y-124058400D01*
X171270343Y-124053087D01*
X171290298Y-123825000D01*
X171270343Y-123596913D01*
X171262162Y-123566381D01*
X171212507Y-123381067D01*
X171212506Y-123381065D01*
X171211084Y-123375757D01*
X171159456Y-123265039D01*
X171116649Y-123173238D01*
X171116646Y-123173233D01*
X171114323Y-123168251D01*
X171015917Y-123027713D01*
X170986157Y-122985211D01*
X170986155Y-122985208D01*
X170982998Y-122980700D01*
X170821100Y-122818802D01*
X170816592Y-122815645D01*
X170816589Y-122815643D01*
X170738411Y-122760902D01*
X170633549Y-122687477D01*
X170628567Y-122685154D01*
X170628562Y-122685151D01*
X170431025Y-122593039D01*
X170431024Y-122593039D01*
X170426043Y-122590716D01*
X170420735Y-122589294D01*
X170420733Y-122589293D01*
X170210202Y-122532881D01*
X170210200Y-122532881D01*
X170204887Y-122531457D01*
X169976800Y-122511502D01*
X169748713Y-122531457D01*
X169743400Y-122532881D01*
X169743398Y-122532881D01*
X169532867Y-122589293D01*
X169532865Y-122589294D01*
X169527557Y-122590716D01*
X169522576Y-122593039D01*
X169522575Y-122593039D01*
X169325038Y-122685151D01*
X169325033Y-122685154D01*
X169320051Y-122687477D01*
X169215189Y-122760902D01*
X169137011Y-122815643D01*
X169137008Y-122815645D01*
X169132500Y-122818802D01*
X168970602Y-122980700D01*
X168967445Y-122985208D01*
X168967443Y-122985211D01*
X168937683Y-123027713D01*
X168839277Y-123168251D01*
X168836954Y-123173233D01*
X168836951Y-123173238D01*
X168794144Y-123265039D01*
X168742516Y-123375757D01*
X168741094Y-123381065D01*
X168741093Y-123381067D01*
X168691438Y-123566381D01*
X168683257Y-123596913D01*
X168663302Y-123825000D01*
X167429500Y-123825000D01*
X167429500Y-122407666D01*
X167422745Y-122345484D01*
X167371615Y-122209095D01*
X167284261Y-122092539D01*
X167167705Y-122005185D01*
X167031316Y-121954055D01*
X167020526Y-121952883D01*
X167018394Y-121951997D01*
X167015778Y-121951375D01*
X167015879Y-121950952D01*
X166954965Y-121925645D01*
X166914537Y-121867283D01*
X166912078Y-121796329D01*
X166948371Y-121735310D01*
X166957031Y-121728311D01*
X166960793Y-121725154D01*
X166965300Y-121721998D01*
X167127198Y-121560100D01*
X167136428Y-121546919D01*
X167209877Y-121442022D01*
X167258523Y-121372549D01*
X167260846Y-121367567D01*
X167260849Y-121367562D01*
X167352961Y-121170025D01*
X167352961Y-121170024D01*
X167355284Y-121165043D01*
X167382148Y-121064788D01*
X167413119Y-120949202D01*
X167413119Y-120949200D01*
X167414543Y-120943887D01*
X167434498Y-120715800D01*
X167414543Y-120487713D01*
X167377137Y-120348112D01*
X167356707Y-120271867D01*
X167356706Y-120271865D01*
X167355284Y-120266557D01*
X167347311Y-120249458D01*
X167260849Y-120064038D01*
X167260846Y-120064033D01*
X167258523Y-120059051D01*
X167173213Y-119937216D01*
X167130357Y-119876011D01*
X167130355Y-119876008D01*
X167127198Y-119871500D01*
X166965300Y-119709602D01*
X166960792Y-119706445D01*
X166960789Y-119706443D01*
X166865151Y-119639477D01*
X166777749Y-119578277D01*
X166772767Y-119575954D01*
X166772762Y-119575951D01*
X166738543Y-119559995D01*
X166685258Y-119513078D01*
X166665797Y-119444801D01*
X166686339Y-119376841D01*
X166738543Y-119331605D01*
X166772762Y-119315649D01*
X166772767Y-119315646D01*
X166777749Y-119313323D01*
X166960296Y-119185502D01*
X166960789Y-119185157D01*
X166960792Y-119185155D01*
X166965300Y-119181998D01*
X167127198Y-119020100D01*
X167167273Y-118962868D01*
X167206040Y-118907502D01*
X167258523Y-118832549D01*
X167260846Y-118827567D01*
X167260849Y-118827562D01*
X167262044Y-118825000D01*
X168663302Y-118825000D01*
X168683257Y-119053087D01*
X168684681Y-119058400D01*
X168684681Y-119058402D01*
X168716755Y-119178101D01*
X168742516Y-119274243D01*
X168744839Y-119279224D01*
X168744839Y-119279225D01*
X168836951Y-119476762D01*
X168836954Y-119476767D01*
X168839277Y-119481749D01*
X168894066Y-119559995D01*
X168949720Y-119639477D01*
X168970602Y-119669300D01*
X169132500Y-119831198D01*
X169137008Y-119834355D01*
X169137011Y-119834357D01*
X169190057Y-119871500D01*
X169320051Y-119962523D01*
X169325033Y-119964846D01*
X169325038Y-119964849D01*
X169517390Y-120054543D01*
X169527557Y-120059284D01*
X169532865Y-120060706D01*
X169532867Y-120060707D01*
X169743398Y-120117119D01*
X169743400Y-120117119D01*
X169748713Y-120118543D01*
X169976800Y-120138498D01*
X170204887Y-120118543D01*
X170210200Y-120117119D01*
X170210202Y-120117119D01*
X170420733Y-120060707D01*
X170420735Y-120060706D01*
X170426043Y-120059284D01*
X170436210Y-120054543D01*
X170628562Y-119964849D01*
X170628567Y-119964846D01*
X170633549Y-119962523D01*
X170763543Y-119871500D01*
X170816589Y-119834357D01*
X170816592Y-119834355D01*
X170821100Y-119831198D01*
X170982998Y-119669300D01*
X171003881Y-119639477D01*
X171059534Y-119559995D01*
X171114323Y-119481749D01*
X171116646Y-119476767D01*
X171116649Y-119476762D01*
X171208761Y-119279225D01*
X171208761Y-119279224D01*
X171211084Y-119274243D01*
X171236846Y-119178101D01*
X171268919Y-119058402D01*
X171268919Y-119058400D01*
X171270343Y-119053087D01*
X171290298Y-118825000D01*
X171270343Y-118596913D01*
X171240699Y-118486281D01*
X171212507Y-118381067D01*
X171212506Y-118381065D01*
X171211084Y-118375757D01*
X171197341Y-118346284D01*
X171116649Y-118173238D01*
X171116646Y-118173233D01*
X171114323Y-118168251D01*
X171002753Y-118008913D01*
X170986157Y-117985211D01*
X170986155Y-117985208D01*
X170982998Y-117980700D01*
X170821100Y-117818802D01*
X170816592Y-117815645D01*
X170816589Y-117815643D01*
X170684091Y-117722867D01*
X170633549Y-117687477D01*
X170628567Y-117685154D01*
X170628562Y-117685151D01*
X170426856Y-117591095D01*
X170373571Y-117544178D01*
X170354110Y-117475901D01*
X170374652Y-117407941D01*
X170426856Y-117362705D01*
X170628562Y-117268649D01*
X170628567Y-117268646D01*
X170633549Y-117266323D01*
X170776192Y-117166443D01*
X170816589Y-117138157D01*
X170816592Y-117138155D01*
X170821100Y-117134998D01*
X170982998Y-116973100D01*
X170987270Y-116967000D01*
X171085788Y-116826301D01*
X171114323Y-116785549D01*
X171116646Y-116780567D01*
X171116649Y-116780562D01*
X171208761Y-116583025D01*
X171208761Y-116583024D01*
X171211084Y-116578043D01*
X171220930Y-116541300D01*
X171268919Y-116362202D01*
X171268919Y-116362200D01*
X171270343Y-116356887D01*
X171290298Y-116128800D01*
X171270343Y-115900713D01*
X171261900Y-115869202D01*
X171212507Y-115684867D01*
X171212506Y-115684865D01*
X171211084Y-115679557D01*
X171174636Y-115601393D01*
X171116649Y-115477038D01*
X171116646Y-115477033D01*
X171114323Y-115472051D01*
X170982998Y-115284500D01*
X170821100Y-115122602D01*
X170816592Y-115119445D01*
X170816589Y-115119443D01*
X170703491Y-115040251D01*
X170633549Y-114991277D01*
X170628567Y-114988954D01*
X170628562Y-114988951D01*
X170431025Y-114896839D01*
X170431024Y-114896839D01*
X170426043Y-114894516D01*
X170420735Y-114893094D01*
X170420733Y-114893093D01*
X170210202Y-114836681D01*
X170210200Y-114836681D01*
X170204887Y-114835257D01*
X169976800Y-114815302D01*
X169748713Y-114835257D01*
X169743400Y-114836681D01*
X169743398Y-114836681D01*
X169532867Y-114893093D01*
X169532865Y-114893094D01*
X169527557Y-114894516D01*
X169522576Y-114896839D01*
X169522575Y-114896839D01*
X169325038Y-114988951D01*
X169325033Y-114988954D01*
X169320051Y-114991277D01*
X169250109Y-115040251D01*
X169137011Y-115119443D01*
X169137008Y-115119445D01*
X169132500Y-115122602D01*
X168970602Y-115284500D01*
X168839277Y-115472051D01*
X168836954Y-115477033D01*
X168836951Y-115477038D01*
X168778964Y-115601393D01*
X168742516Y-115679557D01*
X168741094Y-115684865D01*
X168741093Y-115684867D01*
X168691700Y-115869202D01*
X168683257Y-115900713D01*
X168663302Y-116128800D01*
X168683257Y-116356887D01*
X168684681Y-116362200D01*
X168684681Y-116362202D01*
X168732671Y-116541300D01*
X168742516Y-116578043D01*
X168744839Y-116583024D01*
X168744839Y-116583025D01*
X168836951Y-116780562D01*
X168836954Y-116780567D01*
X168839277Y-116785549D01*
X168867812Y-116826301D01*
X168966331Y-116967000D01*
X168970602Y-116973100D01*
X169132500Y-117134998D01*
X169137008Y-117138155D01*
X169137011Y-117138157D01*
X169177408Y-117166443D01*
X169320051Y-117266323D01*
X169325033Y-117268646D01*
X169325038Y-117268649D01*
X169526744Y-117362705D01*
X169580029Y-117409622D01*
X169599490Y-117477899D01*
X169578948Y-117545859D01*
X169526744Y-117591095D01*
X169325038Y-117685151D01*
X169325033Y-117685154D01*
X169320051Y-117687477D01*
X169269509Y-117722867D01*
X169137011Y-117815643D01*
X169137008Y-117815645D01*
X169132500Y-117818802D01*
X168970602Y-117980700D01*
X168967445Y-117985208D01*
X168967443Y-117985211D01*
X168950847Y-118008913D01*
X168839277Y-118168251D01*
X168836954Y-118173233D01*
X168836951Y-118173238D01*
X168756259Y-118346284D01*
X168742516Y-118375757D01*
X168741094Y-118381065D01*
X168741093Y-118381067D01*
X168712901Y-118486281D01*
X168683257Y-118596913D01*
X168663302Y-118825000D01*
X167262044Y-118825000D01*
X167352961Y-118630025D01*
X167352961Y-118630024D01*
X167355284Y-118625043D01*
X167362822Y-118596913D01*
X167413119Y-118409202D01*
X167413120Y-118409199D01*
X167414543Y-118403887D01*
X167434498Y-118175800D01*
X167414543Y-117947713D01*
X167391202Y-117860603D01*
X167356707Y-117731867D01*
X167356706Y-117731865D01*
X167355284Y-117726557D01*
X167344114Y-117702602D01*
X167260849Y-117524038D01*
X167260846Y-117524033D01*
X167258523Y-117519051D01*
X167180723Y-117407941D01*
X167130357Y-117336011D01*
X167130355Y-117336008D01*
X167127198Y-117331500D01*
X166965300Y-117169602D01*
X166960792Y-117166445D01*
X166960789Y-117166443D01*
X166864650Y-117099126D01*
X166777749Y-117038277D01*
X166772767Y-117035954D01*
X166772762Y-117035951D01*
X166738543Y-117019995D01*
X166685258Y-116973078D01*
X166665797Y-116904801D01*
X166686339Y-116836841D01*
X166738543Y-116791605D01*
X166772762Y-116775649D01*
X166772767Y-116775646D01*
X166777749Y-116773323D01*
X166883463Y-116699301D01*
X166960789Y-116645157D01*
X166960792Y-116645155D01*
X166965300Y-116641998D01*
X167127198Y-116480100D01*
X167132565Y-116472436D01*
X167201665Y-116373750D01*
X167258523Y-116292549D01*
X167260846Y-116287567D01*
X167260849Y-116287562D01*
X167352961Y-116090025D01*
X167352961Y-116090024D01*
X167355284Y-116085043D01*
X167360067Y-116067195D01*
X167413119Y-115869202D01*
X167413119Y-115869200D01*
X167414543Y-115863887D01*
X167434498Y-115635800D01*
X167414543Y-115407713D01*
X167407135Y-115380067D01*
X167356707Y-115191867D01*
X167356706Y-115191865D01*
X167355284Y-115186557D01*
X167327279Y-115126499D01*
X167260849Y-114984038D01*
X167260846Y-114984033D01*
X167258523Y-114979051D01*
X167164243Y-114844406D01*
X167130357Y-114796011D01*
X167130355Y-114796008D01*
X167127198Y-114791500D01*
X166965300Y-114629602D01*
X166960792Y-114626445D01*
X166960789Y-114626443D01*
X166865151Y-114559477D01*
X166777749Y-114498277D01*
X166772767Y-114495954D01*
X166772762Y-114495951D01*
X166738543Y-114479995D01*
X166685258Y-114433078D01*
X166665797Y-114364801D01*
X166686339Y-114296841D01*
X166738543Y-114251605D01*
X166772762Y-114235649D01*
X166772767Y-114235646D01*
X166777749Y-114233323D01*
X166883463Y-114159301D01*
X166960789Y-114105157D01*
X166960792Y-114105155D01*
X166965300Y-114101998D01*
X167127198Y-113940100D01*
X167155067Y-113900300D01*
X167215670Y-113813749D01*
X167258523Y-113752549D01*
X167260846Y-113747567D01*
X167260849Y-113747562D01*
X167352961Y-113550025D01*
X167352961Y-113550024D01*
X167355284Y-113545043D01*
X167371296Y-113485288D01*
X167413119Y-113329202D01*
X167413120Y-113329199D01*
X167414543Y-113323887D01*
X167434498Y-113095800D01*
X167414543Y-112867713D01*
X167413119Y-112862398D01*
X167356707Y-112651867D01*
X167356706Y-112651865D01*
X167355284Y-112646557D01*
X167341591Y-112617192D01*
X167260849Y-112444038D01*
X167260846Y-112444033D01*
X167258523Y-112439051D01*
X167173213Y-112317216D01*
X167130357Y-112256011D01*
X167130355Y-112256008D01*
X167127198Y-112251500D01*
X166965300Y-112089602D01*
X166960792Y-112086445D01*
X166960789Y-112086443D01*
X166865151Y-112019477D01*
X166777749Y-111958277D01*
X166772767Y-111955954D01*
X166772762Y-111955951D01*
X166738543Y-111939995D01*
X166685258Y-111893078D01*
X166665797Y-111824801D01*
X166686339Y-111756841D01*
X166738543Y-111711605D01*
X166772762Y-111695649D01*
X166772767Y-111695646D01*
X166777749Y-111693323D01*
X166883463Y-111619301D01*
X166960789Y-111565157D01*
X166960792Y-111565155D01*
X166965300Y-111561998D01*
X167127198Y-111400100D01*
X167258523Y-111212549D01*
X167260846Y-111207567D01*
X167260849Y-111207562D01*
X167297576Y-111128800D01*
X168663302Y-111128800D01*
X168683257Y-111356887D01*
X168684681Y-111362200D01*
X168684681Y-111362202D01*
X168737173Y-111558101D01*
X168742516Y-111578043D01*
X168744839Y-111583024D01*
X168744839Y-111583025D01*
X168836951Y-111780562D01*
X168836954Y-111780567D01*
X168839277Y-111785549D01*
X168866762Y-111824801D01*
X168960223Y-111958277D01*
X168970602Y-111973100D01*
X169132500Y-112134998D01*
X169137008Y-112138155D01*
X169137011Y-112138157D01*
X169193620Y-112177795D01*
X169320051Y-112266323D01*
X169325033Y-112268646D01*
X169325038Y-112268649D01*
X169522575Y-112360761D01*
X169527557Y-112363084D01*
X169532865Y-112364506D01*
X169532867Y-112364507D01*
X169743398Y-112420919D01*
X169743400Y-112420919D01*
X169748713Y-112422343D01*
X169976800Y-112442298D01*
X170204887Y-112422343D01*
X170210200Y-112420919D01*
X170210202Y-112420919D01*
X170420733Y-112364507D01*
X170420735Y-112364506D01*
X170426043Y-112363084D01*
X170431025Y-112360761D01*
X170628562Y-112268649D01*
X170628567Y-112268646D01*
X170633549Y-112266323D01*
X170759980Y-112177795D01*
X170816589Y-112138157D01*
X170816592Y-112138155D01*
X170821100Y-112134998D01*
X170982998Y-111973100D01*
X170993378Y-111958277D01*
X171086838Y-111824801D01*
X171114323Y-111785549D01*
X171116646Y-111780567D01*
X171116649Y-111780562D01*
X171208761Y-111583025D01*
X171208761Y-111583024D01*
X171211084Y-111578043D01*
X171216428Y-111558101D01*
X171268919Y-111362202D01*
X171268919Y-111362200D01*
X171270343Y-111356887D01*
X171290298Y-111128800D01*
X171270343Y-110900713D01*
X171240464Y-110789202D01*
X171212507Y-110684867D01*
X171212506Y-110684865D01*
X171211084Y-110679557D01*
X171208761Y-110674575D01*
X171116649Y-110477038D01*
X171116646Y-110477033D01*
X171114323Y-110472051D01*
X170982998Y-110284500D01*
X170821100Y-110122602D01*
X170816592Y-110119445D01*
X170816589Y-110119443D01*
X170727195Y-110056849D01*
X170633549Y-109991277D01*
X170628567Y-109988954D01*
X170628562Y-109988951D01*
X170431025Y-109896839D01*
X170431024Y-109896839D01*
X170426043Y-109894516D01*
X170420735Y-109893094D01*
X170420733Y-109893093D01*
X170210202Y-109836681D01*
X170210200Y-109836681D01*
X170204887Y-109835257D01*
X169976800Y-109815302D01*
X169748713Y-109835257D01*
X169743400Y-109836681D01*
X169743398Y-109836681D01*
X169532867Y-109893093D01*
X169532865Y-109893094D01*
X169527557Y-109894516D01*
X169522576Y-109896839D01*
X169522575Y-109896839D01*
X169325038Y-109988951D01*
X169325033Y-109988954D01*
X169320051Y-109991277D01*
X169226405Y-110056849D01*
X169137011Y-110119443D01*
X169137008Y-110119445D01*
X169132500Y-110122602D01*
X168970602Y-110284500D01*
X168839277Y-110472051D01*
X168836954Y-110477033D01*
X168836951Y-110477038D01*
X168744839Y-110674575D01*
X168742516Y-110679557D01*
X168741094Y-110684865D01*
X168741093Y-110684867D01*
X168713136Y-110789202D01*
X168683257Y-110900713D01*
X168663302Y-111128800D01*
X167297576Y-111128800D01*
X167352961Y-111010025D01*
X167352961Y-111010024D01*
X167355284Y-111005043D01*
X167364951Y-110968968D01*
X167413119Y-110789202D01*
X167413119Y-110789200D01*
X167414543Y-110783887D01*
X167434498Y-110555800D01*
X167414543Y-110327713D01*
X167401920Y-110280603D01*
X167356707Y-110111867D01*
X167356706Y-110111865D01*
X167355284Y-110106557D01*
X167342164Y-110078420D01*
X167260849Y-109904038D01*
X167260846Y-109904033D01*
X167258523Y-109899051D01*
X167158722Y-109756521D01*
X167130357Y-109716011D01*
X167130355Y-109716008D01*
X167127198Y-109711500D01*
X166965300Y-109549602D01*
X166960792Y-109546445D01*
X166960789Y-109546443D01*
X166865151Y-109479477D01*
X166777749Y-109418277D01*
X166772767Y-109415954D01*
X166772762Y-109415951D01*
X166738543Y-109399995D01*
X166685258Y-109353078D01*
X166665797Y-109284801D01*
X166686339Y-109216841D01*
X166738543Y-109171605D01*
X166772762Y-109155649D01*
X166772767Y-109155646D01*
X166777749Y-109153323D01*
X166883463Y-109079301D01*
X166960789Y-109025157D01*
X166960792Y-109025155D01*
X166965300Y-109021998D01*
X167127198Y-108860100D01*
X167258523Y-108672549D01*
X167260846Y-108667567D01*
X167260849Y-108667562D01*
X167352961Y-108470025D01*
X167352961Y-108470024D01*
X167355284Y-108465043D01*
X167398145Y-108305087D01*
X167413119Y-108249202D01*
X167413119Y-108249200D01*
X167414543Y-108243887D01*
X167434498Y-108015800D01*
X167414543Y-107787713D01*
X167385091Y-107677796D01*
X167356707Y-107571867D01*
X167356706Y-107571865D01*
X167355284Y-107566557D01*
X167352607Y-107560816D01*
X167260849Y-107364038D01*
X167260846Y-107364033D01*
X167258523Y-107359051D01*
X167151004Y-107205498D01*
X167130357Y-107176011D01*
X167130355Y-107176008D01*
X167127198Y-107171500D01*
X166965300Y-107009602D01*
X166960792Y-107006445D01*
X166960789Y-107006443D01*
X166865151Y-106939477D01*
X166777749Y-106878277D01*
X166772767Y-106875954D01*
X166772762Y-106875951D01*
X166738543Y-106859995D01*
X166685258Y-106813078D01*
X166665797Y-106744801D01*
X166686339Y-106676841D01*
X166738543Y-106631605D01*
X166772762Y-106615649D01*
X166772767Y-106615646D01*
X166777749Y-106613323D01*
X166931622Y-106505580D01*
X166960789Y-106485157D01*
X166960792Y-106485155D01*
X166965300Y-106481998D01*
X167127198Y-106320100D01*
X167130358Y-106315588D01*
X167191687Y-106228001D01*
X167258523Y-106132549D01*
X167260846Y-106127567D01*
X167260849Y-106127562D01*
X167352961Y-105930025D01*
X167352961Y-105930024D01*
X167355284Y-105925043D01*
X167362691Y-105897402D01*
X167413119Y-105709202D01*
X167413119Y-105709200D01*
X167414543Y-105703887D01*
X167434498Y-105475800D01*
X167414543Y-105247713D01*
X167407135Y-105220067D01*
X167356707Y-105031867D01*
X167356706Y-105031865D01*
X167355284Y-105026557D01*
X167344181Y-105002746D01*
X167260849Y-104824038D01*
X167260846Y-104824033D01*
X167258523Y-104819051D01*
X167173213Y-104697216D01*
X167130357Y-104636011D01*
X167130355Y-104636008D01*
X167127198Y-104631500D01*
X166965300Y-104469602D01*
X166960792Y-104466445D01*
X166960789Y-104466443D01*
X166865151Y-104399477D01*
X166777749Y-104338277D01*
X166772767Y-104335954D01*
X166772762Y-104335951D01*
X166738543Y-104319995D01*
X166685258Y-104273078D01*
X166665797Y-104204801D01*
X166686339Y-104136841D01*
X166738543Y-104091605D01*
X166772762Y-104075649D01*
X166772767Y-104075646D01*
X166777749Y-104073323D01*
X166883463Y-103999301D01*
X166960789Y-103945157D01*
X166960792Y-103945155D01*
X166965300Y-103941998D01*
X167127198Y-103780100D01*
X167148233Y-103750060D01*
X167196141Y-103681640D01*
X167258523Y-103592549D01*
X167260846Y-103587567D01*
X167260849Y-103587562D01*
X167352961Y-103390025D01*
X167352961Y-103390024D01*
X167355284Y-103385043D01*
X167359840Y-103368042D01*
X167413119Y-103169202D01*
X167413119Y-103169200D01*
X167414543Y-103163887D01*
X167434498Y-102935800D01*
X167414543Y-102707713D01*
X167413119Y-102702398D01*
X167356707Y-102491867D01*
X167356706Y-102491865D01*
X167355284Y-102486557D01*
X167342164Y-102458420D01*
X167260849Y-102284038D01*
X167260846Y-102284033D01*
X167258523Y-102279051D01*
X167155655Y-102132140D01*
X167130357Y-102096011D01*
X167130355Y-102096008D01*
X167127198Y-102091500D01*
X166965300Y-101929602D01*
X166960792Y-101926445D01*
X166960789Y-101926443D01*
X166865151Y-101859477D01*
X166777749Y-101798277D01*
X166772767Y-101795954D01*
X166772762Y-101795951D01*
X166738543Y-101779995D01*
X166685258Y-101733078D01*
X166665797Y-101664801D01*
X166686339Y-101596841D01*
X166738543Y-101551605D01*
X166772762Y-101535649D01*
X166772767Y-101535646D01*
X166777749Y-101533323D01*
X166883463Y-101459301D01*
X166960789Y-101405157D01*
X166960792Y-101405155D01*
X166965300Y-101401998D01*
X167127198Y-101240100D01*
X167139037Y-101223193D01*
X167225500Y-101099710D01*
X167258523Y-101052549D01*
X167260846Y-101047567D01*
X167260849Y-101047562D01*
X167352961Y-100850025D01*
X167352961Y-100850024D01*
X167355284Y-100845043D01*
X167382148Y-100744788D01*
X167413119Y-100629202D01*
X167413120Y-100629199D01*
X167414543Y-100623887D01*
X167434498Y-100395800D01*
X167414543Y-100167713D01*
X167413119Y-100162398D01*
X167356707Y-99951867D01*
X167356706Y-99951865D01*
X167355284Y-99946557D01*
X167342164Y-99918420D01*
X167260849Y-99744038D01*
X167260846Y-99744033D01*
X167258523Y-99739051D01*
X167173213Y-99617216D01*
X167130357Y-99556011D01*
X167130355Y-99556008D01*
X167127198Y-99551500D01*
X166965300Y-99389602D01*
X166960792Y-99386445D01*
X166960789Y-99386443D01*
X166865151Y-99319477D01*
X166777749Y-99258277D01*
X166772767Y-99255954D01*
X166772762Y-99255951D01*
X166738543Y-99239995D01*
X166685258Y-99193078D01*
X166665797Y-99124801D01*
X166686339Y-99056841D01*
X166738543Y-99011605D01*
X166772762Y-98995649D01*
X166772767Y-98995646D01*
X166777749Y-98993323D01*
X166896973Y-98909841D01*
X166960789Y-98865157D01*
X166960792Y-98865155D01*
X166965300Y-98861998D01*
X167127198Y-98700100D01*
X167258523Y-98512549D01*
X167260846Y-98507567D01*
X167260849Y-98507562D01*
X167352961Y-98310025D01*
X167352961Y-98310024D01*
X167355284Y-98305043D01*
X167361291Y-98282627D01*
X167413119Y-98089202D01*
X167413119Y-98089200D01*
X167414543Y-98083887D01*
X167434498Y-97855800D01*
X167414543Y-97627713D01*
X167413119Y-97622398D01*
X167356707Y-97411867D01*
X167356706Y-97411865D01*
X167355284Y-97406557D01*
X167352607Y-97400816D01*
X167260849Y-97204038D01*
X167260846Y-97204033D01*
X167258523Y-97199051D01*
X167173213Y-97077216D01*
X167130357Y-97016011D01*
X167130355Y-97016008D01*
X167127198Y-97011500D01*
X166965300Y-96849602D01*
X166960792Y-96846445D01*
X166960789Y-96846443D01*
X166865151Y-96779477D01*
X166777749Y-96718277D01*
X166772767Y-96715954D01*
X166772762Y-96715951D01*
X166738543Y-96699995D01*
X166685258Y-96653078D01*
X166665797Y-96584801D01*
X166686339Y-96516841D01*
X166738543Y-96471605D01*
X166772762Y-96455649D01*
X166772767Y-96455646D01*
X166777749Y-96453323D01*
X166920032Y-96353695D01*
X166960789Y-96325157D01*
X166960792Y-96325155D01*
X166965300Y-96321998D01*
X167127198Y-96160100D01*
X167132075Y-96153136D01*
X167215670Y-96033749D01*
X167258523Y-95972549D01*
X167260846Y-95967567D01*
X167260849Y-95967562D01*
X167352961Y-95770025D01*
X167352961Y-95770024D01*
X167355284Y-95765043D01*
X167360067Y-95747195D01*
X167413119Y-95549202D01*
X167413120Y-95549199D01*
X167414543Y-95543887D01*
X167434498Y-95315800D01*
X167414543Y-95087713D01*
X167362305Y-94892758D01*
X167356707Y-94871867D01*
X167356706Y-94871865D01*
X167355284Y-94866557D01*
X167352959Y-94861570D01*
X167260849Y-94664038D01*
X167260846Y-94664033D01*
X167258523Y-94659051D01*
X167185098Y-94554189D01*
X167130357Y-94476011D01*
X167130355Y-94476008D01*
X167127198Y-94471500D01*
X166965300Y-94309602D01*
X166960792Y-94306445D01*
X166960789Y-94306443D01*
X166865151Y-94239477D01*
X166777749Y-94178277D01*
X166772767Y-94175954D01*
X166772762Y-94175951D01*
X166738543Y-94159995D01*
X166685258Y-94113078D01*
X166665797Y-94044801D01*
X166686339Y-93976841D01*
X166738543Y-93931605D01*
X166772762Y-93915649D01*
X166772767Y-93915646D01*
X166777749Y-93913323D01*
X166883463Y-93839301D01*
X166960789Y-93785157D01*
X166960792Y-93785155D01*
X166965300Y-93781998D01*
X167127198Y-93620100D01*
X167130811Y-93614941D01*
X167205793Y-93507855D01*
X167258523Y-93432549D01*
X167260846Y-93427567D01*
X167260849Y-93427562D01*
X167352961Y-93230025D01*
X167352961Y-93230024D01*
X167355284Y-93225043D01*
X167360067Y-93207195D01*
X167413119Y-93009202D01*
X167413119Y-93009200D01*
X167414543Y-93003887D01*
X167434498Y-92775800D01*
X167414543Y-92547713D01*
X167413119Y-92542398D01*
X167356707Y-92331867D01*
X167356706Y-92331865D01*
X167355284Y-92326557D01*
X167342358Y-92298837D01*
X167260849Y-92124038D01*
X167260846Y-92124033D01*
X167258523Y-92119051D01*
X167127198Y-91931500D01*
X166965300Y-91769602D01*
X166960792Y-91766445D01*
X166960789Y-91766443D01*
X166865151Y-91699477D01*
X166777749Y-91638277D01*
X166772767Y-91635954D01*
X166772762Y-91635951D01*
X166737951Y-91619719D01*
X166684666Y-91572802D01*
X166677498Y-91547655D01*
X168267458Y-91547655D01*
X168302704Y-91806638D01*
X168304012Y-91811124D01*
X168304012Y-91811126D01*
X168320029Y-91866076D01*
X168375843Y-92057567D01*
X168377803Y-92061820D01*
X168377804Y-92061821D01*
X168390130Y-92088558D01*
X168485268Y-92294928D01*
X168487831Y-92298837D01*
X168626010Y-92509596D01*
X168626014Y-92509601D01*
X168628576Y-92513509D01*
X168802618Y-92708506D01*
X169003570Y-92875637D01*
X169007573Y-92878066D01*
X169223022Y-93008804D01*
X169223026Y-93008806D01*
X169227019Y-93011229D01*
X169468055Y-93112303D01*
X169721383Y-93176641D01*
X169726034Y-93177109D01*
X169726038Y-93177110D01*
X169917254Y-93196364D01*
X169938467Y-93198500D01*
X170093954Y-93198500D01*
X170096279Y-93198327D01*
X170096285Y-93198327D01*
X170283600Y-93184407D01*
X170283604Y-93184406D01*
X170288252Y-93184061D01*
X170292800Y-93183032D01*
X170292806Y-93183031D01*
X170479201Y-93140853D01*
X170543177Y-93126377D01*
X170547531Y-93124684D01*
X170782424Y-93033340D01*
X170782427Y-93033339D01*
X170786777Y-93031647D01*
X171013698Y-92901951D01*
X171218957Y-92740138D01*
X171398043Y-92549763D01*
X171534423Y-92353173D01*
X171544359Y-92338851D01*
X171544361Y-92338848D01*
X171547024Y-92335009D01*
X171556184Y-92316435D01*
X171660560Y-92104781D01*
X171660561Y-92104778D01*
X171662625Y-92100593D01*
X171665831Y-92090579D01*
X171740880Y-91856123D01*
X171742307Y-91851665D01*
X171784321Y-91593693D01*
X171787742Y-91332345D01*
X171752496Y-91073362D01*
X171742028Y-91037446D01*
X171727827Y-90988728D01*
X171679357Y-90822433D01*
X171670325Y-90802840D01*
X171605437Y-90662089D01*
X171569932Y-90585072D01*
X171537119Y-90535024D01*
X171429190Y-90370404D01*
X171429186Y-90370399D01*
X171426624Y-90366491D01*
X171252582Y-90171494D01*
X171051630Y-90004363D01*
X170929146Y-89930038D01*
X170832178Y-89871196D01*
X170832174Y-89871194D01*
X170828181Y-89868771D01*
X170587145Y-89767697D01*
X170333817Y-89703359D01*
X170329166Y-89702891D01*
X170329162Y-89702890D01*
X170119871Y-89681816D01*
X170116733Y-89681500D01*
X169961246Y-89681500D01*
X169958921Y-89681673D01*
X169958915Y-89681673D01*
X169771600Y-89695593D01*
X169771596Y-89695594D01*
X169766948Y-89695939D01*
X169762400Y-89696968D01*
X169762394Y-89696969D01*
X169575999Y-89739147D01*
X169512023Y-89753623D01*
X169507671Y-89755315D01*
X169507669Y-89755316D01*
X169272776Y-89846660D01*
X169272773Y-89846661D01*
X169268423Y-89848353D01*
X169041502Y-89978049D01*
X168836243Y-90139862D01*
X168657157Y-90330237D01*
X168508176Y-90544991D01*
X168506110Y-90549181D01*
X168506108Y-90549184D01*
X168408536Y-90747042D01*
X168392575Y-90779407D01*
X168391153Y-90783850D01*
X168391152Y-90783852D01*
X168341933Y-90937614D01*
X168312893Y-91028335D01*
X168270879Y-91286307D01*
X168270401Y-91322858D01*
X168267782Y-91522939D01*
X168267458Y-91547655D01*
X166677498Y-91547655D01*
X166665205Y-91504525D01*
X166685747Y-91436565D01*
X166737951Y-91391329D01*
X166772511Y-91375214D01*
X166782007Y-91369731D01*
X166960467Y-91244772D01*
X166968875Y-91237716D01*
X167122916Y-91083675D01*
X167129972Y-91075267D01*
X167254931Y-90896807D01*
X167260414Y-90887311D01*
X167352490Y-90689853D01*
X167356236Y-90679561D01*
X167402394Y-90507297D01*
X167402058Y-90493201D01*
X167394116Y-90489800D01*
X164853033Y-90489800D01*
X164839502Y-90493773D01*
X164838273Y-90502322D01*
X164885764Y-90679561D01*
X164889510Y-90689853D01*
X164981586Y-90887311D01*
X164987069Y-90896807D01*
X165112028Y-91075267D01*
X165119084Y-91083675D01*
X165273125Y-91237716D01*
X165281533Y-91244772D01*
X165459993Y-91369731D01*
X165469489Y-91375214D01*
X165504049Y-91391329D01*
X165557334Y-91438246D01*
X165576795Y-91506523D01*
X165556253Y-91574483D01*
X165504049Y-91619719D01*
X165469238Y-91635951D01*
X165469233Y-91635954D01*
X165464251Y-91638277D01*
X165376849Y-91699477D01*
X165281211Y-91766443D01*
X165281208Y-91766445D01*
X165276700Y-91769602D01*
X165114802Y-91931500D01*
X165111645Y-91936008D01*
X165111643Y-91936011D01*
X165003006Y-92091160D01*
X164947549Y-92135488D01*
X164909944Y-92143507D01*
X164909965Y-92143638D01*
X164907492Y-92144030D01*
X164903753Y-92144827D01*
X164902763Y-92144858D01*
X164894210Y-92145127D01*
X164876844Y-92150172D01*
X164874758Y-92150778D01*
X164855406Y-92154786D01*
X164843168Y-92156332D01*
X164843166Y-92156333D01*
X164835303Y-92157326D01*
X164794186Y-92173606D01*
X164782985Y-92177441D01*
X164740506Y-92189782D01*
X164733687Y-92193815D01*
X164733682Y-92193817D01*
X164723071Y-92200093D01*
X164705321Y-92208790D01*
X164686483Y-92216248D01*
X164680067Y-92220909D01*
X164680066Y-92220910D01*
X164650725Y-92242228D01*
X164640801Y-92248747D01*
X164609560Y-92267222D01*
X164609555Y-92267226D01*
X164602737Y-92271258D01*
X164588413Y-92285582D01*
X164573381Y-92298421D01*
X164556993Y-92310328D01*
X164536575Y-92335009D01*
X164528812Y-92344393D01*
X164520822Y-92353173D01*
X163578300Y-93295695D01*
X163515988Y-93329721D01*
X163489205Y-93332600D01*
X152250671Y-93332600D01*
X152182550Y-93312598D01*
X152136057Y-93258942D01*
X152125953Y-93188668D01*
X152128964Y-93173989D01*
X152173119Y-93009202D01*
X152173119Y-93009200D01*
X152174543Y-93003887D01*
X152194498Y-92775800D01*
X152174543Y-92547713D01*
X152173119Y-92542398D01*
X152116707Y-92331867D01*
X152116706Y-92331865D01*
X152115284Y-92326557D01*
X152102358Y-92298837D01*
X152020849Y-92124038D01*
X152020846Y-92124033D01*
X152018523Y-92119051D01*
X151887198Y-91931500D01*
X151725300Y-91769602D01*
X151720792Y-91766445D01*
X151720789Y-91766443D01*
X151625151Y-91699477D01*
X151537749Y-91638277D01*
X151532767Y-91635954D01*
X151532762Y-91635951D01*
X151498543Y-91619995D01*
X151445258Y-91573078D01*
X151425797Y-91504801D01*
X151446339Y-91436841D01*
X151498543Y-91391605D01*
X151532762Y-91375649D01*
X151532767Y-91375646D01*
X151537749Y-91373323D01*
X151685059Y-91270175D01*
X151720789Y-91245157D01*
X151720792Y-91245155D01*
X151725300Y-91241998D01*
X151887198Y-91080100D01*
X151890855Y-91074878D01*
X151963596Y-90970993D01*
X152018523Y-90892549D01*
X152020846Y-90887567D01*
X152020849Y-90887562D01*
X152112961Y-90690025D01*
X152112961Y-90690024D01*
X152115284Y-90685043D01*
X152141756Y-90586251D01*
X152173119Y-90469202D01*
X152173119Y-90469200D01*
X152174543Y-90463887D01*
X152194498Y-90235800D01*
X152174543Y-90007713D01*
X152170426Y-89992348D01*
X152162911Y-89964303D01*
X164839606Y-89964303D01*
X164839942Y-89978399D01*
X164847884Y-89981800D01*
X165848885Y-89981800D01*
X165864124Y-89977325D01*
X165865329Y-89975935D01*
X165867000Y-89968252D01*
X165867000Y-89963685D01*
X166375000Y-89963685D01*
X166379475Y-89978924D01*
X166380865Y-89980129D01*
X166388548Y-89981800D01*
X167388967Y-89981800D01*
X167402498Y-89977827D01*
X167403727Y-89969278D01*
X167356236Y-89792039D01*
X167352490Y-89781747D01*
X167260414Y-89584289D01*
X167254931Y-89574793D01*
X167129972Y-89396333D01*
X167122916Y-89387925D01*
X166968875Y-89233884D01*
X166960467Y-89226828D01*
X166782007Y-89101869D01*
X166772511Y-89096386D01*
X166575053Y-89004310D01*
X166564761Y-89000564D01*
X166392497Y-88954406D01*
X166378401Y-88954742D01*
X166375000Y-88962684D01*
X166375000Y-89963685D01*
X165867000Y-89963685D01*
X165867000Y-88967833D01*
X165863027Y-88954302D01*
X165854478Y-88953073D01*
X165677239Y-89000564D01*
X165666947Y-89004310D01*
X165469489Y-89096386D01*
X165459993Y-89101869D01*
X165281533Y-89226828D01*
X165273125Y-89233884D01*
X165119084Y-89387925D01*
X165112028Y-89396333D01*
X164987069Y-89574793D01*
X164981586Y-89584289D01*
X164889510Y-89781747D01*
X164885764Y-89792039D01*
X164839606Y-89964303D01*
X152162911Y-89964303D01*
X152116707Y-89791867D01*
X152116706Y-89791865D01*
X152115284Y-89786557D01*
X152107332Y-89769504D01*
X152020849Y-89584038D01*
X152020846Y-89584033D01*
X152018523Y-89579051D01*
X151887198Y-89391500D01*
X151725300Y-89229602D01*
X151720792Y-89226445D01*
X151720789Y-89226443D01*
X151622451Y-89157586D01*
X151537749Y-89098277D01*
X151532767Y-89095954D01*
X151532762Y-89095951D01*
X151335225Y-89003839D01*
X151335224Y-89003839D01*
X151330243Y-89001516D01*
X151324935Y-89000094D01*
X151324933Y-89000093D01*
X151114402Y-88943681D01*
X151114400Y-88943681D01*
X151109087Y-88942257D01*
X150893790Y-88923421D01*
X150885467Y-88920165D01*
X150868210Y-88923421D01*
X150652913Y-88942257D01*
X150647600Y-88943681D01*
X150647598Y-88943681D01*
X150437067Y-89000093D01*
X150437065Y-89000094D01*
X150431757Y-89001516D01*
X150426776Y-89003839D01*
X150426775Y-89003839D01*
X150229238Y-89095951D01*
X150229233Y-89095954D01*
X150224251Y-89098277D01*
X150139549Y-89157586D01*
X150041211Y-89226443D01*
X150041208Y-89226445D01*
X150036700Y-89229602D01*
X149874802Y-89391500D01*
X149743477Y-89579051D01*
X149741154Y-89584033D01*
X149741151Y-89584038D01*
X149654668Y-89769504D01*
X149646716Y-89786557D01*
X149645294Y-89791865D01*
X149645293Y-89791867D01*
X149591574Y-89992348D01*
X149587457Y-90007713D01*
X149567502Y-90235800D01*
X149587457Y-90463887D01*
X149588881Y-90469200D01*
X149588881Y-90469202D01*
X149620245Y-90586251D01*
X149646716Y-90685043D01*
X149649039Y-90690024D01*
X149649039Y-90690025D01*
X149741151Y-90887562D01*
X149741154Y-90887567D01*
X149743477Y-90892549D01*
X149798404Y-90970993D01*
X149871146Y-91074878D01*
X149874802Y-91080100D01*
X150036700Y-91241998D01*
X150041208Y-91245155D01*
X150041211Y-91245157D01*
X150076941Y-91270175D01*
X150224251Y-91373323D01*
X150229233Y-91375646D01*
X150229238Y-91375649D01*
X150263457Y-91391605D01*
X150316742Y-91438522D01*
X150336203Y-91506799D01*
X150315661Y-91574759D01*
X150263457Y-91619995D01*
X150229238Y-91635951D01*
X150229233Y-91635954D01*
X150224251Y-91638277D01*
X150136849Y-91699477D01*
X150041211Y-91766443D01*
X150041208Y-91766445D01*
X150036700Y-91769602D01*
X149874802Y-91931500D01*
X149871645Y-91936008D01*
X149871643Y-91936011D01*
X149763007Y-92091159D01*
X149707550Y-92135487D01*
X149669943Y-92143506D01*
X149669964Y-92143637D01*
X149667495Y-92144028D01*
X149663753Y-92144826D01*
X149663337Y-92144839D01*
X149654211Y-92145126D01*
X149646595Y-92147339D01*
X149646593Y-92147339D01*
X149634752Y-92150779D01*
X149615393Y-92154788D01*
X149614083Y-92154954D01*
X149595303Y-92157326D01*
X149587937Y-92160242D01*
X149587931Y-92160244D01*
X149554198Y-92173600D01*
X149542968Y-92177445D01*
X149508117Y-92187570D01*
X149500507Y-92189781D01*
X149493684Y-92193816D01*
X149483066Y-92200095D01*
X149465313Y-92208792D01*
X149457668Y-92211819D01*
X149446483Y-92216248D01*
X149425309Y-92231632D01*
X149410712Y-92242237D01*
X149400795Y-92248751D01*
X149362738Y-92271258D01*
X149357133Y-92276862D01*
X149348415Y-92285580D01*
X149333382Y-92298420D01*
X149316993Y-92310328D01*
X149296575Y-92335009D01*
X149288813Y-92344392D01*
X149280823Y-92353173D01*
X149153499Y-92480496D01*
X149091187Y-92514521D01*
X149064404Y-92517400D01*
X147349256Y-92517400D01*
X147281135Y-92497398D01*
X147234642Y-92443742D01*
X147224538Y-92373468D01*
X147234374Y-92339649D01*
X147309173Y-92173601D01*
X147323097Y-92142691D01*
X147337794Y-92090579D01*
X147389546Y-91907082D01*
X147389547Y-91907079D01*
X147390816Y-91902578D01*
X147408013Y-91767398D01*
X147421902Y-91658222D01*
X147421902Y-91658218D01*
X147422300Y-91655092D01*
X147422384Y-91651909D01*
X147424524Y-91570160D01*
X147424607Y-91567000D01*
X147417405Y-91470084D01*
X147406464Y-91322858D01*
X147406463Y-91322854D01*
X147406118Y-91318206D01*
X147351059Y-91074878D01*
X147348724Y-91068874D01*
X147262331Y-90846714D01*
X147262330Y-90846712D01*
X147260638Y-90842361D01*
X147249874Y-90823527D01*
X147157604Y-90662089D01*
X147136842Y-90625763D01*
X146982390Y-90429842D01*
X146800676Y-90258902D01*
X146679708Y-90174984D01*
X146599530Y-90119362D01*
X146599525Y-90119359D01*
X146595692Y-90116700D01*
X146591510Y-90114637D01*
X146591502Y-90114633D01*
X146376128Y-90008423D01*
X146376125Y-90008422D01*
X146371940Y-90006358D01*
X146134337Y-89930300D01*
X146129730Y-89929550D01*
X146129727Y-89929549D01*
X145892712Y-89890949D01*
X145892713Y-89890949D01*
X145888101Y-89890198D01*
X145767153Y-89888615D01*
X145643320Y-89886994D01*
X145643317Y-89886994D01*
X145638643Y-89886933D01*
X145391442Y-89920575D01*
X145386956Y-89921883D01*
X145386954Y-89921883D01*
X145358976Y-89930038D01*
X145151928Y-89990387D01*
X145147675Y-89992347D01*
X145147674Y-89992348D01*
X145114345Y-90007713D01*
X144925365Y-90094834D01*
X144921456Y-90097397D01*
X144720642Y-90229056D01*
X144720637Y-90229060D01*
X144716729Y-90231622D01*
X144623665Y-90314684D01*
X144601930Y-90334084D01*
X144530602Y-90397746D01*
X144371075Y-90589557D01*
X144241652Y-90802840D01*
X144239843Y-90807154D01*
X144239842Y-90807156D01*
X144147094Y-91028335D01*
X144145175Y-91032911D01*
X144144024Y-91037443D01*
X144144023Y-91037446D01*
X144132201Y-91083997D01*
X144083765Y-91274714D01*
X144058770Y-91522939D01*
X144058994Y-91527606D01*
X144058994Y-91527611D01*
X144061259Y-91574759D01*
X144070739Y-91772131D01*
X144119410Y-92016818D01*
X144203714Y-92251622D01*
X144246775Y-92331763D01*
X144261399Y-92401236D01*
X144236140Y-92467587D01*
X144179019Y-92509750D01*
X144135783Y-92517400D01*
X142348706Y-92517400D01*
X142280585Y-92497398D01*
X142234092Y-92443742D01*
X142223988Y-92373468D01*
X142233824Y-92339649D01*
X142320706Y-92146778D01*
X142323894Y-92138018D01*
X142389054Y-91906981D01*
X142390914Y-91897839D01*
X142421401Y-91658196D01*
X142421882Y-91651909D01*
X142424022Y-91570160D01*
X142423871Y-91563851D01*
X142405968Y-91322932D01*
X142404591Y-91313726D01*
X142351610Y-91079582D01*
X142348886Y-91070671D01*
X142261878Y-90846930D01*
X142257867Y-90838521D01*
X142138747Y-90630105D01*
X142133530Y-90622370D01*
X142105825Y-90587227D01*
X142093901Y-90578758D01*
X142082365Y-90585246D01*
X141100610Y-91567000D01*
X140830495Y-91837115D01*
X140768183Y-91871141D01*
X140697367Y-91866076D01*
X140652305Y-91837115D01*
X140382190Y-91567000D01*
X139399531Y-90584342D01*
X139386222Y-90577074D01*
X139376187Y-90584194D01*
X139374476Y-90586251D01*
X139369055Y-90593851D01*
X139244527Y-90799067D01*
X139240289Y-90807384D01*
X139147460Y-91028755D01*
X139144499Y-91037605D01*
X139085411Y-91270264D01*
X139083790Y-91279458D01*
X139059741Y-91518297D01*
X139059496Y-91527624D01*
X139071014Y-91767398D01*
X139072151Y-91776658D01*
X139118981Y-92012095D01*
X139121475Y-92021088D01*
X139202589Y-92247009D01*
X139206386Y-92255538D01*
X139247343Y-92331761D01*
X139261967Y-92401235D01*
X139236708Y-92467587D01*
X139179587Y-92509750D01*
X139136351Y-92517400D01*
X138948394Y-92517400D01*
X138880273Y-92497398D01*
X138859299Y-92480495D01*
X138155524Y-91776719D01*
X137440752Y-91061947D01*
X137433212Y-91053661D01*
X137429100Y-91047182D01*
X137418902Y-91037605D01*
X137379449Y-91000557D01*
X137376607Y-90997802D01*
X137356870Y-90978065D01*
X137353673Y-90975585D01*
X137344651Y-90967880D01*
X137329603Y-90953749D01*
X137312421Y-90937614D01*
X137305475Y-90933795D01*
X137305472Y-90933793D01*
X137294666Y-90927852D01*
X137278147Y-90917001D01*
X137272415Y-90912555D01*
X137262141Y-90904586D01*
X137254872Y-90901441D01*
X137254868Y-90901438D01*
X137221563Y-90887026D01*
X137210913Y-90881809D01*
X137172160Y-90860505D01*
X137152537Y-90855467D01*
X137133834Y-90849063D01*
X137122520Y-90844167D01*
X137122519Y-90844167D01*
X137115245Y-90841019D01*
X137107422Y-90839780D01*
X137107412Y-90839777D01*
X137071576Y-90834101D01*
X137059956Y-90831695D01*
X137024811Y-90822672D01*
X137024810Y-90822672D01*
X137017130Y-90820700D01*
X136996876Y-90820700D01*
X136977165Y-90819149D01*
X136964986Y-90817220D01*
X136957157Y-90815980D01*
X136927886Y-90818747D01*
X136913139Y-90820141D01*
X136901281Y-90820700D01*
X126893424Y-90820700D01*
X126825303Y-90800698D01*
X126778810Y-90747042D01*
X126768706Y-90676768D01*
X126771717Y-90662089D01*
X126813194Y-90507297D01*
X126812858Y-90493201D01*
X126804916Y-90489800D01*
X124263833Y-90489800D01*
X124250302Y-90493773D01*
X124249073Y-90502322D01*
X124291883Y-90662089D01*
X124290193Y-90733065D01*
X124250399Y-90791861D01*
X124185135Y-90819809D01*
X124170176Y-90820700D01*
X123298023Y-90820700D01*
X123229902Y-90800698D01*
X123183409Y-90747042D01*
X123173305Y-90676768D01*
X123176316Y-90662089D01*
X123201394Y-90568497D01*
X123201058Y-90554401D01*
X123193116Y-90551000D01*
X120652033Y-90551000D01*
X120638502Y-90554973D01*
X120637273Y-90563520D01*
X120663684Y-90662089D01*
X120661994Y-90733066D01*
X120622200Y-90791861D01*
X120556935Y-90819809D01*
X120541977Y-90820700D01*
X113503667Y-90820700D01*
X113492484Y-90820173D01*
X113484991Y-90818498D01*
X113477065Y-90818747D01*
X113477064Y-90818747D01*
X113416914Y-90820638D01*
X113412955Y-90820700D01*
X113385044Y-90820700D01*
X113381110Y-90821197D01*
X113381109Y-90821197D01*
X113381044Y-90821205D01*
X113369207Y-90822138D01*
X113336949Y-90823152D01*
X113332930Y-90823278D01*
X113325011Y-90823527D01*
X113305557Y-90829179D01*
X113286200Y-90833187D01*
X113273970Y-90834732D01*
X113273969Y-90834732D01*
X113266103Y-90835726D01*
X113258732Y-90838645D01*
X113258730Y-90838645D01*
X113224988Y-90852004D01*
X113213758Y-90855849D01*
X113178917Y-90865971D01*
X113178916Y-90865971D01*
X113171307Y-90868182D01*
X113164488Y-90872215D01*
X113164483Y-90872217D01*
X113153872Y-90878493D01*
X113136124Y-90887188D01*
X113117283Y-90894648D01*
X113110867Y-90899310D01*
X113110866Y-90899310D01*
X113081513Y-90920636D01*
X113071593Y-90927152D01*
X113040365Y-90945620D01*
X113040362Y-90945622D01*
X113033538Y-90949658D01*
X113019217Y-90963979D01*
X113004184Y-90976819D01*
X112987793Y-90988728D01*
X112982743Y-90994832D01*
X112982738Y-90994837D01*
X112959607Y-91022798D01*
X112951617Y-91031579D01*
X112344007Y-91639188D01*
X112281695Y-91673213D01*
X112268083Y-91675402D01*
X112237388Y-91678628D01*
X112237386Y-91678628D01*
X112230388Y-91679364D01*
X112058679Y-91737818D01*
X112007015Y-91769602D01*
X111910195Y-91829166D01*
X111910192Y-91829168D01*
X111904188Y-91832862D01*
X111899153Y-91837793D01*
X111899150Y-91837795D01*
X111803462Y-91931500D01*
X111774593Y-91959771D01*
X111676335Y-92112238D01*
X111672040Y-92124040D01*
X111670700Y-92127721D01*
X111628607Y-92184893D01*
X111562287Y-92210232D01*
X111492795Y-92195694D01*
X111442195Y-92145893D01*
X111438104Y-92137881D01*
X111431649Y-92124040D01*
X111431648Y-92124038D01*
X111429323Y-92119051D01*
X111297998Y-91931500D01*
X111136100Y-91769602D01*
X111131592Y-91766445D01*
X111131589Y-91766443D01*
X111035951Y-91699477D01*
X110948549Y-91638277D01*
X110943567Y-91635954D01*
X110943562Y-91635951D01*
X110909343Y-91619995D01*
X110856058Y-91573078D01*
X110836597Y-91504801D01*
X110857139Y-91436841D01*
X110909343Y-91391605D01*
X110943562Y-91375649D01*
X110943567Y-91375646D01*
X110948549Y-91373323D01*
X111095859Y-91270175D01*
X111131589Y-91245157D01*
X111131592Y-91245155D01*
X111136100Y-91241998D01*
X111297998Y-91080100D01*
X111301655Y-91074878D01*
X111374396Y-90970993D01*
X111429323Y-90892549D01*
X111431646Y-90887567D01*
X111431649Y-90887562D01*
X111523761Y-90690025D01*
X111523761Y-90690024D01*
X111526084Y-90685043D01*
X111552556Y-90586251D01*
X111583919Y-90469202D01*
X111583919Y-90469200D01*
X111585343Y-90463887D01*
X111605298Y-90235800D01*
X111603354Y-90213585D01*
X139752399Y-90213585D01*
X139756972Y-90223361D01*
X140728590Y-91194980D01*
X140742531Y-91202592D01*
X140744366Y-91202461D01*
X140750980Y-91198210D01*
X141722329Y-90226860D01*
X141728713Y-90215169D01*
X141719303Y-90203061D01*
X141599273Y-90119793D01*
X141591246Y-90115065D01*
X141375940Y-90008888D01*
X141367307Y-90005400D01*
X141138665Y-89932211D01*
X141129614Y-89930038D01*
X140892669Y-89891449D01*
X140883380Y-89890637D01*
X140643350Y-89887495D01*
X140634038Y-89888065D01*
X140396176Y-89920436D01*
X140387058Y-89922374D01*
X140156603Y-89989546D01*
X140147850Y-89992818D01*
X139929854Y-90093316D01*
X139921699Y-90097836D01*
X139761536Y-90202844D01*
X139752399Y-90213585D01*
X111603354Y-90213585D01*
X111586899Y-90025503D01*
X120638606Y-90025503D01*
X120638942Y-90039599D01*
X120646884Y-90043000D01*
X121647885Y-90043000D01*
X121663124Y-90038525D01*
X121664329Y-90037135D01*
X121666000Y-90029452D01*
X121666000Y-90024885D01*
X122174000Y-90024885D01*
X122178475Y-90040124D01*
X122179865Y-90041329D01*
X122187548Y-90043000D01*
X123187967Y-90043000D01*
X123201498Y-90039027D01*
X123202727Y-90030478D01*
X123184995Y-89964303D01*
X124250406Y-89964303D01*
X124250742Y-89978399D01*
X124258684Y-89981800D01*
X125259685Y-89981800D01*
X125274924Y-89977325D01*
X125276129Y-89975935D01*
X125277800Y-89968252D01*
X125277800Y-89963685D01*
X125785800Y-89963685D01*
X125790275Y-89978924D01*
X125791665Y-89980129D01*
X125799348Y-89981800D01*
X126799767Y-89981800D01*
X126813298Y-89977827D01*
X126814527Y-89969278D01*
X126767036Y-89792039D01*
X126763290Y-89781747D01*
X126671214Y-89584289D01*
X126665731Y-89574793D01*
X126540772Y-89396333D01*
X126533716Y-89387925D01*
X126379675Y-89233884D01*
X126371267Y-89226828D01*
X126192807Y-89101869D01*
X126183311Y-89096386D01*
X125985853Y-89004310D01*
X125975561Y-89000564D01*
X125803297Y-88954406D01*
X125789201Y-88954742D01*
X125785800Y-88962684D01*
X125785800Y-89963685D01*
X125277800Y-89963685D01*
X125277800Y-88967833D01*
X125273827Y-88954302D01*
X125265278Y-88953073D01*
X125088039Y-89000564D01*
X125077747Y-89004310D01*
X124880289Y-89096386D01*
X124870793Y-89101869D01*
X124692333Y-89226828D01*
X124683925Y-89233884D01*
X124529884Y-89387925D01*
X124522828Y-89396333D01*
X124397869Y-89574793D01*
X124392386Y-89584289D01*
X124300310Y-89781747D01*
X124296564Y-89792039D01*
X124250406Y-89964303D01*
X123184995Y-89964303D01*
X123155236Y-89853239D01*
X123151490Y-89842947D01*
X123059414Y-89645489D01*
X123053931Y-89635993D01*
X122928972Y-89457533D01*
X122921916Y-89449125D01*
X122767875Y-89295084D01*
X122759467Y-89288028D01*
X122581007Y-89163069D01*
X122571511Y-89157586D01*
X122374053Y-89065510D01*
X122363761Y-89061764D01*
X122191497Y-89015606D01*
X122177401Y-89015942D01*
X122174000Y-89023884D01*
X122174000Y-90024885D01*
X121666000Y-90024885D01*
X121666000Y-89029033D01*
X121662027Y-89015502D01*
X121653478Y-89014273D01*
X121476239Y-89061764D01*
X121465947Y-89065510D01*
X121268489Y-89157586D01*
X121258993Y-89163069D01*
X121080533Y-89288028D01*
X121072125Y-89295084D01*
X120918084Y-89449125D01*
X120911028Y-89457533D01*
X120786069Y-89635993D01*
X120780586Y-89645489D01*
X120688510Y-89842947D01*
X120684764Y-89853239D01*
X120638606Y-90025503D01*
X111586899Y-90025503D01*
X111585343Y-90007713D01*
X111581226Y-89992348D01*
X111527507Y-89791867D01*
X111527506Y-89791865D01*
X111526084Y-89786557D01*
X111518132Y-89769504D01*
X111431649Y-89584038D01*
X111431646Y-89584033D01*
X111429323Y-89579051D01*
X111297998Y-89391500D01*
X111136100Y-89229602D01*
X111131592Y-89226445D01*
X111131589Y-89226443D01*
X111033251Y-89157586D01*
X110948549Y-89098277D01*
X110943567Y-89095954D01*
X110943562Y-89095951D01*
X110746025Y-89003839D01*
X110746024Y-89003839D01*
X110741043Y-89001516D01*
X110735735Y-89000094D01*
X110735733Y-89000093D01*
X110525202Y-88943681D01*
X110525200Y-88943681D01*
X110519887Y-88942257D01*
X110304590Y-88923421D01*
X110296267Y-88920165D01*
X110279010Y-88923421D01*
X110063713Y-88942257D01*
X110058400Y-88943681D01*
X110058398Y-88943681D01*
X109847867Y-89000093D01*
X109847865Y-89000094D01*
X109842557Y-89001516D01*
X109837576Y-89003839D01*
X109837575Y-89003839D01*
X109640038Y-89095951D01*
X109640033Y-89095954D01*
X109635051Y-89098277D01*
X109550349Y-89157586D01*
X109452011Y-89226443D01*
X109452008Y-89226445D01*
X109447500Y-89229602D01*
X109285602Y-89391500D01*
X109282445Y-89396008D01*
X109282443Y-89396011D01*
X109175619Y-89548571D01*
X109120162Y-89592899D01*
X109072406Y-89602300D01*
X107946867Y-89602300D01*
X107935684Y-89601773D01*
X107928191Y-89600098D01*
X107920266Y-89600347D01*
X107920265Y-89600347D01*
X107903352Y-89600879D01*
X107860490Y-89602226D01*
X107791775Y-89584374D01*
X107753319Y-89548558D01*
X107689361Y-89457216D01*
X107689356Y-89457210D01*
X107686198Y-89452700D01*
X107524300Y-89290802D01*
X107519792Y-89287645D01*
X107519789Y-89287643D01*
X107432386Y-89226443D01*
X107336749Y-89159477D01*
X107331767Y-89157154D01*
X107331762Y-89157151D01*
X107134225Y-89065039D01*
X107134224Y-89065039D01*
X107129243Y-89062716D01*
X107123935Y-89061294D01*
X107123933Y-89061293D01*
X106913402Y-89004881D01*
X106913400Y-89004881D01*
X106908087Y-89003457D01*
X106680000Y-88983502D01*
X106451913Y-89003457D01*
X106446600Y-89004881D01*
X106446598Y-89004881D01*
X106236067Y-89061293D01*
X106236065Y-89061294D01*
X106230757Y-89062716D01*
X106225776Y-89065039D01*
X106225775Y-89065039D01*
X106028238Y-89157151D01*
X106028233Y-89157154D01*
X106023251Y-89159477D01*
X105927614Y-89226443D01*
X105840211Y-89287643D01*
X105840208Y-89287645D01*
X105835700Y-89290802D01*
X105676395Y-89450107D01*
X105614083Y-89484133D01*
X105543268Y-89479068D01*
X105486432Y-89436521D01*
X105461621Y-89370001D01*
X105461300Y-89361012D01*
X105461300Y-88797900D01*
X105481302Y-88729779D01*
X105534958Y-88683286D01*
X105587300Y-88671900D01*
X110268028Y-88671900D01*
X110285619Y-88677065D01*
G37*
G04 #@! TD.AperFunction*
G04 #@! TA.AperFunction,Conductor*
G36*
X154710827Y-117659502D02*
G01*
X154731801Y-117676405D01*
X162234349Y-125178953D01*
X162268375Y-125241265D01*
X162263310Y-125312080D01*
X162220763Y-125368916D01*
X162203438Y-125379809D01*
X162087607Y-125440107D01*
X162083474Y-125443210D01*
X162083471Y-125443212D01*
X161989562Y-125513721D01*
X161908965Y-125574235D01*
X161869525Y-125615507D01*
X161815280Y-125672271D01*
X161754629Y-125735738D01*
X161647201Y-125893221D01*
X161592293Y-125938221D01*
X161521768Y-125946392D01*
X161458021Y-125915138D01*
X161437324Y-125890654D01*
X161356822Y-125766217D01*
X161356820Y-125766214D01*
X161354014Y-125761877D01*
X161203670Y-125596651D01*
X161199619Y-125593452D01*
X161199615Y-125593448D01*
X161032414Y-125461400D01*
X161032410Y-125461398D01*
X161028359Y-125458198D01*
X161004243Y-125444885D01*
X160964085Y-125422717D01*
X160832789Y-125350238D01*
X160827920Y-125348514D01*
X160827916Y-125348512D01*
X160627087Y-125277395D01*
X160627083Y-125277394D01*
X160622212Y-125275669D01*
X160617119Y-125274762D01*
X160617116Y-125274761D01*
X160407373Y-125237400D01*
X160407367Y-125237399D01*
X160402284Y-125236494D01*
X160328452Y-125235592D01*
X160184081Y-125233828D01*
X160184079Y-125233828D01*
X160178911Y-125233765D01*
X159958091Y-125267555D01*
X159745756Y-125336957D01*
X159715443Y-125352737D01*
X159553305Y-125437141D01*
X159547607Y-125440107D01*
X159543474Y-125443210D01*
X159543471Y-125443212D01*
X159449562Y-125513721D01*
X159368965Y-125574235D01*
X159329525Y-125615507D01*
X159275280Y-125672271D01*
X159214629Y-125735738D01*
X159107204Y-125893218D01*
X159097099Y-125908031D01*
X159042188Y-125953034D01*
X159012724Y-125961475D01*
X159005128Y-125962678D01*
X158997211Y-125962927D01*
X158977757Y-125968579D01*
X158958400Y-125972587D01*
X158946170Y-125974132D01*
X158946169Y-125974132D01*
X158938303Y-125975126D01*
X158930932Y-125978045D01*
X158930930Y-125978045D01*
X158897188Y-125991404D01*
X158885958Y-125995249D01*
X158851117Y-126005371D01*
X158851116Y-126005371D01*
X158843507Y-126007582D01*
X158836688Y-126011615D01*
X158836683Y-126011617D01*
X158826072Y-126017893D01*
X158808324Y-126026588D01*
X158789483Y-126034048D01*
X158783067Y-126038710D01*
X158783066Y-126038710D01*
X158753713Y-126060036D01*
X158743793Y-126066552D01*
X158712565Y-126085020D01*
X158712562Y-126085022D01*
X158705738Y-126089058D01*
X158691417Y-126103379D01*
X158676384Y-126116219D01*
X158659993Y-126128128D01*
X158654943Y-126134232D01*
X158654938Y-126134237D01*
X158631807Y-126162198D01*
X158623817Y-126170979D01*
X158037595Y-126757200D01*
X157975283Y-126791225D01*
X157904467Y-126786160D01*
X157847632Y-126743613D01*
X157822821Y-126677093D01*
X157822500Y-126668104D01*
X157822500Y-125695466D01*
X157815745Y-125633284D01*
X157764615Y-125496895D01*
X157677261Y-125380339D01*
X157560705Y-125292985D01*
X157424316Y-125241855D01*
X157362134Y-125235100D01*
X155565866Y-125235100D01*
X155503684Y-125241855D01*
X155367295Y-125292985D01*
X155250739Y-125380339D01*
X155163385Y-125496895D01*
X155160233Y-125505303D01*
X155118919Y-125615507D01*
X155076277Y-125672271D01*
X155009716Y-125696971D01*
X154940367Y-125681763D01*
X154907743Y-125656076D01*
X154857151Y-125600475D01*
X154857142Y-125600466D01*
X154853670Y-125596651D01*
X154849619Y-125593452D01*
X154849615Y-125593448D01*
X154682414Y-125461400D01*
X154682410Y-125461398D01*
X154678359Y-125458198D01*
X154654243Y-125444885D01*
X154614085Y-125422717D01*
X154482789Y-125350238D01*
X154477920Y-125348514D01*
X154477916Y-125348512D01*
X154277087Y-125277395D01*
X154277083Y-125277394D01*
X154272212Y-125275669D01*
X154267119Y-125274762D01*
X154267116Y-125274761D01*
X154057373Y-125237400D01*
X154057367Y-125237399D01*
X154052284Y-125236494D01*
X153978452Y-125235592D01*
X153834081Y-125233828D01*
X153834079Y-125233828D01*
X153828911Y-125233765D01*
X153608091Y-125267555D01*
X153395756Y-125336957D01*
X153365443Y-125352737D01*
X153203305Y-125437141D01*
X153197607Y-125440107D01*
X153193474Y-125443210D01*
X153193471Y-125443212D01*
X153099562Y-125513721D01*
X153018965Y-125574235D01*
X152979525Y-125615507D01*
X152925280Y-125672271D01*
X152864629Y-125735738D01*
X152757201Y-125893221D01*
X152702293Y-125938221D01*
X152631768Y-125946392D01*
X152568021Y-125915138D01*
X152547324Y-125890654D01*
X152466822Y-125766217D01*
X152466820Y-125766214D01*
X152464014Y-125761877D01*
X152313670Y-125596651D01*
X152309619Y-125593452D01*
X152309615Y-125593448D01*
X152142414Y-125461400D01*
X152142410Y-125461398D01*
X152138359Y-125458198D01*
X152114243Y-125444885D01*
X152074085Y-125422717D01*
X151942789Y-125350238D01*
X151937920Y-125348514D01*
X151937916Y-125348512D01*
X151737087Y-125277395D01*
X151737083Y-125277394D01*
X151732212Y-125275669D01*
X151727119Y-125274762D01*
X151727116Y-125274761D01*
X151517373Y-125237400D01*
X151517367Y-125237399D01*
X151512284Y-125236494D01*
X151438452Y-125235592D01*
X151294081Y-125233828D01*
X151294079Y-125233828D01*
X151288911Y-125233765D01*
X151068091Y-125267555D01*
X150855756Y-125336957D01*
X150825443Y-125352737D01*
X150663305Y-125437141D01*
X150657607Y-125440107D01*
X150653474Y-125443210D01*
X150653471Y-125443212D01*
X150559562Y-125513721D01*
X150478965Y-125574235D01*
X150374836Y-125683200D01*
X150313313Y-125718629D01*
X150242400Y-125715172D01*
X150194647Y-125685243D01*
X149905979Y-125396574D01*
X149533847Y-125024442D01*
X149526313Y-125016163D01*
X149522200Y-125009682D01*
X149472548Y-124963056D01*
X149469707Y-124960302D01*
X149449970Y-124940565D01*
X149446773Y-124938085D01*
X149437751Y-124930380D01*
X149405521Y-124900114D01*
X149398575Y-124896295D01*
X149398572Y-124896293D01*
X149387766Y-124890352D01*
X149371247Y-124879501D01*
X149370783Y-124879141D01*
X149355241Y-124867086D01*
X149347972Y-124863941D01*
X149347968Y-124863938D01*
X149314663Y-124849526D01*
X149304013Y-124844309D01*
X149265260Y-124823005D01*
X149245637Y-124817967D01*
X149226934Y-124811563D01*
X149215620Y-124806667D01*
X149215619Y-124806667D01*
X149208345Y-124803519D01*
X149200522Y-124802280D01*
X149200512Y-124802277D01*
X149164676Y-124796601D01*
X149153056Y-124794195D01*
X149117911Y-124785172D01*
X149117910Y-124785172D01*
X149110230Y-124783200D01*
X149089976Y-124783200D01*
X149070265Y-124781649D01*
X149061881Y-124780321D01*
X149050257Y-124778480D01*
X149020986Y-124781247D01*
X149006239Y-124782641D01*
X148994381Y-124783200D01*
X147960380Y-124783200D01*
X147892259Y-124763198D01*
X147871285Y-124746295D01*
X147205812Y-124080822D01*
X147191868Y-124073208D01*
X147190035Y-124073339D01*
X147183420Y-124077590D01*
X146514715Y-124746295D01*
X146452403Y-124780321D01*
X146425620Y-124783200D01*
X145756795Y-124783200D01*
X145688674Y-124763198D01*
X145667699Y-124746295D01*
X145218420Y-124297015D01*
X145184395Y-124234703D01*
X145182301Y-124221965D01*
X145178182Y-124185245D01*
X145177397Y-124178245D01*
X145135663Y-124058402D01*
X145120064Y-124013606D01*
X145120062Y-124013603D01*
X145117745Y-124006948D01*
X145082473Y-123950500D01*
X145025359Y-123859098D01*
X145021626Y-123853124D01*
X145016664Y-123848127D01*
X144898778Y-123729415D01*
X144898774Y-123729412D01*
X144893815Y-123724418D01*
X144882697Y-123717362D01*
X144805297Y-123668243D01*
X144740666Y-123627227D01*
X144670924Y-123602393D01*
X144576425Y-123568743D01*
X144576420Y-123568742D01*
X144569790Y-123566381D01*
X144562802Y-123565548D01*
X144562799Y-123565547D01*
X144439698Y-123550868D01*
X144389680Y-123544904D01*
X144382677Y-123545640D01*
X144382676Y-123545640D01*
X144216288Y-123563128D01*
X144216286Y-123563129D01*
X144209288Y-123563864D01*
X144037579Y-123622318D01*
X143985601Y-123654295D01*
X143889095Y-123713666D01*
X143889092Y-123713668D01*
X143883088Y-123717362D01*
X143878053Y-123722293D01*
X143878050Y-123722295D01*
X143775412Y-123822806D01*
X143753493Y-123844271D01*
X143655235Y-123996738D01*
X143652826Y-124003358D01*
X143652824Y-124003361D01*
X143597393Y-124155656D01*
X143593197Y-124167185D01*
X143570463Y-124347140D01*
X143588163Y-124527660D01*
X143645418Y-124699773D01*
X143649065Y-124705795D01*
X143649066Y-124705797D01*
X143735580Y-124848649D01*
X143739380Y-124854924D01*
X143744269Y-124859987D01*
X143744270Y-124859988D01*
X143815254Y-124933493D01*
X143865382Y-124985402D01*
X143893297Y-125003669D01*
X143939344Y-125057706D01*
X143948867Y-125128061D01*
X143918842Y-125192396D01*
X143858801Y-125230285D01*
X143824302Y-125235100D01*
X143013266Y-125235100D01*
X142951084Y-125241855D01*
X142814695Y-125292985D01*
X142698139Y-125380339D01*
X142610785Y-125496895D01*
X142559655Y-125633284D01*
X142552900Y-125695466D01*
X142552900Y-127031200D01*
X142532898Y-127099321D01*
X142479242Y-127145814D01*
X142426900Y-127157200D01*
X139765878Y-127157200D01*
X139697757Y-127137198D01*
X139651264Y-127083542D01*
X139641160Y-127013268D01*
X139670654Y-126948688D01*
X139699575Y-126924056D01*
X139806226Y-126858058D01*
X139812951Y-126847853D01*
X139806888Y-126837499D01*
X138835010Y-125865620D01*
X138821069Y-125858008D01*
X138819234Y-125858139D01*
X138812620Y-125862390D01*
X137841709Y-126833302D01*
X137835051Y-126845495D01*
X137843763Y-126857015D01*
X137926729Y-126917849D01*
X137937126Y-126924345D01*
X137984297Y-126977405D01*
X137995293Y-127047545D01*
X137966624Y-127112495D01*
X137907390Y-127151635D01*
X137870358Y-127157200D01*
X134766828Y-127157200D01*
X134698707Y-127137198D01*
X134652214Y-127083542D01*
X134642110Y-127013268D01*
X134671604Y-126948688D01*
X134700525Y-126924056D01*
X134807591Y-126857802D01*
X134807595Y-126857799D01*
X134811564Y-126855343D01*
X134896647Y-126783315D01*
X134998409Y-126697167D01*
X134998410Y-126697166D01*
X135001975Y-126694148D01*
X135083516Y-126601169D01*
X135163387Y-126510094D01*
X135163391Y-126510089D01*
X135166469Y-126506579D01*
X135183003Y-126480875D01*
X135298903Y-126300687D01*
X135301431Y-126296757D01*
X135403897Y-126069291D01*
X135425247Y-125993590D01*
X135470346Y-125833682D01*
X135470347Y-125833679D01*
X135471616Y-125829178D01*
X135490187Y-125683199D01*
X135502702Y-125584822D01*
X135502702Y-125584818D01*
X135503100Y-125581692D01*
X135503184Y-125578509D01*
X135504880Y-125513721D01*
X135505407Y-125493600D01*
X135502481Y-125454224D01*
X137140296Y-125454224D01*
X137151814Y-125693998D01*
X137152951Y-125703258D01*
X137199781Y-125938695D01*
X137202275Y-125947688D01*
X137283389Y-126173609D01*
X137287189Y-126182144D01*
X137400807Y-126393596D01*
X137405818Y-126401463D01*
X137458809Y-126472426D01*
X137470067Y-126480875D01*
X137482486Y-126474103D01*
X138450180Y-125506410D01*
X138456557Y-125494731D01*
X139186608Y-125494731D01*
X139186739Y-125496566D01*
X139190990Y-125503180D01*
X140164224Y-126476413D01*
X140176604Y-126483173D01*
X140184945Y-126476930D01*
X140298465Y-126300443D01*
X140302908Y-126292259D01*
X140401504Y-126073383D01*
X140404694Y-126064618D01*
X140469854Y-125833581D01*
X140471714Y-125824439D01*
X140502201Y-125584796D01*
X140502682Y-125578509D01*
X140504822Y-125496760D01*
X140504671Y-125490451D01*
X140486768Y-125249532D01*
X140485391Y-125240326D01*
X140432410Y-125006182D01*
X140429686Y-124997271D01*
X140342678Y-124773530D01*
X140338667Y-124765121D01*
X140219547Y-124556705D01*
X140214330Y-124548970D01*
X140186625Y-124513827D01*
X140174701Y-124505358D01*
X140163165Y-124511846D01*
X139194220Y-125480790D01*
X139186608Y-125494731D01*
X138456557Y-125494731D01*
X138457792Y-125492469D01*
X138457661Y-125490634D01*
X138453410Y-125484020D01*
X137480331Y-124510942D01*
X137467023Y-124503675D01*
X137456986Y-124510795D01*
X137455276Y-124512851D01*
X137449855Y-124520451D01*
X137325327Y-124725667D01*
X137321089Y-124733984D01*
X137228260Y-124955355D01*
X137225299Y-124964205D01*
X137166211Y-125196864D01*
X137164590Y-125206058D01*
X137140541Y-125444897D01*
X137140296Y-125454224D01*
X135502481Y-125454224D01*
X135501787Y-125444885D01*
X135487264Y-125249458D01*
X135487263Y-125249454D01*
X135486918Y-125244806D01*
X135431859Y-125001478D01*
X135430166Y-124997124D01*
X135343131Y-124773314D01*
X135343130Y-124773312D01*
X135341438Y-124768961D01*
X135328601Y-124746500D01*
X135251168Y-124611022D01*
X135217642Y-124552363D01*
X135063190Y-124356442D01*
X134881476Y-124185502D01*
X134816152Y-124140185D01*
X137833199Y-124140185D01*
X137837772Y-124149961D01*
X138809390Y-125121580D01*
X138823331Y-125129192D01*
X138825166Y-125129061D01*
X138831780Y-125124810D01*
X139803129Y-124153460D01*
X139809513Y-124141769D01*
X139800103Y-124129661D01*
X139680073Y-124046393D01*
X139672046Y-124041665D01*
X139456740Y-123935488D01*
X139448107Y-123932000D01*
X139219465Y-123858811D01*
X139210414Y-123856638D01*
X138973469Y-123818049D01*
X138964180Y-123817237D01*
X138724150Y-123814095D01*
X138714838Y-123814665D01*
X138476976Y-123847036D01*
X138467858Y-123848974D01*
X138237403Y-123916146D01*
X138228650Y-123919418D01*
X138010654Y-124019916D01*
X138002499Y-124024436D01*
X137842336Y-124129444D01*
X137833199Y-124140185D01*
X134816152Y-124140185D01*
X134725921Y-124077590D01*
X134680330Y-124045962D01*
X134680325Y-124045959D01*
X134676492Y-124043300D01*
X134672310Y-124041237D01*
X134672302Y-124041233D01*
X134456928Y-123935023D01*
X134456925Y-123935022D01*
X134452740Y-123932958D01*
X134215137Y-123856900D01*
X134210530Y-123856150D01*
X134210527Y-123856149D01*
X134006786Y-123822968D01*
X133968901Y-123816798D01*
X133847953Y-123815215D01*
X133724120Y-123813594D01*
X133724117Y-123813594D01*
X133719443Y-123813533D01*
X133472242Y-123847175D01*
X133467756Y-123848483D01*
X133467754Y-123848483D01*
X133439776Y-123856638D01*
X133232728Y-123916987D01*
X133228475Y-123918947D01*
X133228474Y-123918948D01*
X133201171Y-123931535D01*
X133006165Y-124021434D01*
X133002256Y-124023997D01*
X132801442Y-124155656D01*
X132801437Y-124155660D01*
X132797529Y-124158222D01*
X132728917Y-124219460D01*
X132627822Y-124309691D01*
X132611402Y-124324346D01*
X132451875Y-124516157D01*
X132322452Y-124729440D01*
X132320643Y-124733754D01*
X132320642Y-124733756D01*
X132230451Y-124948838D01*
X132225975Y-124959511D01*
X132224824Y-124964043D01*
X132224823Y-124964046D01*
X132198469Y-125067817D01*
X132164565Y-125201314D01*
X132139570Y-125449539D01*
X132139794Y-125454206D01*
X132139794Y-125454211D01*
X132145410Y-125571130D01*
X132151539Y-125698731D01*
X132200210Y-125943418D01*
X132284514Y-126178222D01*
X132402598Y-126397986D01*
X132551868Y-126597883D01*
X132729044Y-126773521D01*
X132732806Y-126776279D01*
X132732809Y-126776282D01*
X132844339Y-126858058D01*
X132930236Y-126921040D01*
X132934380Y-126923220D01*
X132936180Y-126924345D01*
X132983350Y-126977406D01*
X132994346Y-127047546D01*
X132965676Y-127112496D01*
X132906442Y-127151635D01*
X132869411Y-127157200D01*
X126757300Y-127157200D01*
X126689179Y-127137198D01*
X126642686Y-127083542D01*
X126631300Y-127031200D01*
X126631300Y-125695466D01*
X126624545Y-125633284D01*
X126573415Y-125496895D01*
X126486061Y-125380339D01*
X126369505Y-125292985D01*
X126233116Y-125241855D01*
X126170934Y-125235100D01*
X124374666Y-125235100D01*
X124312484Y-125241855D01*
X124176095Y-125292985D01*
X124059539Y-125380339D01*
X123972185Y-125496895D01*
X123969033Y-125505303D01*
X123927719Y-125615507D01*
X123885077Y-125672271D01*
X123818516Y-125696971D01*
X123749167Y-125681763D01*
X123716543Y-125656076D01*
X123665951Y-125600475D01*
X123665942Y-125600466D01*
X123662470Y-125596651D01*
X123658419Y-125593452D01*
X123658415Y-125593448D01*
X123491214Y-125461400D01*
X123491210Y-125461398D01*
X123487159Y-125458198D01*
X123463043Y-125444885D01*
X123422885Y-125422717D01*
X123291589Y-125350238D01*
X123286720Y-125348514D01*
X123286716Y-125348512D01*
X123085887Y-125277395D01*
X123085883Y-125277394D01*
X123081012Y-125275669D01*
X123075919Y-125274762D01*
X123075916Y-125274761D01*
X122866173Y-125237400D01*
X122866167Y-125237399D01*
X122861084Y-125236494D01*
X122787252Y-125235592D01*
X122642881Y-125233828D01*
X122642879Y-125233828D01*
X122637711Y-125233765D01*
X122416891Y-125267555D01*
X122404332Y-125271660D01*
X122333368Y-125273810D01*
X122276094Y-125240989D01*
X122059552Y-125024447D01*
X122052012Y-125016161D01*
X122047900Y-125009682D01*
X122026151Y-124989258D01*
X121998249Y-124963057D01*
X121995407Y-124960302D01*
X121975670Y-124940565D01*
X121972473Y-124938085D01*
X121963451Y-124930380D01*
X121931221Y-124900114D01*
X121924275Y-124896295D01*
X121924272Y-124896293D01*
X121913466Y-124890352D01*
X121896947Y-124879501D01*
X121887207Y-124871946D01*
X121887206Y-124871945D01*
X121880941Y-124867086D01*
X121873664Y-124863937D01*
X121866929Y-124859954D01*
X121818476Y-124808061D01*
X121805771Y-124738211D01*
X121832846Y-124672579D01*
X121891106Y-124632005D01*
X121931068Y-124625500D01*
X122768134Y-124625500D01*
X122830316Y-124618745D01*
X122966705Y-124567615D01*
X123083261Y-124480261D01*
X123170615Y-124363705D01*
X123221745Y-124227316D01*
X123228500Y-124165134D01*
X123228500Y-124015856D01*
X123248502Y-123947735D01*
X123302711Y-123901706D01*
X123306395Y-123899527D01*
X123355785Y-123889300D01*
X124097300Y-123889300D01*
X124165421Y-123909302D01*
X124211914Y-123962958D01*
X124223300Y-124015300D01*
X124223300Y-124103934D01*
X124230055Y-124166116D01*
X124281185Y-124302505D01*
X124368539Y-124419061D01*
X124485095Y-124506415D01*
X124621484Y-124557545D01*
X124683666Y-124564300D01*
X126379934Y-124564300D01*
X126442116Y-124557545D01*
X126578505Y-124506415D01*
X126695061Y-124419061D01*
X126782415Y-124302505D01*
X126833545Y-124166116D01*
X126840300Y-124103934D01*
X126840300Y-122888400D01*
X126860302Y-122820279D01*
X126913958Y-122773786D01*
X126966300Y-122762400D01*
X127880649Y-122762400D01*
X127948770Y-122782402D01*
X127995263Y-122836058D01*
X128005367Y-122906332D01*
X127983862Y-122960671D01*
X127933082Y-123033193D01*
X127919877Y-123052051D01*
X127917554Y-123057033D01*
X127917551Y-123057038D01*
X127865692Y-123168251D01*
X127823116Y-123259557D01*
X127821694Y-123264865D01*
X127821693Y-123264867D01*
X127775118Y-123438685D01*
X127763857Y-123480713D01*
X127743902Y-123708800D01*
X127763857Y-123936887D01*
X127765281Y-123942200D01*
X127765281Y-123942202D01*
X127817846Y-124138374D01*
X127823116Y-124158043D01*
X127825439Y-124163024D01*
X127825439Y-124163025D01*
X127917551Y-124360562D01*
X127917554Y-124360567D01*
X127919877Y-124365549D01*
X127983806Y-124456849D01*
X128033389Y-124527660D01*
X128051202Y-124553100D01*
X128213100Y-124714998D01*
X128217608Y-124718155D01*
X128217611Y-124718157D01*
X128284374Y-124764905D01*
X128400651Y-124846323D01*
X128405633Y-124848646D01*
X128405638Y-124848649D01*
X128600085Y-124939320D01*
X128608157Y-124943084D01*
X128613465Y-124944506D01*
X128613467Y-124944507D01*
X128823998Y-125000919D01*
X128824000Y-125000919D01*
X128829313Y-125002343D01*
X129057400Y-125022298D01*
X129285487Y-125002343D01*
X129290800Y-125000919D01*
X129290802Y-125000919D01*
X129501333Y-124944507D01*
X129501335Y-124944506D01*
X129506643Y-124943084D01*
X129514715Y-124939320D01*
X129709162Y-124848649D01*
X129709167Y-124848646D01*
X129714149Y-124846323D01*
X129830426Y-124764905D01*
X129897189Y-124718157D01*
X129897192Y-124718155D01*
X129901700Y-124714998D01*
X130063598Y-124553100D01*
X130081412Y-124527660D01*
X130130994Y-124456849D01*
X130194923Y-124365549D01*
X130197246Y-124360567D01*
X130197249Y-124360562D01*
X130289361Y-124163025D01*
X130289361Y-124163024D01*
X130291684Y-124158043D01*
X130296955Y-124138374D01*
X130349519Y-123942202D01*
X130349519Y-123942200D01*
X130350943Y-123936887D01*
X130370898Y-123708800D01*
X130350943Y-123480713D01*
X130339682Y-123438685D01*
X130293107Y-123264867D01*
X130293106Y-123264865D01*
X130291684Y-123259557D01*
X130249108Y-123168251D01*
X130197249Y-123057038D01*
X130197246Y-123057033D01*
X130194923Y-123052051D01*
X130181719Y-123033193D01*
X130130938Y-122960671D01*
X130108250Y-122893397D01*
X130125535Y-122824536D01*
X130177305Y-122775952D01*
X130234151Y-122762400D01*
X146016860Y-122762400D01*
X146084981Y-122782402D01*
X146131474Y-122836058D01*
X146141578Y-122906332D01*
X146120073Y-122960671D01*
X146059069Y-123047794D01*
X146053586Y-123057289D01*
X145961510Y-123254747D01*
X145957764Y-123265039D01*
X145901375Y-123475488D01*
X145899472Y-123486281D01*
X145880483Y-123703325D01*
X145880483Y-123714275D01*
X145899472Y-123931319D01*
X145901375Y-123942112D01*
X145957764Y-124152561D01*
X145961510Y-124162853D01*
X146053586Y-124360311D01*
X146059069Y-124369806D01*
X146095509Y-124421848D01*
X146105988Y-124430224D01*
X146119434Y-124423156D01*
X147103905Y-123438685D01*
X147166217Y-123404659D01*
X147237032Y-123409724D01*
X147282095Y-123438685D01*
X148267287Y-124423877D01*
X148279062Y-124430307D01*
X148291077Y-124421011D01*
X148326931Y-124369806D01*
X148332414Y-124360311D01*
X148424490Y-124162853D01*
X148428236Y-124152561D01*
X148484625Y-123942112D01*
X148486528Y-123931319D01*
X148505517Y-123714275D01*
X148505517Y-123703325D01*
X148486528Y-123486281D01*
X148484625Y-123475488D01*
X148428236Y-123265039D01*
X148424490Y-123254747D01*
X148348458Y-123091697D01*
X148337797Y-123021506D01*
X148366777Y-122956693D01*
X148426196Y-122917836D01*
X148497191Y-122917273D01*
X148551748Y-122949352D01*
X149250443Y-123648047D01*
X149257987Y-123656337D01*
X149262100Y-123662818D01*
X149267877Y-123668243D01*
X149311767Y-123709458D01*
X149314609Y-123712213D01*
X149334330Y-123731934D01*
X149337525Y-123734412D01*
X149346547Y-123742118D01*
X149378779Y-123772386D01*
X149385728Y-123776206D01*
X149396532Y-123782146D01*
X149413056Y-123792999D01*
X149429059Y-123805413D01*
X149469643Y-123822976D01*
X149480273Y-123828183D01*
X149519040Y-123849495D01*
X149526717Y-123851466D01*
X149526722Y-123851468D01*
X149538658Y-123854532D01*
X149557366Y-123860937D01*
X149575955Y-123868981D01*
X149583783Y-123870221D01*
X149583790Y-123870223D01*
X149619624Y-123875899D01*
X149631244Y-123878305D01*
X149666389Y-123887328D01*
X149674070Y-123889300D01*
X149677871Y-123889300D01*
X149741265Y-123916948D01*
X149763610Y-123941302D01*
X149856064Y-124073339D01*
X149874802Y-124100100D01*
X150036700Y-124261998D01*
X150041208Y-124265155D01*
X150041211Y-124265157D01*
X150082542Y-124294097D01*
X150224251Y-124393323D01*
X150229233Y-124395646D01*
X150229238Y-124395649D01*
X150410691Y-124480261D01*
X150431757Y-124490084D01*
X150437065Y-124491506D01*
X150437067Y-124491507D01*
X150647598Y-124547919D01*
X150647600Y-124547919D01*
X150652913Y-124549343D01*
X150881000Y-124569298D01*
X151109087Y-124549343D01*
X151114400Y-124547919D01*
X151114402Y-124547919D01*
X151324933Y-124491507D01*
X151324935Y-124491506D01*
X151330243Y-124490084D01*
X151351309Y-124480261D01*
X151532762Y-124395649D01*
X151532767Y-124395646D01*
X151537749Y-124393323D01*
X151679458Y-124294097D01*
X151720789Y-124265157D01*
X151720792Y-124265155D01*
X151725300Y-124261998D01*
X151887198Y-124100100D01*
X151905937Y-124073339D01*
X151959573Y-123996738D01*
X152018523Y-123912549D01*
X152020846Y-123907567D01*
X152020849Y-123907562D01*
X152112961Y-123710025D01*
X152112961Y-123710024D01*
X152115284Y-123705043D01*
X152120067Y-123687195D01*
X152173119Y-123489202D01*
X152173119Y-123489200D01*
X152174543Y-123483887D01*
X152194498Y-123255800D01*
X152174543Y-123027713D01*
X152153546Y-122949352D01*
X152116707Y-122811867D01*
X152116706Y-122811865D01*
X152115284Y-122806557D01*
X152111902Y-122799305D01*
X152020849Y-122604038D01*
X152020846Y-122604033D01*
X152018523Y-122599051D01*
X151887198Y-122411500D01*
X151725300Y-122249602D01*
X151720792Y-122246445D01*
X151720789Y-122246443D01*
X151625151Y-122179477D01*
X151537749Y-122118277D01*
X151532767Y-122115954D01*
X151532762Y-122115951D01*
X151498543Y-122099995D01*
X151445258Y-122053078D01*
X151425797Y-121984801D01*
X151446339Y-121916841D01*
X151498543Y-121871605D01*
X151532762Y-121855649D01*
X151532767Y-121855646D01*
X151537749Y-121853323D01*
X151643463Y-121779301D01*
X151720789Y-121725157D01*
X151720792Y-121725155D01*
X151725300Y-121721998D01*
X151887198Y-121560100D01*
X151896428Y-121546919D01*
X151969877Y-121442022D01*
X152018523Y-121372549D01*
X152020846Y-121367567D01*
X152020849Y-121367562D01*
X152112961Y-121170025D01*
X152112961Y-121170024D01*
X152115284Y-121165043D01*
X152142148Y-121064788D01*
X152173119Y-120949202D01*
X152173119Y-120949200D01*
X152174543Y-120943887D01*
X152194498Y-120715800D01*
X152174543Y-120487713D01*
X152137137Y-120348112D01*
X152116707Y-120271867D01*
X152116706Y-120271865D01*
X152115284Y-120266557D01*
X152107311Y-120249458D01*
X152020849Y-120064038D01*
X152020846Y-120064033D01*
X152018523Y-120059051D01*
X151933213Y-119937216D01*
X151890357Y-119876011D01*
X151890355Y-119876008D01*
X151887198Y-119871500D01*
X151725300Y-119709602D01*
X151720792Y-119706445D01*
X151720789Y-119706443D01*
X151625151Y-119639477D01*
X151537749Y-119578277D01*
X151532767Y-119575954D01*
X151532762Y-119575951D01*
X151498543Y-119559995D01*
X151445258Y-119513078D01*
X151425797Y-119444801D01*
X151446339Y-119376841D01*
X151498543Y-119331605D01*
X151532762Y-119315649D01*
X151532767Y-119315646D01*
X151537749Y-119313323D01*
X151720296Y-119185502D01*
X151720789Y-119185157D01*
X151720792Y-119185155D01*
X151725300Y-119181998D01*
X151887198Y-119020100D01*
X151927273Y-118962868D01*
X151966040Y-118907502D01*
X152018523Y-118832549D01*
X152020846Y-118827567D01*
X152020849Y-118827562D01*
X152112961Y-118630025D01*
X152112961Y-118630024D01*
X152115284Y-118625043D01*
X152122822Y-118596913D01*
X152173119Y-118409202D01*
X152173120Y-118409199D01*
X152174543Y-118403887D01*
X152194498Y-118175800D01*
X152174543Y-117947713D01*
X152134457Y-117798111D01*
X152136147Y-117727135D01*
X152175941Y-117668339D01*
X152241205Y-117640391D01*
X152256164Y-117639500D01*
X154642706Y-117639500D01*
X154710827Y-117659502D01*
G37*
G04 #@! TD.AperFunction*
G04 #@! TA.AperFunction,Conductor*
G36*
X134459590Y-115156002D02*
G01*
X134506083Y-115209658D01*
X134516187Y-115279932D01*
X134505664Y-115315249D01*
X134480241Y-115369770D01*
X134477916Y-115374757D01*
X134476494Y-115380065D01*
X134476493Y-115380067D01*
X134470509Y-115402401D01*
X134418657Y-115595913D01*
X134398702Y-115824000D01*
X134418657Y-116052087D01*
X134420080Y-116057397D01*
X134420081Y-116057402D01*
X134475510Y-116264262D01*
X134477916Y-116273243D01*
X134480239Y-116278224D01*
X134480239Y-116278225D01*
X134572351Y-116475762D01*
X134572354Y-116475767D01*
X134574677Y-116480749D01*
X134706002Y-116668300D01*
X134867900Y-116830198D01*
X134872408Y-116833355D01*
X134872411Y-116833357D01*
X134900186Y-116852805D01*
X135055451Y-116961523D01*
X135060433Y-116963846D01*
X135060438Y-116963849D01*
X135257975Y-117055961D01*
X135262957Y-117058284D01*
X135268265Y-117059706D01*
X135268267Y-117059707D01*
X135478798Y-117116119D01*
X135478800Y-117116119D01*
X135484113Y-117117543D01*
X135712200Y-117137498D01*
X135940287Y-117117543D01*
X135945600Y-117116119D01*
X135945602Y-117116119D01*
X136156133Y-117059707D01*
X136156135Y-117059706D01*
X136161443Y-117058284D01*
X136166425Y-117055961D01*
X136363962Y-116963849D01*
X136363967Y-116963846D01*
X136368949Y-116961523D01*
X136524214Y-116852805D01*
X136551989Y-116833357D01*
X136551992Y-116833355D01*
X136556500Y-116830198D01*
X136718398Y-116668300D01*
X136849723Y-116480749D01*
X136852046Y-116475767D01*
X136852049Y-116475762D01*
X136944161Y-116278225D01*
X136944161Y-116278224D01*
X136946484Y-116273243D01*
X136948891Y-116264262D01*
X137004319Y-116057402D01*
X137004320Y-116057397D01*
X137005743Y-116052087D01*
X137025698Y-115824000D01*
X137005743Y-115595913D01*
X136953891Y-115402401D01*
X136947907Y-115380067D01*
X136947906Y-115380065D01*
X136946484Y-115374757D01*
X136944159Y-115369770D01*
X136918736Y-115315249D01*
X136908075Y-115245057D01*
X136937056Y-115180245D01*
X136996476Y-115141389D01*
X137032931Y-115136000D01*
X147667106Y-115136000D01*
X147735227Y-115156002D01*
X147756201Y-115172905D01*
X148611343Y-116028047D01*
X148618887Y-116036337D01*
X148623000Y-116042818D01*
X148628777Y-116048243D01*
X148672667Y-116089458D01*
X148675500Y-116092204D01*
X148695230Y-116111934D01*
X148698425Y-116114412D01*
X148707447Y-116122118D01*
X148739679Y-116152386D01*
X148752774Y-116159585D01*
X148802832Y-116209927D01*
X148817728Y-116279343D01*
X148792730Y-116345793D01*
X148736922Y-116387325D01*
X148737002Y-116387526D01*
X148736355Y-116387783D01*
X148733783Y-116388801D01*
X148733773Y-116388804D01*
X148695892Y-116403802D01*
X148684665Y-116407646D01*
X148642207Y-116419982D01*
X148635381Y-116424019D01*
X148624772Y-116430293D01*
X148607024Y-116438988D01*
X148588183Y-116446448D01*
X148581767Y-116451110D01*
X148581766Y-116451110D01*
X148552413Y-116472436D01*
X148542493Y-116478952D01*
X148511265Y-116497420D01*
X148511262Y-116497422D01*
X148504438Y-116501458D01*
X148490117Y-116515779D01*
X148475084Y-116528619D01*
X148458693Y-116540528D01*
X148450017Y-116551016D01*
X148430502Y-116574605D01*
X148422512Y-116583384D01*
X147606248Y-117399648D01*
X147543936Y-117433674D01*
X147484541Y-117432259D01*
X147426409Y-117416682D01*
X147426398Y-117416680D01*
X147421087Y-117415257D01*
X147193000Y-117395302D01*
X146964913Y-117415257D01*
X146959600Y-117416681D01*
X146959598Y-117416681D01*
X146749067Y-117473093D01*
X146749065Y-117473094D01*
X146743757Y-117474516D01*
X146738776Y-117476839D01*
X146738775Y-117476839D01*
X146541238Y-117568951D01*
X146541233Y-117568954D01*
X146536251Y-117571277D01*
X146445942Y-117634512D01*
X146353211Y-117699443D01*
X146353208Y-117699445D01*
X146348700Y-117702602D01*
X146186802Y-117864500D01*
X146055477Y-118052051D01*
X146053154Y-118057033D01*
X146053151Y-118057038D01*
X146001292Y-118168251D01*
X145958716Y-118259557D01*
X145957294Y-118264865D01*
X145957293Y-118264867D01*
X145902220Y-118470402D01*
X145899457Y-118480713D01*
X145879502Y-118708800D01*
X145899457Y-118936887D01*
X145900881Y-118942200D01*
X145900881Y-118942202D01*
X145938153Y-119081300D01*
X145958716Y-119158043D01*
X145961039Y-119163024D01*
X145961039Y-119163025D01*
X146053151Y-119360562D01*
X146053154Y-119360567D01*
X146055477Y-119365549D01*
X146094312Y-119421011D01*
X146165654Y-119522897D01*
X146186802Y-119553100D01*
X146348700Y-119714998D01*
X146353208Y-119718155D01*
X146353211Y-119718157D01*
X146425767Y-119768961D01*
X146536251Y-119846323D01*
X146539180Y-119847689D01*
X146587690Y-119898566D01*
X146601124Y-119968280D01*
X146574736Y-120034190D01*
X146516903Y-120075371D01*
X146475695Y-120082300D01*
X144154338Y-120082300D01*
X144086824Y-120062685D01*
X144033048Y-120028558D01*
X143963666Y-119984527D01*
X143906393Y-119964133D01*
X143799425Y-119926043D01*
X143799420Y-119926042D01*
X143792790Y-119923681D01*
X143785802Y-119922848D01*
X143785799Y-119922847D01*
X143662698Y-119908168D01*
X143612680Y-119902204D01*
X143605677Y-119902940D01*
X143605676Y-119902940D01*
X143439288Y-119920428D01*
X143439286Y-119920429D01*
X143432288Y-119921164D01*
X143260579Y-119979618D01*
X143199162Y-120017402D01*
X143112095Y-120070966D01*
X143112092Y-120070968D01*
X143106088Y-120074662D01*
X143101053Y-120079593D01*
X143101050Y-120079595D01*
X143038007Y-120141332D01*
X142976493Y-120201571D01*
X142878235Y-120354038D01*
X142875826Y-120360658D01*
X142875824Y-120360661D01*
X142829581Y-120487713D01*
X142816197Y-120524485D01*
X142793463Y-120704440D01*
X142811163Y-120884960D01*
X142868418Y-121057073D01*
X142872065Y-121063095D01*
X142872066Y-121063097D01*
X142941788Y-121178222D01*
X142962380Y-121212224D01*
X142967270Y-121217287D01*
X142967274Y-121217293D01*
X143029639Y-121281873D01*
X143062572Y-121344769D01*
X143056272Y-121415485D01*
X143012741Y-121471570D01*
X142939003Y-121495400D01*
X137904520Y-121495400D01*
X137836399Y-121475398D01*
X137789906Y-121421742D01*
X137779802Y-121351468D01*
X137797129Y-121305047D01*
X137796671Y-121304798D01*
X137798433Y-121301553D01*
X137798553Y-121301231D01*
X137798904Y-121300686D01*
X137798905Y-121300684D01*
X137801431Y-121296757D01*
X137903897Y-121069291D01*
X137909228Y-121050390D01*
X137970346Y-120833682D01*
X137970347Y-120833679D01*
X137971616Y-120829178D01*
X137988428Y-120697027D01*
X138002702Y-120584822D01*
X138002702Y-120584818D01*
X138003100Y-120581692D01*
X138003959Y-120548913D01*
X138004598Y-120524485D01*
X138005407Y-120493600D01*
X137993477Y-120333067D01*
X137987264Y-120249458D01*
X137987263Y-120249454D01*
X137986918Y-120244806D01*
X137931859Y-120001478D01*
X137924795Y-119983312D01*
X137843131Y-119773314D01*
X137843130Y-119773312D01*
X137841438Y-119768961D01*
X137717642Y-119552363D01*
X137563190Y-119356442D01*
X137381476Y-119185502D01*
X137265241Y-119104867D01*
X137180330Y-119045962D01*
X137180325Y-119045959D01*
X137176492Y-119043300D01*
X137172310Y-119041237D01*
X137172302Y-119041233D01*
X136956928Y-118935023D01*
X136956925Y-118935022D01*
X136952740Y-118932958D01*
X136715137Y-118856900D01*
X136710530Y-118856150D01*
X136710527Y-118856149D01*
X136507093Y-118823018D01*
X136468901Y-118816798D01*
X136347953Y-118815215D01*
X136224120Y-118813594D01*
X136224117Y-118813594D01*
X136219443Y-118813533D01*
X135972242Y-118847175D01*
X135967756Y-118848483D01*
X135967754Y-118848483D01*
X135933988Y-118858325D01*
X135732728Y-118916987D01*
X135728475Y-118918947D01*
X135728474Y-118918948D01*
X135701171Y-118931535D01*
X135506165Y-119021434D01*
X135502256Y-119023997D01*
X135301442Y-119155656D01*
X135301437Y-119155660D01*
X135297529Y-119158222D01*
X135111402Y-119324346D01*
X134951875Y-119516157D01*
X134822452Y-119729440D01*
X134820643Y-119733754D01*
X134820642Y-119733756D01*
X134737218Y-119932700D01*
X134725975Y-119959511D01*
X134724824Y-119964043D01*
X134724823Y-119964046D01*
X134699870Y-120062298D01*
X134664565Y-120201314D01*
X134639570Y-120449539D01*
X134639794Y-120454206D01*
X134639794Y-120454211D01*
X134641686Y-120493600D01*
X134651539Y-120698731D01*
X134700210Y-120943418D01*
X134784514Y-121178222D01*
X134786730Y-121182346D01*
X134855193Y-121309762D01*
X134869816Y-121379236D01*
X134844558Y-121445587D01*
X134787436Y-121487750D01*
X134744201Y-121495400D01*
X126809817Y-121495400D01*
X126741696Y-121475398D01*
X126695203Y-121421742D01*
X126685099Y-121351468D01*
X126695622Y-121316150D01*
X126763761Y-121170025D01*
X126763761Y-121170024D01*
X126766084Y-121165043D01*
X126792948Y-121064788D01*
X126823919Y-120949202D01*
X126823919Y-120949200D01*
X126825343Y-120943887D01*
X126845298Y-120715800D01*
X126825343Y-120487713D01*
X126787937Y-120348112D01*
X126767507Y-120271867D01*
X126767506Y-120271865D01*
X126766084Y-120266557D01*
X126758111Y-120249458D01*
X126671649Y-120064038D01*
X126671646Y-120064033D01*
X126669323Y-120059051D01*
X126584013Y-119937216D01*
X126541157Y-119876011D01*
X126541155Y-119876008D01*
X126537998Y-119871500D01*
X126461360Y-119794862D01*
X128335893Y-119794862D01*
X128345189Y-119806877D01*
X128396394Y-119842731D01*
X128405889Y-119848214D01*
X128603347Y-119940290D01*
X128613639Y-119944036D01*
X128824088Y-120000425D01*
X128834881Y-120002328D01*
X129051925Y-120021317D01*
X129062875Y-120021317D01*
X129279919Y-120002328D01*
X129290712Y-120000425D01*
X129501161Y-119944036D01*
X129511453Y-119940290D01*
X129708911Y-119848214D01*
X129718406Y-119842731D01*
X129770448Y-119806291D01*
X129778824Y-119795812D01*
X129771756Y-119782366D01*
X129070212Y-119080822D01*
X129056268Y-119073208D01*
X129054435Y-119073339D01*
X129047820Y-119077590D01*
X128342323Y-119783087D01*
X128335893Y-119794862D01*
X126461360Y-119794862D01*
X126376100Y-119709602D01*
X126371592Y-119706445D01*
X126371589Y-119706443D01*
X126275951Y-119639477D01*
X126188549Y-119578277D01*
X126183567Y-119575954D01*
X126183562Y-119575951D01*
X126149343Y-119559995D01*
X126096058Y-119513078D01*
X126076597Y-119444801D01*
X126097139Y-119376841D01*
X126149343Y-119331605D01*
X126183562Y-119315649D01*
X126183567Y-119315646D01*
X126188549Y-119313323D01*
X126371096Y-119185502D01*
X126371589Y-119185157D01*
X126371592Y-119185155D01*
X126376100Y-119181998D01*
X126537998Y-119020100D01*
X126578073Y-118962868D01*
X126616840Y-118907502D01*
X126669323Y-118832549D01*
X126671646Y-118827567D01*
X126671649Y-118827562D01*
X126724475Y-118714275D01*
X127744883Y-118714275D01*
X127763872Y-118931319D01*
X127765775Y-118942112D01*
X127822164Y-119152561D01*
X127825910Y-119162853D01*
X127917986Y-119360311D01*
X127923469Y-119369806D01*
X127959909Y-119421848D01*
X127970388Y-119430224D01*
X127983834Y-119423156D01*
X128685378Y-118721612D01*
X128691756Y-118709932D01*
X129421808Y-118709932D01*
X129421939Y-118711765D01*
X129426190Y-118718380D01*
X130131687Y-119423877D01*
X130143462Y-119430307D01*
X130155477Y-119421011D01*
X130191331Y-119369806D01*
X130196814Y-119360311D01*
X130288890Y-119162853D01*
X130292636Y-119152561D01*
X130349025Y-118942112D01*
X130350928Y-118931319D01*
X130369917Y-118714275D01*
X130369917Y-118703325D01*
X130350928Y-118486281D01*
X130349025Y-118475488D01*
X130292636Y-118265039D01*
X130288890Y-118254747D01*
X130196814Y-118057289D01*
X130191331Y-118047794D01*
X130154891Y-117995752D01*
X130144412Y-117987376D01*
X130130966Y-117994444D01*
X129429422Y-118695988D01*
X129421808Y-118709932D01*
X128691756Y-118709932D01*
X128692992Y-118707668D01*
X128692861Y-118705835D01*
X128688610Y-118699220D01*
X127983113Y-117993723D01*
X127971338Y-117987293D01*
X127959323Y-117996589D01*
X127923469Y-118047794D01*
X127917986Y-118057289D01*
X127825910Y-118254747D01*
X127822164Y-118265039D01*
X127765775Y-118475488D01*
X127763872Y-118486281D01*
X127744883Y-118703325D01*
X127744883Y-118714275D01*
X126724475Y-118714275D01*
X126763761Y-118630025D01*
X126763761Y-118630024D01*
X126766084Y-118625043D01*
X126773622Y-118596913D01*
X126823919Y-118409202D01*
X126823920Y-118409199D01*
X126825343Y-118403887D01*
X126845298Y-118175800D01*
X126825343Y-117947713D01*
X126802002Y-117860603D01*
X126767507Y-117731867D01*
X126767506Y-117731865D01*
X126766084Y-117726557D01*
X126762352Y-117718553D01*
X126762131Y-117717096D01*
X126761878Y-117716402D01*
X126762018Y-117716351D01*
X126751689Y-117648362D01*
X126780667Y-117583548D01*
X126840085Y-117544690D01*
X126876545Y-117539300D01*
X128216502Y-117539300D01*
X128284623Y-117559302D01*
X128328033Y-117606676D01*
X128343044Y-117635234D01*
X129044588Y-118336778D01*
X129058532Y-118344392D01*
X129060365Y-118344261D01*
X129066980Y-118340010D01*
X129772478Y-117634512D01*
X129788640Y-117604914D01*
X129838842Y-117554712D01*
X129899227Y-117539300D01*
X131351233Y-117539300D01*
X131362416Y-117539827D01*
X131369909Y-117541502D01*
X131377835Y-117541253D01*
X131377836Y-117541253D01*
X131437986Y-117539362D01*
X131441945Y-117539300D01*
X131469856Y-117539300D01*
X131473791Y-117538803D01*
X131473856Y-117538795D01*
X131485693Y-117537862D01*
X131517951Y-117536848D01*
X131521970Y-117536722D01*
X131529889Y-117536473D01*
X131549343Y-117530821D01*
X131568700Y-117526813D01*
X131580930Y-117525268D01*
X131580931Y-117525268D01*
X131588797Y-117524274D01*
X131596168Y-117521355D01*
X131596170Y-117521355D01*
X131629912Y-117507996D01*
X131641142Y-117504151D01*
X131675983Y-117494029D01*
X131675984Y-117494029D01*
X131683593Y-117491818D01*
X131690412Y-117487785D01*
X131690417Y-117487783D01*
X131701028Y-117481507D01*
X131718776Y-117472812D01*
X131737617Y-117465352D01*
X131773387Y-117439364D01*
X131783307Y-117432848D01*
X131814535Y-117414380D01*
X131814538Y-117414378D01*
X131821362Y-117410342D01*
X131835683Y-117396021D01*
X131850717Y-117383180D01*
X131860694Y-117375931D01*
X131867107Y-117371272D01*
X131895298Y-117337195D01*
X131903288Y-117328416D01*
X132098552Y-117133152D01*
X132160864Y-117099126D01*
X132220259Y-117100541D01*
X132278391Y-117116118D01*
X132278402Y-117116120D01*
X132283713Y-117117543D01*
X132511800Y-117137498D01*
X132739887Y-117117543D01*
X132745200Y-117116119D01*
X132745202Y-117116119D01*
X132955733Y-117059707D01*
X132955735Y-117059706D01*
X132961043Y-117058284D01*
X132966025Y-117055961D01*
X133163562Y-116963849D01*
X133163567Y-116963846D01*
X133168549Y-116961523D01*
X133323814Y-116852805D01*
X133351589Y-116833357D01*
X133351592Y-116833355D01*
X133356100Y-116830198D01*
X133517998Y-116668300D01*
X133649323Y-116480749D01*
X133651646Y-116475767D01*
X133651649Y-116475762D01*
X133743761Y-116278225D01*
X133743761Y-116278224D01*
X133746084Y-116273243D01*
X133748491Y-116264262D01*
X133803919Y-116057402D01*
X133803920Y-116057397D01*
X133805343Y-116052087D01*
X133825298Y-115824000D01*
X133805343Y-115595913D01*
X133753491Y-115402401D01*
X133747507Y-115380067D01*
X133747506Y-115380065D01*
X133746084Y-115374757D01*
X133743759Y-115369770D01*
X133718336Y-115315249D01*
X133707675Y-115245057D01*
X133736656Y-115180245D01*
X133796076Y-115141389D01*
X133832531Y-115136000D01*
X134391469Y-115136000D01*
X134459590Y-115156002D01*
G37*
G04 #@! TD.AperFunction*
G04 #@! TA.AperFunction,Conductor*
G36*
X134414892Y-92560302D02*
G01*
X134461385Y-92613958D01*
X134471489Y-92684232D01*
X134468478Y-92698911D01*
X134430806Y-92839503D01*
X134431142Y-92853599D01*
X134439084Y-92857000D01*
X135840200Y-92857000D01*
X135908321Y-92877002D01*
X135954814Y-92930658D01*
X135966200Y-92983000D01*
X135966200Y-93239000D01*
X135946198Y-93307121D01*
X135892542Y-93353614D01*
X135840200Y-93365000D01*
X134444233Y-93365000D01*
X134430702Y-93368973D01*
X134429473Y-93377522D01*
X134476964Y-93554761D01*
X134480710Y-93565053D01*
X134492693Y-93590750D01*
X134503354Y-93660941D01*
X134474374Y-93725754D01*
X134414955Y-93764611D01*
X134378498Y-93770000D01*
X133684327Y-93770000D01*
X133616206Y-93749998D01*
X133569713Y-93696342D01*
X133559609Y-93626068D01*
X133570132Y-93590750D01*
X133571767Y-93587245D01*
X133586953Y-93554678D01*
X133591361Y-93545225D01*
X133591361Y-93545224D01*
X133593684Y-93540243D01*
X133595867Y-93532098D01*
X133651519Y-93324402D01*
X133651519Y-93324400D01*
X133652943Y-93319087D01*
X133672898Y-93091000D01*
X133652943Y-92862913D01*
X133608998Y-92698909D01*
X133610688Y-92627935D01*
X133650482Y-92569139D01*
X133715746Y-92541191D01*
X133730705Y-92540300D01*
X134346771Y-92540300D01*
X134414892Y-92560302D01*
G37*
G04 #@! TD.AperFunction*
M02*
