G04 #@! TF.GenerationSoftware,KiCad,Pcbnew,(6.0.5)*
G04 #@! TF.CreationDate,2023-11-13T22:27:58+01:00*
G04 #@! TF.ProjectId,C128DCR Dual SID,43313238-4443-4522-9044-75616c205349,D*
G04 #@! TF.SameCoordinates,Original*
G04 #@! TF.FileFunction,Legend,Top*
G04 #@! TF.FilePolarity,Positive*
%FSLAX46Y46*%
G04 Gerber Fmt 4.6, Leading zero omitted, Abs format (unit mm)*
G04 Created by KiCad (PCBNEW (6.0.5)) date 2023-11-13 22:27:58*
%MOMM*%
%LPD*%
G01*
G04 APERTURE LIST*
%ADD10C,0.150000*%
%ADD11C,0.100000*%
%ADD12C,0.120000*%
%ADD13R,1.600000X1.600000*%
%ADD14O,1.600000X1.600000*%
%ADD15C,1.600000*%
%ADD16R,1.700000X1.700000*%
%ADD17O,1.700000X1.700000*%
%ADD18C,2.340000*%
%ADD19C,2.500000*%
G04 APERTURE END LIST*
D10*
X128351500Y-89955714D02*
X127589595Y-90241428D01*
X128351500Y-90527142D01*
X128827690Y-90241428D02*
X129589595Y-90241428D01*
X130780071Y-90574761D02*
X130875309Y-90622380D01*
X131065785Y-90622380D01*
X131161023Y-90574761D01*
X131208642Y-90479523D01*
X131208642Y-90431904D01*
X131161023Y-90336666D01*
X131065785Y-90289047D01*
X130922928Y-90289047D01*
X130827690Y-90241428D01*
X130780071Y-90146190D01*
X130780071Y-90098571D01*
X130827690Y-90003333D01*
X130922928Y-89955714D01*
X131065785Y-89955714D01*
X131161023Y-90003333D01*
X131780071Y-90622380D02*
X131684833Y-90574761D01*
X131637214Y-90527142D01*
X131589595Y-90431904D01*
X131589595Y-90146190D01*
X131637214Y-90050952D01*
X131684833Y-90003333D01*
X131780071Y-89955714D01*
X131922928Y-89955714D01*
X132018166Y-90003333D01*
X132065785Y-90050952D01*
X132113404Y-90146190D01*
X132113404Y-90431904D01*
X132065785Y-90527142D01*
X132018166Y-90574761D01*
X131922928Y-90622380D01*
X131780071Y-90622380D01*
X132970547Y-90574761D02*
X132875309Y-90622380D01*
X132684833Y-90622380D01*
X132589595Y-90574761D01*
X132541976Y-90527142D01*
X132494357Y-90431904D01*
X132494357Y-90146190D01*
X132541976Y-90050952D01*
X132589595Y-90003333D01*
X132684833Y-89955714D01*
X132875309Y-89955714D01*
X132970547Y-90003333D01*
X133399119Y-90622380D02*
X133399119Y-89622380D01*
X133494357Y-90241428D02*
X133780071Y-90622380D01*
X133780071Y-89955714D02*
X133399119Y-90336666D01*
X134589595Y-90574761D02*
X134494357Y-90622380D01*
X134303880Y-90622380D01*
X134208642Y-90574761D01*
X134161023Y-90479523D01*
X134161023Y-90098571D01*
X134208642Y-90003333D01*
X134303880Y-89955714D01*
X134494357Y-89955714D01*
X134589595Y-90003333D01*
X134637214Y-90098571D01*
X134637214Y-90193809D01*
X134161023Y-90289047D01*
X134922928Y-89955714D02*
X135303880Y-89955714D01*
X135065785Y-89622380D02*
X135065785Y-90479523D01*
X135113404Y-90574761D01*
X135208642Y-90622380D01*
X135303880Y-90622380D01*
X114203261Y-89955714D02*
X114203261Y-90955714D01*
X114203261Y-90003333D02*
X114298500Y-89955714D01*
X114488976Y-89955714D01*
X114584214Y-90003333D01*
X114631833Y-90050952D01*
X114679452Y-90146190D01*
X114679452Y-90431904D01*
X114631833Y-90527142D01*
X114584214Y-90574761D01*
X114488976Y-90622380D01*
X114298500Y-90622380D01*
X114203261Y-90574761D01*
X115108023Y-90622380D02*
X115108023Y-89955714D01*
X115108023Y-89622380D02*
X115060404Y-89670000D01*
X115108023Y-89717619D01*
X115155642Y-89670000D01*
X115108023Y-89622380D01*
X115108023Y-89717619D01*
X115584214Y-89955714D02*
X115584214Y-90622380D01*
X115584214Y-90050952D02*
X115631833Y-90003333D01*
X115727071Y-89955714D01*
X115869928Y-89955714D01*
X115965166Y-90003333D01*
X116012785Y-90098571D01*
X116012785Y-90622380D01*
X116441357Y-90574761D02*
X116536595Y-90622380D01*
X116727071Y-90622380D01*
X116822309Y-90574761D01*
X116869928Y-90479523D01*
X116869928Y-90431904D01*
X116822309Y-90336666D01*
X116727071Y-90289047D01*
X116584214Y-90289047D01*
X116488976Y-90241428D01*
X116441357Y-90146190D01*
X116441357Y-90098571D01*
X116488976Y-90003333D01*
X116584214Y-89955714D01*
X116727071Y-89955714D01*
X116822309Y-90003333D01*
X118060404Y-90241428D02*
X118822309Y-90241428D01*
X119298500Y-89955714D02*
X120060404Y-90241428D01*
X119298500Y-90527142D01*
X158896238Y-102452942D02*
X158848619Y-102595800D01*
X158848619Y-102833895D01*
X158896238Y-102929133D01*
X158943857Y-102976752D01*
X159039095Y-103024371D01*
X159134333Y-103024371D01*
X159229571Y-102976752D01*
X159277190Y-102929133D01*
X159324809Y-102833895D01*
X159372428Y-102643419D01*
X159420047Y-102548180D01*
X159467666Y-102500561D01*
X159562904Y-102452942D01*
X159658142Y-102452942D01*
X159753380Y-102500561D01*
X159801000Y-102548180D01*
X159848619Y-102643419D01*
X159848619Y-102881514D01*
X159801000Y-103024371D01*
X158896238Y-103833895D02*
X158848619Y-103738657D01*
X158848619Y-103548180D01*
X158896238Y-103452942D01*
X158991476Y-103405323D01*
X159372428Y-103405323D01*
X159467666Y-103452942D01*
X159515285Y-103548180D01*
X159515285Y-103738657D01*
X159467666Y-103833895D01*
X159372428Y-103881514D01*
X159277190Y-103881514D01*
X159181952Y-103405323D01*
X158896238Y-104738657D02*
X158848619Y-104643419D01*
X158848619Y-104452942D01*
X158896238Y-104357704D01*
X158943857Y-104310085D01*
X159039095Y-104262466D01*
X159324809Y-104262466D01*
X159420047Y-104310085D01*
X159467666Y-104357704D01*
X159515285Y-104452942D01*
X159515285Y-104643419D01*
X159467666Y-104738657D01*
X158848619Y-105310085D02*
X158896238Y-105214847D01*
X158943857Y-105167228D01*
X159039095Y-105119609D01*
X159324809Y-105119609D01*
X159420047Y-105167228D01*
X159467666Y-105214847D01*
X159515285Y-105310085D01*
X159515285Y-105452942D01*
X159467666Y-105548180D01*
X159420047Y-105595800D01*
X159324809Y-105643419D01*
X159039095Y-105643419D01*
X158943857Y-105595800D01*
X158896238Y-105548180D01*
X158848619Y-105452942D01*
X158848619Y-105310085D01*
X159515285Y-106071990D02*
X158848619Y-106071990D01*
X159420047Y-106071990D02*
X159467666Y-106119609D01*
X159515285Y-106214847D01*
X159515285Y-106357704D01*
X159467666Y-106452942D01*
X159372428Y-106500561D01*
X158848619Y-106500561D01*
X158848619Y-107405323D02*
X159848619Y-107405323D01*
X158896238Y-107405323D02*
X158848619Y-107310085D01*
X158848619Y-107119609D01*
X158896238Y-107024371D01*
X158943857Y-106976752D01*
X159039095Y-106929133D01*
X159324809Y-106929133D01*
X159420047Y-106976752D01*
X159467666Y-107024371D01*
X159515285Y-107119609D01*
X159515285Y-107310085D01*
X159467666Y-107405323D01*
X158848619Y-108310085D02*
X159372428Y-108310085D01*
X159467666Y-108262466D01*
X159515285Y-108167228D01*
X159515285Y-107976752D01*
X159467666Y-107881514D01*
X158896238Y-108310085D02*
X158848619Y-108214847D01*
X158848619Y-107976752D01*
X158896238Y-107881514D01*
X158991476Y-107833895D01*
X159086714Y-107833895D01*
X159181952Y-107881514D01*
X159229571Y-107976752D01*
X159229571Y-108214847D01*
X159277190Y-108310085D01*
X158848619Y-108786276D02*
X159515285Y-108786276D01*
X159324809Y-108786276D02*
X159420047Y-108833895D01*
X159467666Y-108881514D01*
X159515285Y-108976752D01*
X159515285Y-109071990D01*
X159515285Y-109310085D02*
X158848619Y-109548180D01*
X159515285Y-109786276D02*
X158848619Y-109548180D01*
X158610523Y-109452942D01*
X158562904Y-109405323D01*
X158515285Y-109310085D01*
X157286238Y-105071990D02*
X157238619Y-105214847D01*
X157238619Y-105452942D01*
X157286238Y-105548180D01*
X157333857Y-105595800D01*
X157429095Y-105643419D01*
X157524333Y-105643419D01*
X157619571Y-105595800D01*
X157667190Y-105548180D01*
X157714809Y-105452942D01*
X157762428Y-105262466D01*
X157810047Y-105167228D01*
X157857666Y-105119609D01*
X157952904Y-105071990D01*
X158048142Y-105071990D01*
X158143380Y-105119609D01*
X158191000Y-105167228D01*
X158238619Y-105262466D01*
X158238619Y-105500561D01*
X158191000Y-105643419D01*
X157238619Y-106071990D02*
X158238619Y-106071990D01*
X157238619Y-106548180D02*
X158238619Y-106548180D01*
X158238619Y-106786276D01*
X158191000Y-106929133D01*
X158095761Y-107024371D01*
X158000523Y-107071990D01*
X157810047Y-107119609D01*
X157667190Y-107119609D01*
X157476714Y-107071990D01*
X157381476Y-107024371D01*
X157286238Y-106929133D01*
X157238619Y-106786276D01*
X157238619Y-106548180D01*
X163515095Y-91004033D02*
X163515095Y-90851652D01*
X163477000Y-90775461D01*
X163438904Y-90737366D01*
X163324619Y-90661176D01*
X163172238Y-90623080D01*
X162867476Y-90623080D01*
X162791285Y-90661176D01*
X162753190Y-90699271D01*
X162715095Y-90775461D01*
X162715095Y-90927842D01*
X162753190Y-91004033D01*
X162791285Y-91042128D01*
X162867476Y-91080223D01*
X163057952Y-91080223D01*
X163134142Y-91042128D01*
X163172238Y-91004033D01*
X163210333Y-90927842D01*
X163210333Y-90775461D01*
X163172238Y-90699271D01*
X163134142Y-90661176D01*
X163057952Y-90623080D01*
X163515095Y-91804033D02*
X163515095Y-91423080D01*
X163134142Y-91384985D01*
X163172238Y-91423080D01*
X163210333Y-91499271D01*
X163210333Y-91689747D01*
X163172238Y-91765938D01*
X163134142Y-91804033D01*
X163057952Y-91842128D01*
X162867476Y-91842128D01*
X162791285Y-91804033D01*
X162753190Y-91765938D01*
X162715095Y-91689747D01*
X162715095Y-91499271D01*
X162753190Y-91423080D01*
X162791285Y-91384985D01*
X163172238Y-92299271D02*
X163210333Y-92223080D01*
X163248428Y-92184985D01*
X163324619Y-92146890D01*
X163362714Y-92146890D01*
X163438904Y-92184985D01*
X163477000Y-92223080D01*
X163515095Y-92299271D01*
X163515095Y-92451652D01*
X163477000Y-92527842D01*
X163438904Y-92565938D01*
X163362714Y-92604033D01*
X163324619Y-92604033D01*
X163248428Y-92565938D01*
X163210333Y-92527842D01*
X163172238Y-92451652D01*
X163172238Y-92299271D01*
X163134142Y-92223080D01*
X163096047Y-92184985D01*
X163019857Y-92146890D01*
X162867476Y-92146890D01*
X162791285Y-92184985D01*
X162753190Y-92223080D01*
X162715095Y-92299271D01*
X162715095Y-92451652D01*
X162753190Y-92527842D01*
X162791285Y-92565938D01*
X162867476Y-92604033D01*
X163019857Y-92604033D01*
X163096047Y-92565938D01*
X163134142Y-92527842D01*
X163172238Y-92451652D01*
X162715095Y-93365938D02*
X162715095Y-92908795D01*
X162715095Y-93137366D02*
X163515095Y-93137366D01*
X163400809Y-93061176D01*
X163324619Y-92984985D01*
X163286523Y-92908795D01*
X162791285Y-94775461D02*
X162753190Y-94737366D01*
X162715095Y-94623080D01*
X162715095Y-94546890D01*
X162753190Y-94432604D01*
X162829380Y-94356414D01*
X162905571Y-94318319D01*
X163057952Y-94280223D01*
X163172238Y-94280223D01*
X163324619Y-94318319D01*
X163400809Y-94356414D01*
X163477000Y-94432604D01*
X163515095Y-94546890D01*
X163515095Y-94623080D01*
X163477000Y-94737366D01*
X163438904Y-94775461D01*
X163515095Y-95042128D02*
X163515095Y-95575461D01*
X162715095Y-95232604D01*
X163515095Y-96032604D02*
X163515095Y-96108795D01*
X163477000Y-96184985D01*
X163438904Y-96223080D01*
X163362714Y-96261176D01*
X163210333Y-96299271D01*
X163019857Y-96299271D01*
X162867476Y-96261176D01*
X162791285Y-96223080D01*
X162753190Y-96184985D01*
X162715095Y-96108795D01*
X162715095Y-96032604D01*
X162753190Y-95956414D01*
X162791285Y-95918319D01*
X162867476Y-95880223D01*
X163019857Y-95842128D01*
X163210333Y-95842128D01*
X163362714Y-95880223D01*
X163438904Y-95918319D01*
X163477000Y-95956414D01*
X163515095Y-96032604D01*
X163553190Y-97213557D02*
X162524619Y-96527842D01*
X162791285Y-97937366D02*
X162753190Y-97899271D01*
X162715095Y-97784985D01*
X162715095Y-97708795D01*
X162753190Y-97594509D01*
X162829380Y-97518319D01*
X162905571Y-97480223D01*
X163057952Y-97442128D01*
X163172238Y-97442128D01*
X163324619Y-97480223D01*
X163400809Y-97518319D01*
X163477000Y-97594509D01*
X163515095Y-97708795D01*
X163515095Y-97784985D01*
X163477000Y-97899271D01*
X163438904Y-97937366D01*
X163515095Y-98204033D02*
X163515095Y-98737366D01*
X162715095Y-98394509D01*
X162715095Y-99461176D02*
X162715095Y-99004033D01*
X162715095Y-99232604D02*
X163515095Y-99232604D01*
X163400809Y-99156414D01*
X163324619Y-99080223D01*
X163286523Y-99004033D01*
X162791285Y-99804033D02*
X162753190Y-99842128D01*
X162715095Y-99804033D01*
X162753190Y-99765938D01*
X162791285Y-99804033D01*
X162715095Y-99804033D01*
X163210333Y-99804033D02*
X163172238Y-99842128D01*
X163134142Y-99804033D01*
X163172238Y-99765938D01*
X163210333Y-99804033D01*
X163134142Y-99804033D01*
X163248428Y-101137366D02*
X162715095Y-101137366D01*
X163553190Y-100946890D02*
X162981761Y-100756414D01*
X162981761Y-101251652D01*
X163515095Y-101480223D02*
X163515095Y-102013557D01*
X162715095Y-101670700D01*
X163515095Y-102470700D02*
X163515095Y-102546890D01*
X163477000Y-102623080D01*
X163438904Y-102661176D01*
X163362714Y-102699271D01*
X163210333Y-102737366D01*
X163019857Y-102737366D01*
X162867476Y-102699271D01*
X162791285Y-102661176D01*
X162753190Y-102623080D01*
X162715095Y-102546890D01*
X162715095Y-102470700D01*
X162753190Y-102394509D01*
X162791285Y-102356414D01*
X162867476Y-102318319D01*
X163019857Y-102280223D01*
X163210333Y-102280223D01*
X163362714Y-102318319D01*
X163438904Y-102356414D01*
X163477000Y-102394509D01*
X163515095Y-102470700D01*
X163248428Y-103080223D02*
X162448428Y-103080223D01*
X163210333Y-103080223D02*
X163248428Y-103156414D01*
X163248428Y-103308795D01*
X163210333Y-103384985D01*
X163172238Y-103423080D01*
X163096047Y-103461176D01*
X162867476Y-103461176D01*
X162791285Y-103423080D01*
X162753190Y-103384985D01*
X162715095Y-103308795D01*
X162715095Y-103156414D01*
X162753190Y-103080223D01*
X163134142Y-104070700D02*
X163134142Y-103804033D01*
X162715095Y-103804033D02*
X163515095Y-103804033D01*
X163515095Y-104184985D01*
X162410333Y-105327842D02*
X162448428Y-105289747D01*
X162562714Y-105213557D01*
X162638904Y-105175461D01*
X162753190Y-105137366D01*
X162943666Y-105099271D01*
X163096047Y-105099271D01*
X163286523Y-105137366D01*
X163400809Y-105175461D01*
X163477000Y-105213557D01*
X163591285Y-105289747D01*
X163629380Y-105327842D01*
X162791285Y-106089747D02*
X162753190Y-106051652D01*
X162715095Y-105937366D01*
X162715095Y-105861176D01*
X162753190Y-105746890D01*
X162829380Y-105670700D01*
X162905571Y-105632604D01*
X163057952Y-105594509D01*
X163172238Y-105594509D01*
X163324619Y-105632604D01*
X163400809Y-105670700D01*
X163477000Y-105746890D01*
X163515095Y-105861176D01*
X163515095Y-105937366D01*
X163477000Y-106051652D01*
X163438904Y-106089747D01*
X162715095Y-106851652D02*
X162715095Y-106394509D01*
X162715095Y-106623080D02*
X163515095Y-106623080D01*
X163400809Y-106546890D01*
X163324619Y-106470700D01*
X163286523Y-106394509D01*
X163438904Y-107156414D02*
X163477000Y-107194509D01*
X163515095Y-107270700D01*
X163515095Y-107461176D01*
X163477000Y-107537366D01*
X163438904Y-107575461D01*
X163362714Y-107613557D01*
X163286523Y-107613557D01*
X163172238Y-107575461D01*
X162715095Y-107118319D01*
X162715095Y-107613557D01*
X163172238Y-108070700D02*
X163210333Y-107994509D01*
X163248428Y-107956414D01*
X163324619Y-107918319D01*
X163362714Y-107918319D01*
X163438904Y-107956414D01*
X163477000Y-107994509D01*
X163515095Y-108070700D01*
X163515095Y-108223080D01*
X163477000Y-108299271D01*
X163438904Y-108337366D01*
X163362714Y-108375461D01*
X163324619Y-108375461D01*
X163248428Y-108337366D01*
X163210333Y-108299271D01*
X163172238Y-108223080D01*
X163172238Y-108070700D01*
X163134142Y-107994509D01*
X163096047Y-107956414D01*
X163019857Y-107918319D01*
X162867476Y-107918319D01*
X162791285Y-107956414D01*
X162753190Y-107994509D01*
X162715095Y-108070700D01*
X162715095Y-108223080D01*
X162753190Y-108299271D01*
X162791285Y-108337366D01*
X162867476Y-108375461D01*
X163019857Y-108375461D01*
X163096047Y-108337366D01*
X163134142Y-108299271D01*
X163172238Y-108223080D01*
X162715095Y-108718319D02*
X163515095Y-108718319D01*
X163515095Y-108908795D01*
X163477000Y-109023080D01*
X163400809Y-109099271D01*
X163324619Y-109137366D01*
X163172238Y-109175461D01*
X163057952Y-109175461D01*
X162905571Y-109137366D01*
X162829380Y-109099271D01*
X162753190Y-109023080D01*
X162715095Y-108908795D01*
X162715095Y-108718319D01*
X162715095Y-110470700D02*
X163515095Y-110470700D01*
X162753190Y-110470700D02*
X162715095Y-110394509D01*
X162715095Y-110242128D01*
X162753190Y-110165938D01*
X162791285Y-110127842D01*
X162867476Y-110089747D01*
X163096047Y-110089747D01*
X163172238Y-110127842D01*
X163210333Y-110165938D01*
X163248428Y-110242128D01*
X163248428Y-110394509D01*
X163210333Y-110470700D01*
X162753190Y-111156414D02*
X162715095Y-111080223D01*
X162715095Y-110927842D01*
X162753190Y-110851652D01*
X162829380Y-110813557D01*
X163134142Y-110813557D01*
X163210333Y-110851652D01*
X163248428Y-110927842D01*
X163248428Y-111080223D01*
X163210333Y-111156414D01*
X163134142Y-111194509D01*
X163057952Y-111194509D01*
X162981761Y-110813557D01*
X163248428Y-111423080D02*
X163248428Y-111727842D01*
X162715095Y-111537366D02*
X163400809Y-111537366D01*
X163477000Y-111575461D01*
X163515095Y-111651652D01*
X163515095Y-111727842D01*
X162715095Y-112337366D02*
X163134142Y-112337366D01*
X163210333Y-112299271D01*
X163248428Y-112223080D01*
X163248428Y-112070700D01*
X163210333Y-111994509D01*
X162753190Y-112337366D02*
X162715095Y-112261176D01*
X162715095Y-112070700D01*
X162753190Y-111994509D01*
X162829380Y-111956414D01*
X162905571Y-111956414D01*
X162981761Y-111994509D01*
X163019857Y-112070700D01*
X163019857Y-112261176D01*
X163057952Y-112337366D01*
X163248428Y-113061176D02*
X162715095Y-113061176D01*
X163248428Y-112718319D02*
X162829380Y-112718319D01*
X162753190Y-112756414D01*
X162715095Y-112832604D01*
X162715095Y-112946890D01*
X162753190Y-113023080D01*
X162791285Y-113061176D01*
X162715095Y-113556414D02*
X162753190Y-113480223D01*
X162829380Y-113442128D01*
X163515095Y-113442128D01*
X163248428Y-113746890D02*
X163248428Y-114051652D01*
X163515095Y-113861176D02*
X162829380Y-113861176D01*
X162753190Y-113899271D01*
X162715095Y-113975461D01*
X162715095Y-114051652D01*
X162410333Y-114242128D02*
X162448428Y-114280223D01*
X162562714Y-114356414D01*
X162638904Y-114394509D01*
X162753190Y-114432604D01*
X162943666Y-114470700D01*
X163096047Y-114470700D01*
X163286523Y-114432604D01*
X163400809Y-114394509D01*
X163477000Y-114356414D01*
X163591285Y-114280223D01*
X163629380Y-114242128D01*
X161884238Y-90775461D02*
X161922333Y-90699271D01*
X161960428Y-90661176D01*
X162036619Y-90623080D01*
X162074714Y-90623080D01*
X162150904Y-90661176D01*
X162189000Y-90699271D01*
X162227095Y-90775461D01*
X162227095Y-90927842D01*
X162189000Y-91004033D01*
X162150904Y-91042128D01*
X162074714Y-91080223D01*
X162036619Y-91080223D01*
X161960428Y-91042128D01*
X161922333Y-91004033D01*
X161884238Y-90927842D01*
X161884238Y-90775461D01*
X161846142Y-90699271D01*
X161808047Y-90661176D01*
X161731857Y-90623080D01*
X161579476Y-90623080D01*
X161503285Y-90661176D01*
X161465190Y-90699271D01*
X161427095Y-90775461D01*
X161427095Y-90927842D01*
X161465190Y-91004033D01*
X161503285Y-91042128D01*
X161579476Y-91080223D01*
X161731857Y-91080223D01*
X161808047Y-91042128D01*
X161846142Y-91004033D01*
X161884238Y-90927842D01*
X162227095Y-91804033D02*
X162227095Y-91423080D01*
X161846142Y-91384985D01*
X161884238Y-91423080D01*
X161922333Y-91499271D01*
X161922333Y-91689747D01*
X161884238Y-91765938D01*
X161846142Y-91804033D01*
X161769952Y-91842128D01*
X161579476Y-91842128D01*
X161503285Y-91804033D01*
X161465190Y-91765938D01*
X161427095Y-91689747D01*
X161427095Y-91499271D01*
X161465190Y-91423080D01*
X161503285Y-91384985D01*
X161884238Y-92299271D02*
X161922333Y-92223080D01*
X161960428Y-92184985D01*
X162036619Y-92146890D01*
X162074714Y-92146890D01*
X162150904Y-92184985D01*
X162189000Y-92223080D01*
X162227095Y-92299271D01*
X162227095Y-92451652D01*
X162189000Y-92527842D01*
X162150904Y-92565938D01*
X162074714Y-92604033D01*
X162036619Y-92604033D01*
X161960428Y-92565938D01*
X161922333Y-92527842D01*
X161884238Y-92451652D01*
X161884238Y-92299271D01*
X161846142Y-92223080D01*
X161808047Y-92184985D01*
X161731857Y-92146890D01*
X161579476Y-92146890D01*
X161503285Y-92184985D01*
X161465190Y-92223080D01*
X161427095Y-92299271D01*
X161427095Y-92451652D01*
X161465190Y-92527842D01*
X161503285Y-92565938D01*
X161579476Y-92604033D01*
X161731857Y-92604033D01*
X161808047Y-92565938D01*
X161846142Y-92527842D01*
X161884238Y-92451652D01*
X162227095Y-93099271D02*
X162227095Y-93175461D01*
X162189000Y-93251652D01*
X162150904Y-93289747D01*
X162074714Y-93327842D01*
X161922333Y-93365938D01*
X161731857Y-93365938D01*
X161579476Y-93327842D01*
X161503285Y-93289747D01*
X161465190Y-93251652D01*
X161427095Y-93175461D01*
X161427095Y-93099271D01*
X161465190Y-93023080D01*
X161503285Y-92984985D01*
X161579476Y-92946890D01*
X161731857Y-92908795D01*
X161922333Y-92908795D01*
X162074714Y-92946890D01*
X162150904Y-92984985D01*
X162189000Y-93023080D01*
X162227095Y-93099271D01*
X161503285Y-94775461D02*
X161465190Y-94737366D01*
X161427095Y-94623080D01*
X161427095Y-94546890D01*
X161465190Y-94432604D01*
X161541380Y-94356414D01*
X161617571Y-94318319D01*
X161769952Y-94280223D01*
X161884238Y-94280223D01*
X162036619Y-94318319D01*
X162112809Y-94356414D01*
X162189000Y-94432604D01*
X162227095Y-94546890D01*
X162227095Y-94623080D01*
X162189000Y-94737366D01*
X162150904Y-94775461D01*
X162227095Y-95042128D02*
X162227095Y-95575461D01*
X161427095Y-95232604D01*
X162227095Y-96032604D02*
X162227095Y-96108795D01*
X162189000Y-96184985D01*
X162150904Y-96223080D01*
X162074714Y-96261176D01*
X161922333Y-96299271D01*
X161731857Y-96299271D01*
X161579476Y-96261176D01*
X161503285Y-96223080D01*
X161465190Y-96184985D01*
X161427095Y-96108795D01*
X161427095Y-96032604D01*
X161465190Y-95956414D01*
X161503285Y-95918319D01*
X161579476Y-95880223D01*
X161731857Y-95842128D01*
X161922333Y-95842128D01*
X162074714Y-95880223D01*
X162150904Y-95918319D01*
X162189000Y-95956414D01*
X162227095Y-96032604D01*
X162265190Y-97213557D02*
X161236619Y-96527842D01*
X161503285Y-97937366D02*
X161465190Y-97899271D01*
X161427095Y-97784985D01*
X161427095Y-97708795D01*
X161465190Y-97594509D01*
X161541380Y-97518319D01*
X161617571Y-97480223D01*
X161769952Y-97442128D01*
X161884238Y-97442128D01*
X162036619Y-97480223D01*
X162112809Y-97518319D01*
X162189000Y-97594509D01*
X162227095Y-97708795D01*
X162227095Y-97784985D01*
X162189000Y-97899271D01*
X162150904Y-97937366D01*
X162227095Y-98204033D02*
X162227095Y-98737366D01*
X161427095Y-98394509D01*
X161427095Y-99461176D02*
X161427095Y-99004033D01*
X161427095Y-99232604D02*
X162227095Y-99232604D01*
X162112809Y-99156414D01*
X162036619Y-99080223D01*
X161998523Y-99004033D01*
X161503285Y-99804033D02*
X161465190Y-99842128D01*
X161427095Y-99804033D01*
X161465190Y-99765938D01*
X161503285Y-99804033D01*
X161427095Y-99804033D01*
X161922333Y-99804033D02*
X161884238Y-99842128D01*
X161846142Y-99804033D01*
X161884238Y-99765938D01*
X161922333Y-99804033D01*
X161846142Y-99804033D01*
X162150904Y-100756414D02*
X162189000Y-100794509D01*
X162227095Y-100870700D01*
X162227095Y-101061176D01*
X162189000Y-101137366D01*
X162150904Y-101175461D01*
X162074714Y-101213557D01*
X161998523Y-101213557D01*
X161884238Y-101175461D01*
X161427095Y-100718319D01*
X161427095Y-101213557D01*
X162150904Y-101518319D02*
X162189000Y-101556414D01*
X162227095Y-101632604D01*
X162227095Y-101823080D01*
X162189000Y-101899271D01*
X162150904Y-101937366D01*
X162074714Y-101975461D01*
X161998523Y-101975461D01*
X161884238Y-101937366D01*
X161427095Y-101480223D01*
X161427095Y-101975461D01*
X161960428Y-102318319D02*
X161427095Y-102318319D01*
X161884238Y-102318319D02*
X161922333Y-102356414D01*
X161960428Y-102432604D01*
X161960428Y-102546890D01*
X161922333Y-102623080D01*
X161846142Y-102661176D01*
X161427095Y-102661176D01*
X161846142Y-103308795D02*
X161846142Y-103042128D01*
X161427095Y-103042128D02*
X162227095Y-103042128D01*
X162227095Y-103423080D01*
X170333942Y-114231657D02*
X170381561Y-114279276D01*
X170429180Y-114422133D01*
X170429180Y-114517371D01*
X170381561Y-114660228D01*
X170286323Y-114755466D01*
X170191085Y-114803085D01*
X170000609Y-114850704D01*
X169857752Y-114850704D01*
X169667276Y-114803085D01*
X169572038Y-114755466D01*
X169476800Y-114660228D01*
X169429180Y-114517371D01*
X169429180Y-114422133D01*
X169476800Y-114279276D01*
X169524419Y-114231657D01*
X169429180Y-113898323D02*
X169429180Y-113231657D01*
X170429180Y-113660228D01*
X169429180Y-112660228D02*
X169429180Y-112564990D01*
X169476800Y-112469752D01*
X169524419Y-112422133D01*
X169619657Y-112374514D01*
X169810133Y-112326895D01*
X170048228Y-112326895D01*
X170238704Y-112374514D01*
X170333942Y-112422133D01*
X170381561Y-112469752D01*
X170429180Y-112564990D01*
X170429180Y-112660228D01*
X170381561Y-112755466D01*
X170333942Y-112803085D01*
X170238704Y-112850704D01*
X170048228Y-112898323D01*
X169810133Y-112898323D01*
X169619657Y-112850704D01*
X169524419Y-112803085D01*
X169476800Y-112755466D01*
X169429180Y-112660228D01*
X170333942Y-121927857D02*
X170381561Y-121975476D01*
X170429180Y-122118333D01*
X170429180Y-122213571D01*
X170381561Y-122356428D01*
X170286323Y-122451666D01*
X170191085Y-122499285D01*
X170000609Y-122546904D01*
X169857752Y-122546904D01*
X169667276Y-122499285D01*
X169572038Y-122451666D01*
X169476800Y-122356428D01*
X169429180Y-122213571D01*
X169429180Y-122118333D01*
X169476800Y-121975476D01*
X169524419Y-121927857D01*
X169429180Y-121594523D02*
X169429180Y-120927857D01*
X170429180Y-121356428D01*
X170429180Y-120023095D02*
X170429180Y-120594523D01*
X170429180Y-120308809D02*
X169429180Y-120308809D01*
X169572038Y-120404047D01*
X169667276Y-120499285D01*
X169714895Y-120594523D01*
X135545533Y-100548380D02*
X135212200Y-100072190D01*
X134974104Y-100548380D02*
X134974104Y-99548380D01*
X135355057Y-99548380D01*
X135450295Y-99596000D01*
X135497914Y-99643619D01*
X135545533Y-99738857D01*
X135545533Y-99881714D01*
X135497914Y-99976952D01*
X135450295Y-100024571D01*
X135355057Y-100072190D01*
X134974104Y-100072190D01*
X136116961Y-99976952D02*
X136021723Y-99929333D01*
X135974104Y-99881714D01*
X135926485Y-99786476D01*
X135926485Y-99738857D01*
X135974104Y-99643619D01*
X136021723Y-99596000D01*
X136116961Y-99548380D01*
X136307438Y-99548380D01*
X136402676Y-99596000D01*
X136450295Y-99643619D01*
X136497914Y-99738857D01*
X136497914Y-99786476D01*
X136450295Y-99881714D01*
X136402676Y-99929333D01*
X136307438Y-99976952D01*
X136116961Y-99976952D01*
X136021723Y-100024571D01*
X135974104Y-100072190D01*
X135926485Y-100167428D01*
X135926485Y-100357904D01*
X135974104Y-100453142D01*
X136021723Y-100500761D01*
X136116961Y-100548380D01*
X136307438Y-100548380D01*
X136402676Y-100500761D01*
X136450295Y-100453142D01*
X136497914Y-100357904D01*
X136497914Y-100167428D01*
X136450295Y-100072190D01*
X136402676Y-100024571D01*
X136307438Y-99976952D01*
X117149895Y-122073180D02*
X117149895Y-122882704D01*
X117197514Y-122977942D01*
X117245133Y-123025561D01*
X117340371Y-123073180D01*
X117530847Y-123073180D01*
X117626085Y-123025561D01*
X117673704Y-122977942D01*
X117721323Y-122882704D01*
X117721323Y-122073180D01*
X118721323Y-123073180D02*
X118149895Y-123073180D01*
X118435609Y-123073180D02*
X118435609Y-122073180D01*
X118340371Y-122216038D01*
X118245133Y-122311276D01*
X118149895Y-122358895D01*
X157739095Y-122073180D02*
X157739095Y-122882704D01*
X157786714Y-122977942D01*
X157834333Y-123025561D01*
X157929571Y-123073180D01*
X158120047Y-123073180D01*
X158215285Y-123025561D01*
X158262904Y-122977942D01*
X158310523Y-122882704D01*
X158310523Y-122073180D01*
X158739095Y-122168419D02*
X158786714Y-122120800D01*
X158881952Y-122073180D01*
X159120047Y-122073180D01*
X159215285Y-122120800D01*
X159262904Y-122168419D01*
X159310523Y-122263657D01*
X159310523Y-122358895D01*
X159262904Y-122501752D01*
X158691476Y-123073180D01*
X159310523Y-123073180D01*
D11*
X143228066Y-124107600D02*
X143928066Y-124107600D01*
X143794733Y-124938600D02*
X143761400Y-124971933D01*
X143661400Y-125005266D01*
X143594733Y-125005266D01*
X143494733Y-124971933D01*
X143428066Y-124905266D01*
X143394733Y-124838600D01*
X143361400Y-124705266D01*
X143361400Y-124605266D01*
X143394733Y-124471933D01*
X143428066Y-124405266D01*
X143494733Y-124338600D01*
X143594733Y-124305266D01*
X143661400Y-124305266D01*
X143761400Y-124338600D01*
X143794733Y-124371933D01*
X143928066Y-124107600D02*
X144594733Y-124107600D01*
X144061400Y-124971933D02*
X144161400Y-125005266D01*
X144328066Y-125005266D01*
X144394733Y-124971933D01*
X144428066Y-124938600D01*
X144461400Y-124871933D01*
X144461400Y-124805266D01*
X144428066Y-124738600D01*
X144394733Y-124705266D01*
X144328066Y-124671933D01*
X144194733Y-124638600D01*
X144128066Y-124605266D01*
X144094733Y-124571933D01*
X144061400Y-124505266D01*
X144061400Y-124438600D01*
X144094733Y-124371933D01*
X144128066Y-124338600D01*
X144194733Y-124305266D01*
X144361400Y-124305266D01*
X144461400Y-124338600D01*
D10*
X127055180Y-127426933D02*
X127769466Y-127426933D01*
X127912323Y-127474552D01*
X128007561Y-127569790D01*
X128055180Y-127712647D01*
X128055180Y-127807885D01*
X128055180Y-126950742D02*
X127055180Y-126950742D01*
X127055180Y-126569790D01*
X127102800Y-126474552D01*
X127150419Y-126426933D01*
X127245657Y-126379314D01*
X127388514Y-126379314D01*
X127483752Y-126426933D01*
X127531371Y-126474552D01*
X127578990Y-126569790D01*
X127578990Y-126950742D01*
X128055180Y-125426933D02*
X128055180Y-125998361D01*
X128055180Y-125712647D02*
X127055180Y-125712647D01*
X127198038Y-125807885D01*
X127293276Y-125903123D01*
X127340895Y-125998361D01*
X132964180Y-110910666D02*
X132487990Y-111244000D01*
X132964180Y-111482095D02*
X131964180Y-111482095D01*
X131964180Y-111101142D01*
X132011800Y-111005904D01*
X132059419Y-110958285D01*
X132154657Y-110910666D01*
X132297514Y-110910666D01*
X132392752Y-110958285D01*
X132440371Y-111005904D01*
X132487990Y-111101142D01*
X132487990Y-111482095D01*
X132964180Y-109958285D02*
X132964180Y-110529714D01*
X132964180Y-110244000D02*
X131964180Y-110244000D01*
X132107038Y-110339238D01*
X132202276Y-110434476D01*
X132249895Y-110529714D01*
X136037580Y-110910666D02*
X135561390Y-111244000D01*
X136037580Y-111482095D02*
X135037580Y-111482095D01*
X135037580Y-111101142D01*
X135085200Y-111005904D01*
X135132819Y-110958285D01*
X135228057Y-110910666D01*
X135370914Y-110910666D01*
X135466152Y-110958285D01*
X135513771Y-111005904D01*
X135561390Y-111101142D01*
X135561390Y-111482095D01*
X135132819Y-110529714D02*
X135085200Y-110482095D01*
X135037580Y-110386857D01*
X135037580Y-110148761D01*
X135085200Y-110053523D01*
X135132819Y-110005904D01*
X135228057Y-109958285D01*
X135323295Y-109958285D01*
X135466152Y-110005904D01*
X136037580Y-110577333D01*
X136037580Y-109958285D01*
X132192733Y-100528380D02*
X131859400Y-100052190D01*
X131621304Y-100528380D02*
X131621304Y-99528380D01*
X132002257Y-99528380D01*
X132097495Y-99576000D01*
X132145114Y-99623619D01*
X132192733Y-99718857D01*
X132192733Y-99861714D01*
X132145114Y-99956952D01*
X132097495Y-100004571D01*
X132002257Y-100052190D01*
X131621304Y-100052190D01*
X132526066Y-99528380D02*
X133145114Y-99528380D01*
X132811780Y-99909333D01*
X132954638Y-99909333D01*
X133049876Y-99956952D01*
X133097495Y-100004571D01*
X133145114Y-100099809D01*
X133145114Y-100337904D01*
X133097495Y-100433142D01*
X133049876Y-100480761D01*
X132954638Y-100528380D01*
X132668923Y-100528380D01*
X132573685Y-100480761D01*
X132526066Y-100433142D01*
X128890733Y-100502980D02*
X128557400Y-100026790D01*
X128319304Y-100502980D02*
X128319304Y-99502980D01*
X128700257Y-99502980D01*
X128795495Y-99550600D01*
X128843114Y-99598219D01*
X128890733Y-99693457D01*
X128890733Y-99836314D01*
X128843114Y-99931552D01*
X128795495Y-99979171D01*
X128700257Y-100026790D01*
X128319304Y-100026790D01*
X129747876Y-99836314D02*
X129747876Y-100502980D01*
X129509780Y-99455361D02*
X129271685Y-100169647D01*
X129890733Y-100169647D01*
X133559580Y-122953838D02*
X133083390Y-123287171D01*
X133559580Y-123525266D02*
X132559580Y-123525266D01*
X132559580Y-123144314D01*
X132607200Y-123049076D01*
X132654819Y-123001457D01*
X132750057Y-122953838D01*
X132892914Y-122953838D01*
X132988152Y-123001457D01*
X133035771Y-123049076D01*
X133083390Y-123144314D01*
X133083390Y-123525266D01*
X132559580Y-122668123D02*
X133559580Y-122334790D01*
X132559580Y-122001457D01*
X133559580Y-121144314D02*
X133559580Y-121715742D01*
X133559580Y-121430028D02*
X132559580Y-121430028D01*
X132702438Y-121525266D01*
X132797676Y-121620504D01*
X132845295Y-121715742D01*
X139909580Y-122009314D02*
X139909580Y-122580742D01*
X139909580Y-122295028D02*
X138909580Y-122295028D01*
X139052438Y-122390266D01*
X139147676Y-122485504D01*
X139195295Y-122580742D01*
X139909580Y-121580742D02*
X138909580Y-121580742D01*
X139623866Y-121247409D01*
X138909580Y-120914076D01*
X139909580Y-120914076D01*
X113974180Y-127426933D02*
X114688466Y-127426933D01*
X114831323Y-127474552D01*
X114926561Y-127569790D01*
X114974180Y-127712647D01*
X114974180Y-127807885D01*
X114974180Y-126950742D02*
X113974180Y-126950742D01*
X113974180Y-126569790D01*
X114021800Y-126474552D01*
X114069419Y-126426933D01*
X114164657Y-126379314D01*
X114307514Y-126379314D01*
X114402752Y-126426933D01*
X114450371Y-126474552D01*
X114497990Y-126569790D01*
X114497990Y-126950742D01*
X113974180Y-126045980D02*
X113974180Y-125426933D01*
X114355133Y-125760266D01*
X114355133Y-125617409D01*
X114402752Y-125522171D01*
X114450371Y-125474552D01*
X114545609Y-125426933D01*
X114783704Y-125426933D01*
X114878942Y-125474552D01*
X114926561Y-125522171D01*
X114974180Y-125617409D01*
X114974180Y-125903123D01*
X114926561Y-125998361D01*
X114878942Y-126045980D01*
X167136380Y-127426933D02*
X167850666Y-127426933D01*
X167993523Y-127474552D01*
X168088761Y-127569790D01*
X168136380Y-127712647D01*
X168136380Y-127807885D01*
X168136380Y-126950742D02*
X167136380Y-126950742D01*
X167136380Y-126569790D01*
X167184000Y-126474552D01*
X167231619Y-126426933D01*
X167326857Y-126379314D01*
X167469714Y-126379314D01*
X167564952Y-126426933D01*
X167612571Y-126474552D01*
X167660190Y-126569790D01*
X167660190Y-126950742D01*
X167231619Y-125998361D02*
X167184000Y-125950742D01*
X167136380Y-125855504D01*
X167136380Y-125617409D01*
X167184000Y-125522171D01*
X167231619Y-125474552D01*
X167326857Y-125426933D01*
X167422095Y-125426933D01*
X167564952Y-125474552D01*
X168136380Y-126045980D01*
X168136380Y-125426933D01*
X147550142Y-121375466D02*
X147597761Y-121423085D01*
X147645380Y-121565942D01*
X147645380Y-121661180D01*
X147597761Y-121804038D01*
X147502523Y-121899276D01*
X147407285Y-121946895D01*
X147216809Y-121994514D01*
X147073952Y-121994514D01*
X146883476Y-121946895D01*
X146788238Y-121899276D01*
X146693000Y-121804038D01*
X146645380Y-121661180D01*
X146645380Y-121565942D01*
X146693000Y-121423085D01*
X146740619Y-121375466D01*
X146740619Y-120994514D02*
X146693000Y-120946895D01*
X146645380Y-120851657D01*
X146645380Y-120613561D01*
X146693000Y-120518323D01*
X146740619Y-120470704D01*
X146835857Y-120423085D01*
X146931095Y-120423085D01*
X147073952Y-120470704D01*
X147645380Y-121042133D01*
X147645380Y-120423085D01*
X129414542Y-121375466D02*
X129462161Y-121423085D01*
X129509780Y-121565942D01*
X129509780Y-121661180D01*
X129462161Y-121804038D01*
X129366923Y-121899276D01*
X129271685Y-121946895D01*
X129081209Y-121994514D01*
X128938352Y-121994514D01*
X128747876Y-121946895D01*
X128652638Y-121899276D01*
X128557400Y-121804038D01*
X128509780Y-121661180D01*
X128509780Y-121565942D01*
X128557400Y-121423085D01*
X128605019Y-121375466D01*
X129509780Y-120423085D02*
X129509780Y-120994514D01*
X129509780Y-120708800D02*
X128509780Y-120708800D01*
X128652638Y-120804038D01*
X128747876Y-120899276D01*
X128795495Y-120994514D01*
X148855180Y-127452333D02*
X149569466Y-127452333D01*
X149712323Y-127499952D01*
X149807561Y-127595190D01*
X149855180Y-127738047D01*
X149855180Y-127833285D01*
X149855180Y-126976142D02*
X148855180Y-126976142D01*
X148855180Y-126595190D01*
X148902800Y-126499952D01*
X148950419Y-126452333D01*
X149045657Y-126404714D01*
X149188514Y-126404714D01*
X149283752Y-126452333D01*
X149331371Y-126499952D01*
X149378990Y-126595190D01*
X149378990Y-126976142D01*
X149188514Y-125547571D02*
X149855180Y-125547571D01*
X148807561Y-125785666D02*
X149521847Y-126023761D01*
X149521847Y-125404714D01*
X143668780Y-94027238D02*
X143192590Y-94360571D01*
X143668780Y-94598666D02*
X142668780Y-94598666D01*
X142668780Y-94217714D01*
X142716400Y-94122476D01*
X142764019Y-94074857D01*
X142859257Y-94027238D01*
X143002114Y-94027238D01*
X143097352Y-94074857D01*
X143144971Y-94122476D01*
X143192590Y-94217714D01*
X143192590Y-94598666D01*
X142668780Y-93741523D02*
X143668780Y-93408190D01*
X142668780Y-93074857D01*
X142764019Y-92789142D02*
X142716400Y-92741523D01*
X142668780Y-92646285D01*
X142668780Y-92408190D01*
X142716400Y-92312952D01*
X142764019Y-92265333D01*
X142859257Y-92217714D01*
X142954495Y-92217714D01*
X143097352Y-92265333D01*
X143668780Y-92836761D01*
X143668780Y-92217714D01*
X141128780Y-96892714D02*
X141128780Y-97464142D01*
X141128780Y-97178428D02*
X140128780Y-97178428D01*
X140271638Y-97273666D01*
X140366876Y-97368904D01*
X140414495Y-97464142D01*
X141128780Y-96464142D02*
X140128780Y-96464142D01*
X140843066Y-96130809D01*
X140128780Y-95797476D01*
X141128780Y-95797476D01*
X120650000Y-89027000D02*
X120650000Y-124587000D01*
X107950000Y-124587000D02*
X107950000Y-89027000D01*
X107950000Y-124587000D02*
X105410000Y-124587000D01*
X123190000Y-124587000D02*
X120650000Y-124587000D01*
X105410000Y-89027000D02*
X105410000Y-124587000D01*
X107950000Y-89027000D02*
X105410000Y-89027000D01*
X123190000Y-89027000D02*
X120650000Y-89027000D01*
X123190000Y-124587000D02*
X123190000Y-89027000D01*
D12*
X168666800Y-111218800D02*
X168980800Y-111218800D01*
X168666800Y-116038800D02*
X168980800Y-116038800D01*
X171286800Y-116038800D02*
X171286800Y-111218800D01*
X170972800Y-111218800D02*
X171286800Y-111218800D01*
X168666800Y-116038800D02*
X168666800Y-111218800D01*
X170972800Y-116038800D02*
X171286800Y-116038800D01*
X168666800Y-123735000D02*
X168666800Y-118915000D01*
X170972800Y-118915000D02*
X171286800Y-118915000D01*
X171286800Y-123735000D02*
X171286800Y-118915000D01*
X168666800Y-118915000D02*
X168980800Y-118915000D01*
X170972800Y-123735000D02*
X171286800Y-123735000D01*
X168666800Y-123735000D02*
X168980800Y-123735000D01*
X134402200Y-101401000D02*
X137022200Y-101401000D01*
X135712200Y-94091000D02*
X135712200Y-94981000D01*
X137022200Y-101401000D02*
X137022200Y-94981000D01*
X137022200Y-94981000D02*
X134402200Y-94981000D01*
X134402200Y-94981000D02*
X134402200Y-101401000D01*
X135712200Y-102291000D02*
X135712200Y-101401000D01*
X108961800Y-88845800D02*
X108961800Y-124645800D01*
X108961800Y-124645800D02*
X126861800Y-124645800D01*
X126861800Y-88845800D02*
X108961800Y-88845800D01*
X124371800Y-124585800D02*
X124371800Y-88905800D01*
X126861800Y-124645800D02*
X126861800Y-88845800D01*
X124371800Y-88905800D02*
X111451800Y-88905800D01*
X111451800Y-124585800D02*
X116911800Y-124585800D01*
X118911800Y-124585800D02*
X124371800Y-124585800D01*
X111451800Y-88905800D02*
X111451800Y-124585800D01*
X118911800Y-124585800D02*
G75*
G03*
X116911800Y-124585800I-1000000J0D01*
G01*
X152041000Y-88905800D02*
X152041000Y-124585800D01*
X164961000Y-88905800D02*
X152041000Y-88905800D01*
X149551000Y-88845800D02*
X149551000Y-124645800D01*
X164961000Y-124585800D02*
X164961000Y-88905800D01*
X159501000Y-124585800D02*
X164961000Y-124585800D01*
X167451000Y-88845800D02*
X149551000Y-88845800D01*
X149551000Y-124645800D02*
X167451000Y-124645800D01*
X167451000Y-124645800D02*
X167451000Y-88845800D01*
X152041000Y-124585800D02*
X157501000Y-124585800D01*
X159501000Y-124585800D02*
G75*
G03*
X157501000Y-124585800I-1000000J0D01*
G01*
X145181400Y-127923600D02*
X145181400Y-125263600D01*
X145181400Y-127923600D02*
X147781400Y-127923600D01*
X142581400Y-127923600D02*
X142581400Y-126593600D01*
X143911400Y-127923600D02*
X142581400Y-127923600D01*
X147781400Y-127923600D02*
X147781400Y-125263600D01*
X145181400Y-125263600D02*
X147781400Y-125263600D01*
X125272800Y-125263600D02*
X126602800Y-125263600D01*
X124002800Y-125263600D02*
X118862800Y-125263600D01*
X124002800Y-127923600D02*
X118862800Y-127923600D01*
X126602800Y-125263600D02*
X126602800Y-126593600D01*
X118862800Y-125263600D02*
X118862800Y-127923600D01*
X124002800Y-125263600D02*
X124002800Y-127923600D01*
X132511800Y-114784000D02*
X132511800Y-114014000D01*
X132511800Y-106704000D02*
X132511800Y-107474000D01*
X133881800Y-114014000D02*
X133881800Y-107474000D01*
X133881800Y-107474000D02*
X131141800Y-107474000D01*
X131141800Y-114014000D02*
X133881800Y-114014000D01*
X131141800Y-107474000D02*
X131141800Y-114014000D01*
X137082200Y-107474000D02*
X134342200Y-107474000D01*
X137082200Y-114014000D02*
X137082200Y-107474000D01*
X134342200Y-114014000D02*
X137082200Y-114014000D01*
X135712200Y-106704000D02*
X135712200Y-107474000D01*
X134342200Y-107474000D02*
X134342200Y-114014000D01*
X135712200Y-114784000D02*
X135712200Y-114014000D01*
X133729400Y-101441000D02*
X133729400Y-94901000D01*
X130989400Y-94901000D02*
X130989400Y-101441000D01*
X132359400Y-102211000D02*
X132359400Y-101441000D01*
X130989400Y-101441000D02*
X133729400Y-101441000D01*
X132359400Y-94131000D02*
X132359400Y-94901000D01*
X133729400Y-94901000D02*
X130989400Y-94901000D01*
X130427400Y-94875600D02*
X127687400Y-94875600D01*
X130427400Y-101415600D02*
X130427400Y-94875600D01*
X127687400Y-94875600D02*
X127687400Y-101415600D01*
X129057400Y-102185600D02*
X129057400Y-101415600D01*
X127687400Y-101415600D02*
X130427400Y-101415600D01*
X129057400Y-94105600D02*
X129057400Y-94875600D01*
X141592200Y-122992600D02*
G75*
G03*
X141592200Y-122992600I-5270000J0D01*
G01*
X112191800Y-125263600D02*
X113521800Y-125263600D01*
X110921800Y-127923600D02*
X105781800Y-127923600D01*
X105781800Y-125263600D02*
X105781800Y-127923600D01*
X110921800Y-125263600D02*
X105781800Y-125263600D01*
X110921800Y-125263600D02*
X110921800Y-127923600D01*
X113521800Y-125263600D02*
X113521800Y-126593600D01*
X164084000Y-125263600D02*
X164084000Y-127923600D01*
X164084000Y-125263600D02*
X158944000Y-125263600D01*
X166684000Y-125263600D02*
X166684000Y-126593600D01*
X164084000Y-127923600D02*
X158944000Y-127923600D01*
X165354000Y-125263600D02*
X166684000Y-125263600D01*
X158944000Y-125263600D02*
X158944000Y-127923600D01*
X146138000Y-123678800D02*
X145823000Y-123678800D01*
X145823000Y-118738800D02*
X145823000Y-123678800D01*
X148563000Y-123678800D02*
X148248000Y-123678800D01*
X148563000Y-118738800D02*
X148563000Y-123678800D01*
X146138000Y-118738800D02*
X145823000Y-118738800D01*
X148563000Y-118738800D02*
X148248000Y-118738800D01*
X130427400Y-123678800D02*
X130427400Y-118738800D01*
X130112400Y-123678800D02*
X130427400Y-123678800D01*
X127687400Y-123678800D02*
X127687400Y-118738800D01*
X130112400Y-118738800D02*
X130427400Y-118738800D01*
X127687400Y-118738800D02*
X128002400Y-118738800D01*
X127687400Y-123678800D02*
X128002400Y-123678800D01*
X150054000Y-125263600D02*
X150054000Y-127923600D01*
X157794000Y-125263600D02*
X157794000Y-126593600D01*
X156464000Y-125263600D02*
X157794000Y-125263600D01*
X155194000Y-125263600D02*
X150054000Y-125263600D01*
X155194000Y-125263600D02*
X155194000Y-127923600D01*
X155194000Y-127923600D02*
X150054000Y-127923600D01*
X148511400Y-94068000D02*
G75*
G03*
X148511400Y-94068000I-5270000J0D01*
G01*
%LPC*%
D13*
X121920000Y-123317000D03*
D14*
X121920000Y-120777000D03*
X121920000Y-118237000D03*
X121920000Y-115697000D03*
X121920000Y-113157000D03*
X121920000Y-110617000D03*
X121920000Y-108077000D03*
X121920000Y-105537000D03*
X121920000Y-102997000D03*
X121920000Y-100457000D03*
X121920000Y-97917000D03*
X121920000Y-95377000D03*
X121920000Y-92837000D03*
X121920000Y-90297000D03*
X106680000Y-90297000D03*
X106680000Y-92837000D03*
X106680000Y-95377000D03*
X106680000Y-97917000D03*
X106680000Y-100457000D03*
X106680000Y-102997000D03*
X106680000Y-105537000D03*
X106680000Y-108077000D03*
X106680000Y-110617000D03*
X106680000Y-113157000D03*
X106680000Y-115697000D03*
X106680000Y-118237000D03*
X106680000Y-120777000D03*
X106680000Y-123317000D03*
D15*
X169976800Y-116128800D03*
X169976800Y-111128800D03*
X169976800Y-123825000D03*
X169976800Y-118825000D03*
X135712200Y-103271000D03*
D14*
X135712200Y-93111000D03*
D13*
X125531800Y-123255800D03*
D14*
X125531800Y-120715800D03*
X125531800Y-118175800D03*
X125531800Y-115635800D03*
X125531800Y-113095800D03*
X125531800Y-110555800D03*
X125531800Y-108015800D03*
X125531800Y-105475800D03*
X125531800Y-102935800D03*
X125531800Y-100395800D03*
X125531800Y-97855800D03*
X125531800Y-95315800D03*
X125531800Y-92775800D03*
X125531800Y-90235800D03*
X110291800Y-90235800D03*
X110291800Y-92775800D03*
X110291800Y-95315800D03*
X110291800Y-97855800D03*
X110291800Y-100395800D03*
X110291800Y-102935800D03*
X110291800Y-105475800D03*
X110291800Y-108015800D03*
X110291800Y-110555800D03*
X110291800Y-113095800D03*
X110291800Y-115635800D03*
X110291800Y-118175800D03*
X110291800Y-120715800D03*
X110291800Y-123255800D03*
D13*
X166121000Y-123255800D03*
D14*
X166121000Y-120715800D03*
X166121000Y-118175800D03*
X166121000Y-115635800D03*
X166121000Y-113095800D03*
X166121000Y-110555800D03*
X166121000Y-108015800D03*
X166121000Y-105475800D03*
X166121000Y-102935800D03*
X166121000Y-100395800D03*
X166121000Y-97855800D03*
X166121000Y-95315800D03*
X166121000Y-92775800D03*
X166121000Y-90235800D03*
X150881000Y-90235800D03*
X150881000Y-92775800D03*
X150881000Y-95315800D03*
X150881000Y-97855800D03*
X150881000Y-100395800D03*
X150881000Y-102935800D03*
X150881000Y-105475800D03*
X150881000Y-108015800D03*
X150881000Y-110555800D03*
X150881000Y-113095800D03*
X150881000Y-115635800D03*
X150881000Y-118175800D03*
X150881000Y-120715800D03*
X150881000Y-123255800D03*
D16*
X143911400Y-126593600D03*
D17*
X146451400Y-126593600D03*
D16*
X125272800Y-126593600D03*
D17*
X122732800Y-126593600D03*
X120192800Y-126593600D03*
D15*
X132511800Y-115824000D03*
D14*
X132511800Y-105664000D03*
D15*
X135712200Y-115824000D03*
D14*
X135712200Y-105664000D03*
D15*
X132359400Y-93091000D03*
D14*
X132359400Y-103251000D03*
D15*
X129057400Y-103225600D03*
D14*
X129057400Y-93065600D03*
D18*
X138822200Y-125493600D03*
X136322200Y-120493600D03*
X133822200Y-125493600D03*
D16*
X112191800Y-126593600D03*
D17*
X109651800Y-126593600D03*
X107111800Y-126593600D03*
D16*
X165354000Y-126593600D03*
D17*
X162814000Y-126593600D03*
X160274000Y-126593600D03*
D15*
X147193000Y-118708800D03*
X147193000Y-123708800D03*
D19*
X143230600Y-106654600D03*
D15*
X129057400Y-123708800D03*
X129057400Y-118708800D03*
D19*
X170027600Y-91440000D03*
D16*
X156464000Y-126593600D03*
D17*
X153924000Y-126593600D03*
X151384000Y-126593600D03*
D18*
X140741400Y-91567000D03*
X143241400Y-96567000D03*
X145741400Y-91567000D03*
M02*
