G04 #@! TF.GenerationSoftware,KiCad,Pcbnew,(6.0.5)*
G04 #@! TF.CreationDate,2023-01-02T22:47:36+01:00*
G04 #@! TF.ProjectId,C128DCR Dual SID,43313238-4443-4522-9044-75616c205349,D*
G04 #@! TF.SameCoordinates,Original*
G04 #@! TF.FileFunction,Copper,L2,Bot*
G04 #@! TF.FilePolarity,Positive*
%FSLAX46Y46*%
G04 Gerber Fmt 4.6, Leading zero omitted, Abs format (unit mm)*
G04 Created by KiCad (PCBNEW (6.0.5)) date 2023-01-02 22:47:36*
%MOMM*%
%LPD*%
G01*
G04 APERTURE LIST*
G04 #@! TA.AperFunction,ComponentPad*
%ADD10R,1.600000X1.600000*%
G04 #@! TD*
G04 #@! TA.AperFunction,ComponentPad*
%ADD11O,1.600000X1.600000*%
G04 #@! TD*
G04 #@! TA.AperFunction,ComponentPad*
%ADD12C,1.600000*%
G04 #@! TD*
G04 #@! TA.AperFunction,ComponentPad*
%ADD13R,1.700000X1.700000*%
G04 #@! TD*
G04 #@! TA.AperFunction,ComponentPad*
%ADD14O,1.700000X1.700000*%
G04 #@! TD*
G04 #@! TA.AperFunction,ComponentPad*
%ADD15C,2.340000*%
G04 #@! TD*
G04 #@! TA.AperFunction,ViaPad*
%ADD16C,0.600000*%
G04 #@! TD*
G04 #@! TA.AperFunction,Conductor*
%ADD17C,0.250000*%
G04 #@! TD*
G04 APERTURE END LIST*
D10*
X121920000Y-123190000D03*
D11*
X121920000Y-120650000D03*
X121920000Y-118110000D03*
X121920000Y-115570000D03*
X121920000Y-113030000D03*
X121920000Y-110490000D03*
X121920000Y-107950000D03*
X121920000Y-105410000D03*
X121920000Y-102870000D03*
X121920000Y-100330000D03*
X121920000Y-97790000D03*
X121920000Y-95250000D03*
X121920000Y-92710000D03*
X121920000Y-90170000D03*
X106680000Y-90170000D03*
X106680000Y-92710000D03*
X106680000Y-95250000D03*
X106680000Y-97790000D03*
X106680000Y-100330000D03*
X106680000Y-102870000D03*
X106680000Y-105410000D03*
X106680000Y-107950000D03*
X106680000Y-110490000D03*
X106680000Y-113030000D03*
X106680000Y-115570000D03*
X106680000Y-118110000D03*
X106680000Y-120650000D03*
X106680000Y-123190000D03*
D12*
X158115000Y-69255000D03*
X158115000Y-74255000D03*
X158115000Y-81280000D03*
X158115000Y-76280000D03*
X103505000Y-130830000D03*
D11*
X103505000Y-120670000D03*
D10*
X121920000Y-158750000D03*
D11*
X121920000Y-156210000D03*
X121920000Y-153670000D03*
X121920000Y-151130000D03*
X121920000Y-148590000D03*
X121920000Y-146050000D03*
X121920000Y-143510000D03*
X121920000Y-140970000D03*
X121920000Y-138430000D03*
X121920000Y-135890000D03*
X121920000Y-133350000D03*
X121920000Y-130810000D03*
X121920000Y-128270000D03*
X121920000Y-125730000D03*
X106680000Y-125730000D03*
X106680000Y-128270000D03*
X106680000Y-130810000D03*
X106680000Y-133350000D03*
X106680000Y-135890000D03*
X106680000Y-138430000D03*
X106680000Y-140970000D03*
X106680000Y-143510000D03*
X106680000Y-146050000D03*
X106680000Y-148590000D03*
X106680000Y-151130000D03*
X106680000Y-153670000D03*
X106680000Y-156210000D03*
X106680000Y-158750000D03*
D10*
X154955000Y-69845000D03*
D11*
X152415000Y-69845000D03*
X149875000Y-69845000D03*
X147335000Y-69845000D03*
X144795000Y-69845000D03*
X142255000Y-69845000D03*
X139715000Y-69845000D03*
X137175000Y-69845000D03*
X134635000Y-69845000D03*
X132095000Y-69845000D03*
X129555000Y-69845000D03*
X127015000Y-69845000D03*
X124475000Y-69845000D03*
X121935000Y-69845000D03*
X121935000Y-85085000D03*
X124475000Y-85085000D03*
X127015000Y-85085000D03*
X129555000Y-85085000D03*
X132095000Y-85085000D03*
X134635000Y-85085000D03*
X137175000Y-85085000D03*
X139715000Y-85085000D03*
X142255000Y-85085000D03*
X144795000Y-85085000D03*
X147335000Y-85085000D03*
X149875000Y-85085000D03*
X152415000Y-85085000D03*
X154955000Y-85085000D03*
D13*
X158115000Y-85090000D03*
D14*
X160655000Y-85090000D03*
D13*
X113665000Y-94630000D03*
D14*
X113665000Y-97170000D03*
X113665000Y-99710000D03*
D12*
X103505000Y-107950000D03*
D11*
X103505000Y-97790000D03*
D12*
X173990000Y-82550000D03*
D11*
X163830000Y-82550000D03*
D12*
X103505000Y-146050000D03*
D11*
X103505000Y-156210000D03*
D12*
X103505000Y-143510000D03*
D11*
X103505000Y-133350000D03*
D15*
X116800000Y-71120000D03*
X111800000Y-73620000D03*
X116800000Y-76120000D03*
D13*
X113665000Y-109855000D03*
D14*
X113665000Y-112395000D03*
X113665000Y-114935000D03*
D13*
X177165000Y-71120000D03*
D14*
X177165000Y-73660000D03*
X177165000Y-76200000D03*
D12*
X162560000Y-69215000D03*
X162560000Y-74215000D03*
X103505000Y-90210000D03*
X103505000Y-95210000D03*
D13*
X177165000Y-80010000D03*
D14*
X177165000Y-82550000D03*
X177165000Y-85090000D03*
D15*
X167045000Y-77405000D03*
X172045000Y-74905000D03*
X167045000Y-72405000D03*
D16*
X109455200Y-133301200D03*
X120506300Y-150500800D03*
X115559300Y-86642200D03*
X114226800Y-107574500D03*
X119210900Y-147281600D03*
X117287600Y-80283300D03*
X116935500Y-99271500D03*
X111344300Y-114897900D03*
X111645600Y-88439800D03*
X118786400Y-146023200D03*
X117866600Y-103755100D03*
X119600000Y-78783500D03*
X115757800Y-80954200D03*
X120042700Y-80534800D03*
X114961600Y-122285500D03*
X117449400Y-97576800D03*
X117732500Y-78769500D03*
X116328800Y-128977700D03*
X119260900Y-94747500D03*
X120210900Y-77082500D03*
X119225000Y-75284000D03*
X116242300Y-126828300D03*
X116097300Y-123554200D03*
X116454200Y-122131700D03*
X110319500Y-90575600D03*
X113022300Y-89736400D03*
X111098900Y-97790000D03*
X110944900Y-89909000D03*
X108995500Y-135497200D03*
X113671100Y-87771600D03*
X111748500Y-98887300D03*
X117560400Y-136088500D03*
X117885000Y-102832500D03*
X118537200Y-78896200D03*
X117467500Y-132820900D03*
X104299000Y-93622500D03*
D17*
X106961300Y-139844700D02*
X109653500Y-137152500D01*
X106680000Y-105410000D02*
X106680000Y-104284700D01*
X122242000Y-91440000D02*
X121074800Y-91440000D01*
X114074800Y-98440000D02*
X113256700Y-98440000D01*
X106680000Y-140970000D02*
X106680000Y-139844700D01*
X136049700Y-85085000D02*
X136049700Y-85366400D01*
X107412000Y-104284700D02*
X106680000Y-104284700D01*
X135205800Y-86210300D02*
X124117200Y-86210300D01*
X137175000Y-85085000D02*
X136049700Y-85085000D01*
X113256700Y-98440000D02*
X107412000Y-104284700D01*
X123143100Y-87184400D02*
X123143100Y-90538900D01*
X109653500Y-133499500D02*
X109455200Y-133301200D01*
X123143100Y-90538900D02*
X122242000Y-91440000D01*
X124117200Y-86210300D02*
X123143100Y-87184400D01*
X136049700Y-85366400D02*
X135205800Y-86210300D01*
X109653500Y-137152500D02*
X109653500Y-133499500D01*
X106680000Y-139844700D02*
X106961300Y-139844700D01*
X121074800Y-91440000D02*
X114074800Y-98440000D01*
X121920000Y-155084700D02*
X121638700Y-155084700D01*
X120506300Y-153952300D02*
X120506300Y-150500800D01*
X121638700Y-155084700D02*
X120506300Y-153952300D01*
X121920000Y-156210000D02*
X121920000Y-155084700D01*
X106680000Y-107950000D02*
X107805300Y-107950000D01*
X139715000Y-85085000D02*
X138589700Y-85085000D01*
X114226800Y-107574500D02*
X108180800Y-107574500D01*
X135896700Y-82110700D02*
X138589700Y-84803700D01*
X108180800Y-107574500D02*
X107805300Y-107950000D01*
X115559300Y-86642200D02*
X120090800Y-82110700D01*
X138589700Y-84803700D02*
X138589700Y-85085000D01*
X120090800Y-82110700D02*
X135896700Y-82110700D01*
X121920000Y-115570000D02*
X121920000Y-116695300D01*
X121920000Y-151130000D02*
X121920000Y-150004700D01*
X123045300Y-149160700D02*
X123045300Y-117539200D01*
X122201300Y-150004700D02*
X123045300Y-149160700D01*
X121920000Y-150004700D02*
X122201300Y-150004700D01*
X123045300Y-117539200D02*
X122201400Y-116695300D01*
X122201400Y-116695300D02*
X121920000Y-116695300D01*
X106398700Y-114155300D02*
X106680000Y-114155300D01*
X102330900Y-118223100D02*
X106398700Y-114155300D01*
X110106600Y-144319400D02*
X110106600Y-127540900D01*
X102330900Y-121164000D02*
X102330900Y-118223100D01*
X106680000Y-113030000D02*
X106680000Y-114155300D01*
X106961300Y-147464700D02*
X110106600Y-144319400D01*
X106680000Y-148590000D02*
X106680000Y-147464700D01*
X110106600Y-127540900D02*
X107025700Y-124460000D01*
X105626900Y-124460000D02*
X102330900Y-121164000D01*
X107025700Y-124460000D02*
X105626900Y-124460000D01*
X106680000Y-147464700D02*
X106961300Y-147464700D01*
X134387100Y-79408900D02*
X143669700Y-70126300D01*
X144795000Y-69845000D02*
X143669700Y-69845000D01*
X120794700Y-148590000D02*
X119486300Y-147281600D01*
X121638700Y-111904700D02*
X121920000Y-111904700D01*
X117287600Y-80283300D02*
X117936700Y-79634200D01*
X121920000Y-148590000D02*
X120794700Y-148590000D01*
X116935500Y-107201500D02*
X121638700Y-111904700D01*
X117936700Y-79634200D02*
X118683700Y-79634200D01*
X121920000Y-113030000D02*
X121920000Y-111904700D01*
X118909000Y-79408900D02*
X134387100Y-79408900D01*
X116935500Y-99271500D02*
X116935500Y-107201500D01*
X143669700Y-70126300D02*
X143669700Y-69845000D01*
X118683700Y-79634200D02*
X118909000Y-79408900D01*
X119486300Y-147281600D02*
X119210900Y-147281600D01*
X146209700Y-84803700D02*
X143066400Y-81660400D01*
X118425000Y-81660400D02*
X111645600Y-88439800D01*
X106680000Y-115570000D02*
X107805300Y-115570000D01*
X146209700Y-85085000D02*
X146209700Y-84803700D01*
X111344300Y-114897900D02*
X108477400Y-114897900D01*
X147335000Y-85085000D02*
X146209700Y-85085000D01*
X108477400Y-114897900D02*
X107805300Y-115570000D01*
X143066400Y-81660400D02*
X118425000Y-81660400D01*
X121638700Y-109364700D02*
X117866600Y-105592600D01*
X121920000Y-146050000D02*
X120794700Y-146050000D01*
X120794700Y-146050000D02*
X118813200Y-146050000D01*
X118813200Y-146050000D02*
X118786400Y-146023200D01*
X141129700Y-70049500D02*
X132395700Y-78783500D01*
X142255000Y-69845000D02*
X141129700Y-69845000D01*
X132395700Y-78783500D02*
X119600000Y-78783500D01*
X117866600Y-105592600D02*
X117866600Y-103755100D01*
X121920000Y-109364700D02*
X121638700Y-109364700D01*
X141129700Y-69845000D02*
X141129700Y-70049500D01*
X121920000Y-110490000D02*
X121920000Y-109364700D01*
X156382900Y-79859300D02*
X160332600Y-75909600D01*
X177165000Y-76200000D02*
X175989700Y-76200000D01*
X160332600Y-75909600D02*
X167535800Y-75909600D01*
X112152300Y-118110000D02*
X114853500Y-115408800D01*
X170049800Y-73395600D02*
X173185300Y-73395600D01*
X114853500Y-102073800D02*
X113665000Y-100885300D01*
X173185300Y-73395600D02*
X175989700Y-76200000D01*
X117745700Y-80709600D02*
X118491100Y-80709600D01*
X117501100Y-80954200D02*
X117745700Y-80709600D01*
X167535800Y-75909600D02*
X170049800Y-73395600D01*
X119341400Y-79859300D02*
X156382900Y-79859300D01*
X118491100Y-80709600D02*
X119341400Y-79859300D01*
X114853500Y-115408800D02*
X114853500Y-102073800D01*
X113665000Y-99710000D02*
X113665000Y-100885300D01*
X115757800Y-80954200D02*
X117501100Y-80954200D01*
X106680000Y-118110000D02*
X112152300Y-118110000D01*
X107805300Y-123190000D02*
X108709700Y-122285600D01*
X108709700Y-122285600D02*
X114961600Y-122285600D01*
X154955000Y-85085000D02*
X153829700Y-85085000D01*
X114961600Y-122285600D02*
X114961600Y-122285500D01*
X149483800Y-80534800D02*
X120042700Y-80534800D01*
X106680000Y-123190000D02*
X107805300Y-123190000D01*
X153829700Y-84880700D02*
X149483800Y-80534800D01*
X153829700Y-85085000D02*
X153829700Y-84880700D01*
X134635000Y-69845000D02*
X133509700Y-69845000D01*
X125854700Y-77707900D02*
X118794100Y-77707900D01*
X121920000Y-102870000D02*
X121920000Y-101744700D01*
X120794700Y-136460800D02*
X120794700Y-133443600D01*
X121920000Y-138430000D02*
X121920000Y-137304700D01*
X121920000Y-101744700D02*
X121617300Y-101744700D01*
X118794100Y-77707900D02*
X117732500Y-78769500D01*
X121638600Y-137304700D02*
X120794700Y-136460800D01*
X133509700Y-69845000D02*
X133509700Y-70052900D01*
X133509700Y-70052900D02*
X125854700Y-77707900D01*
X121617300Y-101744700D02*
X117449400Y-97576800D01*
X120794700Y-133443600D02*
X116328800Y-128977700D01*
X121920000Y-137304700D02*
X121638600Y-137304700D01*
X121638700Y-99204700D02*
X119260900Y-96826900D01*
X121920000Y-99204700D02*
X121638700Y-99204700D01*
X123974700Y-77082500D02*
X120210900Y-77082500D01*
X130969700Y-70087500D02*
X123974700Y-77082500D01*
X121920000Y-100330000D02*
X121920000Y-99204700D01*
X132095000Y-69845000D02*
X130969700Y-69845000D01*
X119260900Y-96826900D02*
X119260900Y-94747500D01*
X130969700Y-69845000D02*
X130969700Y-70087500D01*
X119225000Y-75284000D02*
X123272000Y-75284000D01*
X121920000Y-133350000D02*
X121920000Y-132224700D01*
X128429700Y-70126300D02*
X128429700Y-69845000D01*
X121638700Y-132224700D02*
X116242300Y-126828300D01*
X121920000Y-132224700D02*
X121638700Y-132224700D01*
X129555000Y-69845000D02*
X128429700Y-69845000D01*
X123272000Y-75284000D02*
X128429700Y-70126300D01*
X121920000Y-130810000D02*
X121920000Y-129684700D01*
X121920000Y-129684700D02*
X121709000Y-129684700D01*
X121709000Y-129684700D02*
X116097300Y-124073000D01*
X116097300Y-124073000D02*
X116097300Y-123554200D01*
X121920000Y-128270000D02*
X121920000Y-127144700D01*
X121920000Y-127144700D02*
X121467200Y-127144700D01*
X121467200Y-127144700D02*
X116454200Y-122131700D01*
X114567500Y-121795300D02*
X105755600Y-121795300D01*
X114856400Y-121506400D02*
X114567500Y-121795300D01*
X104708300Y-96413300D02*
X107386700Y-96413300D01*
X103505000Y-120670000D02*
X104630300Y-120670000D01*
X121920000Y-125730000D02*
X120794700Y-125730000D01*
X103505000Y-95210000D02*
X104708300Y-96413300D01*
X105755600Y-121795300D02*
X104630300Y-120670000D01*
X107386700Y-96413300D02*
X107828100Y-95971900D01*
X118075000Y-69845000D02*
X121935000Y-69845000D01*
X120794700Y-125587800D02*
X116713300Y-121506400D01*
X107828100Y-95971900D02*
X114992800Y-95971900D01*
X121920000Y-90170000D02*
X120794700Y-90170000D01*
X114992800Y-95971900D02*
X120794700Y-90170000D01*
X120794700Y-125730000D02*
X120794700Y-125587800D01*
X116713300Y-121506400D02*
X114856400Y-121506400D01*
X116800000Y-71120000D02*
X118075000Y-69845000D01*
X121935000Y-85085000D02*
X120809700Y-85085000D01*
X108868500Y-91233200D02*
X114661500Y-91233200D01*
X107805300Y-90170000D02*
X108868500Y-91233200D01*
X114661500Y-91233200D02*
X120809700Y-85085000D01*
X106680000Y-90170000D02*
X107805300Y-90170000D01*
X106398700Y-127144700D02*
X101880500Y-122626500D01*
X124475000Y-85085000D02*
X123349700Y-85085000D01*
X101880500Y-95120800D02*
X104291300Y-92710000D01*
X123349700Y-85085000D02*
X123349700Y-85274500D01*
X106680000Y-127144700D02*
X106398700Y-127144700D01*
X106680000Y-128270000D02*
X106680000Y-127144700D01*
X115914200Y-92710000D02*
X107805300Y-92710000D01*
X106680000Y-92710000D02*
X105554700Y-92710000D01*
X123349700Y-85274500D02*
X115914200Y-92710000D01*
X101880500Y-122626500D02*
X101880500Y-95120800D01*
X104291300Y-92710000D02*
X105554700Y-92710000D01*
X106680000Y-92710000D02*
X107805300Y-92710000D01*
X110319500Y-90575600D02*
X114550200Y-90575600D01*
X125889700Y-84803600D02*
X125889700Y-85085000D01*
X127015000Y-85085000D02*
X125889700Y-85085000D01*
X114550200Y-90575600D02*
X121166100Y-83959700D01*
X125045800Y-83959700D02*
X125889700Y-84803600D01*
X121166100Y-83959700D02*
X125045800Y-83959700D01*
X113022300Y-89736400D02*
X114745800Y-89736400D01*
X106680000Y-97790000D02*
X111098900Y-97790000D01*
X127087700Y-83461700D02*
X128429700Y-84803700D01*
X114745800Y-89736400D02*
X121020500Y-83461700D01*
X128429700Y-84803700D02*
X128429700Y-85085000D01*
X121020500Y-83461700D02*
X127087700Y-83461700D01*
X129555000Y-85085000D02*
X128429700Y-85085000D01*
X130969700Y-84803600D02*
X130969700Y-85085000D01*
X129177400Y-83011300D02*
X130969700Y-84803600D01*
X108602700Y-135890000D02*
X108995500Y-135497200D01*
X111340300Y-89909000D02*
X112852300Y-88397000D01*
X106680000Y-135890000D02*
X108602700Y-135890000D01*
X112852300Y-88397000D02*
X115448300Y-88397000D01*
X132095000Y-85085000D02*
X130969700Y-85085000D01*
X110944900Y-89909000D02*
X111340300Y-89909000D01*
X115448300Y-88397000D02*
X120834000Y-83011300D01*
X120834000Y-83011300D02*
X129177400Y-83011300D01*
X134635000Y-85085000D02*
X133509700Y-85085000D01*
X107805300Y-102870000D02*
X107805300Y-102830500D01*
X133509700Y-84803700D02*
X133509700Y-85085000D01*
X115361800Y-87771600D02*
X120572400Y-82561000D01*
X113671100Y-87771600D02*
X115361800Y-87771600D01*
X131267000Y-82561000D02*
X133509700Y-84803700D01*
X106680000Y-102870000D02*
X107805300Y-102870000D01*
X107805300Y-102830500D02*
X111748500Y-98887300D01*
X120572400Y-82561000D02*
X131267000Y-82561000D01*
X151844200Y-68719700D02*
X151000300Y-69563600D01*
X149875000Y-69845000D02*
X151000300Y-69845000D01*
X157579700Y-68719700D02*
X151844200Y-68719700D01*
X151000300Y-69563600D02*
X151000300Y-69845000D01*
X158115000Y-69255000D02*
X157579700Y-68719700D01*
X148460300Y-70126300D02*
X148460300Y-69845000D01*
X158115000Y-74255000D02*
X152589000Y-74255000D01*
X147335000Y-69845000D02*
X148460300Y-69845000D01*
X152589000Y-74255000D02*
X148460300Y-70126300D01*
X156433200Y-70970300D02*
X153962200Y-70970300D01*
X158115000Y-76280000D02*
X159240500Y-75154500D01*
X153540300Y-70548400D02*
X153540300Y-69845000D01*
X159240500Y-75154500D02*
X159240500Y-73777600D01*
X159240500Y-73777600D02*
X156433200Y-70970300D01*
X153962200Y-70970300D02*
X153540300Y-70548400D01*
X152415000Y-69845000D02*
X153540300Y-69845000D01*
X118981900Y-104167900D02*
X118981900Y-103929400D01*
X121638700Y-106824700D02*
X118981900Y-104167900D01*
X118981900Y-103929400D02*
X117885000Y-102832500D01*
X117560400Y-138306400D02*
X117560400Y-136088500D01*
X139715000Y-69845000D02*
X138589700Y-69845000D01*
X121920000Y-107950000D02*
X121920000Y-106824700D01*
X138589700Y-69845000D02*
X138589700Y-70049500D01*
X119275200Y-78158200D02*
X118537200Y-78896200D01*
X130481000Y-78158200D02*
X119275200Y-78158200D01*
X121920000Y-106824700D02*
X121638700Y-106824700D01*
X138589700Y-70049500D02*
X130481000Y-78158200D01*
X121920000Y-142384700D02*
X121638700Y-142384700D01*
X121920000Y-143510000D02*
X121920000Y-142384700D01*
X121638700Y-142384700D02*
X117560400Y-138306400D01*
X121920000Y-140970000D02*
X121920000Y-139844700D01*
X118185700Y-136347800D02*
X118185700Y-135829400D01*
X121920000Y-139844700D02*
X121682600Y-139844700D01*
X117467500Y-135111300D02*
X117467500Y-132820900D01*
X118185700Y-135829400D02*
X117467600Y-135111300D01*
X121682600Y-139844700D02*
X118185700Y-136347800D01*
X117467600Y-135111300D02*
X117467500Y-135111300D01*
X177165000Y-82550000D02*
X175989700Y-82550000D01*
X172264500Y-86275200D02*
X151065200Y-86275200D01*
X175989700Y-82550000D02*
X172264500Y-86275200D01*
X151065200Y-86275200D02*
X149875000Y-85085000D01*
X104933200Y-90240400D02*
X113594100Y-81579500D01*
X117512700Y-81579500D02*
X117897800Y-81194400D01*
X147680400Y-81194400D02*
X151289700Y-84803700D01*
X152415000Y-85085000D02*
X151289700Y-85085000D01*
X101409600Y-128734600D02*
X101409600Y-94020100D01*
X151289700Y-84803700D02*
X151289700Y-85085000D01*
X117897800Y-81194400D02*
X147680400Y-81194400D01*
X103505000Y-130830000D02*
X101409600Y-128734600D01*
X104933200Y-90496500D02*
X104933200Y-90240400D01*
X101409600Y-94020100D02*
X104933200Y-90496500D01*
X113594100Y-81579500D02*
X117512700Y-81579500D01*
X106680000Y-156210000D02*
X103505000Y-156210000D01*
X177165000Y-71120000D02*
X175989700Y-71120000D01*
X174084700Y-69215000D02*
X162560000Y-69215000D01*
X175989700Y-71120000D02*
X174084700Y-69215000D01*
X104775000Y-109220000D02*
X103505000Y-107950000D01*
X112489700Y-114641200D02*
X107068500Y-109220000D01*
X107068500Y-109220000D02*
X104775000Y-109220000D01*
X113665000Y-114935000D02*
X112489700Y-114935000D01*
X112489700Y-114935000D02*
X112489700Y-114641200D01*
X164955300Y-81994700D02*
X172045000Y-74905000D01*
X164955300Y-82550000D02*
X164955300Y-81994700D01*
X163830000Y-82550000D02*
X164955300Y-82550000D01*
X113665000Y-94630000D02*
X112489700Y-94630000D01*
X104801100Y-94124600D02*
X104299000Y-93622500D01*
X112489700Y-94630000D02*
X111984300Y-94124600D01*
X111984300Y-94124600D02*
X104801100Y-94124600D01*
M02*
