G04 #@! TF.GenerationSoftware,KiCad,Pcbnew,(6.0.5)*
G04 #@! TF.CreationDate,2023-01-02T22:47:37+01:00*
G04 #@! TF.ProjectId,C128DCR Dual SID,43313238-4443-4522-9044-75616c205349,D*
G04 #@! TF.SameCoordinates,Original*
G04 #@! TF.FileFunction,Soldermask,Bot*
G04 #@! TF.FilePolarity,Negative*
%FSLAX46Y46*%
G04 Gerber Fmt 4.6, Leading zero omitted, Abs format (unit mm)*
G04 Created by KiCad (PCBNEW (6.0.5)) date 2023-01-02 22:47:37*
%MOMM*%
%LPD*%
G01*
G04 APERTURE LIST*
%ADD10R,1.600000X1.600000*%
%ADD11O,1.600000X1.600000*%
%ADD12C,1.600000*%
%ADD13R,1.700000X1.700000*%
%ADD14O,1.700000X1.700000*%
%ADD15C,2.340000*%
%ADD16C,2.500000*%
G04 APERTURE END LIST*
D10*
X121920000Y-123190000D03*
D11*
X121920000Y-120650000D03*
X121920000Y-118110000D03*
X121920000Y-115570000D03*
X121920000Y-113030000D03*
X121920000Y-110490000D03*
X121920000Y-107950000D03*
X121920000Y-105410000D03*
X121920000Y-102870000D03*
X121920000Y-100330000D03*
X121920000Y-97790000D03*
X121920000Y-95250000D03*
X121920000Y-92710000D03*
X121920000Y-90170000D03*
X106680000Y-90170000D03*
X106680000Y-92710000D03*
X106680000Y-95250000D03*
X106680000Y-97790000D03*
X106680000Y-100330000D03*
X106680000Y-102870000D03*
X106680000Y-105410000D03*
X106680000Y-107950000D03*
X106680000Y-110490000D03*
X106680000Y-113030000D03*
X106680000Y-115570000D03*
X106680000Y-118110000D03*
X106680000Y-120650000D03*
X106680000Y-123190000D03*
D12*
X158115000Y-69255000D03*
X158115000Y-74255000D03*
X158115000Y-81280000D03*
X158115000Y-76280000D03*
X103505000Y-130830000D03*
D11*
X103505000Y-120670000D03*
D10*
X121920000Y-158750000D03*
D11*
X121920000Y-156210000D03*
X121920000Y-153670000D03*
X121920000Y-151130000D03*
X121920000Y-148590000D03*
X121920000Y-146050000D03*
X121920000Y-143510000D03*
X121920000Y-140970000D03*
X121920000Y-138430000D03*
X121920000Y-135890000D03*
X121920000Y-133350000D03*
X121920000Y-130810000D03*
X121920000Y-128270000D03*
X121920000Y-125730000D03*
X106680000Y-125730000D03*
X106680000Y-128270000D03*
X106680000Y-130810000D03*
X106680000Y-133350000D03*
X106680000Y-135890000D03*
X106680000Y-138430000D03*
X106680000Y-140970000D03*
X106680000Y-143510000D03*
X106680000Y-146050000D03*
X106680000Y-148590000D03*
X106680000Y-151130000D03*
X106680000Y-153670000D03*
X106680000Y-156210000D03*
X106680000Y-158750000D03*
D10*
X154955000Y-69845000D03*
D11*
X152415000Y-69845000D03*
X149875000Y-69845000D03*
X147335000Y-69845000D03*
X144795000Y-69845000D03*
X142255000Y-69845000D03*
X139715000Y-69845000D03*
X137175000Y-69845000D03*
X134635000Y-69845000D03*
X132095000Y-69845000D03*
X129555000Y-69845000D03*
X127015000Y-69845000D03*
X124475000Y-69845000D03*
X121935000Y-69845000D03*
X121935000Y-85085000D03*
X124475000Y-85085000D03*
X127015000Y-85085000D03*
X129555000Y-85085000D03*
X132095000Y-85085000D03*
X134635000Y-85085000D03*
X137175000Y-85085000D03*
X139715000Y-85085000D03*
X142255000Y-85085000D03*
X144795000Y-85085000D03*
X147335000Y-85085000D03*
X149875000Y-85085000D03*
X152415000Y-85085000D03*
X154955000Y-85085000D03*
D13*
X158115000Y-85090000D03*
D14*
X160655000Y-85090000D03*
D13*
X113665000Y-94630000D03*
D14*
X113665000Y-97170000D03*
X113665000Y-99710000D03*
D12*
X103505000Y-107950000D03*
D11*
X103505000Y-97790000D03*
D12*
X173990000Y-82550000D03*
D11*
X163830000Y-82550000D03*
D12*
X103505000Y-146050000D03*
D11*
X103505000Y-156210000D03*
D12*
X103505000Y-143510000D03*
D11*
X103505000Y-133350000D03*
D15*
X116800000Y-71120000D03*
X111800000Y-73620000D03*
X116800000Y-76120000D03*
D13*
X113665000Y-109855000D03*
D14*
X113665000Y-112395000D03*
X113665000Y-114935000D03*
D13*
X177165000Y-71120000D03*
D14*
X177165000Y-73660000D03*
X177165000Y-76200000D03*
D12*
X162560000Y-69215000D03*
X162560000Y-74215000D03*
D16*
X161925000Y-78105000D03*
D12*
X103505000Y-90210000D03*
X103505000Y-95210000D03*
D16*
X114300000Y-154940000D03*
D13*
X177165000Y-80010000D03*
D14*
X177165000Y-82550000D03*
X177165000Y-85090000D03*
D15*
X167045000Y-77405000D03*
X172045000Y-74905000D03*
X167045000Y-72405000D03*
M02*
