G04 #@! TF.GenerationSoftware,KiCad,Pcbnew,(6.0.5)*
G04 #@! TF.CreationDate,2023-01-02T22:47:37+01:00*
G04 #@! TF.ProjectId,C128DCR Dual SID,43313238-4443-4522-9044-75616c205349,D*
G04 #@! TF.SameCoordinates,Original*
G04 #@! TF.FileFunction,Legend,Bot*
G04 #@! TF.FilePolarity,Positive*
%FSLAX46Y46*%
G04 Gerber Fmt 4.6, Leading zero omitted, Abs format (unit mm)*
G04 Created by KiCad (PCBNEW (6.0.5)) date 2023-01-02 22:47:37*
%MOMM*%
%LPD*%
G01*
G04 APERTURE LIST*
%ADD10C,0.150000*%
%ADD11C,0.300000*%
%ADD12C,0.100000*%
%ADD13R,1.600000X1.600000*%
%ADD14O,1.600000X1.600000*%
%ADD15C,1.600000*%
%ADD16R,1.700000X1.700000*%
%ADD17O,1.700000X1.700000*%
%ADD18C,2.340000*%
%ADD19C,2.500000*%
G04 APERTURE END LIST*
D10*
X155453809Y-83013571D02*
X155453809Y-83661190D01*
X155491904Y-83737380D01*
X155530000Y-83775476D01*
X155606190Y-83813571D01*
X155720476Y-83813571D01*
X155796666Y-83775476D01*
X155453809Y-83508809D02*
X155530000Y-83546904D01*
X155682380Y-83546904D01*
X155758571Y-83508809D01*
X155796666Y-83470714D01*
X155834761Y-83394523D01*
X155834761Y-83165952D01*
X155796666Y-83089761D01*
X155758571Y-83051666D01*
X155682380Y-83013571D01*
X155530000Y-83013571D01*
X155453809Y-83051666D01*
X155072857Y-83546904D02*
X155072857Y-83013571D01*
X155072857Y-82746904D02*
X155110952Y-82785000D01*
X155072857Y-82823095D01*
X155034761Y-82785000D01*
X155072857Y-82746904D01*
X155072857Y-82823095D01*
X154806190Y-83013571D02*
X154501428Y-83013571D01*
X154691904Y-82746904D02*
X154691904Y-83432619D01*
X154653809Y-83508809D01*
X154577619Y-83546904D01*
X154501428Y-83546904D01*
X154234761Y-83546904D02*
X154234761Y-82746904D01*
X153891904Y-83546904D02*
X153891904Y-83127857D01*
X153930000Y-83051666D01*
X154006190Y-83013571D01*
X154120476Y-83013571D01*
X154196666Y-83051666D01*
X154234761Y-83089761D01*
X153168095Y-83013571D02*
X153168095Y-83546904D01*
X153510952Y-83013571D02*
X153510952Y-83432619D01*
X153472857Y-83508809D01*
X153396666Y-83546904D01*
X153282380Y-83546904D01*
X153206190Y-83508809D01*
X153168095Y-83470714D01*
X152787142Y-83546904D02*
X152787142Y-82746904D01*
X152787142Y-83051666D02*
X152710952Y-83013571D01*
X152558571Y-83013571D01*
X152482380Y-83051666D01*
X152444285Y-83089761D01*
X152406190Y-83165952D01*
X152406190Y-83394523D01*
X152444285Y-83470714D01*
X152482380Y-83508809D01*
X152558571Y-83546904D01*
X152710952Y-83546904D01*
X152787142Y-83508809D01*
X152063333Y-83470714D02*
X152025238Y-83508809D01*
X152063333Y-83546904D01*
X152101428Y-83508809D01*
X152063333Y-83470714D01*
X152063333Y-83546904D01*
X151339523Y-83508809D02*
X151415714Y-83546904D01*
X151568095Y-83546904D01*
X151644285Y-83508809D01*
X151682380Y-83470714D01*
X151720476Y-83394523D01*
X151720476Y-83165952D01*
X151682380Y-83089761D01*
X151644285Y-83051666D01*
X151568095Y-83013571D01*
X151415714Y-83013571D01*
X151339523Y-83051666D01*
X150882380Y-83546904D02*
X150958571Y-83508809D01*
X150996666Y-83470714D01*
X151034761Y-83394523D01*
X151034761Y-83165952D01*
X150996666Y-83089761D01*
X150958571Y-83051666D01*
X150882380Y-83013571D01*
X150768095Y-83013571D01*
X150691904Y-83051666D01*
X150653809Y-83089761D01*
X150615714Y-83165952D01*
X150615714Y-83394523D01*
X150653809Y-83470714D01*
X150691904Y-83508809D01*
X150768095Y-83546904D01*
X150882380Y-83546904D01*
X150272857Y-83546904D02*
X150272857Y-83013571D01*
X150272857Y-83089761D02*
X150234761Y-83051666D01*
X150158571Y-83013571D01*
X150044285Y-83013571D01*
X149968095Y-83051666D01*
X149930000Y-83127857D01*
X149930000Y-83546904D01*
X149930000Y-83127857D02*
X149891904Y-83051666D01*
X149815714Y-83013571D01*
X149701428Y-83013571D01*
X149625238Y-83051666D01*
X149587142Y-83127857D01*
X149587142Y-83546904D01*
X148634761Y-82708809D02*
X149320476Y-83737380D01*
X148482380Y-83013571D02*
X148177619Y-83013571D01*
X148368095Y-82746904D02*
X148368095Y-83432619D01*
X148330000Y-83508809D01*
X148253809Y-83546904D01*
X148177619Y-83546904D01*
X147606190Y-83508809D02*
X147682380Y-83546904D01*
X147834761Y-83546904D01*
X147910952Y-83508809D01*
X147949047Y-83432619D01*
X147949047Y-83127857D01*
X147910952Y-83051666D01*
X147834761Y-83013571D01*
X147682380Y-83013571D01*
X147606190Y-83051666D01*
X147568095Y-83127857D01*
X147568095Y-83204047D01*
X147949047Y-83280238D01*
X147225238Y-83546904D02*
X147225238Y-82746904D01*
X147225238Y-83051666D02*
X147149047Y-83013571D01*
X146996666Y-83013571D01*
X146920476Y-83051666D01*
X146882380Y-83089761D01*
X146844285Y-83165952D01*
X146844285Y-83394523D01*
X146882380Y-83470714D01*
X146920476Y-83508809D01*
X146996666Y-83546904D01*
X147149047Y-83546904D01*
X147225238Y-83508809D01*
X146387142Y-83546904D02*
X146463333Y-83508809D01*
X146501428Y-83432619D01*
X146501428Y-82746904D01*
D11*
X110938571Y-135263571D02*
X112438571Y-135620714D01*
X111367142Y-135906428D01*
X112438571Y-136192142D01*
X110938571Y-136549285D01*
X112010000Y-137049285D02*
X112010000Y-137763571D01*
X112438571Y-136906428D02*
X110938571Y-137406428D01*
X112438571Y-137906428D01*
X112438571Y-139263571D02*
X111724285Y-138763571D01*
X112438571Y-138406428D02*
X110938571Y-138406428D01*
X110938571Y-138977857D01*
X111010000Y-139120714D01*
X111081428Y-139192142D01*
X111224285Y-139263571D01*
X111438571Y-139263571D01*
X111581428Y-139192142D01*
X111652857Y-139120714D01*
X111724285Y-138977857D01*
X111724285Y-138406428D01*
X112438571Y-139906428D02*
X110938571Y-139906428D01*
X112438571Y-140763571D01*
X110938571Y-140763571D01*
X112438571Y-141477857D02*
X110938571Y-141477857D01*
X112438571Y-142192142D02*
X110938571Y-142192142D01*
X112438571Y-143049285D01*
X110938571Y-143049285D01*
X111010000Y-144549285D02*
X110938571Y-144406428D01*
X110938571Y-144192142D01*
X111010000Y-143977857D01*
X111152857Y-143835000D01*
X111295714Y-143763571D01*
X111581428Y-143692142D01*
X111795714Y-143692142D01*
X112081428Y-143763571D01*
X112224285Y-143835000D01*
X112367142Y-143977857D01*
X112438571Y-144192142D01*
X112438571Y-144335000D01*
X112367142Y-144549285D01*
X112295714Y-144620714D01*
X111795714Y-144620714D01*
X111795714Y-144335000D01*
X112295714Y-145263571D02*
X112367142Y-145335000D01*
X112438571Y-145263571D01*
X112367142Y-145192142D01*
X112295714Y-145263571D01*
X112438571Y-145263571D01*
X111867142Y-145263571D02*
X111010000Y-145192142D01*
X110938571Y-145263571D01*
X111010000Y-145335000D01*
X111867142Y-145263571D01*
X110938571Y-145263571D01*
D12*
X155251666Y-82231666D02*
X155485000Y-81898333D01*
X155651666Y-82231666D02*
X155651666Y-81531666D01*
X155385000Y-81531666D01*
X155318333Y-81565000D01*
X155285000Y-81598333D01*
X155251666Y-81665000D01*
X155251666Y-81765000D01*
X155285000Y-81831666D01*
X155318333Y-81865000D01*
X155385000Y-81898333D01*
X155651666Y-81898333D01*
X154685000Y-82198333D02*
X154751666Y-82231666D01*
X154885000Y-82231666D01*
X154951666Y-82198333D01*
X154985000Y-82131666D01*
X154985000Y-81865000D01*
X154951666Y-81798333D01*
X154885000Y-81765000D01*
X154751666Y-81765000D01*
X154685000Y-81798333D01*
X154651666Y-81865000D01*
X154651666Y-81931666D01*
X154985000Y-81998333D01*
X154418333Y-81765000D02*
X154251666Y-82231666D01*
X154085000Y-81765000D01*
X153818333Y-82231666D02*
X153818333Y-81765000D01*
X153818333Y-81531666D02*
X153851666Y-81565000D01*
X153818333Y-81598333D01*
X153785000Y-81565000D01*
X153818333Y-81531666D01*
X153818333Y-81598333D01*
X153518333Y-82198333D02*
X153451666Y-82231666D01*
X153318333Y-82231666D01*
X153251666Y-82198333D01*
X153218333Y-82131666D01*
X153218333Y-82098333D01*
X153251666Y-82031666D01*
X153318333Y-81998333D01*
X153418333Y-81998333D01*
X153485000Y-81965000D01*
X153518333Y-81898333D01*
X153518333Y-81865000D01*
X153485000Y-81798333D01*
X153418333Y-81765000D01*
X153318333Y-81765000D01*
X153251666Y-81798333D01*
X152918333Y-82231666D02*
X152918333Y-81765000D01*
X152918333Y-81531666D02*
X152951666Y-81565000D01*
X152918333Y-81598333D01*
X152885000Y-81565000D01*
X152918333Y-81531666D01*
X152918333Y-81598333D01*
X152485000Y-82231666D02*
X152551666Y-82198333D01*
X152585000Y-82165000D01*
X152618333Y-82098333D01*
X152618333Y-81898333D01*
X152585000Y-81831666D01*
X152551666Y-81798333D01*
X152485000Y-81765000D01*
X152385000Y-81765000D01*
X152318333Y-81798333D01*
X152285000Y-81831666D01*
X152251666Y-81898333D01*
X152251666Y-82098333D01*
X152285000Y-82165000D01*
X152318333Y-82198333D01*
X152385000Y-82231666D01*
X152485000Y-82231666D01*
X151951666Y-81765000D02*
X151951666Y-82231666D01*
X151951666Y-81831666D02*
X151918333Y-81798333D01*
X151851666Y-81765000D01*
X151751666Y-81765000D01*
X151685000Y-81798333D01*
X151651666Y-81865000D01*
X151651666Y-82231666D01*
X150785000Y-82231666D02*
X150785000Y-81531666D01*
X150618333Y-81531666D01*
X150518333Y-81565000D01*
X150451666Y-81631666D01*
X150418333Y-81698333D01*
X150385000Y-81831666D01*
X150385000Y-81931666D01*
X150418333Y-82065000D01*
X150451666Y-82131666D01*
X150518333Y-82198333D01*
X150618333Y-82231666D01*
X150785000Y-82231666D01*
D10*
X155464880Y-76467714D02*
X155502976Y-76505809D01*
X155617261Y-76543904D01*
X155693452Y-76543904D01*
X155807738Y-76505809D01*
X155883928Y-76429619D01*
X155922023Y-76353428D01*
X155960119Y-76201047D01*
X155960119Y-76086761D01*
X155922023Y-75934380D01*
X155883928Y-75858190D01*
X155807738Y-75782000D01*
X155693452Y-75743904D01*
X155617261Y-75743904D01*
X155502976Y-75782000D01*
X155464880Y-75820095D01*
X154702976Y-76543904D02*
X155160119Y-76543904D01*
X154931547Y-76543904D02*
X154931547Y-75743904D01*
X155007738Y-75858190D01*
X155083928Y-75934380D01*
X155160119Y-75972476D01*
X154398214Y-75820095D02*
X154360119Y-75782000D01*
X154283928Y-75743904D01*
X154093452Y-75743904D01*
X154017261Y-75782000D01*
X153979166Y-75820095D01*
X153941071Y-75896285D01*
X153941071Y-75972476D01*
X153979166Y-76086761D01*
X154436309Y-76543904D01*
X153941071Y-76543904D01*
X153483928Y-76086761D02*
X153560119Y-76048666D01*
X153598214Y-76010571D01*
X153636309Y-75934380D01*
X153636309Y-75896285D01*
X153598214Y-75820095D01*
X153560119Y-75782000D01*
X153483928Y-75743904D01*
X153331547Y-75743904D01*
X153255357Y-75782000D01*
X153217261Y-75820095D01*
X153179166Y-75896285D01*
X153179166Y-75934380D01*
X153217261Y-76010571D01*
X153255357Y-76048666D01*
X153331547Y-76086761D01*
X153483928Y-76086761D01*
X153560119Y-76124857D01*
X153598214Y-76162952D01*
X153636309Y-76239142D01*
X153636309Y-76391523D01*
X153598214Y-76467714D01*
X153560119Y-76505809D01*
X153483928Y-76543904D01*
X153331547Y-76543904D01*
X153255357Y-76505809D01*
X153217261Y-76467714D01*
X153179166Y-76391523D01*
X153179166Y-76239142D01*
X153217261Y-76162952D01*
X153255357Y-76124857D01*
X153331547Y-76086761D01*
X152836309Y-76543904D02*
X152836309Y-75743904D01*
X152645833Y-75743904D01*
X152531547Y-75782000D01*
X152455357Y-75858190D01*
X152417261Y-75934380D01*
X152379166Y-76086761D01*
X152379166Y-76201047D01*
X152417261Y-76353428D01*
X152455357Y-76429619D01*
X152531547Y-76505809D01*
X152645833Y-76543904D01*
X152836309Y-76543904D01*
X151579166Y-76467714D02*
X151617261Y-76505809D01*
X151731547Y-76543904D01*
X151807738Y-76543904D01*
X151922023Y-76505809D01*
X151998214Y-76429619D01*
X152036309Y-76353428D01*
X152074404Y-76201047D01*
X152074404Y-76086761D01*
X152036309Y-75934380D01*
X151998214Y-75858190D01*
X151922023Y-75782000D01*
X151807738Y-75743904D01*
X151731547Y-75743904D01*
X151617261Y-75782000D01*
X151579166Y-75820095D01*
X150779166Y-76543904D02*
X151045833Y-76162952D01*
X151236309Y-76543904D02*
X151236309Y-75743904D01*
X150931547Y-75743904D01*
X150855357Y-75782000D01*
X150817261Y-75820095D01*
X150779166Y-75896285D01*
X150779166Y-76010571D01*
X150817261Y-76086761D01*
X150855357Y-76124857D01*
X150931547Y-76162952D01*
X151236309Y-76162952D01*
X149902976Y-76010571D02*
X149712500Y-76543904D01*
X149522023Y-76010571D01*
X148912500Y-76505809D02*
X148988690Y-76543904D01*
X149141071Y-76543904D01*
X149217261Y-76505809D01*
X149255357Y-76429619D01*
X149255357Y-76124857D01*
X149217261Y-76048666D01*
X149141071Y-76010571D01*
X148988690Y-76010571D01*
X148912500Y-76048666D01*
X148874404Y-76124857D01*
X148874404Y-76201047D01*
X149255357Y-76277238D01*
X148531547Y-76543904D02*
X148531547Y-76010571D01*
X148531547Y-76162952D02*
X148493452Y-76086761D01*
X148455357Y-76048666D01*
X148379166Y-76010571D01*
X148302976Y-76010571D01*
X148074404Y-76505809D02*
X147998214Y-76543904D01*
X147845833Y-76543904D01*
X147769642Y-76505809D01*
X147731547Y-76429619D01*
X147731547Y-76391523D01*
X147769642Y-76315333D01*
X147845833Y-76277238D01*
X147960119Y-76277238D01*
X148036309Y-76239142D01*
X148074404Y-76162952D01*
X148074404Y-76124857D01*
X148036309Y-76048666D01*
X147960119Y-76010571D01*
X147845833Y-76010571D01*
X147769642Y-76048666D01*
X147388690Y-76543904D02*
X147388690Y-76010571D01*
X147388690Y-75743904D02*
X147426785Y-75782000D01*
X147388690Y-75820095D01*
X147350595Y-75782000D01*
X147388690Y-75743904D01*
X147388690Y-75820095D01*
X146893452Y-76543904D02*
X146969642Y-76505809D01*
X147007738Y-76467714D01*
X147045833Y-76391523D01*
X147045833Y-76162952D01*
X147007738Y-76086761D01*
X146969642Y-76048666D01*
X146893452Y-76010571D01*
X146779166Y-76010571D01*
X146702976Y-76048666D01*
X146664880Y-76086761D01*
X146626785Y-76162952D01*
X146626785Y-76391523D01*
X146664880Y-76467714D01*
X146702976Y-76505809D01*
X146779166Y-76543904D01*
X146893452Y-76543904D01*
X146283928Y-76010571D02*
X146283928Y-76543904D01*
X146283928Y-76086761D02*
X146245833Y-76048666D01*
X146169642Y-76010571D01*
X146055357Y-76010571D01*
X145979166Y-76048666D01*
X145941071Y-76124857D01*
X145941071Y-76543904D01*
X145026785Y-76010571D02*
X144836309Y-76543904D01*
X144645833Y-76010571D01*
X143922023Y-76543904D02*
X144379166Y-76543904D01*
X144150595Y-76543904D02*
X144150595Y-75743904D01*
X144226785Y-75858190D01*
X144302976Y-75934380D01*
X144379166Y-75972476D01*
X143579166Y-76467714D02*
X143541071Y-76505809D01*
X143579166Y-76543904D01*
X143617261Y-76505809D01*
X143579166Y-76467714D01*
X143579166Y-76543904D01*
X143045833Y-75743904D02*
X142969642Y-75743904D01*
X142893452Y-75782000D01*
X142855357Y-75820095D01*
X142817261Y-75896285D01*
X142779166Y-76048666D01*
X142779166Y-76239142D01*
X142817261Y-76391523D01*
X142855357Y-76467714D01*
X142893452Y-76505809D01*
X142969642Y-76543904D01*
X143045833Y-76543904D01*
X143122023Y-76505809D01*
X143160119Y-76467714D01*
X143198214Y-76391523D01*
X143236309Y-76239142D01*
X143236309Y-76048666D01*
X143198214Y-75896285D01*
X143160119Y-75820095D01*
X143122023Y-75782000D01*
X143045833Y-75743904D01*
X155922023Y-77831904D02*
X155922023Y-77031904D01*
X155655357Y-77603333D01*
X155388690Y-77031904D01*
X155388690Y-77831904D01*
X154664880Y-77831904D02*
X154664880Y-77412857D01*
X154702976Y-77336666D01*
X154779166Y-77298571D01*
X154931547Y-77298571D01*
X155007738Y-77336666D01*
X154664880Y-77793809D02*
X154741071Y-77831904D01*
X154931547Y-77831904D01*
X155007738Y-77793809D01*
X155045833Y-77717619D01*
X155045833Y-77641428D01*
X155007738Y-77565238D01*
X154931547Y-77527142D01*
X154741071Y-77527142D01*
X154664880Y-77489047D01*
X153941071Y-77793809D02*
X154017261Y-77831904D01*
X154169642Y-77831904D01*
X154245833Y-77793809D01*
X154283928Y-77755714D01*
X154322023Y-77679523D01*
X154322023Y-77450952D01*
X154283928Y-77374761D01*
X154245833Y-77336666D01*
X154169642Y-77298571D01*
X154017261Y-77298571D01*
X153941071Y-77336666D01*
X153598214Y-77831904D02*
X153598214Y-77298571D01*
X153598214Y-77031904D02*
X153636309Y-77070000D01*
X153598214Y-77108095D01*
X153560119Y-77070000D01*
X153598214Y-77031904D01*
X153598214Y-77108095D01*
X152912500Y-77793809D02*
X152988690Y-77831904D01*
X153141071Y-77831904D01*
X153217261Y-77793809D01*
X153255357Y-77717619D01*
X153255357Y-77412857D01*
X153217261Y-77336666D01*
X153141071Y-77298571D01*
X152988690Y-77298571D01*
X152912500Y-77336666D01*
X152874404Y-77412857D01*
X152874404Y-77489047D01*
X153255357Y-77565238D01*
X152531547Y-77298571D02*
X152531547Y-77984285D01*
X152569642Y-78060476D01*
X152645833Y-78098571D01*
X152683928Y-78098571D01*
X152531547Y-77031904D02*
X152569642Y-77070000D01*
X152531547Y-77108095D01*
X152493452Y-77070000D01*
X152531547Y-77031904D01*
X152531547Y-77108095D01*
X151617261Y-77031904D02*
X151426785Y-77831904D01*
X151274404Y-77260476D01*
X151122023Y-77831904D01*
X150931547Y-77031904D01*
X150626785Y-77831904D02*
X150626785Y-77298571D01*
X150626785Y-77031904D02*
X150664880Y-77070000D01*
X150626785Y-77108095D01*
X150588690Y-77070000D01*
X150626785Y-77031904D01*
X150626785Y-77108095D01*
X150360119Y-77298571D02*
X150055357Y-77298571D01*
X150245833Y-77031904D02*
X150245833Y-77717619D01*
X150207738Y-77793809D01*
X150131547Y-77831904D01*
X150055357Y-77831904D01*
X149788690Y-77831904D02*
X149788690Y-77031904D01*
X149712500Y-77527142D02*
X149483928Y-77831904D01*
X149483928Y-77298571D02*
X149788690Y-77603333D01*
X149026785Y-77831904D02*
X149102976Y-77793809D01*
X149141071Y-77755714D01*
X149179166Y-77679523D01*
X149179166Y-77450952D01*
X149141071Y-77374761D01*
X149102976Y-77336666D01*
X149026785Y-77298571D01*
X148912500Y-77298571D01*
X148836309Y-77336666D01*
X148798214Y-77374761D01*
X148760119Y-77450952D01*
X148760119Y-77679523D01*
X148798214Y-77755714D01*
X148836309Y-77793809D01*
X148912500Y-77831904D01*
X149026785Y-77831904D01*
X148493452Y-77298571D02*
X148341071Y-77831904D01*
X148188690Y-77450952D01*
X148036309Y-77831904D01*
X147883928Y-77298571D01*
X147579166Y-77831904D02*
X147579166Y-77298571D01*
X147579166Y-77031904D02*
X147617261Y-77070000D01*
X147579166Y-77108095D01*
X147541071Y-77070000D01*
X147579166Y-77031904D01*
X147579166Y-77108095D01*
X146855357Y-77831904D02*
X146855357Y-77412857D01*
X146893452Y-77336666D01*
X146969642Y-77298571D01*
X147122023Y-77298571D01*
X147198214Y-77336666D01*
X146855357Y-77793809D02*
X146931547Y-77831904D01*
X147122023Y-77831904D01*
X147198214Y-77793809D01*
X147236309Y-77717619D01*
X147236309Y-77641428D01*
X147198214Y-77565238D01*
X147122023Y-77527142D01*
X146931547Y-77527142D01*
X146855357Y-77489047D01*
X146474404Y-77831904D02*
X146474404Y-77031904D01*
X146398214Y-77527142D02*
X146169642Y-77831904D01*
X146169642Y-77298571D02*
X146474404Y-77603333D01*
X144607738Y-77298571D02*
X145217261Y-77527142D01*
X144607738Y-77755714D01*
X144302976Y-77298571D02*
X144112500Y-77831904D01*
X143922023Y-77298571D02*
X144112500Y-77831904D01*
X144188690Y-78022380D01*
X144226785Y-78060476D01*
X144302976Y-78098571D01*
X143731547Y-77298571D02*
X143426785Y-77298571D01*
X143617261Y-77031904D02*
X143617261Y-77717619D01*
X143579166Y-77793809D01*
X143502976Y-77831904D01*
X143426785Y-77831904D01*
X143160119Y-77831904D02*
X143160119Y-77298571D01*
X143160119Y-77374761D02*
X143122023Y-77336666D01*
X143045833Y-77298571D01*
X142931547Y-77298571D01*
X142855357Y-77336666D01*
X142817261Y-77412857D01*
X142817261Y-77831904D01*
X142817261Y-77412857D02*
X142779166Y-77336666D01*
X142702976Y-77298571D01*
X142588690Y-77298571D01*
X142512500Y-77336666D01*
X142474404Y-77412857D01*
X142474404Y-77831904D01*
X141598214Y-77450952D02*
X141636309Y-77412857D01*
X141712500Y-77374761D01*
X141788690Y-77374761D01*
X141864880Y-77412857D01*
X141902976Y-77450952D01*
X141941071Y-77527142D01*
X141941071Y-77603333D01*
X141902976Y-77679523D01*
X141864880Y-77717619D01*
X141788690Y-77755714D01*
X141712500Y-77755714D01*
X141636309Y-77717619D01*
X141598214Y-77679523D01*
X141598214Y-77374761D02*
X141598214Y-77679523D01*
X141560119Y-77717619D01*
X141522023Y-77717619D01*
X141445833Y-77679523D01*
X141407738Y-77603333D01*
X141407738Y-77412857D01*
X141483928Y-77298571D01*
X141598214Y-77222380D01*
X141750595Y-77184285D01*
X141902976Y-77222380D01*
X142017261Y-77298571D01*
X142093452Y-77412857D01*
X142131547Y-77565238D01*
X142093452Y-77717619D01*
X142017261Y-77831904D01*
X141902976Y-77908095D01*
X141750595Y-77946190D01*
X141598214Y-77908095D01*
X141483928Y-77831904D01*
X140760119Y-77793809D02*
X140836309Y-77831904D01*
X140988690Y-77831904D01*
X141064880Y-77793809D01*
X141102976Y-77717619D01*
X141102976Y-77412857D01*
X141064880Y-77336666D01*
X140988690Y-77298571D01*
X140836309Y-77298571D01*
X140760119Y-77336666D01*
X140722023Y-77412857D01*
X140722023Y-77489047D01*
X141102976Y-77565238D01*
X140264880Y-77831904D02*
X140341071Y-77793809D01*
X140379166Y-77717619D01*
X140379166Y-77031904D01*
X140036309Y-77298571D02*
X139845833Y-77831904D01*
X139655357Y-77298571D02*
X139845833Y-77831904D01*
X139922023Y-78022380D01*
X139960119Y-78060476D01*
X140036309Y-78098571D01*
X139388690Y-77793809D02*
X139312500Y-77831904D01*
X139160119Y-77831904D01*
X139083928Y-77793809D01*
X139045833Y-77717619D01*
X139045833Y-77679523D01*
X139083928Y-77603333D01*
X139160119Y-77565238D01*
X139274404Y-77565238D01*
X139350595Y-77527142D01*
X139388690Y-77450952D01*
X139388690Y-77412857D01*
X139350595Y-77336666D01*
X139274404Y-77298571D01*
X139160119Y-77298571D01*
X139083928Y-77336666D01*
X138702976Y-77831904D02*
X138702976Y-77298571D01*
X138702976Y-77031904D02*
X138741071Y-77070000D01*
X138702976Y-77108095D01*
X138664880Y-77070000D01*
X138702976Y-77031904D01*
X138702976Y-77108095D01*
X137979166Y-77298571D02*
X137979166Y-77831904D01*
X138322023Y-77298571D02*
X138322023Y-77717619D01*
X138283928Y-77793809D01*
X138207738Y-77831904D01*
X138093452Y-77831904D01*
X138017261Y-77793809D01*
X137979166Y-77755714D01*
X137598214Y-77831904D02*
X137598214Y-77298571D01*
X137598214Y-77374761D02*
X137560119Y-77336666D01*
X137483928Y-77298571D01*
X137369642Y-77298571D01*
X137293452Y-77336666D01*
X137255357Y-77412857D01*
X137255357Y-77831904D01*
X137255357Y-77412857D02*
X137217261Y-77336666D01*
X137141071Y-77298571D01*
X137026785Y-77298571D01*
X136950595Y-77336666D01*
X136912500Y-77412857D01*
X136912500Y-77831904D01*
X136531547Y-77755714D02*
X136493452Y-77793809D01*
X136531547Y-77831904D01*
X136569642Y-77793809D01*
X136531547Y-77755714D01*
X136531547Y-77831904D01*
X136150595Y-77298571D02*
X136150595Y-78098571D01*
X136150595Y-77336666D02*
X136074404Y-77298571D01*
X135922023Y-77298571D01*
X135845833Y-77336666D01*
X135807738Y-77374761D01*
X135769642Y-77450952D01*
X135769642Y-77679523D01*
X135807738Y-77755714D01*
X135845833Y-77793809D01*
X135922023Y-77831904D01*
X136074404Y-77831904D01*
X136150595Y-77793809D01*
X135312500Y-77831904D02*
X135388690Y-77793809D01*
X135426785Y-77717619D01*
X135426785Y-77031904D01*
X135007738Y-77298571D02*
X134398214Y-77527142D01*
X135007738Y-77755714D01*
X155998214Y-78319904D02*
X155464880Y-79119904D01*
X155464880Y-78319904D02*
X155998214Y-79119904D01*
X155160119Y-79119904D02*
X155160119Y-78319904D01*
X154207738Y-78396095D02*
X154169642Y-78358000D01*
X154093452Y-78319904D01*
X153902976Y-78319904D01*
X153826785Y-78358000D01*
X153788690Y-78396095D01*
X153750595Y-78472285D01*
X153750595Y-78548476D01*
X153788690Y-78662761D01*
X154245833Y-79119904D01*
X153750595Y-79119904D01*
X153255357Y-78319904D02*
X153179166Y-78319904D01*
X153102976Y-78358000D01*
X153064880Y-78396095D01*
X153026785Y-78472285D01*
X152988690Y-78624666D01*
X152988690Y-78815142D01*
X153026785Y-78967523D01*
X153064880Y-79043714D01*
X153102976Y-79081809D01*
X153179166Y-79119904D01*
X153255357Y-79119904D01*
X153331547Y-79081809D01*
X153369642Y-79043714D01*
X153407738Y-78967523D01*
X153445833Y-78815142D01*
X153445833Y-78624666D01*
X153407738Y-78472285D01*
X153369642Y-78396095D01*
X153331547Y-78358000D01*
X153255357Y-78319904D01*
X152683928Y-78396095D02*
X152645833Y-78358000D01*
X152569642Y-78319904D01*
X152379166Y-78319904D01*
X152302976Y-78358000D01*
X152264880Y-78396095D01*
X152226785Y-78472285D01*
X152226785Y-78548476D01*
X152264880Y-78662761D01*
X152722023Y-79119904D01*
X152226785Y-79119904D01*
X151922023Y-78396095D02*
X151883928Y-78358000D01*
X151807738Y-78319904D01*
X151617261Y-78319904D01*
X151541071Y-78358000D01*
X151502976Y-78396095D01*
X151464880Y-78472285D01*
X151464880Y-78548476D01*
X151502976Y-78662761D01*
X151960119Y-79119904D01*
X151464880Y-79119904D01*
X113970809Y-133668333D02*
X114008904Y-133782619D01*
X114008904Y-133973095D01*
X113970809Y-134049285D01*
X113932714Y-134087380D01*
X113856523Y-134125476D01*
X113780333Y-134125476D01*
X113704142Y-134087380D01*
X113666047Y-134049285D01*
X113627952Y-133973095D01*
X113589857Y-133820714D01*
X113551761Y-133744523D01*
X113513666Y-133706428D01*
X113437476Y-133668333D01*
X113361285Y-133668333D01*
X113285095Y-133706428D01*
X113247000Y-133744523D01*
X113208904Y-133820714D01*
X113208904Y-134011190D01*
X113247000Y-134125476D01*
X114008904Y-134468333D02*
X113208904Y-134468333D01*
X114008904Y-134849285D02*
X113208904Y-134849285D01*
X113208904Y-135039761D01*
X113247000Y-135154047D01*
X113323190Y-135230238D01*
X113399380Y-135268333D01*
X113551761Y-135306428D01*
X113666047Y-135306428D01*
X113818428Y-135268333D01*
X113894619Y-135230238D01*
X113970809Y-135154047D01*
X114008904Y-135039761D01*
X114008904Y-134849285D01*
X113970809Y-135611190D02*
X114008904Y-135687380D01*
X114008904Y-135839761D01*
X113970809Y-135915952D01*
X113894619Y-135954047D01*
X113856523Y-135954047D01*
X113780333Y-135915952D01*
X113742238Y-135839761D01*
X113742238Y-135725476D01*
X113704142Y-135649285D01*
X113627952Y-135611190D01*
X113589857Y-135611190D01*
X113513666Y-135649285D01*
X113475571Y-135725476D01*
X113475571Y-135839761D01*
X113513666Y-135915952D01*
X114008904Y-136906428D02*
X113475571Y-136906428D01*
X113551761Y-136906428D02*
X113513666Y-136944523D01*
X113475571Y-137020714D01*
X113475571Y-137135000D01*
X113513666Y-137211190D01*
X113589857Y-137249285D01*
X114008904Y-137249285D01*
X113589857Y-137249285D02*
X113513666Y-137287380D01*
X113475571Y-137363571D01*
X113475571Y-137477857D01*
X113513666Y-137554047D01*
X113589857Y-137592142D01*
X114008904Y-137592142D01*
X113475571Y-138315952D02*
X114008904Y-138315952D01*
X113475571Y-137973095D02*
X113894619Y-137973095D01*
X113970809Y-138011190D01*
X114008904Y-138087380D01*
X114008904Y-138201666D01*
X113970809Y-138277857D01*
X113932714Y-138315952D01*
X113970809Y-138658809D02*
X114008904Y-138735000D01*
X114008904Y-138887380D01*
X113970809Y-138963571D01*
X113894619Y-139001666D01*
X113856523Y-139001666D01*
X113780333Y-138963571D01*
X113742238Y-138887380D01*
X113742238Y-138773095D01*
X113704142Y-138696904D01*
X113627952Y-138658809D01*
X113589857Y-138658809D01*
X113513666Y-138696904D01*
X113475571Y-138773095D01*
X113475571Y-138887380D01*
X113513666Y-138963571D01*
X113475571Y-139230238D02*
X113475571Y-139535000D01*
X113208904Y-139344523D02*
X113894619Y-139344523D01*
X113970809Y-139382619D01*
X114008904Y-139458809D01*
X114008904Y-139535000D01*
X114008904Y-140411190D02*
X113208904Y-140411190D01*
X113513666Y-140411190D02*
X113475571Y-140487380D01*
X113475571Y-140639761D01*
X113513666Y-140715952D01*
X113551761Y-140754047D01*
X113627952Y-140792142D01*
X113856523Y-140792142D01*
X113932714Y-140754047D01*
X113970809Y-140715952D01*
X114008904Y-140639761D01*
X114008904Y-140487380D01*
X113970809Y-140411190D01*
X113970809Y-141439761D02*
X114008904Y-141363571D01*
X114008904Y-141211190D01*
X113970809Y-141135000D01*
X113894619Y-141096904D01*
X113589857Y-141096904D01*
X113513666Y-141135000D01*
X113475571Y-141211190D01*
X113475571Y-141363571D01*
X113513666Y-141439761D01*
X113589857Y-141477857D01*
X113666047Y-141477857D01*
X113742238Y-141096904D01*
X114008904Y-142544523D02*
X113970809Y-142468333D01*
X113932714Y-142430238D01*
X113856523Y-142392142D01*
X113627952Y-142392142D01*
X113551761Y-142430238D01*
X113513666Y-142468333D01*
X113475571Y-142544523D01*
X113475571Y-142658809D01*
X113513666Y-142735000D01*
X113551761Y-142773095D01*
X113627952Y-142811190D01*
X113856523Y-142811190D01*
X113932714Y-142773095D01*
X113970809Y-142735000D01*
X114008904Y-142658809D01*
X114008904Y-142544523D01*
X113475571Y-143039761D02*
X113475571Y-143344523D01*
X114008904Y-143154047D02*
X113323190Y-143154047D01*
X113247000Y-143192142D01*
X113208904Y-143268333D01*
X113208904Y-143344523D01*
X113970809Y-144182619D02*
X114008904Y-144258809D01*
X114008904Y-144411190D01*
X113970809Y-144487380D01*
X113894619Y-144525476D01*
X113856523Y-144525476D01*
X113780333Y-144487380D01*
X113742238Y-144411190D01*
X113742238Y-144296904D01*
X113704142Y-144220714D01*
X113627952Y-144182619D01*
X113589857Y-144182619D01*
X113513666Y-144220714D01*
X113475571Y-144296904D01*
X113475571Y-144411190D01*
X113513666Y-144487380D01*
X114008904Y-145211190D02*
X113589857Y-145211190D01*
X113513666Y-145173095D01*
X113475571Y-145096904D01*
X113475571Y-144944523D01*
X113513666Y-144868333D01*
X113970809Y-145211190D02*
X114008904Y-145135000D01*
X114008904Y-144944523D01*
X113970809Y-144868333D01*
X113894619Y-144830238D01*
X113818428Y-144830238D01*
X113742238Y-144868333D01*
X113704142Y-144944523D01*
X113704142Y-145135000D01*
X113666047Y-145211190D01*
X114008904Y-145592142D02*
X113475571Y-145592142D01*
X113551761Y-145592142D02*
X113513666Y-145630238D01*
X113475571Y-145706428D01*
X113475571Y-145820714D01*
X113513666Y-145896904D01*
X113589857Y-145935000D01*
X114008904Y-145935000D01*
X113589857Y-145935000D02*
X113513666Y-145973095D01*
X113475571Y-146049285D01*
X113475571Y-146163571D01*
X113513666Y-146239761D01*
X113589857Y-146277857D01*
X114008904Y-146277857D01*
X113970809Y-146963571D02*
X114008904Y-146887380D01*
X114008904Y-146735000D01*
X113970809Y-146658809D01*
X113894619Y-146620714D01*
X113589857Y-146620714D01*
X113513666Y-146658809D01*
X113475571Y-146735000D01*
X113475571Y-146887380D01*
X113513666Y-146963571D01*
X113589857Y-147001666D01*
X113666047Y-147001666D01*
X113742238Y-146620714D01*
X114763571Y-135649285D02*
X114763571Y-135954047D01*
X114496904Y-135763571D02*
X115182619Y-135763571D01*
X115258809Y-135801666D01*
X115296904Y-135877857D01*
X115296904Y-135954047D01*
X114763571Y-136144523D02*
X115296904Y-136335000D01*
X114763571Y-136525476D02*
X115296904Y-136335000D01*
X115487380Y-136258809D01*
X115525476Y-136220714D01*
X115563571Y-136144523D01*
X114763571Y-136830238D02*
X115563571Y-136830238D01*
X114801666Y-136830238D02*
X114763571Y-136906428D01*
X114763571Y-137058809D01*
X114801666Y-137135000D01*
X114839761Y-137173095D01*
X114915952Y-137211190D01*
X115144523Y-137211190D01*
X115220714Y-137173095D01*
X115258809Y-137135000D01*
X115296904Y-137058809D01*
X115296904Y-136906428D01*
X115258809Y-136830238D01*
X115258809Y-137858809D02*
X115296904Y-137782619D01*
X115296904Y-137630238D01*
X115258809Y-137554047D01*
X115182619Y-137515952D01*
X114877857Y-137515952D01*
X114801666Y-137554047D01*
X114763571Y-137630238D01*
X114763571Y-137782619D01*
X114801666Y-137858809D01*
X114877857Y-137896904D01*
X114954047Y-137896904D01*
X115030238Y-137515952D01*
X115296904Y-139192142D02*
X114877857Y-139192142D01*
X114801666Y-139154047D01*
X114763571Y-139077857D01*
X114763571Y-138925476D01*
X114801666Y-138849285D01*
X115258809Y-139192142D02*
X115296904Y-139115952D01*
X115296904Y-138925476D01*
X115258809Y-138849285D01*
X115182619Y-138811190D01*
X115106428Y-138811190D01*
X115030238Y-138849285D01*
X114992142Y-138925476D01*
X114992142Y-139115952D01*
X114954047Y-139192142D01*
X114763571Y-139573095D02*
X115296904Y-139573095D01*
X114839761Y-139573095D02*
X114801666Y-139611190D01*
X114763571Y-139687380D01*
X114763571Y-139801666D01*
X114801666Y-139877857D01*
X114877857Y-139915952D01*
X115296904Y-139915952D01*
X115296904Y-140639761D02*
X114496904Y-140639761D01*
X115258809Y-140639761D02*
X115296904Y-140563571D01*
X115296904Y-140411190D01*
X115258809Y-140335000D01*
X115220714Y-140296904D01*
X115144523Y-140258809D01*
X114915952Y-140258809D01*
X114839761Y-140296904D01*
X114801666Y-140335000D01*
X114763571Y-140411190D01*
X114763571Y-140563571D01*
X114801666Y-140639761D01*
X115296904Y-141630238D02*
X114763571Y-141630238D01*
X114839761Y-141630238D02*
X114801666Y-141668333D01*
X114763571Y-141744523D01*
X114763571Y-141858809D01*
X114801666Y-141935000D01*
X114877857Y-141973095D01*
X115296904Y-141973095D01*
X114877857Y-141973095D02*
X114801666Y-142011190D01*
X114763571Y-142087380D01*
X114763571Y-142201666D01*
X114801666Y-142277857D01*
X114877857Y-142315952D01*
X115296904Y-142315952D01*
X115296904Y-143039761D02*
X114877857Y-143039761D01*
X114801666Y-143001666D01*
X114763571Y-142925476D01*
X114763571Y-142773095D01*
X114801666Y-142696904D01*
X115258809Y-143039761D02*
X115296904Y-142963571D01*
X115296904Y-142773095D01*
X115258809Y-142696904D01*
X115182619Y-142658809D01*
X115106428Y-142658809D01*
X115030238Y-142696904D01*
X114992142Y-142773095D01*
X114992142Y-142963571D01*
X114954047Y-143039761D01*
X114763571Y-143306428D02*
X114763571Y-143611190D01*
X114496904Y-143420714D02*
X115182619Y-143420714D01*
X115258809Y-143458809D01*
X115296904Y-143535000D01*
X115296904Y-143611190D01*
X115258809Y-144220714D02*
X115296904Y-144144523D01*
X115296904Y-143992142D01*
X115258809Y-143915952D01*
X115220714Y-143877857D01*
X115144523Y-143839761D01*
X114915952Y-143839761D01*
X114839761Y-143877857D01*
X114801666Y-143915952D01*
X114763571Y-143992142D01*
X114763571Y-144144523D01*
X114801666Y-144220714D01*
X115296904Y-144563571D02*
X114496904Y-144563571D01*
X115296904Y-144906428D02*
X114877857Y-144906428D01*
X114801666Y-144868333D01*
X114763571Y-144792142D01*
X114763571Y-144677857D01*
X114801666Y-144601666D01*
X114839761Y-144563571D01*
X116584904Y-134087380D02*
X116051571Y-134087380D01*
X116127761Y-134087380D02*
X116089666Y-134125476D01*
X116051571Y-134201666D01*
X116051571Y-134315952D01*
X116089666Y-134392142D01*
X116165857Y-134430238D01*
X116584904Y-134430238D01*
X116165857Y-134430238D02*
X116089666Y-134468333D01*
X116051571Y-134544523D01*
X116051571Y-134658809D01*
X116089666Y-134735000D01*
X116165857Y-134773095D01*
X116584904Y-134773095D01*
X116584904Y-135268333D02*
X116546809Y-135192142D01*
X116508714Y-135154047D01*
X116432523Y-135115952D01*
X116203952Y-135115952D01*
X116127761Y-135154047D01*
X116089666Y-135192142D01*
X116051571Y-135268333D01*
X116051571Y-135382619D01*
X116089666Y-135458809D01*
X116127761Y-135496904D01*
X116203952Y-135535000D01*
X116432523Y-135535000D01*
X116508714Y-135496904D01*
X116546809Y-135458809D01*
X116584904Y-135382619D01*
X116584904Y-135268333D01*
X116051571Y-135763571D02*
X116051571Y-136068333D01*
X115784904Y-135877857D02*
X116470619Y-135877857D01*
X116546809Y-135915952D01*
X116584904Y-135992142D01*
X116584904Y-136068333D01*
X116584904Y-136335000D02*
X115784904Y-136335000D01*
X116584904Y-136677857D02*
X116165857Y-136677857D01*
X116089666Y-136639761D01*
X116051571Y-136563571D01*
X116051571Y-136449285D01*
X116089666Y-136373095D01*
X116127761Y-136335000D01*
X116546809Y-137363571D02*
X116584904Y-137287380D01*
X116584904Y-137135000D01*
X116546809Y-137058809D01*
X116470619Y-137020714D01*
X116165857Y-137020714D01*
X116089666Y-137058809D01*
X116051571Y-137135000D01*
X116051571Y-137287380D01*
X116089666Y-137363571D01*
X116165857Y-137401666D01*
X116242047Y-137401666D01*
X116318238Y-137020714D01*
X116584904Y-137744523D02*
X116051571Y-137744523D01*
X116203952Y-137744523D02*
X116127761Y-137782619D01*
X116089666Y-137820714D01*
X116051571Y-137896904D01*
X116051571Y-137973095D01*
X116584904Y-138239761D02*
X115784904Y-138239761D01*
X116089666Y-138239761D02*
X116051571Y-138315952D01*
X116051571Y-138468333D01*
X116089666Y-138544523D01*
X116127761Y-138582619D01*
X116203952Y-138620714D01*
X116432523Y-138620714D01*
X116508714Y-138582619D01*
X116546809Y-138544523D01*
X116584904Y-138468333D01*
X116584904Y-138315952D01*
X116546809Y-138239761D01*
X116584904Y-139077857D02*
X116546809Y-139001666D01*
X116508714Y-138963571D01*
X116432523Y-138925476D01*
X116203952Y-138925476D01*
X116127761Y-138963571D01*
X116089666Y-139001666D01*
X116051571Y-139077857D01*
X116051571Y-139192142D01*
X116089666Y-139268333D01*
X116127761Y-139306428D01*
X116203952Y-139344523D01*
X116432523Y-139344523D01*
X116508714Y-139306428D01*
X116546809Y-139268333D01*
X116584904Y-139192142D01*
X116584904Y-139077857D01*
X116584904Y-140030238D02*
X116165857Y-140030238D01*
X116089666Y-139992142D01*
X116051571Y-139915952D01*
X116051571Y-139763571D01*
X116089666Y-139687380D01*
X116546809Y-140030238D02*
X116584904Y-139954047D01*
X116584904Y-139763571D01*
X116546809Y-139687380D01*
X116470619Y-139649285D01*
X116394428Y-139649285D01*
X116318238Y-139687380D01*
X116280142Y-139763571D01*
X116280142Y-139954047D01*
X116242047Y-140030238D01*
X116584904Y-140411190D02*
X116051571Y-140411190D01*
X116203952Y-140411190D02*
X116127761Y-140449285D01*
X116089666Y-140487380D01*
X116051571Y-140563571D01*
X116051571Y-140639761D01*
X116584904Y-141249285D02*
X115784904Y-141249285D01*
X116546809Y-141249285D02*
X116584904Y-141173095D01*
X116584904Y-141020714D01*
X116546809Y-140944523D01*
X116508714Y-140906428D01*
X116432523Y-140868333D01*
X116203952Y-140868333D01*
X116127761Y-140906428D01*
X116089666Y-140944523D01*
X116051571Y-141020714D01*
X116051571Y-141173095D01*
X116089666Y-141249285D01*
X116051571Y-142163571D02*
X116584904Y-142354047D01*
X116051571Y-142544523D01*
X116584904Y-142963571D02*
X116546809Y-142887380D01*
X116508714Y-142849285D01*
X116432523Y-142811190D01*
X116203952Y-142811190D01*
X116127761Y-142849285D01*
X116089666Y-142887380D01*
X116051571Y-142963571D01*
X116051571Y-143077857D01*
X116089666Y-143154047D01*
X116127761Y-143192142D01*
X116203952Y-143230238D01*
X116432523Y-143230238D01*
X116508714Y-143192142D01*
X116546809Y-143154047D01*
X116584904Y-143077857D01*
X116584904Y-142963571D01*
X116584904Y-143687380D02*
X116546809Y-143611190D01*
X116470619Y-143573095D01*
X115784904Y-143573095D01*
X116051571Y-143877857D02*
X116051571Y-144182619D01*
X115784904Y-143992142D02*
X116470619Y-143992142D01*
X116546809Y-144030238D01*
X116584904Y-144106428D01*
X116584904Y-144182619D01*
X116584904Y-144792142D02*
X116165857Y-144792142D01*
X116089666Y-144754047D01*
X116051571Y-144677857D01*
X116051571Y-144525476D01*
X116089666Y-144449285D01*
X116546809Y-144792142D02*
X116584904Y-144715952D01*
X116584904Y-144525476D01*
X116546809Y-144449285D01*
X116470619Y-144411190D01*
X116394428Y-144411190D01*
X116318238Y-144449285D01*
X116280142Y-144525476D01*
X116280142Y-144715952D01*
X116242047Y-144792142D01*
X116051571Y-145515952D02*
X116699190Y-145515952D01*
X116775380Y-145477857D01*
X116813476Y-145439761D01*
X116851571Y-145363571D01*
X116851571Y-145249285D01*
X116813476Y-145173095D01*
X116546809Y-145515952D02*
X116584904Y-145439761D01*
X116584904Y-145287380D01*
X116546809Y-145211190D01*
X116508714Y-145173095D01*
X116432523Y-145135000D01*
X116203952Y-145135000D01*
X116127761Y-145173095D01*
X116089666Y-145211190D01*
X116051571Y-145287380D01*
X116051571Y-145439761D01*
X116089666Y-145515952D01*
X116546809Y-146201666D02*
X116584904Y-146125476D01*
X116584904Y-145973095D01*
X116546809Y-145896904D01*
X116470619Y-145858809D01*
X116165857Y-145858809D01*
X116089666Y-145896904D01*
X116051571Y-145973095D01*
X116051571Y-146125476D01*
X116089666Y-146201666D01*
X116165857Y-146239761D01*
X116242047Y-146239761D01*
X116318238Y-145858809D01*
X116508714Y-146582619D02*
X116546809Y-146620714D01*
X116584904Y-146582619D01*
X116546809Y-146544523D01*
X116508714Y-146582619D01*
X116584904Y-146582619D01*
X103624047Y-124932380D02*
X104195476Y-124932380D01*
X103909761Y-124932380D02*
X103909761Y-123932380D01*
X104005000Y-124075238D01*
X104100238Y-124170476D01*
X104195476Y-124218095D01*
X103195476Y-124932380D02*
X103195476Y-123932380D01*
X103100238Y-124551428D02*
X102814523Y-124932380D01*
X102814523Y-124265714D02*
X103195476Y-124646666D01*
X103052619Y-101131904D02*
X103005000Y-101179523D01*
X102957380Y-101274761D01*
X102957380Y-101512857D01*
X103005000Y-101608095D01*
X103052619Y-101655714D01*
X103147857Y-101703333D01*
X103243095Y-101703333D01*
X103385952Y-101655714D01*
X103957380Y-101084285D01*
X103957380Y-101703333D01*
X103052619Y-102084285D02*
X103005000Y-102131904D01*
X102957380Y-102227142D01*
X102957380Y-102465238D01*
X103005000Y-102560476D01*
X103052619Y-102608095D01*
X103147857Y-102655714D01*
X103243095Y-102655714D01*
X103385952Y-102608095D01*
X103957380Y-102036666D01*
X103957380Y-102655714D01*
X102957380Y-103274761D02*
X102957380Y-103370000D01*
X103005000Y-103465238D01*
X103052619Y-103512857D01*
X103147857Y-103560476D01*
X103338333Y-103608095D01*
X103576428Y-103608095D01*
X103766904Y-103560476D01*
X103862142Y-103512857D01*
X103909761Y-103465238D01*
X103957380Y-103370000D01*
X103957380Y-103274761D01*
X103909761Y-103179523D01*
X103862142Y-103131904D01*
X103766904Y-103084285D01*
X103576428Y-103036666D01*
X103338333Y-103036666D01*
X103147857Y-103084285D01*
X103052619Y-103131904D01*
X103005000Y-103179523D01*
X102957380Y-103274761D01*
X103957380Y-104036666D02*
X102957380Y-104036666D01*
X103957380Y-104608095D02*
X103385952Y-104179523D01*
X102957380Y-104608095D02*
X103528809Y-104036666D01*
X170648095Y-82097619D02*
X170600476Y-82050000D01*
X170505238Y-82002380D01*
X170267142Y-82002380D01*
X170171904Y-82050000D01*
X170124285Y-82097619D01*
X170076666Y-82192857D01*
X170076666Y-82288095D01*
X170124285Y-82430952D01*
X170695714Y-83002380D01*
X170076666Y-83002380D01*
X169695714Y-82097619D02*
X169648095Y-82050000D01*
X169552857Y-82002380D01*
X169314761Y-82002380D01*
X169219523Y-82050000D01*
X169171904Y-82097619D01*
X169124285Y-82192857D01*
X169124285Y-82288095D01*
X169171904Y-82430952D01*
X169743333Y-83002380D01*
X169124285Y-83002380D01*
X168505238Y-82002380D02*
X168410000Y-82002380D01*
X168314761Y-82050000D01*
X168267142Y-82097619D01*
X168219523Y-82192857D01*
X168171904Y-82383333D01*
X168171904Y-82621428D01*
X168219523Y-82811904D01*
X168267142Y-82907142D01*
X168314761Y-82954761D01*
X168410000Y-83002380D01*
X168505238Y-83002380D01*
X168600476Y-82954761D01*
X168648095Y-82907142D01*
X168695714Y-82811904D01*
X168743333Y-82621428D01*
X168743333Y-82383333D01*
X168695714Y-82192857D01*
X168648095Y-82097619D01*
X168600476Y-82050000D01*
X168505238Y-82002380D01*
X167743333Y-83002380D02*
X167743333Y-82002380D01*
X167171904Y-83002380D02*
X167600476Y-82430952D01*
X167171904Y-82002380D02*
X167743333Y-82573809D01*
X103624047Y-149677380D02*
X104195476Y-149677380D01*
X103909761Y-149677380D02*
X103909761Y-148677380D01*
X104005000Y-148820238D01*
X104100238Y-148915476D01*
X104195476Y-148963095D01*
X103195476Y-149677380D02*
X103195476Y-148677380D01*
X103100238Y-149296428D02*
X102814523Y-149677380D01*
X102814523Y-149010714D02*
X103195476Y-149391666D01*
X103624047Y-136977380D02*
X104195476Y-136977380D01*
X103909761Y-136977380D02*
X103909761Y-135977380D01*
X104005000Y-136120238D01*
X104100238Y-136215476D01*
X104195476Y-136263095D01*
X103195476Y-136977380D02*
X103195476Y-135977380D01*
X103100238Y-136596428D02*
X102814523Y-136977380D01*
X102814523Y-136310714D02*
X103195476Y-136691666D01*
X163012380Y-70635952D02*
X163012380Y-70064523D01*
X163012380Y-70350238D02*
X162012380Y-70350238D01*
X162155238Y-70255000D01*
X162250476Y-70159761D01*
X162298095Y-70064523D01*
X162012380Y-71255000D02*
X162012380Y-71350238D01*
X162060000Y-71445476D01*
X162107619Y-71493095D01*
X162202857Y-71540714D01*
X162393333Y-71588333D01*
X162631428Y-71588333D01*
X162821904Y-71540714D01*
X162917142Y-71493095D01*
X162964761Y-71445476D01*
X163012380Y-71350238D01*
X163012380Y-71255000D01*
X162964761Y-71159761D01*
X162917142Y-71112142D01*
X162821904Y-71064523D01*
X162631428Y-71016904D01*
X162393333Y-71016904D01*
X162202857Y-71064523D01*
X162107619Y-71112142D01*
X162060000Y-71159761D01*
X162012380Y-71255000D01*
X162012380Y-72207380D02*
X162012380Y-72302619D01*
X162060000Y-72397857D01*
X162107619Y-72445476D01*
X162202857Y-72493095D01*
X162393333Y-72540714D01*
X162631428Y-72540714D01*
X162821904Y-72493095D01*
X162917142Y-72445476D01*
X162964761Y-72397857D01*
X163012380Y-72302619D01*
X163012380Y-72207380D01*
X162964761Y-72112142D01*
X162917142Y-72064523D01*
X162821904Y-72016904D01*
X162631428Y-71969285D01*
X162393333Y-71969285D01*
X162202857Y-72016904D01*
X162107619Y-72064523D01*
X162060000Y-72112142D01*
X162012380Y-72207380D01*
X162345714Y-72969285D02*
X163012380Y-72969285D01*
X162440952Y-72969285D02*
X162393333Y-73016904D01*
X162345714Y-73112142D01*
X162345714Y-73255000D01*
X162393333Y-73350238D01*
X162488571Y-73397857D01*
X163012380Y-73397857D01*
X103957380Y-91590952D02*
X103957380Y-91019523D01*
X103957380Y-91305238D02*
X102957380Y-91305238D01*
X103100238Y-91210000D01*
X103195476Y-91114761D01*
X103243095Y-91019523D01*
X102957380Y-92210000D02*
X102957380Y-92305238D01*
X103005000Y-92400476D01*
X103052619Y-92448095D01*
X103147857Y-92495714D01*
X103338333Y-92543333D01*
X103576428Y-92543333D01*
X103766904Y-92495714D01*
X103862142Y-92448095D01*
X103909761Y-92400476D01*
X103957380Y-92305238D01*
X103957380Y-92210000D01*
X103909761Y-92114761D01*
X103862142Y-92067142D01*
X103766904Y-92019523D01*
X103576428Y-91971904D01*
X103338333Y-91971904D01*
X103147857Y-92019523D01*
X103052619Y-92067142D01*
X103005000Y-92114761D01*
X102957380Y-92210000D01*
X102957380Y-93162380D02*
X102957380Y-93257619D01*
X103005000Y-93352857D01*
X103052619Y-93400476D01*
X103147857Y-93448095D01*
X103338333Y-93495714D01*
X103576428Y-93495714D01*
X103766904Y-93448095D01*
X103862142Y-93400476D01*
X103909761Y-93352857D01*
X103957380Y-93257619D01*
X103957380Y-93162380D01*
X103909761Y-93067142D01*
X103862142Y-93019523D01*
X103766904Y-92971904D01*
X103576428Y-92924285D01*
X103338333Y-92924285D01*
X103147857Y-92971904D01*
X103052619Y-93019523D01*
X103005000Y-93067142D01*
X102957380Y-93162380D01*
X103290714Y-93924285D02*
X103957380Y-93924285D01*
X103385952Y-93924285D02*
X103338333Y-93971904D01*
X103290714Y-94067142D01*
X103290714Y-94210000D01*
X103338333Y-94305238D01*
X103433571Y-94352857D01*
X103957380Y-94352857D01*
%LPC*%
D13*
X121920000Y-123190000D03*
D14*
X121920000Y-120650000D03*
X121920000Y-118110000D03*
X121920000Y-115570000D03*
X121920000Y-113030000D03*
X121920000Y-110490000D03*
X121920000Y-107950000D03*
X121920000Y-105410000D03*
X121920000Y-102870000D03*
X121920000Y-100330000D03*
X121920000Y-97790000D03*
X121920000Y-95250000D03*
X121920000Y-92710000D03*
X121920000Y-90170000D03*
X106680000Y-90170000D03*
X106680000Y-92710000D03*
X106680000Y-95250000D03*
X106680000Y-97790000D03*
X106680000Y-100330000D03*
X106680000Y-102870000D03*
X106680000Y-105410000D03*
X106680000Y-107950000D03*
X106680000Y-110490000D03*
X106680000Y-113030000D03*
X106680000Y-115570000D03*
X106680000Y-118110000D03*
X106680000Y-120650000D03*
X106680000Y-123190000D03*
D15*
X158115000Y-69255000D03*
X158115000Y-74255000D03*
X158115000Y-81280000D03*
X158115000Y-76280000D03*
X103505000Y-130830000D03*
D14*
X103505000Y-120670000D03*
D13*
X121920000Y-158750000D03*
D14*
X121920000Y-156210000D03*
X121920000Y-153670000D03*
X121920000Y-151130000D03*
X121920000Y-148590000D03*
X121920000Y-146050000D03*
X121920000Y-143510000D03*
X121920000Y-140970000D03*
X121920000Y-138430000D03*
X121920000Y-135890000D03*
X121920000Y-133350000D03*
X121920000Y-130810000D03*
X121920000Y-128270000D03*
X121920000Y-125730000D03*
X106680000Y-125730000D03*
X106680000Y-128270000D03*
X106680000Y-130810000D03*
X106680000Y-133350000D03*
X106680000Y-135890000D03*
X106680000Y-138430000D03*
X106680000Y-140970000D03*
X106680000Y-143510000D03*
X106680000Y-146050000D03*
X106680000Y-148590000D03*
X106680000Y-151130000D03*
X106680000Y-153670000D03*
X106680000Y-156210000D03*
X106680000Y-158750000D03*
D13*
X154955000Y-69845000D03*
D14*
X152415000Y-69845000D03*
X149875000Y-69845000D03*
X147335000Y-69845000D03*
X144795000Y-69845000D03*
X142255000Y-69845000D03*
X139715000Y-69845000D03*
X137175000Y-69845000D03*
X134635000Y-69845000D03*
X132095000Y-69845000D03*
X129555000Y-69845000D03*
X127015000Y-69845000D03*
X124475000Y-69845000D03*
X121935000Y-69845000D03*
X121935000Y-85085000D03*
X124475000Y-85085000D03*
X127015000Y-85085000D03*
X129555000Y-85085000D03*
X132095000Y-85085000D03*
X134635000Y-85085000D03*
X137175000Y-85085000D03*
X139715000Y-85085000D03*
X142255000Y-85085000D03*
X144795000Y-85085000D03*
X147335000Y-85085000D03*
X149875000Y-85085000D03*
X152415000Y-85085000D03*
X154955000Y-85085000D03*
D16*
X158115000Y-85090000D03*
D17*
X160655000Y-85090000D03*
D16*
X113665000Y-94630000D03*
D17*
X113665000Y-97170000D03*
X113665000Y-99710000D03*
D15*
X103505000Y-107950000D03*
D14*
X103505000Y-97790000D03*
D15*
X173990000Y-82550000D03*
D14*
X163830000Y-82550000D03*
D15*
X103505000Y-146050000D03*
D14*
X103505000Y-156210000D03*
D15*
X103505000Y-143510000D03*
D14*
X103505000Y-133350000D03*
D18*
X116800000Y-71120000D03*
X111800000Y-73620000D03*
X116800000Y-76120000D03*
D16*
X113665000Y-109855000D03*
D17*
X113665000Y-112395000D03*
X113665000Y-114935000D03*
D16*
X177165000Y-71120000D03*
D17*
X177165000Y-73660000D03*
X177165000Y-76200000D03*
D15*
X162560000Y-69215000D03*
X162560000Y-74215000D03*
D19*
X161925000Y-78105000D03*
D15*
X103505000Y-90210000D03*
X103505000Y-95210000D03*
D19*
X114300000Y-154940000D03*
D16*
X177165000Y-80010000D03*
D17*
X177165000Y-82550000D03*
X177165000Y-85090000D03*
D18*
X167045000Y-77405000D03*
X172045000Y-74905000D03*
X167045000Y-72405000D03*
M02*
