M48
; DRILL file {KiCad (6.0.5)} date Mon Jan  2 22:47:54 2023
; FORMAT={-:-/ absolute / metric / decimal}
; #@! TF.CreationDate,2023-01-02T22:47:54+01:00
; #@! TF.GenerationSoftware,Kicad,Pcbnew,(6.0.5)
; #@! TF.FileFunction,Plated,1,2,PTH
FMAT,2
METRIC
; #@! TA.AperFunction,Plated,PTH,ViaDrill
T1C0.400
; #@! TA.AperFunction,Plated,PTH,ComponentDrill
T2C0.800
; #@! TA.AperFunction,Plated,PTH,ComponentDrill
T3C1.000
; #@! TA.AperFunction,Plated,PTH,ComponentDrill
T4C1.300
%
G90
G05
T1
X104.299Y-93.623
X108.995Y-135.497
X109.455Y-133.301
X110.319Y-90.576
X110.945Y-89.909
X111.099Y-97.79
X111.344Y-114.898
X111.646Y-88.44
X111.748Y-98.887
X113.022Y-89.736
X113.671Y-87.772
X114.227Y-107.575
X114.962Y-122.285
X115.559Y-86.642
X115.758Y-80.954
X116.097Y-123.554
X116.242Y-126.828
X116.329Y-128.978
X116.454Y-122.132
X116.935Y-99.271
X117.288Y-80.283
X117.449Y-97.577
X117.468Y-132.821
X117.56Y-136.088
X117.733Y-78.769
X117.867Y-103.755
X117.885Y-102.832
X118.537Y-78.896
X118.786Y-146.023
X119.211Y-147.282
X119.225Y-75.284
X119.261Y-94.748
X119.6Y-78.783
X120.043Y-80.535
X120.211Y-77.082
X120.506Y-150.501
T2
X103.505Y-90.21
X103.505Y-95.21
X103.505Y-97.79
X103.505Y-107.95
X103.505Y-120.67
X103.505Y-130.83
X103.505Y-133.35
X103.505Y-143.51
X103.505Y-146.05
X103.505Y-156.21
X106.68Y-90.17
X106.68Y-92.71
X106.68Y-95.25
X106.68Y-97.79
X106.68Y-100.33
X106.68Y-102.87
X106.68Y-105.41
X106.68Y-107.95
X106.68Y-110.49
X106.68Y-113.03
X106.68Y-115.57
X106.68Y-118.11
X106.68Y-120.65
X106.68Y-123.19
X106.68Y-125.73
X106.68Y-128.27
X106.68Y-130.81
X106.68Y-133.35
X106.68Y-135.89
X106.68Y-138.43
X106.68Y-140.97
X106.68Y-143.51
X106.68Y-146.05
X106.68Y-148.59
X106.68Y-151.13
X106.68Y-153.67
X106.68Y-156.21
X106.68Y-158.75
X121.92Y-90.17
X121.92Y-92.71
X121.92Y-95.25
X121.92Y-97.79
X121.92Y-100.33
X121.92Y-102.87
X121.92Y-105.41
X121.92Y-107.95
X121.92Y-110.49
X121.92Y-113.03
X121.92Y-115.57
X121.92Y-118.11
X121.92Y-120.65
X121.92Y-123.19
X121.92Y-125.73
X121.92Y-128.27
X121.92Y-130.81
X121.92Y-133.35
X121.92Y-135.89
X121.92Y-138.43
X121.92Y-140.97
X121.92Y-143.51
X121.92Y-146.05
X121.92Y-148.59
X121.92Y-151.13
X121.92Y-153.67
X121.92Y-156.21
X121.92Y-158.75
X121.935Y-69.845
X121.935Y-85.085
X124.475Y-69.845
X124.475Y-85.085
X127.015Y-69.845
X127.015Y-85.085
X129.555Y-69.845
X129.555Y-85.085
X132.095Y-69.845
X132.095Y-85.085
X134.635Y-69.845
X134.635Y-85.085
X137.175Y-69.845
X137.175Y-85.085
X139.715Y-69.845
X139.715Y-85.085
X142.255Y-69.845
X142.255Y-85.085
X144.795Y-69.845
X144.795Y-85.085
X147.335Y-69.845
X147.335Y-85.085
X149.875Y-69.845
X149.875Y-85.085
X152.415Y-69.845
X152.415Y-85.085
X154.955Y-69.845
X154.955Y-85.085
X158.115Y-69.255
X158.115Y-74.255
X158.115Y-76.28
X158.115Y-81.28
X162.56Y-69.215
X162.56Y-74.215
X163.83Y-82.55
X173.99Y-82.55
T3
X113.665Y-94.63
X113.665Y-97.17
X113.665Y-99.71
X113.665Y-109.855
X113.665Y-112.395
X113.665Y-114.935
X158.115Y-85.09
X160.655Y-85.09
X177.165Y-71.12
X177.165Y-73.66
X177.165Y-76.2
X177.165Y-80.01
X177.165Y-82.55
X177.165Y-85.09
T4
X111.8Y-73.62
X116.8Y-71.12
X116.8Y-76.12
X167.045Y-72.405
X167.045Y-77.405
X172.045Y-74.905
T0
M30
