G04 #@! TF.GenerationSoftware,KiCad,Pcbnew,(6.0.5)*
G04 #@! TF.CreationDate,2023-01-02T22:47:36+01:00*
G04 #@! TF.ProjectId,C128DCR Dual SID,43313238-4443-4522-9044-75616c205349,D*
G04 #@! TF.SameCoordinates,Original*
G04 #@! TF.FileFunction,Copper,L1,Top*
G04 #@! TF.FilePolarity,Positive*
%FSLAX46Y46*%
G04 Gerber Fmt 4.6, Leading zero omitted, Abs format (unit mm)*
G04 Created by KiCad (PCBNEW (6.0.5)) date 2023-01-02 22:47:36*
%MOMM*%
%LPD*%
G01*
G04 APERTURE LIST*
G04 #@! TA.AperFunction,ComponentPad*
%ADD10R,1.600000X1.600000*%
G04 #@! TD*
G04 #@! TA.AperFunction,ComponentPad*
%ADD11O,1.600000X1.600000*%
G04 #@! TD*
G04 #@! TA.AperFunction,ComponentPad*
%ADD12C,1.600000*%
G04 #@! TD*
G04 #@! TA.AperFunction,ComponentPad*
%ADD13R,1.700000X1.700000*%
G04 #@! TD*
G04 #@! TA.AperFunction,ComponentPad*
%ADD14O,1.700000X1.700000*%
G04 #@! TD*
G04 #@! TA.AperFunction,ComponentPad*
%ADD15C,2.340000*%
G04 #@! TD*
G04 #@! TA.AperFunction,ViaPad*
%ADD16C,0.600000*%
G04 #@! TD*
G04 #@! TA.AperFunction,Conductor*
%ADD17C,0.250000*%
G04 #@! TD*
G04 APERTURE END LIST*
D10*
X121920000Y-123190000D03*
D11*
X121920000Y-120650000D03*
X121920000Y-118110000D03*
X121920000Y-115570000D03*
X121920000Y-113030000D03*
X121920000Y-110490000D03*
X121920000Y-107950000D03*
X121920000Y-105410000D03*
X121920000Y-102870000D03*
X121920000Y-100330000D03*
X121920000Y-97790000D03*
X121920000Y-95250000D03*
X121920000Y-92710000D03*
X121920000Y-90170000D03*
X106680000Y-90170000D03*
X106680000Y-92710000D03*
X106680000Y-95250000D03*
X106680000Y-97790000D03*
X106680000Y-100330000D03*
X106680000Y-102870000D03*
X106680000Y-105410000D03*
X106680000Y-107950000D03*
X106680000Y-110490000D03*
X106680000Y-113030000D03*
X106680000Y-115570000D03*
X106680000Y-118110000D03*
X106680000Y-120650000D03*
X106680000Y-123190000D03*
D12*
X158115000Y-69255000D03*
X158115000Y-74255000D03*
X158115000Y-81280000D03*
X158115000Y-76280000D03*
X103505000Y-130830000D03*
D11*
X103505000Y-120670000D03*
D10*
X121920000Y-158750000D03*
D11*
X121920000Y-156210000D03*
X121920000Y-153670000D03*
X121920000Y-151130000D03*
X121920000Y-148590000D03*
X121920000Y-146050000D03*
X121920000Y-143510000D03*
X121920000Y-140970000D03*
X121920000Y-138430000D03*
X121920000Y-135890000D03*
X121920000Y-133350000D03*
X121920000Y-130810000D03*
X121920000Y-128270000D03*
X121920000Y-125730000D03*
X106680000Y-125730000D03*
X106680000Y-128270000D03*
X106680000Y-130810000D03*
X106680000Y-133350000D03*
X106680000Y-135890000D03*
X106680000Y-138430000D03*
X106680000Y-140970000D03*
X106680000Y-143510000D03*
X106680000Y-146050000D03*
X106680000Y-148590000D03*
X106680000Y-151130000D03*
X106680000Y-153670000D03*
X106680000Y-156210000D03*
X106680000Y-158750000D03*
D10*
X154955000Y-69845000D03*
D11*
X152415000Y-69845000D03*
X149875000Y-69845000D03*
X147335000Y-69845000D03*
X144795000Y-69845000D03*
X142255000Y-69845000D03*
X139715000Y-69845000D03*
X137175000Y-69845000D03*
X134635000Y-69845000D03*
X132095000Y-69845000D03*
X129555000Y-69845000D03*
X127015000Y-69845000D03*
X124475000Y-69845000D03*
X121935000Y-69845000D03*
X121935000Y-85085000D03*
X124475000Y-85085000D03*
X127015000Y-85085000D03*
X129555000Y-85085000D03*
X132095000Y-85085000D03*
X134635000Y-85085000D03*
X137175000Y-85085000D03*
X139715000Y-85085000D03*
X142255000Y-85085000D03*
X144795000Y-85085000D03*
X147335000Y-85085000D03*
X149875000Y-85085000D03*
X152415000Y-85085000D03*
X154955000Y-85085000D03*
D13*
X158115000Y-85090000D03*
D14*
X160655000Y-85090000D03*
D13*
X113665000Y-94630000D03*
D14*
X113665000Y-97170000D03*
X113665000Y-99710000D03*
D12*
X103505000Y-107950000D03*
D11*
X103505000Y-97790000D03*
D12*
X173990000Y-82550000D03*
D11*
X163830000Y-82550000D03*
D12*
X103505000Y-146050000D03*
D11*
X103505000Y-156210000D03*
D12*
X103505000Y-143510000D03*
D11*
X103505000Y-133350000D03*
D15*
X116800000Y-71120000D03*
X111800000Y-73620000D03*
X116800000Y-76120000D03*
D13*
X113665000Y-109855000D03*
D14*
X113665000Y-112395000D03*
X113665000Y-114935000D03*
D13*
X177165000Y-71120000D03*
D14*
X177165000Y-73660000D03*
X177165000Y-76200000D03*
D12*
X162560000Y-69215000D03*
X162560000Y-74215000D03*
X103505000Y-90210000D03*
X103505000Y-95210000D03*
D13*
X177165000Y-80010000D03*
D14*
X177165000Y-82550000D03*
X177165000Y-85090000D03*
D15*
X167045000Y-77405000D03*
X172045000Y-74905000D03*
X167045000Y-72405000D03*
D16*
X109455200Y-133301200D03*
X120506300Y-150500800D03*
X115559300Y-86642200D03*
X114226800Y-107574500D03*
X119210900Y-147281600D03*
X117287600Y-80283300D03*
X116935500Y-99271500D03*
X111344300Y-114897900D03*
X111645600Y-88439800D03*
X118786400Y-146023200D03*
X117866600Y-103755100D03*
X119600000Y-78783500D03*
X115757800Y-80954200D03*
X120042700Y-80534800D03*
X114961600Y-122285500D03*
X117449400Y-97576800D03*
X117732500Y-78769500D03*
X116328800Y-128977700D03*
X119260900Y-94747500D03*
X120210900Y-77082500D03*
X119225000Y-75284000D03*
X116242300Y-126828300D03*
X116097300Y-123554200D03*
X116454200Y-122131700D03*
X110319500Y-90575600D03*
X113022300Y-89736400D03*
X111098900Y-97790000D03*
X110944900Y-89909000D03*
X108995500Y-135497200D03*
X113671100Y-87771600D03*
X111748500Y-98887300D03*
X117560400Y-136088500D03*
X117885000Y-102832500D03*
X118537200Y-78896200D03*
X117467500Y-132820900D03*
X104299000Y-93622500D03*
D17*
X121727200Y-124315300D02*
X121920000Y-124315300D01*
X120794700Y-125247800D02*
X121727200Y-124315300D01*
X120794700Y-149126000D02*
X120794700Y-125247800D01*
X121920000Y-123190000D02*
X121920000Y-124315300D01*
X121528700Y-149860000D02*
X120794700Y-149126000D01*
X123089700Y-150694000D02*
X122255700Y-149860000D01*
X122255700Y-149860000D02*
X121528700Y-149860000D01*
X122201300Y-157624700D02*
X123089700Y-156736300D01*
X121920000Y-158750000D02*
X121920000Y-157624700D01*
X123089700Y-156736300D02*
X123089700Y-150694000D01*
X121920000Y-157624700D02*
X122201300Y-157624700D01*
X106961300Y-106535300D02*
X109644200Y-109218200D01*
X109644200Y-133112200D02*
X109455200Y-133301200D01*
X106680000Y-106535300D02*
X106961300Y-106535300D01*
X109644200Y-109218200D02*
X109644200Y-133112200D01*
X106680000Y-105410000D02*
X106680000Y-106535300D01*
X120681900Y-122310000D02*
X121216600Y-121775300D01*
X120506300Y-150500800D02*
X120325100Y-150319600D01*
X121920000Y-120650000D02*
X121920000Y-121775300D01*
X120325100Y-124240400D02*
X120681900Y-123883600D01*
X121216600Y-121775300D02*
X121920000Y-121775300D01*
X120325100Y-150319600D02*
X120325100Y-124240400D01*
X120681900Y-123883600D02*
X120681900Y-122310000D01*
X107805400Y-149058600D02*
X107148600Y-149715400D01*
X106680000Y-143510000D02*
X107805400Y-144635400D01*
X114840300Y-115756100D02*
X114840300Y-108188000D01*
X113509400Y-148450600D02*
X113509400Y-117087000D01*
X106205900Y-154840100D02*
X107119900Y-154840100D01*
X105506500Y-154140700D02*
X106205900Y-154840100D01*
X114226800Y-102192000D02*
X114226800Y-107574500D01*
X115330800Y-101088000D02*
X114226800Y-102192000D01*
X115559300Y-86642200D02*
X115330800Y-86870700D01*
X114840300Y-108188000D02*
X114226800Y-107574500D01*
X106494600Y-149715400D02*
X105506500Y-150703500D01*
X107119900Y-154840100D02*
X113509400Y-148450600D01*
X107805400Y-144635400D02*
X107805400Y-149058600D01*
X107148600Y-149715400D02*
X106494600Y-149715400D01*
X113509400Y-117087000D02*
X114840300Y-115756100D01*
X105506500Y-150703500D02*
X105506500Y-154140700D01*
X115330800Y-86870700D02*
X115330800Y-101088000D01*
X120231600Y-120642400D02*
X121638700Y-119235300D01*
X121920000Y-118110000D02*
X121920000Y-119235300D01*
X121638700Y-152544700D02*
X119874800Y-150780800D01*
X120231600Y-123697000D02*
X120231600Y-120642400D01*
X119874800Y-150780800D02*
X119874800Y-124053800D01*
X121920000Y-152544700D02*
X121638700Y-152544700D01*
X121920000Y-153670000D02*
X121920000Y-152544700D01*
X119874800Y-124053800D02*
X120231600Y-123697000D01*
X121638700Y-119235300D02*
X121920000Y-119235300D01*
X108728100Y-113382100D02*
X108728100Y-130354000D01*
X108728100Y-130354000D02*
X107002100Y-132080000D01*
X106314100Y-132080000D02*
X105506300Y-132887800D01*
X106398700Y-144924700D02*
X106680000Y-144924700D01*
X106680000Y-110490000D02*
X106680000Y-111615300D01*
X106680000Y-111615300D02*
X106961300Y-111615300D01*
X105506300Y-132887800D02*
X105506300Y-144032300D01*
X105506300Y-144032300D02*
X106398700Y-144924700D01*
X106961300Y-111615300D02*
X108728100Y-113382100D01*
X107002100Y-132080000D02*
X106314100Y-132080000D01*
X106680000Y-146050000D02*
X106680000Y-144924700D01*
X116884500Y-80686400D02*
X116884500Y-97257400D01*
X116824100Y-99160100D02*
X116935500Y-99271500D01*
X117287600Y-80283300D02*
X116884500Y-80686400D01*
X121920000Y-113030000D02*
X121920000Y-114155300D01*
X119781300Y-116012600D02*
X121638600Y-114155300D01*
X121638600Y-114155300D02*
X121920000Y-114155300D01*
X119424500Y-123867200D02*
X119781300Y-123510400D01*
X116824100Y-97317800D02*
X116824100Y-99160100D01*
X119210900Y-147281600D02*
X119424500Y-147068000D01*
X119424500Y-147068000D02*
X119424500Y-123867200D01*
X119781300Y-123510400D02*
X119781300Y-116012600D01*
X116884500Y-97257400D02*
X116824100Y-97317800D01*
X159102500Y-86275200D02*
X149369200Y-86275200D01*
X110449300Y-102655700D02*
X111344300Y-103550700D01*
X159479700Y-85898000D02*
X159102500Y-86275200D01*
X147335000Y-85085000D02*
X148460300Y-85085000D01*
X149369200Y-86275200D02*
X148460300Y-85366300D01*
X110449300Y-92254100D02*
X110449300Y-102655700D01*
X106680000Y-151130000D02*
X111344300Y-146465700D01*
X160655000Y-85090000D02*
X159479700Y-85090000D01*
X111344300Y-103550700D02*
X111344300Y-114897900D01*
X111645600Y-91057800D02*
X110449300Y-92254100D01*
X111645600Y-88439800D02*
X111645600Y-91057800D01*
X111344300Y-146465700D02*
X111344300Y-114897900D01*
X148460300Y-85366300D02*
X148460300Y-85085000D01*
X159479700Y-85090000D02*
X159479700Y-85898000D01*
X121638700Y-111615300D02*
X121920000Y-111615300D01*
X118813500Y-79570000D02*
X118813500Y-80915600D01*
X119343700Y-113910300D02*
X121638700Y-111615300D01*
X119331000Y-114980400D02*
X119343700Y-114967700D01*
X119331000Y-123323800D02*
X119331000Y-114980400D01*
X118813500Y-80915600D02*
X118525100Y-81204000D01*
X118786400Y-146023200D02*
X118974200Y-145835400D01*
X119600000Y-78783500D02*
X118813500Y-79570000D01*
X118525100Y-81204000D02*
X118525100Y-103096600D01*
X118974200Y-123680600D02*
X119331000Y-123323800D01*
X121920000Y-110490000D02*
X121920000Y-111615300D01*
X118974200Y-145835400D02*
X118974200Y-123680600D01*
X119343700Y-114967700D02*
X119343700Y-113910300D01*
X118525100Y-103096600D02*
X117866600Y-103755100D01*
X114305500Y-91472300D02*
X114305500Y-82406500D01*
X112473800Y-97710800D02*
X112473800Y-93304000D01*
X112473800Y-93304000D02*
X114305500Y-91472300D01*
X113297700Y-98534700D02*
X112473800Y-97710800D01*
X114305500Y-82406500D02*
X115757800Y-80954200D01*
X113665000Y-98534700D02*
X113297700Y-98534700D01*
X113665000Y-99710000D02*
X113665000Y-98534700D01*
X106680000Y-157624700D02*
X106398700Y-157624700D01*
X118975400Y-103729100D02*
X115741000Y-106963500D01*
X119886200Y-96187900D02*
X118975400Y-97098700D01*
X115741000Y-121506100D02*
X114961600Y-122285500D01*
X105010500Y-156236500D02*
X105010500Y-124859500D01*
X118975400Y-97098700D02*
X118975400Y-103729100D01*
X106398700Y-157624700D02*
X105010500Y-156236500D01*
X105010500Y-124859500D02*
X106680000Y-123190000D01*
X119886200Y-80691300D02*
X119886200Y-96187900D01*
X106680000Y-158750000D02*
X106680000Y-157624700D01*
X120042700Y-80534800D02*
X119886200Y-80691300D01*
X115741000Y-106963500D02*
X115741000Y-121506100D01*
X117623300Y-127683200D02*
X117623300Y-123120800D01*
X117732500Y-78769500D02*
X117732500Y-79843800D01*
X117623300Y-123120800D02*
X117980100Y-122764000D01*
X120794700Y-104808400D02*
X121607800Y-103995300D01*
X117992800Y-114407900D02*
X117992800Y-107881500D01*
X120794700Y-105079600D02*
X120794700Y-104808400D01*
X121920000Y-102870000D02*
X121920000Y-103995300D01*
X117912900Y-80024200D02*
X117912900Y-80542400D01*
X117912900Y-80542400D02*
X117449400Y-81005900D01*
X116328800Y-128977700D02*
X117623300Y-127683200D01*
X117980100Y-122764000D02*
X117980100Y-114420600D01*
X117732500Y-79843800D02*
X117912900Y-80024200D01*
X117449400Y-81005900D02*
X117449400Y-97576800D01*
X121607800Y-103995300D02*
X121920000Y-103995300D01*
X117992800Y-107881500D02*
X120794700Y-105079600D01*
X117980100Y-114420600D02*
X117992800Y-114407900D01*
X123045300Y-102299200D02*
X122201400Y-101455300D01*
X119263800Y-80179300D02*
X120243900Y-79199200D01*
X122201300Y-134764700D02*
X123045300Y-133920700D01*
X119263800Y-94744600D02*
X119263800Y-80179300D01*
X121920000Y-135890000D02*
X121920000Y-134764700D01*
X120243900Y-79199200D02*
X120243900Y-77115500D01*
X123045300Y-133920700D02*
X123045300Y-102299200D01*
X122201400Y-101455300D02*
X121920000Y-101455300D01*
X120243900Y-77115500D02*
X120210900Y-77082500D01*
X121920000Y-100330000D02*
X121920000Y-101455300D01*
X121920000Y-134764700D02*
X122201300Y-134764700D01*
X119260900Y-94747500D02*
X119263800Y-94744600D01*
X117542500Y-107599700D02*
X120332800Y-104809400D01*
X114308700Y-122589400D02*
X115472000Y-123752700D01*
X117529800Y-114234000D02*
X117542400Y-114221400D01*
X115781200Y-101345500D02*
X115781200Y-101864100D01*
X116722700Y-123850900D02*
X116722700Y-123384500D01*
X115898800Y-124179500D02*
X116146500Y-124427100D01*
X117542400Y-114221400D02*
X117542400Y-114124200D01*
X116184600Y-87164000D02*
X116006400Y-87342200D01*
X115472000Y-123813200D02*
X115838300Y-124179500D01*
X116184600Y-86436700D02*
X116184600Y-87164000D01*
X116242300Y-124523000D02*
X116242300Y-126828300D01*
X117529800Y-122577400D02*
X117529800Y-114234000D01*
X119225000Y-76091100D02*
X116383100Y-78933000D01*
X117542500Y-114124100D02*
X117542500Y-107599700D01*
X116274500Y-81321900D02*
X116274500Y-86346800D01*
X116146500Y-124427100D02*
X116722700Y-123850900D01*
X115290600Y-102354700D02*
X115290600Y-117509000D01*
X116146500Y-124427100D02*
X116242300Y-124523000D01*
X120332800Y-100221100D02*
X121638600Y-98915300D01*
X116006400Y-87342200D02*
X116006400Y-101120300D01*
X115781200Y-101864100D02*
X115290600Y-102354700D01*
X121920000Y-97790000D02*
X121920000Y-98915300D01*
X114840400Y-120772100D02*
X114840400Y-121233600D01*
X116006400Y-101120300D02*
X115781200Y-101345500D01*
X117542400Y-114124200D02*
X117542500Y-114124100D01*
X114840400Y-121233600D02*
X114308700Y-121765300D01*
X120332800Y-104809400D02*
X120332800Y-100221100D01*
X121638600Y-98915300D02*
X121920000Y-98915300D01*
X116722700Y-123384500D02*
X117529800Y-122577400D01*
X114921500Y-117878100D02*
X114921500Y-120691000D01*
X116274500Y-86346800D02*
X116184600Y-86436700D01*
X115290600Y-117509000D02*
X114921500Y-117878100D01*
X114308700Y-121765300D02*
X114308700Y-122589400D01*
X116383100Y-81213300D02*
X116274500Y-81321900D01*
X116383100Y-78933000D02*
X116383100Y-81213300D01*
X115838300Y-124179500D02*
X115898800Y-124179500D01*
X119225000Y-75284000D02*
X119225000Y-76091100D01*
X115472000Y-123752700D02*
X115472000Y-123813200D01*
X114921500Y-120691000D02*
X114840400Y-120772100D01*
X127015000Y-70970300D02*
X123090800Y-74894500D01*
X123090800Y-93235200D02*
X122201300Y-94124700D01*
X121920000Y-95250000D02*
X121920000Y-96375300D01*
X122201300Y-94124700D02*
X121920000Y-94124700D01*
X117079500Y-122390800D02*
X117079500Y-107425800D01*
X121638600Y-96375300D02*
X121920000Y-96375300D01*
X121920000Y-95250000D02*
X121920000Y-94124700D01*
X119882500Y-98131400D02*
X121638600Y-96375300D01*
X127015000Y-69845000D02*
X127015000Y-70970300D01*
X116097300Y-123373000D02*
X117079500Y-122390800D01*
X123090800Y-74894500D02*
X123090800Y-93235200D01*
X119882500Y-104622800D02*
X119882500Y-98131400D01*
X117079500Y-107425800D02*
X119882500Y-104622800D01*
X116097300Y-123554200D02*
X116097300Y-123373000D01*
X123349700Y-69563700D02*
X123349700Y-69845000D01*
X120357800Y-90285600D02*
X120357800Y-81470100D01*
X120858200Y-80969700D02*
X120858200Y-73916500D01*
X119425800Y-97843500D02*
X120336600Y-96932700D01*
X116454200Y-107414200D02*
X119425800Y-104442600D01*
X120357800Y-81470100D02*
X120858200Y-80969700D01*
X122484700Y-68698700D02*
X123349700Y-69563700D01*
X121920000Y-92710000D02*
X121920000Y-91584700D01*
X121486000Y-68698700D02*
X122484700Y-68698700D01*
X124475000Y-69845000D02*
X123349700Y-69845000D01*
X121656900Y-91584700D02*
X120357800Y-90285600D01*
X120802300Y-69382400D02*
X121486000Y-68698700D01*
X120802300Y-73860600D02*
X120802300Y-69382400D01*
X120336600Y-96932700D02*
X120336600Y-94293400D01*
X119425800Y-104442600D02*
X119425800Y-97843500D01*
X120858200Y-73916500D02*
X120802300Y-73860600D01*
X116454200Y-122131700D02*
X116454200Y-107414200D01*
X120336600Y-94293400D02*
X121920000Y-92710000D01*
X121920000Y-91584700D02*
X121656900Y-91584700D01*
X125745000Y-70201800D02*
X125745000Y-69460600D01*
X121935000Y-82734400D02*
X121935000Y-70970300D01*
X124976500Y-70970300D02*
X125745000Y-70201800D01*
X162560000Y-74215000D02*
X163855000Y-74215000D01*
X102372000Y-118411700D02*
X102372000Y-96343000D01*
X102372000Y-96343000D02*
X103505000Y-95210000D01*
X161399400Y-74215000D02*
X162560000Y-74215000D01*
X103505000Y-119544700D02*
X102372000Y-118411700D01*
X103505000Y-120670000D02*
X103505000Y-119544700D01*
X126486000Y-68719600D02*
X155904000Y-68719600D01*
X121920000Y-90170000D02*
X121920000Y-89044700D01*
X125745000Y-69460600D02*
X126486000Y-68719600D01*
X120809700Y-83859700D02*
X121935000Y-82734400D01*
X163855000Y-74215000D02*
X167045000Y-77405000D01*
X120809700Y-87934400D02*
X120809700Y-83859700D01*
X121935000Y-70970300D02*
X124976500Y-70970300D01*
X155904000Y-68719600D02*
X161399400Y-74215000D01*
X121920000Y-89044700D02*
X120809700Y-87934400D01*
X121935000Y-69845000D02*
X121935000Y-70970300D01*
X104630300Y-117657800D02*
X104630300Y-97384100D01*
X106352500Y-119380000D02*
X104630300Y-117657800D01*
X106680000Y-90170000D02*
X106680000Y-91295300D01*
X106680000Y-124604700D02*
X106961400Y-124604700D01*
X107805300Y-120127900D02*
X107057400Y-119380000D01*
X104630300Y-97384100D02*
X105408100Y-96606300D01*
X107057400Y-119380000D02*
X106352500Y-119380000D01*
X107805300Y-123760800D02*
X107805300Y-120127900D01*
X106680000Y-125730000D02*
X106680000Y-124604700D01*
X106398700Y-91295300D02*
X106680000Y-91295300D01*
X106961400Y-124604700D02*
X107805300Y-123760800D01*
X105408100Y-96606300D02*
X105408100Y-92285900D01*
X105408100Y-92285900D02*
X106398700Y-91295300D01*
X105080700Y-115597900D02*
X105080700Y-97756700D01*
X106462100Y-96375300D02*
X106680000Y-96375300D01*
X106680000Y-95250000D02*
X106680000Y-96375300D01*
X108277700Y-128368300D02*
X108277700Y-118096800D01*
X106680000Y-129684700D02*
X106961300Y-129684700D01*
X105080700Y-97756700D02*
X106462100Y-96375300D01*
X106680000Y-95250000D02*
X106680000Y-94124700D01*
X106869400Y-94124700D02*
X110319500Y-90674600D01*
X106961300Y-129684700D02*
X108277700Y-128368300D01*
X108277700Y-118096800D02*
X107020900Y-116840000D01*
X110319500Y-90674600D02*
X110319500Y-90575600D01*
X106680000Y-130810000D02*
X106680000Y-129684700D01*
X106680000Y-94124700D02*
X106869400Y-94124700D01*
X106322800Y-116840000D02*
X105080700Y-115597900D01*
X107020900Y-116840000D02*
X106322800Y-116840000D01*
X109193800Y-111338700D02*
X109193800Y-130836200D01*
X111098900Y-92340900D02*
X111098900Y-97790000D01*
X106680000Y-98915300D02*
X106398600Y-98915300D01*
X106213800Y-109075300D02*
X106930400Y-109075300D01*
X106930400Y-109075300D02*
X109193800Y-111338700D01*
X109193800Y-130836200D02*
X106680000Y-133350000D01*
X113022300Y-90417500D02*
X111098900Y-92340900D01*
X106398600Y-98915300D02*
X105554700Y-99759200D01*
X113022300Y-89736400D02*
X113022300Y-90417500D01*
X105554700Y-108416200D02*
X106213800Y-109075300D01*
X105554700Y-99759200D02*
X105554700Y-108416200D01*
X106680000Y-97790000D02*
X106680000Y-98915300D01*
X110944900Y-90834700D02*
X110944900Y-89909000D01*
X110565400Y-106412400D02*
X107805300Y-103652300D01*
X107805300Y-100330000D02*
X107805300Y-93974300D01*
X106680000Y-100330000D02*
X107805300Y-100330000D01*
X107805300Y-93974300D02*
X110944900Y-90834700D01*
X108995500Y-135497200D02*
X110565400Y-133927300D01*
X110565400Y-133927300D02*
X110565400Y-106412400D01*
X107805300Y-103652300D02*
X107805300Y-100330000D01*
X106680000Y-103995300D02*
X106872800Y-103995300D01*
X106680000Y-102870000D02*
X106680000Y-103995300D01*
X108824500Y-134871900D02*
X108736500Y-134871900D01*
X107805300Y-136460800D02*
X106961400Y-137304700D01*
X111748500Y-92427700D02*
X113671100Y-90505100D01*
X111748500Y-98887300D02*
X111748500Y-92427700D01*
X106961400Y-137304700D02*
X106680000Y-137304700D01*
X107805300Y-135803100D02*
X107805300Y-136460800D01*
X106680000Y-138430000D02*
X106680000Y-137304700D01*
X106872800Y-103995300D02*
X110115000Y-107237500D01*
X113671100Y-90505100D02*
X113671100Y-87771600D01*
X110115000Y-107237500D02*
X110115000Y-133581400D01*
X110115000Y-133581400D02*
X108824500Y-134871900D01*
X108736500Y-134871900D02*
X107805300Y-135803100D01*
X158115000Y-81280000D02*
X154955000Y-78120000D01*
X154955000Y-78120000D02*
X154955000Y-69845000D01*
X118074800Y-81017400D02*
X118074800Y-102642700D01*
X121920000Y-107950000D02*
X121920000Y-109075300D01*
X117560400Y-136088500D02*
X118523900Y-135125000D01*
X118363200Y-79070200D02*
X118363200Y-80729000D01*
X118363200Y-80729000D02*
X118074800Y-81017400D01*
X118880700Y-114793800D02*
X118893400Y-114781100D01*
X121638700Y-109075300D02*
X121920000Y-109075300D01*
X118893400Y-114781100D02*
X118893400Y-111820600D01*
X118880700Y-123137200D02*
X118880700Y-114793800D01*
X118074800Y-102642700D02*
X117885000Y-102832500D01*
X118523900Y-123494000D02*
X118880700Y-123137200D01*
X118893400Y-111820600D02*
X121638700Y-109075300D01*
X118537200Y-78896200D02*
X118363200Y-79070200D01*
X118523900Y-135125000D02*
X118523900Y-123494000D01*
X106680000Y-153670000D02*
X106680000Y-152544700D01*
X106961300Y-152544700D02*
X112489700Y-147016300D01*
X112489700Y-147016300D02*
X112489700Y-114378200D01*
X106680000Y-152544700D02*
X106961300Y-152544700D01*
X113297600Y-113570300D02*
X113665000Y-113570300D01*
X113665000Y-112395000D02*
X113665000Y-113570300D01*
X112489700Y-114378200D02*
X113297600Y-113570300D01*
X118430400Y-122950600D02*
X118430400Y-114607200D01*
X118443100Y-109819400D02*
X121727200Y-106535300D01*
X118073600Y-132214800D02*
X118073600Y-123307400D01*
X117467500Y-132820900D02*
X118073600Y-132214800D01*
X118073600Y-123307400D02*
X118430400Y-122950600D01*
X121727200Y-106535300D02*
X121920000Y-106535300D01*
X121920000Y-105410000D02*
X121920000Y-106535300D01*
X118430400Y-114607200D02*
X118443100Y-114594500D01*
X118443100Y-114594500D02*
X118443100Y-109819400D01*
X156939700Y-85090000D02*
X142820000Y-70970300D01*
X142820000Y-70970300D02*
X139144200Y-70970300D01*
X138300300Y-70126400D02*
X138300300Y-69845000D01*
X158115000Y-85090000D02*
X156939700Y-85090000D01*
X139144200Y-70970300D02*
X138300300Y-70126400D01*
X137175000Y-69845000D02*
X138300300Y-69845000D01*
X106398700Y-121775300D02*
X102364800Y-125809200D01*
X102364800Y-142369800D02*
X103505000Y-143510000D01*
X106680000Y-121775300D02*
X106398700Y-121775300D01*
X106680000Y-120650000D02*
X106680000Y-121775300D01*
X103505000Y-143510000D02*
X103505000Y-146050000D01*
X102364800Y-125809200D02*
X102364800Y-142369800D01*
X103505000Y-130830000D02*
X103505000Y-133350000D01*
X113594600Y-108609300D02*
X113594600Y-102048300D01*
X114842500Y-98347500D02*
X113665000Y-97170000D01*
X113594600Y-102048300D02*
X114842500Y-100800400D01*
X113665000Y-108679700D02*
X113594600Y-108609300D01*
X114842500Y-100800400D02*
X114842500Y-98347500D01*
X113665000Y-109855000D02*
X113665000Y-108679700D01*
X177165000Y-80010000D02*
X177165000Y-78834700D01*
X177532300Y-74835300D02*
X178340300Y-75643300D01*
X177165000Y-74835300D02*
X177532300Y-74835300D01*
X178340300Y-77659400D02*
X177165000Y-78834700D01*
X178340300Y-75643300D02*
X178340300Y-77659400D01*
X177165000Y-73660000D02*
X177165000Y-74835300D01*
X175989700Y-85090000D02*
X175989700Y-84549700D01*
X175989700Y-84549700D02*
X173990000Y-82550000D01*
X177165000Y-85090000D02*
X175989700Y-85090000D01*
X103505000Y-97790000D02*
X103505000Y-96664700D01*
X111800000Y-73620000D02*
X111800000Y-83117600D01*
X111800000Y-83117600D02*
X104953400Y-89964200D01*
X104953400Y-95357000D02*
X103645700Y-96664700D01*
X103645700Y-96664700D02*
X103505000Y-96664700D01*
X104953400Y-89964200D02*
X104953400Y-95357000D01*
X104299000Y-93622500D02*
X103505000Y-92828500D01*
X103505000Y-92828500D02*
X103505000Y-90210000D01*
M02*
