%FSLAX45Y45*%
G04 Gerber Fmt 4.5, Leading zero omitted, Abs format (unit mm)*
G04 Created by KiCad (PCBNEW (6.0.5)) date 2023-01-02 22:47:55*
%MOMM*%
%LPD*%
G01*
G04 APERTURE LIST*
%TA.AperFunction,Profile*%
%ADD10C,0.150000*%
%TD*%
%ADD11C,0.200000*%
%ADD12C,0.250000*%
G04 APERTURE END LIST*
D10*
X10541000Y-8890000D02*
X10541000Y-6794500D01*
X17907000Y-8699500D02*
X17907000Y-6794500D01*
X17907000Y-6794500D02*
X10541000Y-6794500D01*
X10096500Y-16002000D02*
X10096500Y-8890000D01*
X10096500Y-8890000D02*
X10541000Y-8890000D01*
X12382500Y-16002000D02*
X12382500Y-8699500D01*
X12382500Y-16002000D02*
X10096500Y-16002000D01*
X12382500Y-8699500D02*
X17907000Y-8699500D01*
D11*
D12*
X11305000Y-15369000D02*
X11555000Y-15619000D01*
X11555000Y-15369000D02*
X11305000Y-15619000D01*
X16067500Y-7685500D02*
X16317500Y-7935500D01*
X16317500Y-7685500D02*
X16067500Y-7935500D01*
D11*
X10346619Y-16319976D02*
X10346619Y-16119976D01*
X10394238Y-16119976D01*
X10422810Y-16129500D01*
X10441857Y-16148548D01*
X10451381Y-16167595D01*
X10460905Y-16205690D01*
X10460905Y-16234262D01*
X10451381Y-16272357D01*
X10441857Y-16291405D01*
X10422810Y-16310452D01*
X10394238Y-16319976D01*
X10346619Y-16319976D01*
X10546619Y-16319976D02*
X10546619Y-16186643D01*
X10546619Y-16224738D02*
X10556143Y-16205690D01*
X10565667Y-16196167D01*
X10584714Y-16186643D01*
X10603762Y-16186643D01*
X10670429Y-16319976D02*
X10670429Y-16186643D01*
X10670429Y-16119976D02*
X10660905Y-16129500D01*
X10670429Y-16139024D01*
X10679952Y-16129500D01*
X10670429Y-16119976D01*
X10670429Y-16139024D01*
X10794238Y-16319976D02*
X10775190Y-16310452D01*
X10765667Y-16291405D01*
X10765667Y-16119976D01*
X10899000Y-16319976D02*
X10879952Y-16310452D01*
X10870429Y-16291405D01*
X10870429Y-16119976D01*
X11127571Y-16319976D02*
X11127571Y-16119976D01*
X11194238Y-16262833D01*
X11260905Y-16119976D01*
X11260905Y-16319976D01*
X11441857Y-16319976D02*
X11441857Y-16215214D01*
X11432333Y-16196167D01*
X11413286Y-16186643D01*
X11375190Y-16186643D01*
X11356143Y-16196167D01*
X11441857Y-16310452D02*
X11422809Y-16319976D01*
X11375190Y-16319976D01*
X11356143Y-16310452D01*
X11346619Y-16291405D01*
X11346619Y-16272357D01*
X11356143Y-16253309D01*
X11375190Y-16243786D01*
X11422809Y-16243786D01*
X11441857Y-16234262D01*
X11537095Y-16186643D02*
X11537095Y-16386643D01*
X11537095Y-16196167D02*
X11556143Y-16186643D01*
X11594238Y-16186643D01*
X11613286Y-16196167D01*
X11622809Y-16205690D01*
X11632333Y-16224738D01*
X11632333Y-16281881D01*
X11622809Y-16300928D01*
X11613286Y-16310452D01*
X11594238Y-16319976D01*
X11556143Y-16319976D01*
X11537095Y-16310452D01*
X11718048Y-16300928D02*
X11727571Y-16310452D01*
X11718048Y-16319976D01*
X11708524Y-16310452D01*
X11718048Y-16300928D01*
X11718048Y-16319976D01*
X11718048Y-16196167D02*
X11727571Y-16205690D01*
X11718048Y-16215214D01*
X11708524Y-16205690D01*
X11718048Y-16196167D01*
X11718048Y-16215214D01*
X9889000Y-16549500D02*
X10089000Y-16749500D01*
X10089000Y-16549500D02*
X9889000Y-16749500D01*
X10337095Y-16559024D02*
X10346619Y-16549500D01*
X10365667Y-16539976D01*
X10413286Y-16539976D01*
X10432333Y-16549500D01*
X10441857Y-16559024D01*
X10451381Y-16578071D01*
X10451381Y-16597119D01*
X10441857Y-16625690D01*
X10327571Y-16739976D01*
X10451381Y-16739976D01*
X10537095Y-16720928D02*
X10546619Y-16730452D01*
X10537095Y-16739976D01*
X10527571Y-16730452D01*
X10537095Y-16720928D01*
X10537095Y-16739976D01*
X10727571Y-16539976D02*
X10632333Y-16539976D01*
X10622810Y-16635214D01*
X10632333Y-16625690D01*
X10651381Y-16616167D01*
X10699000Y-16616167D01*
X10718048Y-16625690D01*
X10727571Y-16635214D01*
X10737095Y-16654262D01*
X10737095Y-16701881D01*
X10727571Y-16720928D01*
X10718048Y-16730452D01*
X10699000Y-16739976D01*
X10651381Y-16739976D01*
X10632333Y-16730452D01*
X10622810Y-16720928D01*
X10860905Y-16539976D02*
X10879952Y-16539976D01*
X10899000Y-16549500D01*
X10908524Y-16559024D01*
X10918048Y-16578071D01*
X10927571Y-16616167D01*
X10927571Y-16663786D01*
X10918048Y-16701881D01*
X10908524Y-16720928D01*
X10899000Y-16730452D01*
X10879952Y-16739976D01*
X10860905Y-16739976D01*
X10841857Y-16730452D01*
X10832333Y-16720928D01*
X10822810Y-16701881D01*
X10813286Y-16663786D01*
X10813286Y-16616167D01*
X10822810Y-16578071D01*
X10832333Y-16559024D01*
X10841857Y-16549500D01*
X10860905Y-16539976D01*
X11051381Y-16539976D02*
X11070429Y-16539976D01*
X11089476Y-16549500D01*
X11099000Y-16559024D01*
X11108524Y-16578071D01*
X11118048Y-16616167D01*
X11118048Y-16663786D01*
X11108524Y-16701881D01*
X11099000Y-16720928D01*
X11089476Y-16730452D01*
X11070429Y-16739976D01*
X11051381Y-16739976D01*
X11032333Y-16730452D01*
X11022810Y-16720928D01*
X11013286Y-16701881D01*
X11003762Y-16663786D01*
X11003762Y-16616167D01*
X11013286Y-16578071D01*
X11022810Y-16559024D01*
X11032333Y-16549500D01*
X11051381Y-16539976D01*
X11203762Y-16739976D02*
X11203762Y-16606643D01*
X11203762Y-16625690D02*
X11213286Y-16616167D01*
X11232333Y-16606643D01*
X11260905Y-16606643D01*
X11279952Y-16616167D01*
X11289476Y-16635214D01*
X11289476Y-16739976D01*
X11289476Y-16635214D02*
X11299000Y-16616167D01*
X11318048Y-16606643D01*
X11346619Y-16606643D01*
X11365667Y-16616167D01*
X11375190Y-16635214D01*
X11375190Y-16739976D01*
X11470428Y-16739976D02*
X11470428Y-16606643D01*
X11470428Y-16625690D02*
X11479952Y-16616167D01*
X11499000Y-16606643D01*
X11527571Y-16606643D01*
X11546619Y-16616167D01*
X11556143Y-16635214D01*
X11556143Y-16739976D01*
X11556143Y-16635214D02*
X11565667Y-16616167D01*
X11584714Y-16606643D01*
X11613286Y-16606643D01*
X11632333Y-16616167D01*
X11641857Y-16635214D01*
X11641857Y-16739976D01*
X12032333Y-16530452D02*
X11860905Y-16787595D01*
X12289476Y-16539976D02*
X12308524Y-16539976D01*
X12327571Y-16549500D01*
X12337095Y-16559024D01*
X12346619Y-16578071D01*
X12356143Y-16616167D01*
X12356143Y-16663786D01*
X12346619Y-16701881D01*
X12337095Y-16720928D01*
X12327571Y-16730452D01*
X12308524Y-16739976D01*
X12289476Y-16739976D01*
X12270428Y-16730452D01*
X12260905Y-16720928D01*
X12251381Y-16701881D01*
X12241857Y-16663786D01*
X12241857Y-16616167D01*
X12251381Y-16578071D01*
X12260905Y-16559024D01*
X12270428Y-16549500D01*
X12289476Y-16539976D01*
X12441857Y-16720928D02*
X12451381Y-16730452D01*
X12441857Y-16739976D01*
X12432333Y-16730452D01*
X12441857Y-16720928D01*
X12441857Y-16739976D01*
X12575190Y-16539976D02*
X12594238Y-16539976D01*
X12613286Y-16549500D01*
X12622809Y-16559024D01*
X12632333Y-16578071D01*
X12641857Y-16616167D01*
X12641857Y-16663786D01*
X12632333Y-16701881D01*
X12622809Y-16720928D01*
X12613286Y-16730452D01*
X12594238Y-16739976D01*
X12575190Y-16739976D01*
X12556143Y-16730452D01*
X12546619Y-16720928D01*
X12537095Y-16701881D01*
X12527571Y-16663786D01*
X12527571Y-16616167D01*
X12537095Y-16578071D01*
X12546619Y-16559024D01*
X12556143Y-16549500D01*
X12575190Y-16539976D01*
X12737095Y-16739976D02*
X12775190Y-16739976D01*
X12794238Y-16730452D01*
X12803762Y-16720928D01*
X12822809Y-16692357D01*
X12832333Y-16654262D01*
X12832333Y-16578071D01*
X12822809Y-16559024D01*
X12813286Y-16549500D01*
X12794238Y-16539976D01*
X12756143Y-16539976D01*
X12737095Y-16549500D01*
X12727571Y-16559024D01*
X12718048Y-16578071D01*
X12718048Y-16625690D01*
X12727571Y-16644738D01*
X12737095Y-16654262D01*
X12756143Y-16663786D01*
X12794238Y-16663786D01*
X12813286Y-16654262D01*
X12822809Y-16644738D01*
X12832333Y-16625690D01*
X12946619Y-16625690D02*
X12927571Y-16616167D01*
X12918048Y-16606643D01*
X12908524Y-16587595D01*
X12908524Y-16578071D01*
X12918048Y-16559024D01*
X12927571Y-16549500D01*
X12946619Y-16539976D01*
X12984714Y-16539976D01*
X13003762Y-16549500D01*
X13013286Y-16559024D01*
X13022809Y-16578071D01*
X13022809Y-16587595D01*
X13013286Y-16606643D01*
X13003762Y-16616167D01*
X12984714Y-16625690D01*
X12946619Y-16625690D01*
X12927571Y-16635214D01*
X12918048Y-16644738D01*
X12908524Y-16663786D01*
X12908524Y-16701881D01*
X12918048Y-16720928D01*
X12927571Y-16730452D01*
X12946619Y-16739976D01*
X12984714Y-16739976D01*
X13003762Y-16730452D01*
X13013286Y-16720928D01*
X13022809Y-16701881D01*
X13022809Y-16663786D01*
X13013286Y-16644738D01*
X13003762Y-16635214D01*
X12984714Y-16625690D01*
X13194238Y-16606643D02*
X13194238Y-16739976D01*
X13146619Y-16530452D02*
X13099000Y-16673309D01*
X13222809Y-16673309D01*
X13289476Y-16539976D02*
X13289476Y-16578071D01*
X13365667Y-16539976D02*
X13365667Y-16578071D01*
X13660905Y-16816167D02*
X13651381Y-16806643D01*
X13632333Y-16778071D01*
X13622809Y-16759024D01*
X13613286Y-16730452D01*
X13603762Y-16682833D01*
X13603762Y-16644738D01*
X13613286Y-16597119D01*
X13622809Y-16568548D01*
X13632333Y-16549500D01*
X13651381Y-16520928D01*
X13660905Y-16511405D01*
X13727571Y-16559024D02*
X13737095Y-16549500D01*
X13756143Y-16539976D01*
X13803762Y-16539976D01*
X13822809Y-16549500D01*
X13832333Y-16559024D01*
X13841857Y-16578071D01*
X13841857Y-16597119D01*
X13832333Y-16625690D01*
X13718048Y-16739976D01*
X13841857Y-16739976D01*
X14079952Y-16739976D02*
X14079952Y-16539976D01*
X14165667Y-16739976D02*
X14165667Y-16635214D01*
X14156143Y-16616167D01*
X14137095Y-16606643D01*
X14108524Y-16606643D01*
X14089476Y-16616167D01*
X14079952Y-16625690D01*
X14289476Y-16739976D02*
X14270428Y-16730452D01*
X14260905Y-16720928D01*
X14251381Y-16701881D01*
X14251381Y-16644738D01*
X14260905Y-16625690D01*
X14270428Y-16616167D01*
X14289476Y-16606643D01*
X14318048Y-16606643D01*
X14337095Y-16616167D01*
X14346619Y-16625690D01*
X14356143Y-16644738D01*
X14356143Y-16701881D01*
X14346619Y-16720928D01*
X14337095Y-16730452D01*
X14318048Y-16739976D01*
X14289476Y-16739976D01*
X14470428Y-16739976D02*
X14451381Y-16730452D01*
X14441857Y-16711405D01*
X14441857Y-16539976D01*
X14622809Y-16730452D02*
X14603762Y-16739976D01*
X14565667Y-16739976D01*
X14546619Y-16730452D01*
X14537095Y-16711405D01*
X14537095Y-16635214D01*
X14546619Y-16616167D01*
X14565667Y-16606643D01*
X14603762Y-16606643D01*
X14622809Y-16616167D01*
X14632333Y-16635214D01*
X14632333Y-16654262D01*
X14537095Y-16673309D01*
X14708524Y-16730452D02*
X14727571Y-16739976D01*
X14765667Y-16739976D01*
X14784714Y-16730452D01*
X14794238Y-16711405D01*
X14794238Y-16701881D01*
X14784714Y-16682833D01*
X14765667Y-16673309D01*
X14737095Y-16673309D01*
X14718048Y-16663786D01*
X14708524Y-16644738D01*
X14708524Y-16635214D01*
X14718048Y-16616167D01*
X14737095Y-16606643D01*
X14765667Y-16606643D01*
X14784714Y-16616167D01*
X14860905Y-16816167D02*
X14870428Y-16806643D01*
X14889476Y-16778071D01*
X14899000Y-16759024D01*
X14908524Y-16730452D01*
X14918048Y-16682833D01*
X14918048Y-16644738D01*
X14908524Y-16597119D01*
X14899000Y-16568548D01*
X14889476Y-16549500D01*
X14870428Y-16520928D01*
X14860905Y-16511405D01*
X15222809Y-16816167D02*
X15213286Y-16806643D01*
X15194238Y-16778071D01*
X15184714Y-16759024D01*
X15175190Y-16730452D01*
X15165667Y-16682833D01*
X15165667Y-16644738D01*
X15175190Y-16597119D01*
X15184714Y-16568548D01*
X15194238Y-16549500D01*
X15213286Y-16520928D01*
X15222809Y-16511405D01*
X15299000Y-16606643D02*
X15299000Y-16739976D01*
X15299000Y-16625690D02*
X15308524Y-16616167D01*
X15327571Y-16606643D01*
X15356143Y-16606643D01*
X15375190Y-16616167D01*
X15384714Y-16635214D01*
X15384714Y-16739976D01*
X15508524Y-16739976D02*
X15489476Y-16730452D01*
X15479952Y-16720928D01*
X15470428Y-16701881D01*
X15470428Y-16644738D01*
X15479952Y-16625690D01*
X15489476Y-16616167D01*
X15508524Y-16606643D01*
X15537095Y-16606643D01*
X15556143Y-16616167D01*
X15565667Y-16625690D01*
X15575190Y-16644738D01*
X15575190Y-16701881D01*
X15565667Y-16720928D01*
X15556143Y-16730452D01*
X15537095Y-16739976D01*
X15508524Y-16739976D01*
X15632333Y-16606643D02*
X15708524Y-16606643D01*
X15660905Y-16539976D02*
X15660905Y-16711405D01*
X15670428Y-16730452D01*
X15689476Y-16739976D01*
X15708524Y-16739976D01*
X15927571Y-16606643D02*
X15927571Y-16806643D01*
X15927571Y-16616167D02*
X15946619Y-16606643D01*
X15984714Y-16606643D01*
X16003762Y-16616167D01*
X16013286Y-16625690D01*
X16022809Y-16644738D01*
X16022809Y-16701881D01*
X16013286Y-16720928D01*
X16003762Y-16730452D01*
X15984714Y-16739976D01*
X15946619Y-16739976D01*
X15927571Y-16730452D01*
X16137095Y-16739976D02*
X16118048Y-16730452D01*
X16108524Y-16711405D01*
X16108524Y-16539976D01*
X16299000Y-16739976D02*
X16299000Y-16635214D01*
X16289476Y-16616167D01*
X16270428Y-16606643D01*
X16232333Y-16606643D01*
X16213286Y-16616167D01*
X16299000Y-16730452D02*
X16279952Y-16739976D01*
X16232333Y-16739976D01*
X16213286Y-16730452D01*
X16203762Y-16711405D01*
X16203762Y-16692357D01*
X16213286Y-16673309D01*
X16232333Y-16663786D01*
X16279952Y-16663786D01*
X16299000Y-16654262D01*
X16365667Y-16606643D02*
X16441857Y-16606643D01*
X16394238Y-16539976D02*
X16394238Y-16711405D01*
X16403762Y-16730452D01*
X16422809Y-16739976D01*
X16441857Y-16739976D01*
X16584714Y-16730452D02*
X16565667Y-16739976D01*
X16527571Y-16739976D01*
X16508524Y-16730452D01*
X16499000Y-16711405D01*
X16499000Y-16635214D01*
X16508524Y-16616167D01*
X16527571Y-16606643D01*
X16565667Y-16606643D01*
X16584714Y-16616167D01*
X16594238Y-16635214D01*
X16594238Y-16654262D01*
X16499000Y-16673309D01*
X16765667Y-16739976D02*
X16765667Y-16539976D01*
X16765667Y-16730452D02*
X16746619Y-16739976D01*
X16708524Y-16739976D01*
X16689476Y-16730452D01*
X16679952Y-16720928D01*
X16670428Y-16701881D01*
X16670428Y-16644738D01*
X16679952Y-16625690D01*
X16689476Y-16616167D01*
X16708524Y-16606643D01*
X16746619Y-16606643D01*
X16765667Y-16616167D01*
X16841857Y-16816167D02*
X16851381Y-16806643D01*
X16870429Y-16778071D01*
X16879952Y-16759024D01*
X16889476Y-16730452D01*
X16899000Y-16682833D01*
X16899000Y-16644738D01*
X16889476Y-16597119D01*
X16879952Y-16568548D01*
X16870429Y-16549500D01*
X16851381Y-16520928D01*
X16841857Y-16511405D01*
M02*
